<?xml version="1.0" encoding="UTF-8"?>
<!DOCTYPE svg PUBLIC "-//W3C//DTD SVG 1.1//EN" "http://www.w3.org/Graphics/SVG/1.1/DTD/svg11.dtd">
<svg version="1.1" xmlns="http://www.w3.org/2000/svg" xmlns:xlink="http://www.w3.org/1999/xlink" x="0" y="0" width="432" height="732.024" viewBox="0, 0, 432, 732.024">
  <defs>
    <clipPath id="Clip_1">
      <path d="M142.992,342.725 L193.36,342.725 L193.36,576.102 L142.992,576.102 z M169.676,350.725 L166.676,350.725 L166.676,433.93 L149.65,445.483 C148.625,446.179 148.837,447.747 150.01,448.145 L181.191,458.725 L150.01,469.304 C148.653,469.765 148.653,471.685 150.01,472.145 L181.191,482.725 L150.01,493.304 C148.653,493.765 148.653,495.685 150.01,496.145 L181.191,506.725 L150.01,517.304 C148.858,517.695 148.626,519.224 149.611,519.939 L167.435,532.867 L167.435,568.102 L170.435,568.102 L170.435,532.102 C170.435,531.621 170.205,531.17 169.816,530.887 L153.721,519.213 L186.342,508.145 C187.699,507.685 187.699,505.765 186.342,505.304 L155.161,494.725 L186.342,484.145 C187.699,483.685 187.699,481.765 186.342,481.304 L155.161,470.725 L186.342,460.145 C187.699,459.685 187.699,457.765 186.342,457.304 L153.829,446.273 L169.018,435.966 C169.43,435.687 169.676,435.222 169.676,434.725 L169.676,350.725 z"/>
    </clipPath>
    <filter id="Shadow_2">
      <feGaussianBlur in="SourceAlpha" stdDeviation="2.5"/>
      <feOffset dx="0" dy="2" result="offsetblur"/>
      <feFlood flood-color="#000000"/>
      <feComposite in2="offsetblur" operator="in"/>
    </filter>
    <clipPath id="Clip_3">
      <path d="M144.56,1.121 L191.36,1.121 L191.36,419.602 L144.56,419.602 z M182.46,9.121 L153.46,9.121 C151.858,9.121 150.56,19.132 150.56,31.481 L150.56,389.242 C150.56,401.591 151.858,411.602 153.46,411.602 L182.46,411.602 C184.061,411.602 185.36,401.591 185.36,389.242 L185.36,31.481 C185.36,19.132 184.061,9.121 182.46,9.121 z"/>
    </clipPath>
    <filter id="Shadow_4">
      <feGaussianBlur in="SourceAlpha" stdDeviation="2.5"/>
      <feOffset dx="0" dy="2" result="offsetblur"/>
      <feFlood flood-color="#000000"/>
      <feComposite in2="offsetblur" operator="in"/>
    </filter>
    <linearGradient id="Gradient_1" gradientUnits="userSpaceOnUse" x1="150.56" y1="210.361" x2="185.36" y2="210.361">
      <stop offset="0" stop-color="#000000"/>
      <stop offset="0.05" stop-color="#686868"/>
      <stop offset="0.251" stop-color="#CBCBCB"/>
      <stop offset="0.403" stop-color="#DDDDDD"/>
      <stop offset="0.602" stop-color="#DDDDDD"/>
      <stop offset="0.769" stop-color="#C1C1C1"/>
      <stop offset="0.952" stop-color="#7D7D7D"/>
      <stop offset="1" stop-color="#383838"/>
    </linearGradient>
    <clipPath id="Clip_5">
      <path d="M106.45,106.842 L229.902,106.842 L229.902,237.361 L106.45,237.361 z M214.198,114.842 L122.154,114.842 C116.826,114.842 112.45,117.84 112.45,121.648 L112.45,222.555 C112.45,226.363 116.826,229.361 122.154,229.361 L214.198,229.361 C219.526,229.361 223.902,226.363 223.902,222.555 L223.902,121.648 C223.902,117.84 219.526,114.842 214.198,114.842 z"/>
    </clipPath>
    <filter id="Shadow_6">
      <feGaussianBlur in="SourceAlpha" stdDeviation="2.5"/>
      <feOffset dx="0" dy="2" result="offsetblur"/>
      <feFlood flood-color="#000000"/>
      <feComposite in2="offsetblur" operator="in"/>
    </filter>
    <linearGradient id="Gradient_2" gradientUnits="userSpaceOnUse" x1="112.95" y1="172.102" x2="223.402" y2="172.102">
      <stop offset="0" stop-color="#686868"/>
      <stop offset="0.153" stop-color="#CBCBCB"/>
      <stop offset="0.501" stop-color="#DDDDDD"/>
      <stop offset="0.851" stop-color="#C1C1C1"/>
      <stop offset="1" stop-color="#7D7D7D"/>
    </linearGradient>
    <clipPath id="Clip_7">
      <path d="M153.897,546.602 L183.022,546.602 L183.022,579.727 L153.897,579.727 z M168.46,554.602 C163.731,554.602 159.897,558.435 159.897,563.164 C159.897,567.893 163.731,571.727 168.46,571.727 C173.189,571.727 177.022,567.893 177.022,563.164 C177.022,558.435 173.189,554.602 168.46,554.602 z"/>
    </clipPath>
    <filter id="Shadow_8">
      <feGaussianBlur in="SourceAlpha" stdDeviation="2.5"/>
      <feOffset dx="0" dy="2" result="offsetblur"/>
      <feFlood flood-color="#000000"/>
      <feComposite in2="offsetblur" operator="in"/>
    </filter>
  </defs>
  <g id="Layer_1">
    <g>
      <path d="M169.676,350.725 L169.676,434.725 C169.676,435.222 169.43,435.687 169.018,435.966 L153.829,446.273 L186.342,457.304 C187.699,457.765 187.699,459.685 186.342,460.145 L155.161,470.725 L186.342,481.304 C187.699,481.765 187.699,483.685 186.342,484.145 L155.161,494.725 L186.342,505.304 C187.699,505.765 187.699,507.685 186.342,508.145 L153.721,519.213 L169.816,530.887 C170.205,531.17 170.435,531.621 170.435,532.102 L170.435,568.102 L167.435,568.102 L167.435,532.867 L149.611,519.939 C148.626,519.224 148.858,517.695 150.01,517.304 L181.191,506.725 L150.01,496.145 C148.653,495.685 148.653,493.765 150.01,493.304 L181.191,482.725 L150.01,472.145 C148.653,471.685 148.653,469.765 150.01,469.304 L181.191,458.725 L150.01,448.145 C148.837,447.747 148.625,446.179 149.65,445.483 L166.676,433.93 L166.676,350.725 L169.676,350.725 z" clip-path="url(#Clip_1)" filter="url(#Shadow_2)" fill="rgba(0,0,0,0.75)"/>
      <path d="M168.935,568.102 L168.935,532.102 L150.492,518.725 L185.86,506.725 L150.492,494.725 L185.86,482.725 L150.492,470.725 L185.86,458.725 L150.492,446.725 L168.176,434.725 L168.176,350.725" fill-opacity="0" stroke="#000000" stroke-width="3" stroke-linejoin="round"/>
    </g>
    <g>
      <path d="M182.46,9.121 C184.061,9.121 185.36,19.132 185.36,31.481 L185.36,389.242 C185.36,401.591 184.061,411.602 182.46,411.602 L153.46,411.602 C151.858,411.602 150.56,401.591 150.56,389.242 L150.56,31.481 C150.56,19.132 151.858,9.121 153.46,9.121 L182.46,9.121 z" clip-path="url(#Clip_3)" filter="url(#Shadow_4)" fill="rgba(0,0,0,0.75)"/>
      <path d="M153.46,9.121 L182.46,9.121 C184.061,9.121 185.36,19.132 185.36,31.481 L185.36,389.242 C185.36,401.591 184.061,411.602 182.46,411.602 L153.46,411.602 C151.858,411.602 150.56,401.591 150.56,389.242 L150.56,31.481 C150.56,19.132 151.858,9.121 153.46,9.121 z" fill="url(#Gradient_1)"/>
    </g>
    <g>
      <g>
        <path d="M214.198,114.842 C219.526,114.842 223.902,117.84 223.902,121.648 L223.902,222.555 C223.902,226.363 219.526,229.361 214.198,229.361 L122.154,229.361 C116.826,229.361 112.45,226.363 112.45,222.555 L112.45,121.648 C112.45,117.84 116.826,114.842 122.154,114.842 L214.198,114.842 z" clip-path="url(#Clip_5)" filter="url(#Shadow_6)" fill="rgba(0,0,0,0.75)"/>
        <path d="M122.154,115.342 L214.198,115.342 C219.281,115.342 223.402,118.165 223.402,121.649 L223.402,222.555 C223.402,226.038 219.281,228.861 214.198,228.861 L122.154,228.861 C117.071,228.861 112.95,226.038 112.95,222.555 L112.95,121.649 C112.95,118.165 117.071,115.342 122.154,115.342 z" fill="url(#Gradient_2)"/>
        <path d="M122.154,115.342 L214.198,115.342 C219.281,115.342 223.402,118.165 223.402,121.649 L223.402,222.555 C223.402,226.038 219.281,228.861 214.198,228.861 L122.154,228.861 C117.071,228.861 112.95,226.038 112.95,222.555 L112.95,121.649 C112.95,118.165 117.071,115.342 122.154,115.342 z" fill-opacity="0" stroke="#515151" stroke-width="1"/>
      </g>
      <path d="M121.654,114.842 L213.698,114.842 C218.781,114.842 222.902,117.665 222.902,121.149 L222.902,222.055 C222.902,225.538 218.781,228.361 213.698,228.361 L121.654,228.361 C116.571,228.361 112.45,225.538 112.45,222.055 L112.45,121.149 C112.45,117.665 116.571,114.842 121.654,114.842 z" fill="#0433FF" fill-opacity="0.288"/>
    </g>
    <text transform="matrix(1, 0, 0, 1, 129.161, 478.102)">
      <tspan x="-12.768" y="13.5" font-family="CMUSerif-BoldItalic" font-size="48" fill="#000000">k</tspan>
    </text>
    <path d="M246.492,172.102 L306.492,172.102" fill-opacity="0" stroke="#000000" stroke-width="5" stroke-linecap="round" stroke-linejoin="round"/>
    <g>
      <text transform="matrix(1, 0, 0, 1, 158.686, 167.819)">
        <tspan x="-22.656" y="13.5" font-family="CMUSerif-BoldItalic" font-size="48" fill="#000000">m</tspan>
      </text>
      <text transform="matrix(1, 0, 0, 1, 189.611, 178.319)">
        <tspan x="-10.047" y="10" font-family="CMUSerif-BoldItalic" font-size="34" fill="#000000">a</tspan>
      </text>
    </g>
    <g>
      <text transform="matrix(1, 0, 0, 1, 272.201, 292.602)">
        <tspan x="-13.44" y="14" font-family="CMUSerif-BoldItalic" font-size="48" fill="#000000">x</tspan>
      </text>
      <text transform="matrix(1, 0, 0, 1, 297.824, 304.602)">
        <tspan x="-10.047" y="9" font-family="CMUSerif-BoldItalic" font-size="34" fill="#000000">a</tspan>
      </text>
    </g>
    <g>
      <path d="M168.46,554.602 C173.189,554.602 177.022,558.435 177.022,563.164 C177.022,567.893 173.189,571.727 168.46,571.727 C163.731,571.727 159.897,567.893 159.897,563.164 C159.897,558.435 163.731,554.602 168.46,554.602 z" clip-path="url(#Clip_7)" filter="url(#Shadow_8)" fill="rgba(0,0,0,0.75)"/>
      <path d="M168.46,570.227 C164.559,570.227 161.397,567.065 161.397,563.164 C161.397,559.264 164.559,556.102 168.46,556.102 C172.36,556.102 175.522,559.264 175.522,563.164 C175.522,567.065 172.36,570.227 168.46,570.227 z" fill="#000000"/>
      <path d="M168.46,570.227 C164.559,570.227 161.397,567.065 161.397,563.164 C161.397,559.264 164.559,556.102 168.46,556.102 C172.36,556.102 175.522,559.264 175.522,563.164 C175.522,567.065 172.36,570.227 168.46,570.227 z" fill-opacity="0" stroke="#000000" stroke-width="3"/>
    </g>
    <g>
      <path d="M6.492,700.101 L426.508,700.157" fill-opacity="0" stroke="#000000" stroke-width="5" stroke-linecap="square"/>
      <path d="M30.492,700.101 L6.492,724.101" fill-opacity="0" stroke="#000000" stroke-width="5"/>
      <path d="M66.492,700.101 L42.492,724.101" fill-opacity="0" stroke="#000000" stroke-width="5"/>
      <path d="M102.492,700.101 L78.492,724.101" fill-opacity="0" stroke="#000000" stroke-width="5"/>
      <path d="M138.492,700.101 L114.492,724.101" fill-opacity="0" stroke="#000000" stroke-width="5"/>
      <path d="M174.492,700.101 L150.492,724.101" fill-opacity="0" stroke="#000000" stroke-width="5"/>
      <path d="M210.492,700.101 L186.492,724.101" fill-opacity="0" stroke="#000000" stroke-width="5"/>
      <path d="M246.492,700.101 L222.492,724.101" fill-opacity="0" stroke="#000000" stroke-width="5"/>
      <path d="M282.492,700.101 L258.492,724.101" fill-opacity="0" stroke="#000000" stroke-width="5"/>
      <path d="M318.492,700.101 L294.492,724.101" fill-opacity="0" stroke="#000000" stroke-width="5"/>
      <path d="M354.492,700.101 L330.492,724.101" fill-opacity="0" stroke="#000000" stroke-width="5"/>
      <path d="M390.492,700.101 L366.492,724.101" fill-opacity="0" stroke="#000000" stroke-width="5"/>
      <path d="M426.492,700.101 L402.492,724.101" fill-opacity="0" stroke="#000000" stroke-width="5"/>
    </g>
    <path d="M198.492,412.102 L306.492,412.102" fill-opacity="0" stroke="#000000" stroke-width="5" stroke-linecap="round"/>
    <g>
      <g>
        <path d="M282.084,269.5 L282.084,188.902" fill-opacity="0" stroke="#000000" stroke-width="5" stroke-linecap="square"/>
        <path d="M282.084,188.902 L287.484,192.502 L282.084,178.102 L276.684,192.502 z" fill="#000000" fill-opacity="1" stroke="#000000" stroke-width="5" stroke-opacity="1"/>
      </g>
      <path d="M282.084,322.193 L282.33,412.102" fill-opacity="0" stroke="#000000" stroke-width="5"/>
    </g>
    <text transform="matrix(1, 0, 0, 1, 280.62, 559.105)">
      <tspan x="-13.44" y="14" font-family="CMUSerif-BoldItalic" font-size="48" fill="#000000">x</tspan>
    </text>
    <g>
      <g>
        <path d="M282.084,539.182 L282.084,431.909" fill-opacity="0" stroke="#000000" stroke-width="5" stroke-linecap="square"/>
        <path d="M282.084,431.909 L287.484,435.509 L282.084,421.109 L276.684,435.509 z" fill="#000000" fill-opacity="1" stroke="#000000" stroke-width="5" stroke-opacity="1"/>
      </g>
      <path d="M282.084,586.532 L282.084,700.102" fill-opacity="0" stroke="#000000" stroke-width="5"/>
    </g>
    <g>
      <text transform="matrix(1, 0, 0, 1, 73.646, 375.102)">
        <tspan x="-22.656" y="13.5" font-family="CMUSerif-BoldItalic" font-size="48" fill="#000000">m</tspan>
      </text>
      <text transform="matrix(1, 0, 0, 1, 104.57, 385.602)">
        <tspan x="-5.049" y="10" font-family="CMUSerif-BoldItalic" font-size="34" fill="#000000">l</tspan>
      </text>
    </g>
    <g>
      <path d="M159.465,310.078 C147.882,324.009 126.234,349.533 118.972,354.633 C97.14,369.964 149.086,284.968 117.085,320.744 C99.839,340.024 106.12,333.097 82.12,359.929" fill-opacity="0" stroke="#000000" stroke-width="2"/>
      <path d="M162.242,312.368 L165.571,302.67 L156.687,307.788 z" fill="#000000" fill-opacity="1" stroke="#000000" stroke-width="2" stroke-opacity="1"/>
    </g>
  </g>
</svg>
