<?xml version="1.0" encoding="utf-8" standalone="no"?>
<!DOCTYPE svg PUBLIC "-//W3C//DTD SVG 1.1//EN"
  "http://www.w3.org/Graphics/SVG/1.1/DTD/svg11.dtd">
<svg height="292.4pt" version="1.1" viewBox="0 0 436.29142 292.4" width="436.29142pt" xmlns="http://www.w3.org/2000/svg" xmlns:xlink="http://www.w3.org/1999/xlink">
 <metadata>
  <rdf:RDF xmlns:cc="http://creativecommons.org/ns#" xmlns:dc="http://purl.org/dc/elements/1.1/" xmlns:rdf="http://www.w3.org/1999/02/22-rdf-syntax-ns#">
   <cc:Work>
    <dc:type rdf:resource="http://purl.org/dc/dcmitype/StillImage"/>
    <dc:date>2022-02-26T14:55:41.621649</dc:date>
    <dc:format>image/svg+xml</dc:format>
    <dc:creator>
     <cc:Agent>
      <dc:title>Matplotlib v3.4.2, https://matplotlib.org/</dc:title>
     </cc:Agent>
    </dc:creator>
   </cc:Work>
  </rdf:RDF>
 </metadata>
 <defs>
  <style type="text/css">*{stroke-linecap:butt;stroke-linejoin:round;}</style>
 </defs>
 <g id="figure_1">
  <g id="patch_1">
   <path d="M 0 292.4 
L 436.29142 292.4 
L 436.29142 0 
L 0 0 
z
" style="fill:none;"/>
  </g>
  <g id="axes_1">
   <g id="patch_2">
    <path d="M 82.401787 236.05972 
L 427.71797 236.05972 
L 427.71797 13.852984 
L 82.401787 13.852984 
z
" style="fill:none;"/>
   </g>
   <g id="PolyCollection_1">
    <path clip-path="url(#p683b460eb1)" d="M 98.097977 208.792327 
L 98.097977 208.792327 
L 104.504586 210.447582 
L 110.911194 212.926565 
L 117.317802 214.937215 
L 123.72441 213.95847 
L 130.131018 210.701674 
L 136.537627 209.062381 
L 142.944235 210.861987 
L 149.350843 212.478783 
L 155.757451 212.904522 
L 162.16406 213.142507 
L 168.570668 214.396046 
L 174.977276 216.254757 
L 181.383884 217.327224 
L 187.790492 216.855782 
L 194.197101 215.898811 
L 200.603709 212.730051 
L 207.010317 212.277856 
L 213.416925 212.977995 
L 219.823533 214.37039 
L 226.230142 212.799169 
L 232.63675 208.975164 
L 239.043358 204.121696 
L 245.449966 199.497936 
L 251.856575 197.909097 
L 258.263183 200.615038 
L 264.669791 198.707124 
L 271.076399 191.26338 
L 277.483007 171.523662 
L 283.889616 169.157934 
L 290.296224 168.315454 
L 296.702832 169.601761 
L 303.10944 173.063399 
L 309.516048 178.767936 
L 315.922657 186.796659 
L 322.329265 197.237503 
L 328.735873 187.393558 
L 335.142481 155.869271 
L 341.54909 172.474858 
L 347.955698 191.008167 
L 354.362306 186.113157 
L 360.768914 206.335122 
L 360.768914 134.485246 
L 360.768914 134.485246 
L 354.362306 115.413128 
L 347.955698 112.316442 
L 341.54909 99.154064 
L 335.142481 88.817893 
L 328.735873 82.245066 
L 322.329265 86.203219 
L 315.922657 82.355532 
L 309.516048 80.152658 
L 303.10944 79.682534 
L 296.702832 81.026444 
L 290.296224 84.251958 
L 283.889616 89.405614 
L 277.483007 96.047463 
L 271.076399 109.344396 
L 264.669791 124.723147 
L 258.263183 139.126713 
L 251.856575 148.900199 
L 245.449966 157.092766 
L 239.043358 163.07265 
L 232.63675 170.636052 
L 226.230142 174.798383 
L 219.823533 190.979427 
L 213.416925 190.179307 
L 207.010317 190.027338 
L 200.603709 190.559539 
L 194.197101 191.102964 
L 187.790492 193.494885 
L 181.383884 193.875209 
L 174.977276 194.707099 
L 168.570668 195.889961 
L 162.16406 196.793482 
L 155.757451 197.436319 
L 149.350843 198.605349 
L 142.944235 200.933774 
L 136.537627 204.196232 
L 130.131018 205.437803 
L 123.72441 205.229198 
L 117.317802 205.563526 
L 110.911194 206.652046 
L 104.504586 207.935114 
L 98.097977 208.792327 
z
" style="fill:#e41a1c;fill-opacity:0.2;"/>
   </g>
   <g id="PolyCollection_2">
    <path clip-path="url(#p683b460eb1)" d="M 98.097977 208.792327 
L 98.097977 208.792327 
L 104.504586 210.63188 
L 110.911194 213.254031 
L 117.317802 215.296733 
L 123.72441 213.276768 
L 130.131018 210.363243 
L 136.537627 209.124525 
L 142.944235 207.544862 
L 149.350843 204.785138 
L 155.757451 200.787067 
L 162.16406 196.780888 
L 168.570668 194.252172 
L 174.977276 193.924744 
L 181.383884 196.646159 
L 187.790492 202.032907 
L 194.197101 207.863403 
L 200.603709 215.488429 
L 207.010317 223.116772 
L 213.416925 228.460005 
L 219.823533 225.590842 
L 226.230142 217.245192 
L 232.63675 206.93469 
L 239.043358 196.673062 
L 245.449966 188.798242 
L 251.856575 180.182744 
L 258.263183 172.65211 
L 264.669791 167.173653 
L 271.076399 159.756951 
L 277.483007 153.046542 
L 283.889616 142.426722 
L 290.296224 137.574277 
L 296.702832 134.362094 
L 303.10944 133.018052 
L 309.516048 133.494942 
L 315.922657 135.85141 
L 322.329265 140.306132 
L 328.735873 140.584502 
L 335.142481 142.532738 
L 341.54909 145.452866 
L 347.955698 155.526367 
L 354.362306 159.493327 
L 360.768914 163.784175 
L 367.175522 173.541763 
L 373.582131 169.378807 
L 379.988739 181.326909 
L 386.395347 194.396753 
L 392.801955 205.905098 
L 399.208563 177.046771 
L 405.615172 195.547776 
L 405.615172 181.045182 
L 405.615172 181.045182 
L 399.208563 171.386785 
L 392.801955 178.244579 
L 386.395347 168.784574 
L 379.988739 154.464081 
L 373.582131 139.746454 
L 367.175522 126.710855 
L 360.768914 115.512436 
L 354.362306 105.480421 
L 347.955698 97.403617 
L 341.54909 91.034933 
L 335.142481 84.945488 
L 328.735873 80.502018 
L 322.329265 77.287644 
L 315.922657 76.465707 
L 309.516048 76.678526 
L 303.10944 78.023535 
L 296.702832 80.511617 
L 290.296224 84.127953 
L 283.889616 89.001833 
L 277.483007 94.683695 
L 271.076399 104.218963 
L 264.669791 114.704323 
L 258.263183 125.982312 
L 251.856575 136.703249 
L 245.449966 147.151136 
L 239.043358 157.711775 
L 232.63675 166.599598 
L 226.230142 174.571866 
L 219.823533 181.366931 
L 213.416925 184.591163 
L 207.010317 183.972921 
L 200.603709 180.808597 
L 194.197101 177.677262 
L 187.790492 175.968603 
L 181.383884 175.568315 
L 174.977276 176.371466 
L 168.570668 178.109331 
L 162.16406 180.612835 
L 155.757451 184.27805 
L 149.350843 188.625483 
L 142.944235 193.860201 
L 136.537627 199.739567 
L 130.131018 205.726963 
L 123.72441 209.053153 
L 117.317802 209.235377 
L 110.911194 208.746208 
L 104.504586 208.60649 
L 98.097977 208.792327 
z
" style="fill:#377eb8;fill-opacity:0.2;"/>
   </g>
   <g id="line2d_1">
    <path clip-path="url(#p683b460eb1)" d="M 98.097977 208.792327 
L 104.504586 209.191348 
L 110.911194 209.789306 
L 117.317802 210.250371 
L 123.72441 209.593834 
L 130.131018 208.069739 
L 136.537627 206.629307 
L 142.944235 205.89788 
L 149.350843 205.542066 
L 155.757451 205.170421 
L 162.16406 204.967994 
L 168.570668 205.143004 
L 174.977276 205.480928 
L 181.383884 205.601216 
L 187.790492 205.175333 
L 194.197101 203.500887 
L 200.603709 201.644795 
L 207.010317 201.152597 
L 213.416925 201.578651 
L 219.823533 202.674908 
L 226.230142 193.798776 
L 232.63675 189.805608 
L 239.043358 183.597173 
L 245.449966 178.295351 
L 251.856575 173.404648 
L 258.263183 169.870876 
L 264.669791 161.715135 
L 271.076399 150.303888 
L 277.483007 133.785563 
L 283.889616 129.281774 
L 290.296224 126.283706 
L 296.702832 125.314102 
L 303.10944 126.372966 
L 309.516048 129.460297 
L 315.922657 134.576095 
L 322.329265 141.720361 
L 328.735873 134.819312 
L 335.142481 122.343582 
L 341.54909 135.814461 
L 347.955698 151.662305 
L 354.362306 150.763143 
L 360.768914 170.410184 
L 367.175522 167.060512 
L 373.582131 191.926194 
" style="fill:none;stroke:#e41a1c;stroke-linecap:square;stroke-width:2;"/>
   </g>
   <g id="line2d_2">
    <path clip-path="url(#p683b460eb1)" d="M 98.097977 208.792327 
L 104.504586 209.619185 
L 110.911194 211.00012 
L 117.317802 212.266055 
L 123.72441 211.164961 
L 130.131018 208.045103 
L 136.537627 204.432046 
L 142.944235 200.702531 
L 149.350843 196.70531 
L 155.757451 192.532558 
L 162.16406 188.696861 
L 168.570668 186.180752 
L 174.977276 185.148105 
L 181.383884 186.107237 
L 187.790492 189.000755 
L 194.197101 192.770332 
L 200.603709 198.148513 
L 207.010317 203.544847 
L 213.416925 206.525584 
L 219.823533 203.478886 
L 226.230142 195.908529 
L 232.63675 186.767144 
L 239.043358 177.192419 
L 245.449966 167.974689 
L 251.856575 158.442997 
L 258.263183 149.317211 
L 264.669791 140.938988 
L 271.076399 131.987957 
L 277.483007 123.865118 
L 283.889616 115.714277 
L 290.296224 110.851115 
L 296.702832 107.436856 
L 303.10944 105.520794 
L 309.516048 105.086734 
L 315.922657 106.158558 
L 322.329265 108.796888 
L 328.735873 110.54326 
L 335.142481 113.739113 
L 341.54909 118.2439 
L 347.955698 126.464992 
L 354.362306 132.486874 
L 360.768914 139.648306 
L 367.175522 150.126309 
L 373.582131 154.56263 
L 379.988739 167.895495 
L 386.395347 181.590664 
L 392.801955 192.074839 
L 399.208563 174.216778 
L 405.615172 188.296479 
L 412.02178 195.628125 
" style="fill:none;stroke:#377eb8;stroke-dasharray:12,12;stroke-dashoffset:0;stroke-linecap:round;stroke-linejoin:miter;stroke-width:2;"/>
   </g>
   <g id="patch_3">
    <path d="M 82.401787 236.05972 
L 82.401787 13.852984 
" style="fill:none;stroke:#000000;stroke-linecap:square;stroke-linejoin:miter;stroke-width:0.8;"/>
   </g>
   <g id="patch_4">
    <path d="M 82.401787 236.05972 
L 427.71797 236.05972 
" style="fill:none;stroke:#000000;stroke-linecap:square;stroke-linejoin:miter;stroke-width:0.8;"/>
   </g>
   <g id="matplotlib.axis_1">
    <g id="xtick_1">
     <g id="line2d_3">
      <path clip-path="url(#p683b460eb1)" d="M 98.097977 236.05972 
L 98.097977 13.852984 
" style="fill:none;stroke:#bfbfbf;stroke-dasharray:0.8,2.4;stroke-dashoffset:0;stroke-linecap:round;stroke-linejoin:miter;stroke-width:0.8;"/>
     </g>
     <g id="line2d_4">
      <defs>
       <path d="M 0 0 
L 0 3.5 
" id="m341197c71b" style="stroke:#000000;stroke-width:0.8;"/>
      </defs>
      <g>
       <use style="stroke:#000000;stroke-width:0.8;" x="98.097977" xlink:href="#m341197c71b" y="236.05972"/>
      </g>
     </g>
     <g id="text_1">
      <!-- $\mathdefault{0.0}$ -->
      <g transform="translate(87.434946 256.365688)scale(0.18 -0.18)">
       <defs>
        <path d="M 2688 2025 
C 2688 2416 2682 3080 2413 3591 
C 2176 4039 1798 4198 1466 4198 
C 1158 4198 768 4058 525 3597 
C 269 3118 243 2524 243 2025 
C 243 1661 250 1106 448 619 
C 723 -39 1216 -128 1466 -128 
C 1760 -128 2208 -7 2470 600 
C 2662 1042 2688 1559 2688 2025 
z
M 1466 -26 
C 1056 -26 813 325 723 812 
C 653 1188 653 1738 653 2096 
C 653 2588 653 2997 736 3387 
C 858 3929 1216 4096 1466 4096 
C 1728 4096 2067 3923 2189 3400 
C 2272 3036 2278 2607 2278 2096 
C 2278 1680 2278 1169 2202 792 
C 2067 95 1690 -26 1466 -26 
z
" id="CMR17-30" transform="scale(0.015625)"/>
        <path d="M 1178 307 
C 1178 492 1024 619 870 619 
C 685 619 557 466 557 313 
C 557 128 710 0 864 0 
C 1050 0 1178 153 1178 307 
z
" id="CMMI12-3a" transform="scale(0.015625)"/>
       </defs>
       <use transform="scale(0.996264)" xlink:href="#CMR17-30"/>
       <use transform="translate(45.690477 0)scale(0.996264)" xlink:href="#CMMI12-3a"/>
       <use transform="translate(72.787654 0)scale(0.996264)" xlink:href="#CMR17-30"/>
      </g>
     </g>
    </g>
    <g id="xtick_2">
     <g id="line2d_5">
      <path clip-path="url(#p683b460eb1)" d="M 162.16406 236.05972 
L 162.16406 13.852984 
" style="fill:none;stroke:#bfbfbf;stroke-dasharray:0.8,2.4;stroke-dashoffset:0;stroke-linecap:round;stroke-linejoin:miter;stroke-width:0.8;"/>
     </g>
     <g id="line2d_6">
      <g>
       <use style="stroke:#000000;stroke-width:0.8;" x="162.16406" xlink:href="#m341197c71b" y="236.05972"/>
      </g>
     </g>
     <g id="text_2">
      <!-- $\mathdefault{0.1}$ -->
      <g transform="translate(151.501028 256.365688)scale(0.18 -0.18)">
       <defs>
        <path d="M 1702 4058 
C 1702 4192 1696 4192 1606 4192 
C 1357 3916 979 3827 621 3827 
C 602 3827 570 3827 563 3808 
C 557 3795 557 3782 557 3648 
C 755 3648 1088 3686 1344 3839 
L 1344 461 
C 1344 236 1331 160 781 160 
L 589 160 
L 589 0 
C 896 0 1216 0 1523 0 
C 1830 0 2150 0 2458 0 
L 2458 160 
L 2266 160 
C 1715 160 1702 230 1702 458 
L 1702 4058 
z
" id="CMR17-31" transform="scale(0.015625)"/>
       </defs>
       <use transform="scale(0.996264)" xlink:href="#CMR17-30"/>
       <use transform="translate(45.690477 0)scale(0.996264)" xlink:href="#CMMI12-3a"/>
       <use transform="translate(72.787654 0)scale(0.996264)" xlink:href="#CMR17-31"/>
      </g>
     </g>
    </g>
    <g id="xtick_3">
     <g id="line2d_7">
      <path clip-path="url(#p683b460eb1)" d="M 226.230142 236.05972 
L 226.230142 13.852984 
" style="fill:none;stroke:#bfbfbf;stroke-dasharray:0.8,2.4;stroke-dashoffset:0;stroke-linecap:round;stroke-linejoin:miter;stroke-width:0.8;"/>
     </g>
     <g id="line2d_8">
      <g>
       <use style="stroke:#000000;stroke-width:0.8;" x="226.230142" xlink:href="#m341197c71b" y="236.05972"/>
      </g>
     </g>
     <g id="text_3">
      <!-- $\mathdefault{0.2}$ -->
      <g transform="translate(215.56711 256.365688)scale(0.18 -0.18)">
       <defs>
        <path d="M 2669 989 
L 2554 989 
C 2490 536 2438 459 2413 420 
C 2381 369 1920 369 1830 369 
L 602 369 
C 832 619 1280 1072 1824 1597 
C 2214 1967 2669 2402 2669 3035 
C 2669 3790 2067 4224 1395 4224 
C 691 4224 262 3604 262 3030 
C 262 2780 448 2748 525 2748 
C 589 2748 781 2787 781 3010 
C 781 3207 614 3264 525 3264 
C 486 3264 448 3258 422 3245 
C 544 3790 915 4058 1306 4058 
C 1862 4058 2227 3617 2227 3035 
C 2227 2479 1901 2000 1536 1584 
L 262 146 
L 262 0 
L 2515 0 
L 2669 989 
z
" id="CMR17-32" transform="scale(0.015625)"/>
       </defs>
       <use transform="scale(0.996264)" xlink:href="#CMR17-30"/>
       <use transform="translate(45.690477 0)scale(0.996264)" xlink:href="#CMMI12-3a"/>
       <use transform="translate(72.787654 0)scale(0.996264)" xlink:href="#CMR17-32"/>
      </g>
     </g>
    </g>
    <g id="xtick_4">
     <g id="line2d_9">
      <path clip-path="url(#p683b460eb1)" d="M 290.296224 236.05972 
L 290.296224 13.852984 
" style="fill:none;stroke:#bfbfbf;stroke-dasharray:0.8,2.4;stroke-dashoffset:0;stroke-linecap:round;stroke-linejoin:miter;stroke-width:0.8;"/>
     </g>
     <g id="line2d_10">
      <g>
       <use style="stroke:#000000;stroke-width:0.8;" x="290.296224" xlink:href="#m341197c71b" y="236.05972"/>
      </g>
     </g>
     <g id="text_4">
      <!-- $\mathdefault{0.3}$ -->
      <g transform="translate(279.633192 256.365688)scale(0.18 -0.18)">
       <defs>
        <path d="M 1414 2157 
C 1984 2157 2234 1662 2234 1090 
C 2234 320 1824 25 1453 25 
C 1114 25 563 194 390 693 
C 422 680 454 680 486 680 
C 640 680 755 782 755 948 
C 755 1133 614 1216 486 1216 
C 378 1216 211 1165 211 926 
C 211 335 787 -128 1466 -128 
C 2176 -128 2720 430 2720 1085 
C 2720 1707 2208 2157 1600 2227 
C 2086 2328 2554 2756 2554 3329 
C 2554 3820 2048 4179 1472 4179 
C 890 4179 378 3829 378 3329 
C 378 3110 544 3072 627 3072 
C 762 3072 877 3155 877 3321 
C 877 3486 762 3569 627 3569 
C 602 3569 570 3569 544 3557 
C 730 3959 1235 4032 1459 4032 
C 1683 4032 2106 3925 2106 3320 
C 2106 3143 2080 2828 1862 2550 
C 1670 2304 1453 2304 1242 2284 
C 1210 2284 1062 2269 1037 2269 
C 992 2263 966 2257 966 2208 
C 966 2163 973 2157 1101 2157 
L 1414 2157 
z
" id="CMR17-33" transform="scale(0.015625)"/>
       </defs>
       <use transform="scale(0.996264)" xlink:href="#CMR17-30"/>
       <use transform="translate(45.690477 0)scale(0.996264)" xlink:href="#CMMI12-3a"/>
       <use transform="translate(72.787654 0)scale(0.996264)" xlink:href="#CMR17-33"/>
      </g>
     </g>
    </g>
    <g id="xtick_5">
     <g id="line2d_11">
      <path clip-path="url(#p683b460eb1)" d="M 354.362306 236.05972 
L 354.362306 13.852984 
" style="fill:none;stroke:#bfbfbf;stroke-dasharray:0.8,2.4;stroke-dashoffset:0;stroke-linecap:round;stroke-linejoin:miter;stroke-width:0.8;"/>
     </g>
     <g id="line2d_12">
      <g>
       <use style="stroke:#000000;stroke-width:0.8;" x="354.362306" xlink:href="#m341197c71b" y="236.05972"/>
      </g>
     </g>
     <g id="text_5">
      <!-- $\mathdefault{0.4}$ -->
      <g transform="translate(343.699274 256.365688)scale(0.18 -0.18)">
       <defs>
        <path d="M 2150 4122 
C 2150 4256 2144 4256 2029 4256 
L 128 1254 
L 128 1088 
L 1779 1088 
L 1779 457 
C 1779 224 1766 160 1318 160 
L 1197 160 
L 1197 0 
C 1402 0 1747 0 1965 0 
C 2182 0 2528 0 2733 0 
L 2733 160 
L 2611 160 
C 2163 160 2150 224 2150 457 
L 2150 1088 
L 2803 1088 
L 2803 1254 
L 2150 1254 
L 2150 4122 
z
M 1798 3703 
L 1798 1254 
L 256 1254 
L 1798 3703 
z
" id="CMR17-34" transform="scale(0.015625)"/>
       </defs>
       <use transform="scale(0.996264)" xlink:href="#CMR17-30"/>
       <use transform="translate(45.690477 0)scale(0.996264)" xlink:href="#CMMI12-3a"/>
       <use transform="translate(72.787654 0)scale(0.996264)" xlink:href="#CMR17-34"/>
      </g>
     </g>
    </g>
    <g id="xtick_6">
     <g id="line2d_13">
      <path clip-path="url(#p683b460eb1)" d="M 418.428388 236.05972 
L 418.428388 13.852984 
" style="fill:none;stroke:#bfbfbf;stroke-dasharray:0.8,2.4;stroke-dashoffset:0;stroke-linecap:round;stroke-linejoin:miter;stroke-width:0.8;"/>
     </g>
     <g id="line2d_14">
      <g>
       <use style="stroke:#000000;stroke-width:0.8;" x="418.428388" xlink:href="#m341197c71b" y="236.05972"/>
      </g>
     </g>
     <g id="text_6">
      <!-- $\mathdefault{0.5}$ -->
      <g transform="translate(407.765356 256.365688)scale(0.18 -0.18)">
       <defs>
        <path d="M 730 3692 
C 794 3666 1056 3584 1325 3584 
C 1920 3584 2246 3911 2432 4100 
C 2432 4157 2432 4192 2394 4192 
C 2387 4192 2374 4192 2323 4163 
C 2099 4058 1837 3973 1517 3973 
C 1325 3973 1037 3999 723 4139 
C 653 4171 640 4171 634 4171 
C 602 4171 595 4164 595 4037 
L 595 2203 
C 595 2089 595 2057 659 2057 
C 691 2057 704 2070 736 2114 
C 941 2401 1222 2522 1542 2522 
C 1766 2522 2246 2382 2246 1289 
C 2246 1085 2246 715 2054 421 
C 1894 159 1645 25 1370 25 
C 947 25 518 320 403 814 
C 429 807 480 795 506 795 
C 589 795 749 840 749 1038 
C 749 1210 627 1280 506 1280 
C 358 1280 262 1190 262 1011 
C 262 454 704 -128 1382 -128 
C 2042 -128 2669 440 2669 1264 
C 2669 2030 2170 2624 1549 2624 
C 1222 2624 947 2503 730 2274 
L 730 3692 
z
" id="CMR17-35" transform="scale(0.015625)"/>
       </defs>
       <use transform="scale(0.996264)" xlink:href="#CMR17-30"/>
       <use transform="translate(45.690477 0)scale(0.996264)" xlink:href="#CMMI12-3a"/>
       <use transform="translate(72.787654 0)scale(0.996264)" xlink:href="#CMR17-35"/>
      </g>
     </g>
    </g>
    <g id="text_7">
     <!-- Time (s) -->
     <g transform="translate(213.657771 281.0357)scale(0.22 -0.22)">
      <defs>
       <path d="M 4051 4608 
L 218 4608 
L 122 2833 
L 397 2833 
C 442 3152 499 3395 570 3599 
C 736 4065 1043 4308 1478 4308 
C 1690 4308 1779 4237 1779 4078 
L 1779 786 
L 1779 600 
C 1779 332 1722 300 1203 300 
L 1037 300 
L 1037 0 
L 3232 0 
L 3232 300 
L 3066 300 
C 2554 300 2496 332 2496 600 
L 2496 786 
L 2496 4078 
C 2496 4237 2586 4308 2797 4308 
C 3187 4308 3501 4090 3661 3707 
C 3757 3472 3821 3197 3872 2833 
L 4147 2833 
L 4051 4608 
z
" id="CenturySchL-Roma-54" transform="scale(0.015625)"/>
       <path d="M 1318 2944 
L 115 2944 
L 115 2638 
L 442 2638 
C 678 2638 717 2593 717 2317 
L 717 787 
L 717 531 
C 717 275 646 230 237 230 
L 192 230 
L 192 0 
L 1850 0 
L 1850 230 
L 1805 230 
C 1389 230 1318 274 1318 526 
L 1318 779 
L 1318 2944 
z
M 1018 4581 
C 813 4581 646 4415 646 4211 
C 646 4013 813 3840 1011 3840 
C 1222 3840 1389 4006 1389 4211 
C 1389 4415 1222 4581 1018 4581 
z
" id="CenturySchL-Roma-69" transform="scale(0.015625)"/>
       <path d="M 1286 2944 
L 147 2944 
L 147 2638 
L 410 2638 
C 646 2638 685 2593 685 2317 
L 685 787 
L 685 538 
C 685 275 614 230 205 230 
L 179 230 
L 179 0 
L 1792 0 
L 1792 230 
L 1766 230 
C 1357 230 1286 275 1286 537 
L 1286 786 
L 1286 1693 
C 1286 2261 1600 2683 2016 2683 
C 2182 2683 2362 2593 2438 2472 
C 2528 2351 2566 2165 2566 1903 
L 2566 786 
L 2566 530 
C 2566 275 2496 230 2080 230 
L 2054 230 
L 2054 0 
L 3674 0 
L 3674 230 
L 3648 230 
C 3238 230 3168 275 3168 530 
L 3168 786 
L 3168 1635 
C 3168 2274 3456 2683 3904 2683 
C 4115 2683 4288 2561 4371 2363 
C 4429 2223 4448 2082 4448 1833 
L 4448 786 
L 4448 530 
C 4448 275 4378 230 3962 230 
L 3936 230 
L 3936 0 
L 5555 0 
L 5555 230 
L 5530 230 
C 5120 230 5050 275 5050 537 
L 5050 786 
L 5050 1961 
C 5050 2357 5011 2491 4845 2708 
C 4659 2945 4397 3072 4090 3072 
C 3674 3072 3366 2876 3091 2439 
C 2982 2819 2637 3072 2208 3072 
C 1824 3072 1536 2889 1286 2491 
L 1286 2944 
z
" id="CenturySchL-Roma-6d" transform="scale(0.015625)"/>
       <path d="M 2976 1472 
C 2982 2420 2438 3090 1658 3090 
C 838 3090 224 2384 224 1430 
C 224 540 806 -64 1670 -64 
C 2278 -64 2714 236 2976 844 
L 2752 966 
C 2490 473 2221 281 1792 281 
C 1466 281 1229 422 1062 704 
C 947 896 896 1120 902 1472 
L 2976 1472 
z
M 909 1747 
C 909 1942 934 2080 998 2256 
C 1133 2633 1338 2816 1645 2816 
C 2035 2816 2291 2482 2291 1979 
C 2291 1797 2234 1747 2029 1747 
L 909 1747 
z
" id="CenturySchL-Roma-65" transform="scale(0.015625)"/>
       <path d="M 1786 4701 
C 1402 4465 1197 4299 979 4043 
C 493 3468 230 2734 230 1961 
C 230 1233 461 549 890 -19 
C 1133 -326 1350 -517 1786 -786 
L 1786 -549 
C 1146 13 890 735 890 1961 
C 890 3187 1146 3903 1786 4465 
L 1786 4701 
z
" id="CenturySchL-Roma-28" transform="scale(0.015625)"/>
       <path d="M 2496 3072 
L 2272 3072 
L 2086 2842 
C 1856 3021 1626 3097 1306 3097 
C 742 3097 371 2728 371 2173 
C 371 1925 454 1714 595 1588 
C 742 1453 890 1390 1274 1300 
L 1613 1224 
C 2118 1103 2298 975 2298 721 
C 2298 421 2035 211 1658 211 
C 1120 211 736 561 582 1208 
L 326 1208 
L 326 0 
L 550 0 
L 774 250 
C 1037 38 1331 -64 1651 -64 
C 2278 -64 2694 325 2694 918 
C 2694 1198 2605 1414 2426 1561 
C 2272 1695 2144 1746 1754 1828 
L 1434 1899 
C 1082 1975 1082 1975 966 2039 
C 826 2103 742 2236 742 2377 
C 742 2631 986 2816 1338 2816 
C 1581 2816 1779 2733 1958 2561 
C 2099 2420 2170 2293 2272 1999 
L 2496 1999 
L 2496 3072 
z
" id="CenturySchL-Roma-73" transform="scale(0.015625)"/>
       <path d="M 346 -786 
C 730 -549 934 -383 1152 -121 
C 1638 447 1901 1188 1901 1961 
C 1901 2689 1670 3373 1242 3935 
C 998 4248 781 4439 346 4701 
L 346 4465 
C 986 3903 1242 3187 1242 1961 
C 1242 728 986 13 346 -549 
L 346 -786 
z
" id="CenturySchL-Roma-29" transform="scale(0.015625)"/>
      </defs>
      <use transform="scale(0.996264)" xlink:href="#CenturySchL-Roma-54"/>
      <use transform="translate(66.450031 0)scale(0.996264)" xlink:href="#CenturySchL-Roma-69"/>
      <use transform="translate(97.831344 0)scale(0.996264)" xlink:href="#CenturySchL-Roma-6d"/>
      <use transform="translate(186.398251 0)scale(0.996264)" xlink:href="#CenturySchL-Roma-65"/>
      <use transform="translate(263.906621 0)scale(0.996264)" xlink:href="#CenturySchL-Roma-28"/>
      <use transform="translate(297.081851 0)scale(0.996264)" xlink:href="#CenturySchL-Roma-73"/>
      <use transform="translate(343.207661 0)scale(0.996264)" xlink:href="#CenturySchL-Roma-29"/>
     </g>
    </g>
   </g>
   <g id="matplotlib.axis_2">
    <g id="ytick_1">
     <g id="line2d_15">
      <path clip-path="url(#p683b460eb1)" d="M 82.401787 205.713436 
L 427.71797 205.713436 
" style="fill:none;stroke:#bfbfbf;stroke-dasharray:0.8,2.4;stroke-dashoffset:0;stroke-linecap:round;stroke-linejoin:miter;stroke-width:0.8;"/>
     </g>
     <g id="line2d_16">
      <defs>
       <path d="M 0 0 
L -3.5 0 
" id="mb3d28007fd" style="stroke:#000000;stroke-width:0.8;"/>
      </defs>
      <g>
       <use style="stroke:#000000;stroke-width:0.8;" x="82.401787" xlink:href="#mb3d28007fd" y="205.713436"/>
      </g>
     </g>
     <g id="text_8">
      <!-- $\mathdefault{0.000}$ -->
      <g transform="translate(37.627152 212.36642)scale(0.18 -0.18)">
       <use transform="scale(0.996264)" xlink:href="#CMR17-30"/>
       <use transform="translate(45.690477 0)scale(0.996264)" xlink:href="#CMMI12-3a"/>
       <use transform="translate(72.787654 0)scale(0.996264)" xlink:href="#CMR17-30"/>
       <use transform="translate(118.478131 0)scale(0.996264)" xlink:href="#CMR17-30"/>
       <use transform="translate(164.168608 0)scale(0.996264)" xlink:href="#CMR17-30"/>
      </g>
     </g>
    </g>
    <g id="ytick_2">
     <g id="line2d_17">
      <path clip-path="url(#p683b460eb1)" d="M 82.401787 167.341346 
L 427.71797 167.341346 
" style="fill:none;stroke:#bfbfbf;stroke-dasharray:0.8,2.4;stroke-dashoffset:0;stroke-linecap:round;stroke-linejoin:miter;stroke-width:0.8;"/>
     </g>
     <g id="line2d_18">
      <g>
       <use style="stroke:#000000;stroke-width:0.8;" x="82.401787" xlink:href="#mb3d28007fd" y="167.341346"/>
      </g>
     </g>
     <g id="text_9">
      <!-- $\mathdefault{0.025}$ -->
      <g transform="translate(37.627152 173.99433)scale(0.18 -0.18)">
       <use transform="scale(0.996264)" xlink:href="#CMR17-30"/>
       <use transform="translate(45.690477 0)scale(0.996264)" xlink:href="#CMMI12-3a"/>
       <use transform="translate(72.787654 0)scale(0.996264)" xlink:href="#CMR17-30"/>
       <use transform="translate(118.478131 0)scale(0.996264)" xlink:href="#CMR17-32"/>
       <use transform="translate(164.168608 0)scale(0.996264)" xlink:href="#CMR17-35"/>
      </g>
     </g>
    </g>
    <g id="ytick_3">
     <g id="line2d_19">
      <path clip-path="url(#p683b460eb1)" d="M 82.401787 128.969255 
L 427.71797 128.969255 
" style="fill:none;stroke:#bfbfbf;stroke-dasharray:0.8,2.4;stroke-dashoffset:0;stroke-linecap:round;stroke-linejoin:miter;stroke-width:0.8;"/>
     </g>
     <g id="line2d_20">
      <g>
       <use style="stroke:#000000;stroke-width:0.8;" x="82.401787" xlink:href="#mb3d28007fd" y="128.969255"/>
      </g>
     </g>
     <g id="text_10">
      <!-- $\mathdefault{0.050}$ -->
      <g transform="translate(37.627152 135.622239)scale(0.18 -0.18)">
       <use transform="scale(0.996264)" xlink:href="#CMR17-30"/>
       <use transform="translate(45.690477 0)scale(0.996264)" xlink:href="#CMMI12-3a"/>
       <use transform="translate(72.787654 0)scale(0.996264)" xlink:href="#CMR17-30"/>
       <use transform="translate(118.478131 0)scale(0.996264)" xlink:href="#CMR17-35"/>
       <use transform="translate(164.168608 0)scale(0.996264)" xlink:href="#CMR17-30"/>
      </g>
     </g>
    </g>
    <g id="ytick_4">
     <g id="line2d_21">
      <path clip-path="url(#p683b460eb1)" d="M 82.401787 90.597165 
L 427.71797 90.597165 
" style="fill:none;stroke:#bfbfbf;stroke-dasharray:0.8,2.4;stroke-dashoffset:0;stroke-linecap:round;stroke-linejoin:miter;stroke-width:0.8;"/>
     </g>
     <g id="line2d_22">
      <g>
       <use style="stroke:#000000;stroke-width:0.8;" x="82.401787" xlink:href="#mb3d28007fd" y="90.597165"/>
      </g>
     </g>
     <g id="text_11">
      <!-- $\mathdefault{0.075}$ -->
      <g transform="translate(37.627152 97.250149)scale(0.18 -0.18)">
       <defs>
        <path d="M 2886 3941 
L 2886 4081 
L 1382 4081 
C 634 4081 621 4165 595 4288 
L 480 4288 
L 294 3094 
L 410 3094 
C 429 3215 474 3540 550 3661 
C 589 3712 1062 3712 1171 3712 
L 2579 3712 
L 1869 2661 
C 1395 1954 1069 999 1069 165 
C 1069 89 1069 -128 1299 -128 
C 1530 -128 1530 89 1530 171 
L 1530 465 
C 1530 1508 1709 2196 2003 2636 
L 2886 3941 
z
" id="CMR17-37" transform="scale(0.015625)"/>
       </defs>
       <use transform="scale(0.996264)" xlink:href="#CMR17-30"/>
       <use transform="translate(45.690477 0)scale(0.996264)" xlink:href="#CMMI12-3a"/>
       <use transform="translate(72.787654 0)scale(0.996264)" xlink:href="#CMR17-30"/>
       <use transform="translate(118.478131 0)scale(0.996264)" xlink:href="#CMR17-37"/>
       <use transform="translate(164.168608 0)scale(0.996264)" xlink:href="#CMR17-35"/>
      </g>
     </g>
    </g>
    <g id="ytick_5">
     <g id="line2d_23">
      <path clip-path="url(#p683b460eb1)" d="M 82.401787 52.225074 
L 427.71797 52.225074 
" style="fill:none;stroke:#bfbfbf;stroke-dasharray:0.8,2.4;stroke-dashoffset:0;stroke-linecap:round;stroke-linejoin:miter;stroke-width:0.8;"/>
     </g>
     <g id="line2d_24">
      <g>
       <use style="stroke:#000000;stroke-width:0.8;" x="82.401787" xlink:href="#mb3d28007fd" y="52.225074"/>
      </g>
     </g>
     <g id="text_12">
      <!-- $\mathdefault{0.100}$ -->
      <g transform="translate(37.627152 58.878058)scale(0.18 -0.18)">
       <use transform="scale(0.996264)" xlink:href="#CMR17-30"/>
       <use transform="translate(45.690477 0)scale(0.996264)" xlink:href="#CMMI12-3a"/>
       <use transform="translate(72.787654 0)scale(0.996264)" xlink:href="#CMR17-31"/>
       <use transform="translate(118.478131 0)scale(0.996264)" xlink:href="#CMR17-30"/>
       <use transform="translate(164.168608 0)scale(0.996264)" xlink:href="#CMR17-30"/>
      </g>
     </g>
    </g>
    <g id="ytick_6">
     <g id="line2d_25">
      <path clip-path="url(#p683b460eb1)" d="M 82.401787 13.852984 
L 427.71797 13.852984 
" style="fill:none;stroke:#bfbfbf;stroke-dasharray:0.8,2.4;stroke-dashoffset:0;stroke-linecap:round;stroke-linejoin:miter;stroke-width:0.8;"/>
     </g>
     <g id="line2d_26">
      <g>
       <use style="stroke:#000000;stroke-width:0.8;" x="82.401787" xlink:href="#mb3d28007fd" y="13.852984"/>
      </g>
     </g>
     <g id="text_13">
      <!-- $\mathdefault{0.125}$ -->
      <g transform="translate(37.627152 20.505968)scale(0.18 -0.18)">
       <use transform="scale(0.996264)" xlink:href="#CMR17-30"/>
       <use transform="translate(45.690477 0)scale(0.996264)" xlink:href="#CMMI12-3a"/>
       <use transform="translate(72.787654 0)scale(0.996264)" xlink:href="#CMR17-31"/>
       <use transform="translate(118.478131 0)scale(0.996264)" xlink:href="#CMR17-32"/>
       <use transform="translate(164.168608 0)scale(0.996264)" xlink:href="#CMR17-35"/>
      </g>
     </g>
    </g>
    <g id="text_14">
     <!-- Height (m) -->
     <g transform="translate(23.462852 179.947546)rotate(-90)scale(0.22 -0.22)">
      <defs>
       <path d="M 3738 2215 
L 3738 786 
L 3738 600 
C 3738 332 3680 300 3162 300 
L 3046 300 
L 3046 0 
L 5146 0 
L 5146 300 
L 5030 300 
C 4512 300 4454 332 4454 600 
L 4454 786 
L 4454 3823 
L 4454 4007 
C 4454 4276 4512 4308 5030 4308 
L 5146 4308 
L 5146 4608 
L 3072 4608 
L 3072 4308 
L 3162 4308 
C 3680 4308 3738 4276 3738 4008 
L 3738 3823 
L 3738 2560 
L 1594 2560 
L 1594 3823 
L 1594 4008 
C 1594 4276 1651 4308 2170 4308 
L 2291 4308 
L 2291 4608 
L 186 4608 
L 186 4308 
L 301 4308 
C 819 4308 877 4276 877 4007 
L 877 3823 
L 877 786 
L 877 600 
C 877 332 819 300 301 300 
L 186 300 
L 186 0 
L 2291 0 
L 2291 300 
L 2170 300 
C 1651 300 1594 332 1594 600 
L 1594 786 
L 1594 2215 
L 3738 2215 
z
" id="CenturySchL-Roma-48" transform="scale(0.015625)"/>
       <path d="M 1254 486 
C 902 486 883 493 806 542 
C 762 570 730 647 730 723 
C 730 933 902 1024 1331 1024 
C 1939 1024 2035 1037 2246 1132 
C 2630 1303 2848 1631 2848 2047 
C 2848 2299 2790 2457 2611 2665 
C 2720 2778 2778 2816 2829 2816 
C 2861 2816 2880 2796 2893 2728 
C 2918 2577 3021 2496 3181 2496 
C 3341 2496 3469 2630 3469 2802 
C 3469 3020 3296 3173 3046 3173 
C 2842 3173 2726 3108 2432 2835 
C 2163 3014 1958 3077 1638 3077 
C 877 3077 378 2664 378 2036 
C 378 1666 582 1346 915 1196 
C 486 1098 307 902 307 542 
C 307 255 435 85 736 -19 
C 339 -159 147 -363 147 -624 
C 147 -1044 640 -1280 1498 -1280 
C 2566 -1280 3104 -942 3104 -272 
C 3104 46 2957 300 2720 396 
C 2554 460 2349 486 1907 486 
L 1254 486 
z
M 1632 2816 
C 2035 2816 2259 2539 2259 2054 
C 2259 1563 2016 1266 1606 1266 
C 1210 1266 960 1563 960 2035 
C 960 2532 1203 2816 1632 2816 
z
M 1574 -64 
C 2106 -64 2144 -64 2240 -76 
C 2496 -102 2656 -242 2656 -445 
C 2656 -808 2240 -1018 1523 -1018 
C 986 -1018 678 -859 678 -573 
C 678 -363 794 -222 1101 -64 
L 1574 -64 
z
" id="CenturySchL-Roma-67" transform="scale(0.015625)"/>
       <path d="M 1280 4672 
L 96 4672 
L 96 4366 
L 403 4366 
C 640 4366 678 4321 678 4046 
L 678 786 
L 678 530 
C 678 275 608 230 198 230 
L 173 230 
L 173 0 
L 1792 0 
L 1792 230 
L 1766 230 
C 1350 230 1280 275 1280 530 
L 1280 786 
L 1280 1444 
C 1280 1763 1325 2050 1395 2197 
C 1530 2485 1818 2683 2093 2683 
C 2259 2683 2451 2587 2547 2459 
C 2643 2319 2688 2127 2688 1814 
L 2688 786 
L 2688 530 
C 2688 275 2618 230 2202 230 
L 2176 230 
L 2176 0 
L 3795 0 
L 3795 230 
L 3770 230 
C 3360 230 3290 275 3290 530 
L 3290 786 
L 3290 1789 
C 3290 2248 3270 2363 3155 2581 
C 2995 2887 2675 3072 2291 3072 
C 1882 3072 1568 2881 1280 2453 
L 1280 4672 
z
" id="CenturySchL-Roma-68" transform="scale(0.015625)"/>
       <path d="M 1242 3008 
L 1242 4288 
L 979 4288 
C 915 3448 634 3020 115 2982 
L 115 2733 
L 640 2733 
L 640 1105 
C 640 658 653 498 717 351 
C 819 83 1075 -64 1446 -64 
C 1696 -64 1914 13 2061 153 
C 2272 358 2394 696 2394 1048 
C 2394 1086 2394 1131 2387 1195 
L 2118 1195 
C 2099 620 1933 326 1619 326 
C 1472 326 1344 402 1299 511 
C 1261 600 1242 760 1242 990 
L 1242 2733 
L 2182 2733 
L 2182 3008 
L 1242 3008 
z
" id="CenturySchL-Roma-74" transform="scale(0.015625)"/>
      </defs>
      <use transform="scale(0.996264)" xlink:href="#CenturySchL-Roma-48"/>
      <use transform="translate(82.98843 0)scale(0.996264)" xlink:href="#CenturySchL-Roma-65"/>
      <use transform="translate(132.801631 0)scale(0.996264)" xlink:href="#CenturySchL-Roma-69"/>
      <use transform="translate(164.182944 0)scale(0.996264)" xlink:href="#CenturySchL-Roma-67"/>
      <use transform="translate(217.682288 0)scale(0.996264)" xlink:href="#CenturySchL-Roma-68"/>
      <use transform="translate(278.553918 0)scale(0.996264)" xlink:href="#CenturySchL-Roma-74"/>
      <use transform="translate(345.002794 0)scale(0.996264)" xlink:href="#CenturySchL-Roma-28"/>
      <use transform="translate(378.178024 0)scale(0.996264)" xlink:href="#CenturySchL-Roma-6d"/>
      <use transform="translate(466.744931 0)scale(0.996264)" xlink:href="#CenturySchL-Roma-29"/>
     </g>
    </g>
   </g>
   <g id="legend_1">
    <g id="patch_5">
     <path d="M 239.87128 72.479241 
L 422.31797 72.479241 
Q 425.91797 72.479241 425.91797 68.879241 
L 425.91797 19.252984 
Q 425.91797 15.652984 422.31797 15.652984 
L 239.87128 15.652984 
Q 236.27128 15.652984 236.27128 19.252984 
L 236.27128 68.879241 
Q 236.27128 72.479241 239.87128 72.479241 
z
" style="fill:#ffffff;stroke:#cccccc;stroke-linejoin:miter;"/>
    </g>
    <g id="line2d_27">
     <path d="M 243.47128 29.858952 
L 279.47128 29.858952 
" style="fill:none;stroke:#e41a1c;stroke-linecap:square;stroke-width:2;"/>
    </g>
    <g id="line2d_28"/>
    <g id="text_15">
     <!-- Efficient Agent -->
     <g transform="translate(293.87128 36.158952)scale(0.18 -0.18)">
      <defs>
       <path d="M 4032 4608 
L 186 4608 
L 186 4308 
L 301 4308 
C 819 4308 877 4276 877 4007 
L 877 3823 
L 877 786 
L 877 600 
C 877 332 819 300 301 300 
L 186 300 
L 186 0 
L 4115 0 
L 4243 1696 
L 3962 1696 
C 3878 1252 3731 858 3578 675 
C 3379 421 3014 300 2477 300 
L 2054 300 
C 1862 300 1702 339 1645 396 
C 1600 434 1594 473 1594 608 
L 1594 2240 
L 1722 2240 
C 2112 2240 2272 2200 2400 2063 
C 2566 1893 2630 1683 2643 1297 
L 2944 1297 
L 2944 3392 
L 2643 3392 
C 2611 2782 2355 2540 1747 2540 
L 1594 2540 
L 1594 3989 
C 1594 4263 1651 4308 1997 4308 
L 2330 4308 
C 2893 4308 3168 4250 3386 4070 
C 3597 3904 3750 3545 3846 2969 
L 4122 2969 
L 4032 4608 
z
" id="CenturySchL-Roma-45" transform="scale(0.015625)"/>
       <path d="M 1286 2963 
L 1286 3337 
C 1286 3665 1306 3882 1357 4014 
C 1459 4303 1683 4480 1939 4480 
C 2074 4480 2157 4441 2157 4368 
C 2157 4347 2150 4335 2118 4282 
C 2080 4217 2061 4144 2061 4072 
C 2061 3875 2214 3725 2413 3725 
C 2624 3725 2771 3887 2771 4122 
C 2771 4501 2451 4736 1933 4736 
C 1491 4736 1171 4578 941 4252 
C 749 3977 685 3695 685 3166 
L 685 2963 
L 122 2963 
L 122 2688 
L 685 2688 
L 685 783 
L 685 528 
C 685 275 614 230 205 230 
L 179 230 
L 179 0 
L 1888 0 
L 1888 230 
L 1773 230 
C 1357 230 1286 275 1286 528 
L 1286 783 
L 1286 2688 
L 1990 2688 
L 1990 2963 
L 1286 2963 
z
" id="CenturySchL-Roma-66" transform="scale(0.015625)"/>
       <path d="M 710 2963 
L 102 2963 
L 102 2688 
L 710 2688 
L 710 783 
L 710 528 
C 710 275 640 230 224 230 
L 198 230 
L 198 0 
L 1818 0 
L 1818 230 
L 1792 230 
C 1382 230 1312 275 1312 522 
L 1312 783 
L 1312 2688 
L 2381 2688 
C 2637 2688 2656 2662 2656 2250 
L 2656 783 
L 2656 528 
C 2656 275 2586 230 2170 230 
L 2144 230 
L 2144 0 
L 3763 0 
L 3763 230 
L 3738 230 
C 3328 230 3258 274 3258 520 
L 3258 778 
L 3258 2982 
C 2797 2982 2586 2982 2278 2982 
L 1312 2982 
L 1312 3113 
C 1312 3568 1382 3874 1542 4080 
C 1709 4305 1946 4417 2246 4417 
C 2445 4417 2547 4385 2547 4316 
C 2547 4290 2547 4284 2509 4233 
C 2464 4177 2438 4082 2438 4006 
C 2438 3822 2611 3677 2835 3677 
C 3078 3677 3238 3830 3238 4058 
C 3238 4431 2874 4672 2291 4672 
C 1798 4672 1421 4533 1120 4235 
C 826 3950 710 3602 710 3020 
L 710 2963 
z
" id="CenturySchL-Roma-2" transform="scale(0.015625)"/>
       <path d="M 2477 968 
C 2272 510 2054 326 1722 326 
C 1210 326 890 789 890 1532 
C 890 2301 1203 2816 1677 2816 
C 1869 2816 2035 2726 2035 2625 
C 2035 2606 2022 2587 1997 2548 
C 1894 2428 1869 2364 1869 2257 
C 1869 2047 2029 1901 2253 1901 
C 2477 1901 2643 2079 2643 2333 
C 2643 2759 2214 3090 1645 3090 
C 813 3090 218 2410 218 1462 
C 218 559 762 -64 1555 -64 
C 2125 -64 2451 197 2726 872 
L 2477 968 
z
" id="CenturySchL-Roma-63" transform="scale(0.015625)"/>
       <path d="M 1280 2944 
L 173 2944 
L 173 2638 
L 403 2638 
C 640 2638 678 2593 678 2317 
L 678 787 
L 678 531 
C 678 275 608 230 198 230 
L 173 230 
L 173 0 
L 1792 0 
L 1792 230 
L 1766 230 
C 1350 230 1280 275 1280 530 
L 1280 786 
L 1280 1450 
C 1280 1763 1325 2050 1395 2197 
C 1530 2485 1818 2683 2093 2683 
C 2259 2683 2451 2587 2547 2459 
C 2643 2325 2688 2127 2688 1820 
L 2688 786 
L 2688 530 
C 2688 275 2618 230 2202 230 
L 2176 230 
L 2176 0 
L 3795 0 
L 3795 230 
L 3770 230 
C 3360 230 3290 275 3290 530 
L 3290 786 
L 3290 1789 
C 3290 2248 3270 2363 3155 2581 
C 2995 2887 2669 3072 2291 3072 
C 1882 3072 1562 2883 1280 2465 
L 1280 2944 
z
" id="CenturySchL-Roma-6e" transform="scale(0.015625)"/>
       <path d="M 2419 4704 
L 2150 4704 
L 678 977 
C 550 645 525 600 429 498 
C 326 377 147 300 -26 300 
L -51 300 
L -51 0 
L 1645 0 
L 1645 300 
L 1517 300 
C 1171 300 998 424 998 669 
C 998 747 1018 837 1056 941 
L 1267 1511 
L 2963 1511 
L 3309 644 
C 3347 546 3360 501 3360 468 
C 3360 365 3200 300 2963 300 
L 2694 300 
L 2694 0 
L 4678 0 
L 4678 300 
L 4589 300 
C 4269 300 4198 351 4051 709 
L 2419 4704 
z
M 2106 3670 
L 2829 1856 
L 1395 1856 
L 2106 3670 
z
" id="CenturySchL-Roma-41" transform="scale(0.015625)"/>
      </defs>
      <use transform="scale(0.996264)" xlink:href="#CenturySchL-Roma-45"/>
      <use transform="translate(71.929985 0)scale(0.996264)" xlink:href="#CenturySchL-Roma-66"/>
      <use transform="translate(105.105215 0)scale(0.996264)" xlink:href="#CenturySchL-Roma-2"/>
      <use transform="translate(165.976754 0)scale(0.996264)" xlink:href="#CenturySchL-Roma-63"/>
      <use transform="translate(210.210323 0)scale(0.996264)" xlink:href="#CenturySchL-Roma-69"/>
      <use transform="translate(241.591636 0)scale(0.996264)" xlink:href="#CenturySchL-Roma-65"/>
      <use transform="translate(291.404836 0)scale(0.996264)" xlink:href="#CenturySchL-Roma-6e"/>
      <use transform="translate(352.276467 0)scale(0.996264)" xlink:href="#CenturySchL-Roma-74"/>
      <use transform="translate(418.725343 0)scale(0.996264)" xlink:href="#CenturySchL-Roma-41"/>
      <use transform="translate(490.655328 0)scale(0.996264)" xlink:href="#CenturySchL-Roma-67"/>
      <use transform="translate(544.154671 0)scale(0.996264)" xlink:href="#CenturySchL-Roma-65"/>
      <use transform="translate(593.967872 0)scale(0.996264)" xlink:href="#CenturySchL-Roma-6e"/>
      <use transform="translate(654.839503 0)scale(0.996264)" xlink:href="#CenturySchL-Roma-74"/>
     </g>
    </g>
    <g id="line2d_29">
     <path d="M 243.47128 55.572081 
L 279.47128 55.572081 
" style="fill:none;stroke:#377eb8;stroke-dasharray:12,12;stroke-dashoffset:0;stroke-linecap:round;stroke-linejoin:miter;stroke-width:2;"/>
    </g>
    <g id="line2d_30"/>
    <g id="text_16">
     <!-- Height Agent -->
     <g transform="translate(293.87128 61.872081)scale(0.18 -0.18)">
      <use transform="scale(0.996264)" xlink:href="#CenturySchL-Roma-48"/>
      <use transform="translate(82.98843 0)scale(0.996264)" xlink:href="#CenturySchL-Roma-65"/>
      <use transform="translate(132.801631 0)scale(0.996264)" xlink:href="#CenturySchL-Roma-69"/>
      <use transform="translate(164.182944 0)scale(0.996264)" xlink:href="#CenturySchL-Roma-67"/>
      <use transform="translate(217.682288 0)scale(0.996264)" xlink:href="#CenturySchL-Roma-68"/>
      <use transform="translate(278.553918 0)scale(0.996264)" xlink:href="#CenturySchL-Roma-74"/>
      <use transform="translate(345.002794 0)scale(0.996264)" xlink:href="#CenturySchL-Roma-41"/>
      <use transform="translate(416.932779 0)scale(0.996264)" xlink:href="#CenturySchL-Roma-67"/>
      <use transform="translate(470.432123 0)scale(0.996264)" xlink:href="#CenturySchL-Roma-65"/>
      <use transform="translate(520.245323 0)scale(0.996264)" xlink:href="#CenturySchL-Roma-6e"/>
      <use transform="translate(581.116954 0)scale(0.996264)" xlink:href="#CenturySchL-Roma-74"/>
     </g>
    </g>
   </g>
  </g>
 </g>
 <defs>
  <clipPath id="p683b460eb1">
   <rect height="222.206736" width="345.316183" x="82.401787" y="13.852984"/>
  </clipPath>
 </defs>
</svg>
