<?xml version="1.0" encoding="utf-8" standalone="no"?>
<!DOCTYPE svg PUBLIC "-//W3C//DTD SVG 1.1//EN"
  "http://www.w3.org/Graphics/SVG/1.1/DTD/svg11.dtd">
<svg height="292.4pt" version="1.1" viewBox="0 0 436.4 292.4" width="436.4pt" xmlns="http://www.w3.org/2000/svg" xmlns:xlink="http://www.w3.org/1999/xlink">
 <metadata>
  <rdf:RDF xmlns:cc="http://creativecommons.org/ns#" xmlns:dc="http://purl.org/dc/elements/1.1/" xmlns:rdf="http://www.w3.org/1999/02/22-rdf-syntax-ns#">
   <cc:Work>
    <dc:type rdf:resource="http://purl.org/dc/dcmitype/StillImage"/>
    <dc:date>2022-03-16T21:07:59.884439</dc:date>
    <dc:format>image/svg+xml</dc:format>
    <dc:creator>
     <cc:Agent>
      <dc:title>Matplotlib v3.4.2, https://matplotlib.org/</dc:title>
     </cc:Agent>
    </dc:creator>
   </cc:Work>
  </rdf:RDF>
 </metadata>
 <defs>
  <style type="text/css">*{stroke-linecap:butt;stroke-linejoin:round;}</style>
 </defs>
 <g id="figure_1">
  <g id="patch_1">
   <path d="M 0 292.4 
L 436.4 292.4 
L 436.4 0 
L 0 0 
z
" style="fill:none;"/>
  </g>
  <g id="axes_1">
   <g id="patch_2">
    <path d="M 78.965151 236.05972 
L 429.2 236.05972 
L 429.2 7.2 
L 78.965151 7.2 
z
" style="fill:none;"/>
   </g>
   <g id="PolyCollection_1">
    <path clip-path="url(#pc057bc37f7)" d="M 94.884917 116.383713 
L 94.884917 116.383713 
L 100.570547 224.662027 
L 106.256178 145.814203 
L 111.941809 181.562394 
L 117.627439 137.813652 
L 123.31307 137.814815 
L 128.998701 152.372644 
L 134.684331 152.372644 
L 140.369962 210.603957 
L 146.055593 190.923837 
L 151.741223 207.16732 
L 157.426854 199.925453 
L 163.112485 223.316133 
L 168.798115 224.494591 
L 174.483746 224.577657 
L 180.169377 209.496227 
L 185.855007 115.570384 
L 191.540638 113.223141 
L 197.226269 127.135642 
L 202.911899 156.7145 
L 208.59753 139.381821 
L 214.283161 139.347265 
L 219.968791 137.944559 
L 225.654422 137.814817 
L 231.340053 152.372644 
L 237.025683 181.562394 
L 242.711314 210.603957 
L 248.396945 207.16732 
L 254.082575 207.16732 
L 259.768206 207.16732 
L 265.453837 207.16732 
L 271.139467 207.16732 
L 276.825098 207.16732 
L 282.510729 185.367624 
L 288.196359 116.383713 
L 293.88199 116.383713 
L 299.567621 116.383713 
L 305.253251 116.383713 
L 310.938882 116.383713 
L 316.624513 116.383713 
L 322.310143 116.383713 
L 327.995774 116.383713 
L 333.681405 116.383713 
L 339.367035 116.383713 
L 345.052666 116.383713 
L 350.738297 116.383713 
L 356.423927 116.383713 
L 362.109558 116.383713 
L 367.795189 116.383713 
L 373.480819 116.383713 
L 379.16645 116.383713 
L 384.852081 116.383713 
L 390.537711 116.383713 
L 396.223342 126.650597 
L 401.908973 121.932827 
L 407.594603 131.458835 
L 407.594603 28.519463 
L 407.594603 28.519463 
L 401.908973 95.674137 
L 396.223342 78.067178 
L 390.537711 116.383713 
L 384.852081 116.383713 
L 379.16645 116.383713 
L 373.480819 116.383713 
L 367.795189 116.383713 
L 362.109558 116.383713 
L 356.423927 116.383713 
L 350.738297 116.383713 
L 345.052666 116.383713 
L 339.367035 116.383713 
L 333.681405 116.383713 
L 327.995774 116.383713 
L 322.310143 116.383713 
L 316.624513 116.383713 
L 310.938882 116.383713 
L 305.253251 116.383713 
L 299.567621 116.383713 
L 293.88199 116.383713 
L 288.196359 116.383713 
L 282.510729 105.631115 
L 276.825098 142.062732 
L 271.139467 142.062732 
L 265.453837 142.062732 
L 259.768206 142.062732 
L 254.082575 142.062732 
L 248.396945 142.062732 
L 242.711314 80.394782 
L 237.025683 22.089375 
L 231.340053 22.163468 
L 225.654422 7.605644 
L 219.968791 8.054647 
L 214.283161 12.077156 
L 208.59753 11.796219 
L 202.911899 47.489768 
L 197.226269 47.40409 
L 191.540638 37.625373 
L 185.855007 42.678605 
L 180.169377 80.284064 
L 174.483746 94.780764 
L 168.798115 94.755226 
L 163.112485 94.361285 
L 157.426854 120.188943 
L 151.741223 142.062732 
L 146.055593 184.588723 
L 140.369962 80.394782 
L 134.684331 22.163468 
L 128.998701 22.163468 
L 123.31307 7.60564 
L 117.627439 7.606084 
L 111.941809 22.08938 
L 106.256178 19.247648 
L 100.570547 94.808302 
L 94.884917 116.383713 
z
" style="fill:#e41a1c;fill-opacity:0.2;"/>
   </g>
   <g id="PolyCollection_2">
    <path clip-path="url(#pc057bc37f7)" d="M 94.884917 116.383713 
L 94.884917 116.383713 
L 100.570547 225.161638 
L 106.256178 137.81482 
L 111.941809 224.61338 
L 117.627439 152.372644 
L 123.31307 152.372644 
L 128.998701 152.372644 
L 134.684331 152.48067 
L 140.369962 199.925453 
L 146.055593 207.16732 
L 151.741223 207.167318 
L 157.426854 199.925453 
L 163.112485 199.924943 
L 168.798115 210.599322 
L 174.483746 201.806097 
L 180.169377 162.724625 
L 185.855007 134.580998 
L 191.540638 134.580998 
L 197.226269 122.010989 
L 202.911899 117.751892 
L 208.59753 161.71135 
L 214.283161 164.723116 
L 219.968791 163.894478 
L 225.654422 153.733162 
L 231.340053 152.778284 
L 237.025683 200.433374 
L 242.711314 204.271296 
L 248.396945 204.271296 
L 254.082575 207.37014 
L 259.768206 207.37014 
L 265.453837 207.37014 
L 271.139467 194.803114 
L 276.825098 170.975569 
L 282.510729 116.383713 
L 288.196359 116.383713 
L 293.88199 116.383713 
L 299.567621 116.383713 
L 305.253251 116.383713 
L 310.938882 116.383713 
L 316.624513 116.383713 
L 322.310143 116.383713 
L 327.995774 116.383713 
L 333.681405 116.383713 
L 339.367035 116.383713 
L 345.052666 118.100142 
L 350.738297 120.27744 
L 356.423927 134.145496 
L 362.109558 131.458838 
L 362.109558 28.519446 
L 362.109558 28.519446 
L 356.423927 50.095835 
L 350.738297 63.732826 
L 345.052666 111.234426 
L 339.367035 116.383713 
L 333.681405 116.383713 
L 327.995774 116.383713 
L 322.310143 116.383713 
L 316.624513 116.383713 
L 310.938882 116.383713 
L 305.253251 116.383713 
L 299.567621 116.383713 
L 293.88199 116.383713 
L 288.196359 116.383713 
L 282.510729 116.383713 
L 276.825098 98.186427 
L 271.139467 110.753453 
L 265.453837 134.580998 
L 259.768206 134.580998 
L 254.082575 134.580998 
L 248.396945 64.890701 
L 242.711314 64.890701 
L 237.025683 32.334051 
L 231.340053 7.2 
L 225.654422 11.094276 
L 219.968791 26.151803 
L 214.283161 26.717429 
L 208.59753 34.702426 
L 202.911899 38.155396 
L 197.226269 38.006023 
L 191.540638 61.791856 
L 185.855007 61.791856 
L 180.169377 40.937645 
L 174.483746 110.692914 
L 168.798115 80.395185 
L 163.112485 120.18892 
L 157.426854 120.188943 
L 151.741223 142.062732 
L 146.055593 142.062732 
L 140.369962 120.188943 
L 134.684331 23.24724 
L 128.998701 22.163468 
L 123.31307 22.163468 
L 117.627439 22.163468 
L 111.941809 94.791661 
L 106.256178 7.605657 
L 100.570547 94.952997 
L 94.884917 116.383713 
z
" style="fill:#377eb8;fill-opacity:0.2;"/>
   </g>
   <g id="line2d_1">
    <path clip-path="url(#pc057bc37f7)" d="M 94.884917 116.383713 
L 100.570547 159.735165 
L 106.256178 82.530925 
L 111.941809 101.825887 
L 117.627439 72.709868 
L 123.31307 72.710228 
L 128.998701 87.268056 
L 134.684331 87.268056 
L 140.369962 145.499369 
L 146.055593 187.75628 
L 151.741223 174.615026 
L 157.426854 160.057198 
L 163.112485 158.838709 
L 168.798115 159.624908 
L 174.483746 159.67921 
L 180.169377 144.890145 
L 185.855007 79.124494 
L 191.540638 75.424257 
L 197.226269 87.269866 
L 202.911899 102.102134 
L 208.59753 75.58902 
L 214.283161 75.712211 
L 219.968791 72.999603 
L 225.654422 72.71023 
L 231.340053 87.268056 
L 237.025683 101.825884 
L 242.711314 145.499369 
L 248.396945 174.615026 
L 254.082575 174.615026 
L 259.768206 174.615026 
L 265.453837 174.615026 
L 271.139467 174.615026 
L 276.825098 174.615026 
L 282.510729 145.499369 
L 288.196359 116.383713 
L 293.88199 116.383713 
L 299.567621 116.383713 
L 305.253251 116.383713 
L 310.938882 116.383713 
L 316.624513 116.383713 
L 322.310143 116.383713 
L 327.995774 116.383713 
L 333.681405 116.383713 
L 339.367035 116.383713 
L 345.052666 116.383713 
L 350.738297 116.383713 
L 356.423927 116.383713 
L 362.109558 116.383713 
L 367.795189 116.383713 
L 373.480819 116.383713 
L 379.16645 116.383713 
L 384.852081 116.383713 
L 390.537711 116.383713 
L 396.223342 102.358888 
L 401.908973 108.803482 
L 407.594603 79.989149 
L 413.280234 116.383713 
" style="fill:none;stroke:#e41a1c;stroke-linecap:square;stroke-width:2;"/>
   </g>
   <g id="line2d_2">
    <path clip-path="url(#pc057bc37f7)" d="M 94.884917 116.383713 
L 100.570547 160.057317 
L 106.256178 72.710239 
L 111.941809 159.702521 
L 117.627439 87.268056 
L 123.31307 87.268056 
L 128.998701 87.268056 
L 134.684331 87.863955 
L 140.369962 160.057198 
L 146.055593 174.615026 
L 151.741223 174.615025 
L 157.426854 160.057198 
L 163.112485 160.056931 
L 168.798115 145.497254 
L 174.483746 156.249506 
L 180.169377 101.831135 
L 185.855007 98.186427 
L 191.540638 98.186427 
L 197.226269 80.008506 
L 202.911899 77.953644 
L 208.59753 98.206888 
L 214.283161 95.720272 
L 219.968791 95.02314 
L 225.654422 82.413719 
L 231.340053 79.989142 
L 237.025683 116.383713 
L 242.711314 134.580998 
L 248.396945 134.580998 
L 254.082575 170.975569 
L 259.768206 170.975569 
L 265.453837 170.975569 
L 271.139467 152.778284 
L 276.825098 134.580998 
L 282.510729 116.383713 
L 288.196359 116.383713 
L 293.88199 116.383713 
L 299.567621 116.383713 
L 305.253251 116.383713 
L 310.938882 116.383713 
L 316.624513 116.383713 
L 322.310143 116.383713 
L 327.995774 116.383713 
L 333.681405 116.383713 
L 339.367035 116.383713 
L 345.052666 114.667284 
L 350.738297 92.005133 
L 356.423927 92.120665 
L 362.109558 79.989142 
L 367.795189 116.383713 
L 373.480819 116.383713 
L 379.16645 116.383713 
L 384.852081 116.383713 
L 390.537711 116.383713 
L 396.223342 116.383713 
L 401.908973 116.383713 
L 407.594603 116.383713 
" style="fill:none;stroke:#377eb8;stroke-dasharray:12,12;stroke-dashoffset:0;stroke-linecap:round;stroke-linejoin:miter;stroke-width:2;"/>
   </g>
   <g id="patch_3">
    <path d="M 78.965151 236.05972 
L 78.965151 7.2 
" style="fill:none;stroke:#000000;stroke-linecap:square;stroke-linejoin:miter;stroke-width:0.8;"/>
   </g>
   <g id="patch_4">
    <path d="M 78.965151 236.05972 
L 429.2 236.05972 
" style="fill:none;stroke:#000000;stroke-linecap:square;stroke-linejoin:miter;stroke-width:0.8;"/>
   </g>
   <g id="matplotlib.axis_1">
    <g id="xtick_1">
     <g id="line2d_3">
      <path clip-path="url(#pc057bc37f7)" d="M 94.884917 236.05972 
L 94.884917 7.2 
" style="fill:none;stroke:#bfbfbf;stroke-dasharray:0.8,2.4;stroke-dashoffset:0;stroke-linecap:round;stroke-linejoin:miter;stroke-width:0.8;"/>
     </g>
     <g id="line2d_4">
      <defs>
       <path d="M 0 0 
L 0 3.5 
" id="me03ce4226f" style="stroke:#000000;stroke-width:0.8;"/>
      </defs>
      <g>
       <use style="stroke:#000000;stroke-width:0.8;" x="94.884917" xlink:href="#me03ce4226f" y="236.05972"/>
      </g>
     </g>
     <g id="text_1">
      <!-- $\mathdefault{0.0}$ -->
      <g transform="translate(84.221885 256.365688)scale(0.18 -0.18)">
       <defs>
        <path d="M 2688 2025 
C 2688 2416 2682 3080 2413 3591 
C 2176 4039 1798 4198 1466 4198 
C 1158 4198 768 4058 525 3597 
C 269 3118 243 2524 243 2025 
C 243 1661 250 1106 448 619 
C 723 -39 1216 -128 1466 -128 
C 1760 -128 2208 -7 2470 600 
C 2662 1042 2688 1559 2688 2025 
z
M 1466 -26 
C 1056 -26 813 325 723 812 
C 653 1188 653 1738 653 2096 
C 653 2588 653 2997 736 3387 
C 858 3929 1216 4096 1466 4096 
C 1728 4096 2067 3923 2189 3400 
C 2272 3036 2278 2607 2278 2096 
C 2278 1680 2278 1169 2202 792 
C 2067 95 1690 -26 1466 -26 
z
" id="CMR17-30" transform="scale(0.015625)"/>
        <path d="M 1178 307 
C 1178 492 1024 619 870 619 
C 685 619 557 466 557 313 
C 557 128 710 0 864 0 
C 1050 0 1178 153 1178 307 
z
" id="CMMI12-3a" transform="scale(0.015625)"/>
       </defs>
       <use transform="scale(0.996264)" xlink:href="#CMR17-30"/>
       <use transform="translate(45.690477 0)scale(0.996264)" xlink:href="#CMMI12-3a"/>
       <use transform="translate(72.787654 0)scale(0.996264)" xlink:href="#CMR17-30"/>
      </g>
     </g>
    </g>
    <g id="xtick_2">
     <g id="line2d_5">
      <path clip-path="url(#pc057bc37f7)" d="M 208.59753 236.05972 
L 208.59753 7.2 
" style="fill:none;stroke:#bfbfbf;stroke-dasharray:0.8,2.4;stroke-dashoffset:0;stroke-linecap:round;stroke-linejoin:miter;stroke-width:0.8;"/>
     </g>
     <g id="line2d_6">
      <g>
       <use style="stroke:#000000;stroke-width:0.8;" x="208.59753" xlink:href="#me03ce4226f" y="236.05972"/>
      </g>
     </g>
     <g id="text_2">
      <!-- $\mathdefault{0.2}$ -->
      <g transform="translate(197.934498 256.365688)scale(0.18 -0.18)">
       <defs>
        <path d="M 2669 989 
L 2554 989 
C 2490 536 2438 459 2413 420 
C 2381 369 1920 369 1830 369 
L 602 369 
C 832 619 1280 1072 1824 1597 
C 2214 1967 2669 2402 2669 3035 
C 2669 3790 2067 4224 1395 4224 
C 691 4224 262 3604 262 3030 
C 262 2780 448 2748 525 2748 
C 589 2748 781 2787 781 3010 
C 781 3207 614 3264 525 3264 
C 486 3264 448 3258 422 3245 
C 544 3790 915 4058 1306 4058 
C 1862 4058 2227 3617 2227 3035 
C 2227 2479 1901 2000 1536 1584 
L 262 146 
L 262 0 
L 2515 0 
L 2669 989 
z
" id="CMR17-32" transform="scale(0.015625)"/>
       </defs>
       <use transform="scale(0.996264)" xlink:href="#CMR17-30"/>
       <use transform="translate(45.690477 0)scale(0.996264)" xlink:href="#CMMI12-3a"/>
       <use transform="translate(72.787654 0)scale(0.996264)" xlink:href="#CMR17-32"/>
      </g>
     </g>
    </g>
    <g id="xtick_3">
     <g id="line2d_7">
      <path clip-path="url(#pc057bc37f7)" d="M 322.310143 236.05972 
L 322.310143 7.2 
" style="fill:none;stroke:#bfbfbf;stroke-dasharray:0.8,2.4;stroke-dashoffset:0;stroke-linecap:round;stroke-linejoin:miter;stroke-width:0.8;"/>
     </g>
     <g id="line2d_8">
      <g>
       <use style="stroke:#000000;stroke-width:0.8;" x="322.310143" xlink:href="#me03ce4226f" y="236.05972"/>
      </g>
     </g>
     <g id="text_3">
      <!-- $\mathdefault{0.4}$ -->
      <g transform="translate(311.647112 256.365688)scale(0.18 -0.18)">
       <defs>
        <path d="M 2150 4122 
C 2150 4256 2144 4256 2029 4256 
L 128 1254 
L 128 1088 
L 1779 1088 
L 1779 457 
C 1779 224 1766 160 1318 160 
L 1197 160 
L 1197 0 
C 1402 0 1747 0 1965 0 
C 2182 0 2528 0 2733 0 
L 2733 160 
L 2611 160 
C 2163 160 2150 224 2150 457 
L 2150 1088 
L 2803 1088 
L 2803 1254 
L 2150 1254 
L 2150 4122 
z
M 1798 3703 
L 1798 1254 
L 256 1254 
L 1798 3703 
z
" id="CMR17-34" transform="scale(0.015625)"/>
       </defs>
       <use transform="scale(0.996264)" xlink:href="#CMR17-30"/>
       <use transform="translate(45.690477 0)scale(0.996264)" xlink:href="#CMMI12-3a"/>
       <use transform="translate(72.787654 0)scale(0.996264)" xlink:href="#CMR17-34"/>
      </g>
     </g>
    </g>
    <g id="text_4">
     <!-- Time (s) -->
     <g transform="translate(212.680468 281.0357)scale(0.22 -0.22)">
      <defs>
       <path d="M 4051 4608 
L 218 4608 
L 122 2833 
L 397 2833 
C 442 3152 499 3395 570 3599 
C 736 4065 1043 4308 1478 4308 
C 1690 4308 1779 4237 1779 4078 
L 1779 786 
L 1779 600 
C 1779 332 1722 300 1203 300 
L 1037 300 
L 1037 0 
L 3232 0 
L 3232 300 
L 3066 300 
C 2554 300 2496 332 2496 600 
L 2496 786 
L 2496 4078 
C 2496 4237 2586 4308 2797 4308 
C 3187 4308 3501 4090 3661 3707 
C 3757 3472 3821 3197 3872 2833 
L 4147 2833 
L 4051 4608 
z
" id="CenturySchL-Roma-54" transform="scale(0.015625)"/>
       <path d="M 1318 2944 
L 115 2944 
L 115 2638 
L 442 2638 
C 678 2638 717 2593 717 2317 
L 717 787 
L 717 531 
C 717 275 646 230 237 230 
L 192 230 
L 192 0 
L 1850 0 
L 1850 230 
L 1805 230 
C 1389 230 1318 274 1318 526 
L 1318 779 
L 1318 2944 
z
M 1018 4581 
C 813 4581 646 4415 646 4211 
C 646 4013 813 3840 1011 3840 
C 1222 3840 1389 4006 1389 4211 
C 1389 4415 1222 4581 1018 4581 
z
" id="CenturySchL-Roma-69" transform="scale(0.015625)"/>
       <path d="M 1286 2944 
L 147 2944 
L 147 2638 
L 410 2638 
C 646 2638 685 2593 685 2317 
L 685 787 
L 685 538 
C 685 275 614 230 205 230 
L 179 230 
L 179 0 
L 1792 0 
L 1792 230 
L 1766 230 
C 1357 230 1286 275 1286 537 
L 1286 786 
L 1286 1693 
C 1286 2261 1600 2683 2016 2683 
C 2182 2683 2362 2593 2438 2472 
C 2528 2351 2566 2165 2566 1903 
L 2566 786 
L 2566 530 
C 2566 275 2496 230 2080 230 
L 2054 230 
L 2054 0 
L 3674 0 
L 3674 230 
L 3648 230 
C 3238 230 3168 275 3168 530 
L 3168 786 
L 3168 1635 
C 3168 2274 3456 2683 3904 2683 
C 4115 2683 4288 2561 4371 2363 
C 4429 2223 4448 2082 4448 1833 
L 4448 786 
L 4448 530 
C 4448 275 4378 230 3962 230 
L 3936 230 
L 3936 0 
L 5555 0 
L 5555 230 
L 5530 230 
C 5120 230 5050 275 5050 537 
L 5050 786 
L 5050 1961 
C 5050 2357 5011 2491 4845 2708 
C 4659 2945 4397 3072 4090 3072 
C 3674 3072 3366 2876 3091 2439 
C 2982 2819 2637 3072 2208 3072 
C 1824 3072 1536 2889 1286 2491 
L 1286 2944 
z
" id="CenturySchL-Roma-6d" transform="scale(0.015625)"/>
       <path d="M 2976 1472 
C 2982 2420 2438 3090 1658 3090 
C 838 3090 224 2384 224 1430 
C 224 540 806 -64 1670 -64 
C 2278 -64 2714 236 2976 844 
L 2752 966 
C 2490 473 2221 281 1792 281 
C 1466 281 1229 422 1062 704 
C 947 896 896 1120 902 1472 
L 2976 1472 
z
M 909 1747 
C 909 1942 934 2080 998 2256 
C 1133 2633 1338 2816 1645 2816 
C 2035 2816 2291 2482 2291 1979 
C 2291 1797 2234 1747 2029 1747 
L 909 1747 
z
" id="CenturySchL-Roma-65" transform="scale(0.015625)"/>
       <path d="M 1786 4701 
C 1402 4465 1197 4299 979 4043 
C 493 3468 230 2734 230 1961 
C 230 1233 461 549 890 -19 
C 1133 -326 1350 -517 1786 -786 
L 1786 -549 
C 1146 13 890 735 890 1961 
C 890 3187 1146 3903 1786 4465 
L 1786 4701 
z
" id="CenturySchL-Roma-28" transform="scale(0.015625)"/>
       <path d="M 2496 3072 
L 2272 3072 
L 2086 2842 
C 1856 3021 1626 3097 1306 3097 
C 742 3097 371 2728 371 2173 
C 371 1925 454 1714 595 1588 
C 742 1453 890 1390 1274 1300 
L 1613 1224 
C 2118 1103 2298 975 2298 721 
C 2298 421 2035 211 1658 211 
C 1120 211 736 561 582 1208 
L 326 1208 
L 326 0 
L 550 0 
L 774 250 
C 1037 38 1331 -64 1651 -64 
C 2278 -64 2694 325 2694 918 
C 2694 1198 2605 1414 2426 1561 
C 2272 1695 2144 1746 1754 1828 
L 1434 1899 
C 1082 1975 1082 1975 966 2039 
C 826 2103 742 2236 742 2377 
C 742 2631 986 2816 1338 2816 
C 1581 2816 1779 2733 1958 2561 
C 2099 2420 2170 2293 2272 1999 
L 2496 1999 
L 2496 3072 
z
" id="CenturySchL-Roma-73" transform="scale(0.015625)"/>
       <path d="M 346 -786 
C 730 -549 934 -383 1152 -121 
C 1638 447 1901 1188 1901 1961 
C 1901 2689 1670 3373 1242 3935 
C 998 4248 781 4439 346 4701 
L 346 4465 
C 986 3903 1242 3187 1242 1961 
C 1242 728 986 13 346 -549 
L 346 -786 
z
" id="CenturySchL-Roma-29" transform="scale(0.015625)"/>
      </defs>
      <use transform="scale(0.996264)" xlink:href="#CenturySchL-Roma-54"/>
      <use transform="translate(66.450031 0)scale(0.996264)" xlink:href="#CenturySchL-Roma-69"/>
      <use transform="translate(97.831344 0)scale(0.996264)" xlink:href="#CenturySchL-Roma-6d"/>
      <use transform="translate(186.398251 0)scale(0.996264)" xlink:href="#CenturySchL-Roma-65"/>
      <use transform="translate(263.906621 0)scale(0.996264)" xlink:href="#CenturySchL-Roma-28"/>
      <use transform="translate(297.081851 0)scale(0.996264)" xlink:href="#CenturySchL-Roma-73"/>
      <use transform="translate(343.207661 0)scale(0.996264)" xlink:href="#CenturySchL-Roma-29"/>
     </g>
    </g>
   </g>
   <g id="matplotlib.axis_2">
    <g id="ytick_1">
     <g id="line2d_9">
      <path clip-path="url(#pc057bc37f7)" d="M 78.965151 189.172855 
L 429.2 189.172855 
" style="fill:none;stroke:#bfbfbf;stroke-dasharray:0.8,2.4;stroke-dashoffset:0;stroke-linecap:round;stroke-linejoin:miter;stroke-width:0.8;"/>
     </g>
     <g id="line2d_10">
      <defs>
       <path d="M 0 0 
L -3.5 0 
" id="ma87b867fd2" style="stroke:#000000;stroke-width:0.8;"/>
      </defs>
      <g>
       <use style="stroke:#000000;stroke-width:0.8;" x="78.965151" xlink:href="#ma87b867fd2" y="189.172855"/>
      </g>
     </g>
     <g id="text_5">
      <!-- $\mathdefault{−10}$ -->
      <g transform="translate(41.568837 195.825839)scale(0.18 -0.18)">
       <defs>
        <path d="M 4218 1472 
C 4326 1472 4442 1472 4442 1600 
C 4442 1728 4326 1728 4218 1728 
L 755 1728 
C 646 1728 531 1728 531 1600 
C 531 1472 646 1472 755 1472 
L 4218 1472 
z
" id="CMSY10-0" transform="scale(0.015625)"/>
        <path d="M 1702 4058 
C 1702 4192 1696 4192 1606 4192 
C 1357 3916 979 3827 621 3827 
C 602 3827 570 3827 563 3808 
C 557 3795 557 3782 557 3648 
C 755 3648 1088 3686 1344 3839 
L 1344 461 
C 1344 236 1331 160 781 160 
L 589 160 
L 589 0 
C 896 0 1216 0 1523 0 
C 1830 0 2150 0 2458 0 
L 2458 160 
L 2266 160 
C 1715 160 1702 230 1702 458 
L 1702 4058 
z
" id="CMR17-31" transform="scale(0.015625)"/>
       </defs>
       <use transform="scale(0.996264)" xlink:href="#CMSY10-0"/>
       <use transform="translate(77.487468 0)scale(0.996264)" xlink:href="#CMR17-31"/>
       <use transform="translate(123.177945 0)scale(0.996264)" xlink:href="#CMR17-30"/>
      </g>
     </g>
    </g>
    <g id="ytick_2">
     <g id="line2d_11">
      <path clip-path="url(#pc057bc37f7)" d="M 78.965151 116.383713 
L 429.2 116.383713 
" style="fill:none;stroke:#bfbfbf;stroke-dasharray:0.8,2.4;stroke-dashoffset:0;stroke-linecap:round;stroke-linejoin:miter;stroke-width:0.8;"/>
     </g>
     <g id="line2d_12">
      <g>
       <use style="stroke:#000000;stroke-width:0.8;" x="78.965151" xlink:href="#ma87b867fd2" y="116.383713"/>
      </g>
     </g>
     <g id="text_6">
      <!-- $\mathdefault{0}$ -->
      <g transform="translate(63.740865 123.036697)scale(0.18 -0.18)">
       <use transform="scale(0.996264)" xlink:href="#CMR17-30"/>
      </g>
     </g>
    </g>
    <g id="ytick_3">
     <g id="line2d_13">
      <path clip-path="url(#pc057bc37f7)" d="M 78.965151 43.594571 
L 429.2 43.594571 
" style="fill:none;stroke:#bfbfbf;stroke-dasharray:0.8,2.4;stroke-dashoffset:0;stroke-linecap:round;stroke-linejoin:miter;stroke-width:0.8;"/>
     </g>
     <g id="line2d_14">
      <g>
       <use style="stroke:#000000;stroke-width:0.8;" x="78.965151" xlink:href="#ma87b867fd2" y="43.594571"/>
      </g>
     </g>
     <g id="text_7">
      <!-- $\mathdefault{10}$ -->
      <g transform="translate(55.516579 50.247555)scale(0.18 -0.18)">
       <use transform="scale(0.996264)" xlink:href="#CMR17-31"/>
       <use transform="translate(45.690477 0)scale(0.996264)" xlink:href="#CMR17-30"/>
      </g>
     </g>
    </g>
    <g id="text_8">
     <!-- Input ($\textup{m/s}^2$) -->
     <g transform="translate(27.404537 182.247514)rotate(-90)scale(0.22 -0.22)">
      <defs>
       <path d="M 1664 3823 
L 1664 4007 
C 1664 4276 1722 4308 2234 4308 
L 2362 4308 
L 2362 4608 
L 243 4608 
L 243 4308 
L 371 4308 
C 890 4308 947 4276 947 4007 
L 947 3823 
L 947 786 
L 947 600 
C 947 332 890 300 371 300 
L 243 300 
L 243 0 
L 2362 0 
L 2362 300 
L 2234 300 
C 1722 300 1664 332 1664 600 
L 1664 786 
L 1664 3823 
z
" id="CenturySchL-Roma-49" transform="scale(0.015625)"/>
       <path d="M 1280 2944 
L 173 2944 
L 173 2638 
L 403 2638 
C 640 2638 678 2593 678 2317 
L 678 787 
L 678 531 
C 678 275 608 230 198 230 
L 173 230 
L 173 0 
L 1792 0 
L 1792 230 
L 1766 230 
C 1350 230 1280 275 1280 530 
L 1280 786 
L 1280 1450 
C 1280 1763 1325 2050 1395 2197 
C 1530 2485 1818 2683 2093 2683 
C 2259 2683 2451 2587 2547 2459 
C 2643 2325 2688 2127 2688 1820 
L 2688 786 
L 2688 530 
C 2688 275 2618 230 2202 230 
L 2176 230 
L 2176 0 
L 3795 0 
L 3795 230 
L 3770 230 
C 3360 230 3290 275 3290 530 
L 3290 786 
L 3290 1789 
C 3290 2248 3270 2363 3155 2581 
C 2995 2887 2669 3072 2291 3072 
C 1882 3072 1562 2883 1280 2465 
L 1280 2944 
z
" id="CenturySchL-Roma-6e" transform="scale(0.015625)"/>
       <path d="M 1286 2944 
L 179 2944 
L 179 2638 
L 410 2638 
C 646 2638 685 2593 685 2318 
L 685 -496 
L 685 -750 
C 685 -1006 614 -1050 205 -1050 
L 179 -1050 
L 179 -1280 
L 1843 -1280 
L 1843 -1050 
L 1773 -1050 
C 1357 -1050 1286 -1006 1286 -751 
L 1286 -496 
L 1286 428 
C 1498 58 1741 -89 2131 -89 
C 2874 -89 3424 593 3424 1504 
C 3424 2385 2874 3072 2170 3072 
C 1773 3072 1510 2908 1286 2529 
L 1286 2944 
z
M 2054 2727 
C 2496 2727 2752 2288 2752 1542 
C 2752 721 2490 256 2035 256 
C 1581 256 1280 728 1280 1460 
C 1280 2249 1568 2727 2054 2727 
z
" id="CenturySchL-Roma-70" transform="scale(0.015625)"/>
       <path d="M 2637 0 
L 3802 0 
L 3802 301 
L 3642 301 
C 3290 301 3238 358 3238 765 
L 3238 2994 
L 2035 2994 
L 2035 2688 
L 2362 2688 
C 2598 2688 2637 2643 2637 2365 
L 2637 1572 
C 2637 1204 2598 991 2502 778 
C 2368 494 2112 326 1798 326 
C 1600 326 1434 396 1350 523 
C 1267 643 1254 707 1254 1056 
L 1254 2994 
L 134 2994 
L 134 2688 
L 378 2688 
C 614 2688 653 2643 653 2365 
L 653 974 
C 653 645 678 497 774 349 
C 947 84 1254 -64 1638 -64 
C 2061 -64 2355 110 2637 520 
L 2637 0 
z
" id="CenturySchL-Roma-75" transform="scale(0.015625)"/>
       <path d="M 1242 3008 
L 1242 4288 
L 979 4288 
C 915 3448 634 3020 115 2982 
L 115 2733 
L 640 2733 
L 640 1105 
C 640 658 653 498 717 351 
C 819 83 1075 -64 1446 -64 
C 1696 -64 1914 13 2061 153 
C 2272 358 2394 696 2394 1048 
C 2394 1086 2394 1131 2387 1195 
L 2118 1195 
C 2099 620 1933 326 1619 326 
C 1472 326 1344 402 1299 511 
C 1261 600 1242 760 1242 990 
L 1242 2733 
L 2182 2733 
L 2182 3008 
L 1242 3008 
z
" id="CenturySchL-Roma-74" transform="scale(0.015625)"/>
       <path d="M 1562 4736 
L -147 -64 
L 224 -64 
L 1933 4736 
L 1562 4736 
z
" id="CenturySchL-Roma-2f" transform="scale(0.015625)"/>
      </defs>
      <use transform="scale(0.996264)" xlink:href="#CenturySchL-Roma-49"/>
      <use transform="translate(40.547425 0)scale(0.996264)" xlink:href="#CenturySchL-Roma-6e"/>
      <use transform="translate(101.419056 0)scale(0.996264)" xlink:href="#CenturySchL-Roma-70"/>
      <use transform="translate(158.604543 0)scale(0.996264)" xlink:href="#CenturySchL-Roma-75"/>
      <use transform="translate(219.476174 0)scale(0.996264)" xlink:href="#CenturySchL-Roma-74"/>
      <use transform="translate(285.92505 0)scale(0.996264)" xlink:href="#CenturySchL-Roma-28"/>
      <use transform="translate(319.100279 0)scale(0.996264)" xlink:href="#CenturySchL-Roma-6d"/>
      <use transform="translate(407.667186 0)scale(0.996264)" xlink:href="#CenturySchL-Roma-2f"/>
      <use transform="translate(435.362356 0)scale(0.996264)" xlink:href="#CenturySchL-Roma-73"/>
      <use transform="translate(481.488166 46.896404)scale(0.697382)" xlink:href="#CMR17-32"/>
      <use transform="translate(513.96948 0)scale(0.996264)" xlink:href="#CenturySchL-Roma-29"/>
     </g>
    </g>
   </g>
   <g id="legend_1">
    <g id="patch_5">
     <path d="M 270.565405 65.826257 
L 423.8 65.826257 
Q 427.4 65.826257 427.4 62.226257 
L 427.4 12.6 
Q 427.4 9 423.8 9 
L 270.565405 9 
Q 266.965405 9 266.965405 12.6 
L 266.965405 62.226257 
Q 266.965405 65.826257 270.565405 65.826257 
z
" style="fill:#ffffff;stroke:#cccccc;stroke-linejoin:miter;"/>
    </g>
    <g id="line2d_15">
     <path d="M 274.165405 23.205968 
L 310.165405 23.205968 
" style="fill:none;stroke:#e41a1c;stroke-linecap:square;stroke-width:2;"/>
    </g>
    <g id="line2d_16"/>
    <g id="text_9">
     <!-- Discrete -->
     <g transform="translate(324.565405 29.505968)scale(0.18 -0.18)">
      <defs>
       <path d="M 877 786 
L 877 600 
C 877 332 819 300 307 300 
L 186 300 
L 186 0 
L 2336 0 
C 2906 0 3341 89 3680 281 
C 4326 644 4685 1372 4685 2329 
C 4685 3204 4365 3900 3776 4282 
C 3424 4506 2950 4608 2221 4608 
L 186 4608 
L 186 4308 
L 307 4308 
C 819 4308 877 4276 877 4007 
L 877 3823 
L 877 786 
z
M 1958 300 
C 1638 300 1594 339 1594 652 
L 1594 3950 
C 1594 4263 1638 4308 1958 4308 
L 2291 4308 
C 3386 4308 3840 3715 3840 2304 
C 3840 874 3424 300 2394 300 
L 1958 300 
z
" id="CenturySchL-Roma-44" transform="scale(0.015625)"/>
       <path d="M 2477 968 
C 2272 510 2054 326 1722 326 
C 1210 326 890 789 890 1532 
C 890 2301 1203 2816 1677 2816 
C 1869 2816 2035 2726 2035 2625 
C 2035 2606 2022 2587 1997 2548 
C 1894 2428 1869 2364 1869 2257 
C 1869 2047 2029 1901 2253 1901 
C 2477 1901 2643 2079 2643 2333 
C 2643 2759 2214 3090 1645 3090 
C 813 3090 218 2410 218 1462 
C 218 559 762 -64 1555 -64 
C 2125 -64 2451 197 2726 872 
L 2477 968 
z
" id="CenturySchL-Roma-63" transform="scale(0.015625)"/>
       <path d="M 1267 2944 
L 134 2944 
L 134 2638 
L 397 2638 
C 634 2638 672 2593 672 2317 
L 672 787 
L 672 531 
C 672 275 602 230 186 230 
L 160 230 
L 160 0 
L 1869 0 
L 1869 230 
L 1747 230 
C 1338 230 1267 275 1267 531 
L 1267 787 
L 1267 851 
C 1267 1332 1357 1818 1517 2183 
C 1670 2541 1888 2740 2157 2772 
C 2067 2669 2042 2604 2042 2481 
C 2042 2275 2189 2127 2394 2127 
C 2624 2127 2784 2300 2784 2561 
C 2784 2868 2566 3072 2227 3072 
C 1824 3072 1472 2747 1267 2185 
L 1267 2944 
z
" id="CenturySchL-Roma-72" transform="scale(0.015625)"/>
      </defs>
      <use transform="scale(0.996264)" xlink:href="#CenturySchL-Roma-44"/>
      <use transform="translate(77.50837 0)scale(0.996264)" xlink:href="#CenturySchL-Roma-69"/>
      <use transform="translate(108.889683 0)scale(0.996264)" xlink:href="#CenturySchL-Roma-73"/>
      <use transform="translate(155.015494 0)scale(0.996264)" xlink:href="#CenturySchL-Roma-63"/>
      <use transform="translate(199.249062 0)scale(0.996264)" xlink:href="#CenturySchL-Roma-72"/>
      <use transform="translate(243.482631 0)scale(0.996264)" xlink:href="#CenturySchL-Roma-65"/>
      <use transform="translate(293.295832 0)scale(0.996264)" xlink:href="#CenturySchL-Roma-74"/>
      <use transform="translate(332.049538 0)scale(0.996264)" xlink:href="#CenturySchL-Roma-65"/>
     </g>
    </g>
    <g id="line2d_17">
     <path d="M 274.165405 48.919096 
L 310.165405 48.919096 
" style="fill:none;stroke:#377eb8;stroke-dasharray:12,12;stroke-dashoffset:0;stroke-linecap:round;stroke-linejoin:miter;stroke-width:2;"/>
    </g>
    <g id="line2d_18"/>
    <g id="text_10">
     <!-- Continuous -->
     <g transform="translate(324.565405 55.219096)scale(0.18 -0.18)">
      <defs>
       <path d="M 4090 4608 
L 3846 4608 
L 3590 4225 
C 3136 4557 2886 4653 2458 4653 
C 1837 4653 1325 4404 890 3890 
C 480 3407 288 2873 288 2218 
C 288 851 1190 -128 2451 -128 
C 3475 -128 4128 470 4275 1537 
L 3974 1588 
C 3910 1251 3834 1023 3718 833 
C 3456 395 3046 172 2528 172 
C 1581 172 1133 826 1133 2193 
C 1133 2910 1229 3393 1446 3774 
C 1645 4130 2042 4352 2451 4352 
C 2899 4352 3296 4117 3539 3710 
C 3661 3500 3757 3252 3904 2763 
L 4186 2763 
L 4090 4608 
z
" id="CenturySchL-Roma-43" transform="scale(0.015625)"/>
       <path d="M 1613 3090 
C 832 3090 218 2397 218 1507 
C 218 636 832 -64 1600 -64 
C 2368 -64 2982 636 2982 1513 
C 2982 2384 2368 3090 1613 3090 
z
M 1613 2816 
C 2061 2816 2310 2352 2310 1513 
C 2310 669 2061 211 1600 211 
C 1139 211 890 669 890 1507 
C 890 2371 1133 2816 1613 2816 
z
" id="CenturySchL-Roma-6f" transform="scale(0.015625)"/>
      </defs>
      <use transform="scale(0.996264)" xlink:href="#CenturySchL-Roma-43"/>
      <use transform="translate(71.929985 0)scale(0.996264)" xlink:href="#CenturySchL-Roma-6f"/>
      <use transform="translate(121.743185 0)scale(0.996264)" xlink:href="#CenturySchL-Roma-6e"/>
      <use transform="translate(182.614816 0)scale(0.996264)" xlink:href="#CenturySchL-Roma-74"/>
      <use transform="translate(221.368522 0)scale(0.996264)" xlink:href="#CenturySchL-Roma-69"/>
      <use transform="translate(252.749835 0)scale(0.996264)" xlink:href="#CenturySchL-Roma-6e"/>
      <use transform="translate(313.621466 0)scale(0.996264)" xlink:href="#CenturySchL-Roma-75"/>
      <use transform="translate(374.493097 0)scale(0.996264)" xlink:href="#CenturySchL-Roma-6f"/>
      <use transform="translate(424.306297 0)scale(0.996264)" xlink:href="#CenturySchL-Roma-75"/>
      <use transform="translate(485.177928 0)scale(0.996264)" xlink:href="#CenturySchL-Roma-73"/>
     </g>
    </g>
   </g>
  </g>
 </g>
 <defs>
  <clipPath id="pc057bc37f7">
   <rect height="228.85972" width="350.234849" x="78.965151" y="7.2"/>
  </clipPath>
 </defs>
</svg>
