<?xml version="1.0" encoding="utf-8" standalone="no"?>
<!DOCTYPE svg PUBLIC "-//W3C//DTD SVG 1.1//EN"
  "http://www.w3.org/Graphics/SVG/1.1/DTD/svg11.dtd">
<svg height="292.4pt" version="1.1" viewBox="0 0 436.4 292.4" width="436.4pt" xmlns="http://www.w3.org/2000/svg" xmlns:xlink="http://www.w3.org/1999/xlink">
 <metadata>
  <rdf:RDF xmlns:cc="http://creativecommons.org/ns#" xmlns:dc="http://purl.org/dc/elements/1.1/" xmlns:rdf="http://www.w3.org/1999/02/22-rdf-syntax-ns#">
   <cc:Work>
    <dc:type rdf:resource="http://purl.org/dc/dcmitype/StillImage"/>
    <dc:date>2022-03-16T21:04:27.877190</dc:date>
    <dc:format>image/svg+xml</dc:format>
    <dc:creator>
     <cc:Agent>
      <dc:title>Matplotlib v3.4.2, https://matplotlib.org/</dc:title>
     </cc:Agent>
    </dc:creator>
   </cc:Work>
  </rdf:RDF>
 </metadata>
 <defs>
  <style type="text/css">*{stroke-linecap:butt;stroke-linejoin:round;}</style>
 </defs>
 <g id="figure_1">
  <g id="patch_1">
   <path d="M 0 292.4 
L 436.4 292.4 
L 436.4 0 
L 0 0 
z
" style="fill:none;"/>
  </g>
  <g id="axes_1">
   <g id="patch_2">
    <path d="M 78.965151 236.05972 
L 429.2 236.05972 
L 429.2 13.852984 
L 78.965151 13.852984 
z
" style="fill:none;"/>
   </g>
   <g id="PolyCollection_1">
    <path clip-path="url(#pa2c8e073bf)" d="M 94.884917 136.386135 
L 94.884917 136.386135 
L 111.642565 227.944571 
L 128.400213 227.944571 
L 145.157861 227.944571 
L 161.91551 136.386135 
L 178.673158 136.386135 
L 195.430806 136.386135 
L 212.188455 136.386135 
L 228.946103 136.386135 
L 245.703751 136.386135 
L 262.461399 136.386135 
L 279.219048 136.386135 
L 295.976696 136.386135 
L 312.734344 136.386135 
L 329.491993 136.386135 
L 346.249641 136.386135 
L 346.249641 136.386135 
L 346.249641 136.386135 
L 329.491993 136.386135 
L 312.734344 136.386135 
L 295.976696 136.386135 
L 279.219048 136.386135 
L 262.461399 136.386135 
L 245.703751 136.386135 
L 228.946103 136.386135 
L 212.188455 136.386135 
L 195.430806 136.386135 
L 178.673158 136.386135 
L 161.91551 136.386135 
L 145.157861 118.347589 
L 128.400213 118.347589 
L 111.642565 118.347589 
L 94.884917 136.386135 
z
" style="fill:#e41a1c;fill-opacity:0.2;"/>
   </g>
   <g id="PolyCollection_2">
    <path clip-path="url(#pa2c8e073bf)" d="M 94.884917 136.386135 
L 94.884917 136.386135 
L 111.642565 207.130522 
L 128.400213 207.130371 
L 145.157861 207.130453 
L 161.91551 136.386135 
L 178.673158 136.386135 
L 195.430806 136.386135 
L 212.188455 136.386135 
L 228.946103 136.386135 
L 245.703751 136.386135 
L 262.461399 136.386135 
L 279.219048 136.386135 
L 295.976696 136.386135 
L 312.734344 136.386135 
L 329.491993 136.386135 
L 346.249641 136.386135 
L 363.007289 136.386135 
L 379.764938 136.386135 
L 379.764938 136.386135 
L 379.764938 136.386135 
L 363.007289 136.386135 
L 346.249641 136.386135 
L 329.491993 136.386135 
L 312.734344 136.386135 
L 295.976696 136.386135 
L 279.219048 136.386135 
L 262.461399 136.386135 
L 245.703751 136.386135 
L 228.946103 136.386135 
L 212.188455 136.386135 
L 195.430806 136.386135 
L 178.673158 136.386135 
L 161.91551 136.386135 
L 145.157861 65.641604 
L 128.400213 65.64161 
L 111.642565 65.641599 
L 94.884917 136.386135 
z
" style="fill:#377eb8;fill-opacity:0.2;"/>
   </g>
   <g id="line2d_1">
    <path clip-path="url(#pa2c8e073bf)" d="M 94.884917 136.386135 
L 111.642565 173.14608 
L 128.400213 173.14608 
L 145.157861 173.14608 
L 161.91551 136.386135 
L 178.673158 136.386135 
L 195.430806 136.386135 
L 212.188455 136.386135 
L 228.946103 136.386135 
L 245.703751 136.386135 
L 262.461399 136.386135 
L 279.219048 136.386135 
L 295.976696 136.386135 
L 312.734344 136.386135 
L 329.491993 136.386135 
L 346.249641 136.386135 
L 363.007289 136.386135 
L 379.764938 136.386135 
L 396.522586 136.386135 
L 413.280234 136.386135 
" style="fill:none;stroke:#e41a1c;stroke-linecap:square;stroke-width:2;"/>
   </g>
   <g id="line2d_2">
    <path clip-path="url(#pa2c8e073bf)" d="M 94.884917 136.386135 
L 111.642565 136.38606 
L 128.400213 136.38599 
L 145.157861 136.386028 
L 161.91551 136.386135 
L 178.673158 136.386135 
L 195.430806 136.386135 
L 212.188455 136.386135 
L 228.946103 136.386135 
L 245.703751 136.386135 
L 262.461399 136.386135 
L 279.219048 136.386135 
L 295.976696 136.386135 
L 312.734344 136.386135 
L 329.491993 136.386135 
L 346.249641 136.386135 
L 363.007289 136.386135 
L 379.764938 136.386135 
" style="fill:none;stroke:#377eb8;stroke-dasharray:12,12;stroke-dashoffset:0;stroke-linecap:round;stroke-linejoin:miter;stroke-width:2;"/>
   </g>
   <g id="patch_3">
    <path d="M 78.965151 236.05972 
L 78.965151 13.852984 
" style="fill:none;stroke:#000000;stroke-linecap:square;stroke-linejoin:miter;stroke-width:0.8;"/>
   </g>
   <g id="patch_4">
    <path d="M 78.965151 236.05972 
L 429.2 236.05972 
" style="fill:none;stroke:#000000;stroke-linecap:square;stroke-linejoin:miter;stroke-width:0.8;"/>
   </g>
   <g id="matplotlib.axis_1">
    <g id="xtick_1">
     <g id="line2d_3">
      <path clip-path="url(#pa2c8e073bf)" d="M 94.884917 236.05972 
L 94.884917 13.852984 
" style="fill:none;stroke:#bfbfbf;stroke-dasharray:0.8,2.4;stroke-dashoffset:0;stroke-linecap:round;stroke-linejoin:miter;stroke-width:0.8;"/>
     </g>
     <g id="line2d_4">
      <defs>
       <path d="M 0 0 
L 0 3.5 
" id="mfc9332f2dd" style="stroke:#000000;stroke-width:0.8;"/>
      </defs>
      <g>
       <use style="stroke:#000000;stroke-width:0.8;" x="94.884917" xlink:href="#mfc9332f2dd" y="236.05972"/>
      </g>
     </g>
     <g id="text_1">
      <!-- $\mathdefault{0.00}$ -->
      <g transform="translate(80.109742 256.365688)scale(0.18 -0.18)">
       <defs>
        <path d="M 2688 2025 
C 2688 2416 2682 3080 2413 3591 
C 2176 4039 1798 4198 1466 4198 
C 1158 4198 768 4058 525 3597 
C 269 3118 243 2524 243 2025 
C 243 1661 250 1106 448 619 
C 723 -39 1216 -128 1466 -128 
C 1760 -128 2208 -7 2470 600 
C 2662 1042 2688 1559 2688 2025 
z
M 1466 -26 
C 1056 -26 813 325 723 812 
C 653 1188 653 1738 653 2096 
C 653 2588 653 2997 736 3387 
C 858 3929 1216 4096 1466 4096 
C 1728 4096 2067 3923 2189 3400 
C 2272 3036 2278 2607 2278 2096 
C 2278 1680 2278 1169 2202 792 
C 2067 95 1690 -26 1466 -26 
z
" id="CMR17-30" transform="scale(0.015625)"/>
        <path d="M 1178 307 
C 1178 492 1024 619 870 619 
C 685 619 557 466 557 313 
C 557 128 710 0 864 0 
C 1050 0 1178 153 1178 307 
z
" id="CMMI12-3a" transform="scale(0.015625)"/>
       </defs>
       <use transform="scale(0.996264)" xlink:href="#CMR17-30"/>
       <use transform="translate(45.690477 0)scale(0.996264)" xlink:href="#CMMI12-3a"/>
       <use transform="translate(72.787654 0)scale(0.996264)" xlink:href="#CMR17-30"/>
       <use transform="translate(118.478131 0)scale(0.996264)" xlink:href="#CMR17-30"/>
      </g>
     </g>
    </g>
    <g id="xtick_2">
     <g id="line2d_5">
      <path clip-path="url(#pa2c8e073bf)" d="M 178.673158 236.05972 
L 178.673158 13.852984 
" style="fill:none;stroke:#bfbfbf;stroke-dasharray:0.8,2.4;stroke-dashoffset:0;stroke-linecap:round;stroke-linejoin:miter;stroke-width:0.8;"/>
     </g>
     <g id="line2d_6">
      <g>
       <use style="stroke:#000000;stroke-width:0.8;" x="178.673158" xlink:href="#mfc9332f2dd" y="236.05972"/>
      </g>
     </g>
     <g id="text_2">
      <!-- $\mathdefault{0.05}$ -->
      <g transform="translate(163.897983 256.365688)scale(0.18 -0.18)">
       <defs>
        <path d="M 730 3692 
C 794 3666 1056 3584 1325 3584 
C 1920 3584 2246 3911 2432 4100 
C 2432 4157 2432 4192 2394 4192 
C 2387 4192 2374 4192 2323 4163 
C 2099 4058 1837 3973 1517 3973 
C 1325 3973 1037 3999 723 4139 
C 653 4171 640 4171 634 4171 
C 602 4171 595 4164 595 4037 
L 595 2203 
C 595 2089 595 2057 659 2057 
C 691 2057 704 2070 736 2114 
C 941 2401 1222 2522 1542 2522 
C 1766 2522 2246 2382 2246 1289 
C 2246 1085 2246 715 2054 421 
C 1894 159 1645 25 1370 25 
C 947 25 518 320 403 814 
C 429 807 480 795 506 795 
C 589 795 749 840 749 1038 
C 749 1210 627 1280 506 1280 
C 358 1280 262 1190 262 1011 
C 262 454 704 -128 1382 -128 
C 2042 -128 2669 440 2669 1264 
C 2669 2030 2170 2624 1549 2624 
C 1222 2624 947 2503 730 2274 
L 730 3692 
z
" id="CMR17-35" transform="scale(0.015625)"/>
       </defs>
       <use transform="scale(0.996264)" xlink:href="#CMR17-30"/>
       <use transform="translate(45.690477 0)scale(0.996264)" xlink:href="#CMMI12-3a"/>
       <use transform="translate(72.787654 0)scale(0.996264)" xlink:href="#CMR17-30"/>
       <use transform="translate(118.478131 0)scale(0.996264)" xlink:href="#CMR17-35"/>
      </g>
     </g>
    </g>
    <g id="xtick_3">
     <g id="line2d_7">
      <path clip-path="url(#pa2c8e073bf)" d="M 262.461399 236.05972 
L 262.461399 13.852984 
" style="fill:none;stroke:#bfbfbf;stroke-dasharray:0.8,2.4;stroke-dashoffset:0;stroke-linecap:round;stroke-linejoin:miter;stroke-width:0.8;"/>
     </g>
     <g id="line2d_8">
      <g>
       <use style="stroke:#000000;stroke-width:0.8;" x="262.461399" xlink:href="#mfc9332f2dd" y="236.05972"/>
      </g>
     </g>
     <g id="text_3">
      <!-- $\mathdefault{0.10}$ -->
      <g transform="translate(247.686225 256.365688)scale(0.18 -0.18)">
       <defs>
        <path d="M 1702 4058 
C 1702 4192 1696 4192 1606 4192 
C 1357 3916 979 3827 621 3827 
C 602 3827 570 3827 563 3808 
C 557 3795 557 3782 557 3648 
C 755 3648 1088 3686 1344 3839 
L 1344 461 
C 1344 236 1331 160 781 160 
L 589 160 
L 589 0 
C 896 0 1216 0 1523 0 
C 1830 0 2150 0 2458 0 
L 2458 160 
L 2266 160 
C 1715 160 1702 230 1702 458 
L 1702 4058 
z
" id="CMR17-31" transform="scale(0.015625)"/>
       </defs>
       <use transform="scale(0.996264)" xlink:href="#CMR17-30"/>
       <use transform="translate(45.690477 0)scale(0.996264)" xlink:href="#CMMI12-3a"/>
       <use transform="translate(72.787654 0)scale(0.996264)" xlink:href="#CMR17-31"/>
       <use transform="translate(118.478131 0)scale(0.996264)" xlink:href="#CMR17-30"/>
      </g>
     </g>
    </g>
    <g id="xtick_4">
     <g id="line2d_9">
      <path clip-path="url(#pa2c8e073bf)" d="M 346.249641 236.05972 
L 346.249641 13.852984 
" style="fill:none;stroke:#bfbfbf;stroke-dasharray:0.8,2.4;stroke-dashoffset:0;stroke-linecap:round;stroke-linejoin:miter;stroke-width:0.8;"/>
     </g>
     <g id="line2d_10">
      <g>
       <use style="stroke:#000000;stroke-width:0.8;" x="346.249641" xlink:href="#mfc9332f2dd" y="236.05972"/>
      </g>
     </g>
     <g id="text_4">
      <!-- $\mathdefault{0.15}$ -->
      <g transform="translate(331.474466 256.365688)scale(0.18 -0.18)">
       <use transform="scale(0.996264)" xlink:href="#CMR17-30"/>
       <use transform="translate(45.690477 0)scale(0.996264)" xlink:href="#CMMI12-3a"/>
       <use transform="translate(72.787654 0)scale(0.996264)" xlink:href="#CMR17-31"/>
       <use transform="translate(118.478131 0)scale(0.996264)" xlink:href="#CMR17-35"/>
      </g>
     </g>
    </g>
    <g id="text_5">
     <!-- Time (s) -->
     <g transform="translate(212.680468 281.0357)scale(0.22 -0.22)">
      <defs>
       <path d="M 4051 4608 
L 218 4608 
L 122 2833 
L 397 2833 
C 442 3152 499 3395 570 3599 
C 736 4065 1043 4308 1478 4308 
C 1690 4308 1779 4237 1779 4078 
L 1779 786 
L 1779 600 
C 1779 332 1722 300 1203 300 
L 1037 300 
L 1037 0 
L 3232 0 
L 3232 300 
L 3066 300 
C 2554 300 2496 332 2496 600 
L 2496 786 
L 2496 4078 
C 2496 4237 2586 4308 2797 4308 
C 3187 4308 3501 4090 3661 3707 
C 3757 3472 3821 3197 3872 2833 
L 4147 2833 
L 4051 4608 
z
" id="CenturySchL-Roma-54" transform="scale(0.015625)"/>
       <path d="M 1318 2944 
L 115 2944 
L 115 2638 
L 442 2638 
C 678 2638 717 2593 717 2317 
L 717 787 
L 717 531 
C 717 275 646 230 237 230 
L 192 230 
L 192 0 
L 1850 0 
L 1850 230 
L 1805 230 
C 1389 230 1318 274 1318 526 
L 1318 779 
L 1318 2944 
z
M 1018 4581 
C 813 4581 646 4415 646 4211 
C 646 4013 813 3840 1011 3840 
C 1222 3840 1389 4006 1389 4211 
C 1389 4415 1222 4581 1018 4581 
z
" id="CenturySchL-Roma-69" transform="scale(0.015625)"/>
       <path d="M 1286 2944 
L 147 2944 
L 147 2638 
L 410 2638 
C 646 2638 685 2593 685 2317 
L 685 787 
L 685 538 
C 685 275 614 230 205 230 
L 179 230 
L 179 0 
L 1792 0 
L 1792 230 
L 1766 230 
C 1357 230 1286 275 1286 537 
L 1286 786 
L 1286 1693 
C 1286 2261 1600 2683 2016 2683 
C 2182 2683 2362 2593 2438 2472 
C 2528 2351 2566 2165 2566 1903 
L 2566 786 
L 2566 530 
C 2566 275 2496 230 2080 230 
L 2054 230 
L 2054 0 
L 3674 0 
L 3674 230 
L 3648 230 
C 3238 230 3168 275 3168 530 
L 3168 786 
L 3168 1635 
C 3168 2274 3456 2683 3904 2683 
C 4115 2683 4288 2561 4371 2363 
C 4429 2223 4448 2082 4448 1833 
L 4448 786 
L 4448 530 
C 4448 275 4378 230 3962 230 
L 3936 230 
L 3936 0 
L 5555 0 
L 5555 230 
L 5530 230 
C 5120 230 5050 275 5050 537 
L 5050 786 
L 5050 1961 
C 5050 2357 5011 2491 4845 2708 
C 4659 2945 4397 3072 4090 3072 
C 3674 3072 3366 2876 3091 2439 
C 2982 2819 2637 3072 2208 3072 
C 1824 3072 1536 2889 1286 2491 
L 1286 2944 
z
" id="CenturySchL-Roma-6d" transform="scale(0.015625)"/>
       <path d="M 2976 1472 
C 2982 2420 2438 3090 1658 3090 
C 838 3090 224 2384 224 1430 
C 224 540 806 -64 1670 -64 
C 2278 -64 2714 236 2976 844 
L 2752 966 
C 2490 473 2221 281 1792 281 
C 1466 281 1229 422 1062 704 
C 947 896 896 1120 902 1472 
L 2976 1472 
z
M 909 1747 
C 909 1942 934 2080 998 2256 
C 1133 2633 1338 2816 1645 2816 
C 2035 2816 2291 2482 2291 1979 
C 2291 1797 2234 1747 2029 1747 
L 909 1747 
z
" id="CenturySchL-Roma-65" transform="scale(0.015625)"/>
       <path d="M 1786 4701 
C 1402 4465 1197 4299 979 4043 
C 493 3468 230 2734 230 1961 
C 230 1233 461 549 890 -19 
C 1133 -326 1350 -517 1786 -786 
L 1786 -549 
C 1146 13 890 735 890 1961 
C 890 3187 1146 3903 1786 4465 
L 1786 4701 
z
" id="CenturySchL-Roma-28" transform="scale(0.015625)"/>
       <path d="M 2496 3072 
L 2272 3072 
L 2086 2842 
C 1856 3021 1626 3097 1306 3097 
C 742 3097 371 2728 371 2173 
C 371 1925 454 1714 595 1588 
C 742 1453 890 1390 1274 1300 
L 1613 1224 
C 2118 1103 2298 975 2298 721 
C 2298 421 2035 211 1658 211 
C 1120 211 736 561 582 1208 
L 326 1208 
L 326 0 
L 550 0 
L 774 250 
C 1037 38 1331 -64 1651 -64 
C 2278 -64 2694 325 2694 918 
C 2694 1198 2605 1414 2426 1561 
C 2272 1695 2144 1746 1754 1828 
L 1434 1899 
C 1082 1975 1082 1975 966 2039 
C 826 2103 742 2236 742 2377 
C 742 2631 986 2816 1338 2816 
C 1581 2816 1779 2733 1958 2561 
C 2099 2420 2170 2293 2272 1999 
L 2496 1999 
L 2496 3072 
z
" id="CenturySchL-Roma-73" transform="scale(0.015625)"/>
       <path d="M 346 -786 
C 730 -549 934 -383 1152 -121 
C 1638 447 1901 1188 1901 1961 
C 1901 2689 1670 3373 1242 3935 
C 998 4248 781 4439 346 4701 
L 346 4465 
C 986 3903 1242 3187 1242 1961 
C 1242 728 986 13 346 -549 
L 346 -786 
z
" id="CenturySchL-Roma-29" transform="scale(0.015625)"/>
      </defs>
      <use transform="scale(0.996264)" xlink:href="#CenturySchL-Roma-54"/>
      <use transform="translate(66.450031 0)scale(0.996264)" xlink:href="#CenturySchL-Roma-69"/>
      <use transform="translate(97.831344 0)scale(0.996264)" xlink:href="#CenturySchL-Roma-6d"/>
      <use transform="translate(186.398251 0)scale(0.996264)" xlink:href="#CenturySchL-Roma-65"/>
      <use transform="translate(263.906621 0)scale(0.996264)" xlink:href="#CenturySchL-Roma-28"/>
      <use transform="translate(297.081851 0)scale(0.996264)" xlink:href="#CenturySchL-Roma-73"/>
      <use transform="translate(343.207661 0)scale(0.996264)" xlink:href="#CenturySchL-Roma-29"/>
     </g>
    </g>
   </g>
   <g id="matplotlib.axis_2">
    <g id="ytick_1">
     <g id="line2d_11">
      <path clip-path="url(#pa2c8e073bf)" d="M 78.965151 197.65271 
L 429.2 197.65271 
" style="fill:none;stroke:#bfbfbf;stroke-dasharray:0.8,2.4;stroke-dashoffset:0;stroke-linecap:round;stroke-linejoin:miter;stroke-width:0.8;"/>
     </g>
     <g id="line2d_12">
      <defs>
       <path d="M 0 0 
L -3.5 0 
" id="mbd73ee1f14" style="stroke:#000000;stroke-width:0.8;"/>
      </defs>
      <g>
       <use style="stroke:#000000;stroke-width:0.8;" x="78.965151" xlink:href="#mbd73ee1f14" y="197.65271"/>
      </g>
     </g>
     <g id="text_6">
      <!-- $\mathdefault{−10}$ -->
      <g transform="translate(41.568837 204.305694)scale(0.18 -0.18)">
       <defs>
        <path d="M 4218 1472 
C 4326 1472 4442 1472 4442 1600 
C 4442 1728 4326 1728 4218 1728 
L 755 1728 
C 646 1728 531 1728 531 1600 
C 531 1472 646 1472 755 1472 
L 4218 1472 
z
" id="CMSY10-0" transform="scale(0.015625)"/>
       </defs>
       <use transform="scale(0.996264)" xlink:href="#CMSY10-0"/>
       <use transform="translate(77.487468 0)scale(0.996264)" xlink:href="#CMR17-31"/>
       <use transform="translate(123.177945 0)scale(0.996264)" xlink:href="#CMR17-30"/>
      </g>
     </g>
    </g>
    <g id="ytick_2">
     <g id="line2d_13">
      <path clip-path="url(#pa2c8e073bf)" d="M 78.965151 136.386135 
L 429.2 136.386135 
" style="fill:none;stroke:#bfbfbf;stroke-dasharray:0.8,2.4;stroke-dashoffset:0;stroke-linecap:round;stroke-linejoin:miter;stroke-width:0.8;"/>
     </g>
     <g id="line2d_14">
      <g>
       <use style="stroke:#000000;stroke-width:0.8;" x="78.965151" xlink:href="#mbd73ee1f14" y="136.386135"/>
      </g>
     </g>
     <g id="text_7">
      <!-- $\mathdefault{0}$ -->
      <g transform="translate(63.740865 143.039119)scale(0.18 -0.18)">
       <use transform="scale(0.996264)" xlink:href="#CMR17-30"/>
      </g>
     </g>
    </g>
    <g id="ytick_3">
     <g id="line2d_15">
      <path clip-path="url(#pa2c8e073bf)" d="M 78.965151 75.119559 
L 429.2 75.119559 
" style="fill:none;stroke:#bfbfbf;stroke-dasharray:0.8,2.4;stroke-dashoffset:0;stroke-linecap:round;stroke-linejoin:miter;stroke-width:0.8;"/>
     </g>
     <g id="line2d_16">
      <g>
       <use style="stroke:#000000;stroke-width:0.8;" x="78.965151" xlink:href="#mbd73ee1f14" y="75.119559"/>
      </g>
     </g>
     <g id="text_8">
      <!-- $\mathdefault{10}$ -->
      <g transform="translate(55.516579 81.772544)scale(0.18 -0.18)">
       <use transform="scale(0.996264)" xlink:href="#CMR17-31"/>
       <use transform="translate(45.690477 0)scale(0.996264)" xlink:href="#CMR17-30"/>
      </g>
     </g>
    </g>
    <g id="ytick_4">
     <g id="line2d_17">
      <path clip-path="url(#pa2c8e073bf)" d="M 78.965151 13.852984 
L 429.2 13.852984 
" style="fill:none;stroke:#bfbfbf;stroke-dasharray:0.8,2.4;stroke-dashoffset:0;stroke-linecap:round;stroke-linejoin:miter;stroke-width:0.8;"/>
     </g>
     <g id="line2d_18">
      <g>
       <use style="stroke:#000000;stroke-width:0.8;" x="78.965151" xlink:href="#mbd73ee1f14" y="13.852984"/>
      </g>
     </g>
     <g id="text_9">
      <!-- $\mathdefault{20}$ -->
      <g transform="translate(55.516579 20.505968)scale(0.18 -0.18)">
       <defs>
        <path d="M 2669 989 
L 2554 989 
C 2490 536 2438 459 2413 420 
C 2381 369 1920 369 1830 369 
L 602 369 
C 832 619 1280 1072 1824 1597 
C 2214 1967 2669 2402 2669 3035 
C 2669 3790 2067 4224 1395 4224 
C 691 4224 262 3604 262 3030 
C 262 2780 448 2748 525 2748 
C 589 2748 781 2787 781 3010 
C 781 3207 614 3264 525 3264 
C 486 3264 448 3258 422 3245 
C 544 3790 915 4058 1306 4058 
C 1862 4058 2227 3617 2227 3035 
C 2227 2479 1901 2000 1536 1584 
L 262 146 
L 262 0 
L 2515 0 
L 2669 989 
z
" id="CMR17-32" transform="scale(0.015625)"/>
       </defs>
       <use transform="scale(0.996264)" xlink:href="#CMR17-32"/>
       <use transform="translate(45.690477 0)scale(0.996264)" xlink:href="#CMR17-30"/>
      </g>
     </g>
    </g>
    <g id="text_10">
     <!-- Input ($\textup{m/s}^2$) -->
     <g transform="translate(27.404537 185.574006)rotate(-90)scale(0.22 -0.22)">
      <defs>
       <path d="M 1664 3823 
L 1664 4007 
C 1664 4276 1722 4308 2234 4308 
L 2362 4308 
L 2362 4608 
L 243 4608 
L 243 4308 
L 371 4308 
C 890 4308 947 4276 947 4007 
L 947 3823 
L 947 786 
L 947 600 
C 947 332 890 300 371 300 
L 243 300 
L 243 0 
L 2362 0 
L 2362 300 
L 2234 300 
C 1722 300 1664 332 1664 600 
L 1664 786 
L 1664 3823 
z
" id="CenturySchL-Roma-49" transform="scale(0.015625)"/>
       <path d="M 1280 2944 
L 173 2944 
L 173 2638 
L 403 2638 
C 640 2638 678 2593 678 2317 
L 678 787 
L 678 531 
C 678 275 608 230 198 230 
L 173 230 
L 173 0 
L 1792 0 
L 1792 230 
L 1766 230 
C 1350 230 1280 275 1280 530 
L 1280 786 
L 1280 1450 
C 1280 1763 1325 2050 1395 2197 
C 1530 2485 1818 2683 2093 2683 
C 2259 2683 2451 2587 2547 2459 
C 2643 2325 2688 2127 2688 1820 
L 2688 786 
L 2688 530 
C 2688 275 2618 230 2202 230 
L 2176 230 
L 2176 0 
L 3795 0 
L 3795 230 
L 3770 230 
C 3360 230 3290 275 3290 530 
L 3290 786 
L 3290 1789 
C 3290 2248 3270 2363 3155 2581 
C 2995 2887 2669 3072 2291 3072 
C 1882 3072 1562 2883 1280 2465 
L 1280 2944 
z
" id="CenturySchL-Roma-6e" transform="scale(0.015625)"/>
       <path d="M 1286 2944 
L 179 2944 
L 179 2638 
L 410 2638 
C 646 2638 685 2593 685 2318 
L 685 -496 
L 685 -750 
C 685 -1006 614 -1050 205 -1050 
L 179 -1050 
L 179 -1280 
L 1843 -1280 
L 1843 -1050 
L 1773 -1050 
C 1357 -1050 1286 -1006 1286 -751 
L 1286 -496 
L 1286 428 
C 1498 58 1741 -89 2131 -89 
C 2874 -89 3424 593 3424 1504 
C 3424 2385 2874 3072 2170 3072 
C 1773 3072 1510 2908 1286 2529 
L 1286 2944 
z
M 2054 2727 
C 2496 2727 2752 2288 2752 1542 
C 2752 721 2490 256 2035 256 
C 1581 256 1280 728 1280 1460 
C 1280 2249 1568 2727 2054 2727 
z
" id="CenturySchL-Roma-70" transform="scale(0.015625)"/>
       <path d="M 2637 0 
L 3802 0 
L 3802 301 
L 3642 301 
C 3290 301 3238 358 3238 765 
L 3238 2994 
L 2035 2994 
L 2035 2688 
L 2362 2688 
C 2598 2688 2637 2643 2637 2365 
L 2637 1572 
C 2637 1204 2598 991 2502 778 
C 2368 494 2112 326 1798 326 
C 1600 326 1434 396 1350 523 
C 1267 643 1254 707 1254 1056 
L 1254 2994 
L 134 2994 
L 134 2688 
L 378 2688 
C 614 2688 653 2643 653 2365 
L 653 974 
C 653 645 678 497 774 349 
C 947 84 1254 -64 1638 -64 
C 2061 -64 2355 110 2637 520 
L 2637 0 
z
" id="CenturySchL-Roma-75" transform="scale(0.015625)"/>
       <path d="M 1242 3008 
L 1242 4288 
L 979 4288 
C 915 3448 634 3020 115 2982 
L 115 2733 
L 640 2733 
L 640 1105 
C 640 658 653 498 717 351 
C 819 83 1075 -64 1446 -64 
C 1696 -64 1914 13 2061 153 
C 2272 358 2394 696 2394 1048 
C 2394 1086 2394 1131 2387 1195 
L 2118 1195 
C 2099 620 1933 326 1619 326 
C 1472 326 1344 402 1299 511 
C 1261 600 1242 760 1242 990 
L 1242 2733 
L 2182 2733 
L 2182 3008 
L 1242 3008 
z
" id="CenturySchL-Roma-74" transform="scale(0.015625)"/>
       <path d="M 1562 4736 
L -147 -64 
L 224 -64 
L 1933 4736 
L 1562 4736 
z
" id="CenturySchL-Roma-2f" transform="scale(0.015625)"/>
      </defs>
      <use transform="scale(0.996264)" xlink:href="#CenturySchL-Roma-49"/>
      <use transform="translate(40.547425 0)scale(0.996264)" xlink:href="#CenturySchL-Roma-6e"/>
      <use transform="translate(101.419056 0)scale(0.996264)" xlink:href="#CenturySchL-Roma-70"/>
      <use transform="translate(158.604543 0)scale(0.996264)" xlink:href="#CenturySchL-Roma-75"/>
      <use transform="translate(219.476174 0)scale(0.996264)" xlink:href="#CenturySchL-Roma-74"/>
      <use transform="translate(285.92505 0)scale(0.996264)" xlink:href="#CenturySchL-Roma-28"/>
      <use transform="translate(319.100279 0)scale(0.996264)" xlink:href="#CenturySchL-Roma-6d"/>
      <use transform="translate(407.667186 0)scale(0.996264)" xlink:href="#CenturySchL-Roma-2f"/>
      <use transform="translate(435.362356 0)scale(0.996264)" xlink:href="#CenturySchL-Roma-73"/>
      <use transform="translate(481.488166 46.896404)scale(0.697382)" xlink:href="#CMR17-32"/>
      <use transform="translate(513.96948 0)scale(0.996264)" xlink:href="#CenturySchL-Roma-29"/>
     </g>
    </g>
   </g>
   <g id="legend_1">
    <g id="patch_5">
     <path d="M 270.565405 72.479241 
L 423.8 72.479241 
Q 427.4 72.479241 427.4 68.879241 
L 427.4 19.252984 
Q 427.4 15.652984 423.8 15.652984 
L 270.565405 15.652984 
Q 266.965405 15.652984 266.965405 19.252984 
L 266.965405 68.879241 
Q 266.965405 72.479241 270.565405 72.479241 
z
" style="fill:#ffffff;stroke:#cccccc;stroke-linejoin:miter;"/>
    </g>
    <g id="line2d_19">
     <path d="M 274.165405 29.858952 
L 310.165405 29.858952 
" style="fill:none;stroke:#e41a1c;stroke-linecap:square;stroke-width:2;"/>
    </g>
    <g id="line2d_20"/>
    <g id="text_11">
     <!-- Discrete -->
     <g transform="translate(324.565405 36.158952)scale(0.18 -0.18)">
      <defs>
       <path d="M 877 786 
L 877 600 
C 877 332 819 300 307 300 
L 186 300 
L 186 0 
L 2336 0 
C 2906 0 3341 89 3680 281 
C 4326 644 4685 1372 4685 2329 
C 4685 3204 4365 3900 3776 4282 
C 3424 4506 2950 4608 2221 4608 
L 186 4608 
L 186 4308 
L 307 4308 
C 819 4308 877 4276 877 4007 
L 877 3823 
L 877 786 
z
M 1958 300 
C 1638 300 1594 339 1594 652 
L 1594 3950 
C 1594 4263 1638 4308 1958 4308 
L 2291 4308 
C 3386 4308 3840 3715 3840 2304 
C 3840 874 3424 300 2394 300 
L 1958 300 
z
" id="CenturySchL-Roma-44" transform="scale(0.015625)"/>
       <path d="M 2477 968 
C 2272 510 2054 326 1722 326 
C 1210 326 890 789 890 1532 
C 890 2301 1203 2816 1677 2816 
C 1869 2816 2035 2726 2035 2625 
C 2035 2606 2022 2587 1997 2548 
C 1894 2428 1869 2364 1869 2257 
C 1869 2047 2029 1901 2253 1901 
C 2477 1901 2643 2079 2643 2333 
C 2643 2759 2214 3090 1645 3090 
C 813 3090 218 2410 218 1462 
C 218 559 762 -64 1555 -64 
C 2125 -64 2451 197 2726 872 
L 2477 968 
z
" id="CenturySchL-Roma-63" transform="scale(0.015625)"/>
       <path d="M 1267 2944 
L 134 2944 
L 134 2638 
L 397 2638 
C 634 2638 672 2593 672 2317 
L 672 787 
L 672 531 
C 672 275 602 230 186 230 
L 160 230 
L 160 0 
L 1869 0 
L 1869 230 
L 1747 230 
C 1338 230 1267 275 1267 531 
L 1267 787 
L 1267 851 
C 1267 1332 1357 1818 1517 2183 
C 1670 2541 1888 2740 2157 2772 
C 2067 2669 2042 2604 2042 2481 
C 2042 2275 2189 2127 2394 2127 
C 2624 2127 2784 2300 2784 2561 
C 2784 2868 2566 3072 2227 3072 
C 1824 3072 1472 2747 1267 2185 
L 1267 2944 
z
" id="CenturySchL-Roma-72" transform="scale(0.015625)"/>
      </defs>
      <use transform="scale(0.996264)" xlink:href="#CenturySchL-Roma-44"/>
      <use transform="translate(77.50837 0)scale(0.996264)" xlink:href="#CenturySchL-Roma-69"/>
      <use transform="translate(108.889683 0)scale(0.996264)" xlink:href="#CenturySchL-Roma-73"/>
      <use transform="translate(155.015494 0)scale(0.996264)" xlink:href="#CenturySchL-Roma-63"/>
      <use transform="translate(199.249062 0)scale(0.996264)" xlink:href="#CenturySchL-Roma-72"/>
      <use transform="translate(243.482631 0)scale(0.996264)" xlink:href="#CenturySchL-Roma-65"/>
      <use transform="translate(293.295832 0)scale(0.996264)" xlink:href="#CenturySchL-Roma-74"/>
      <use transform="translate(332.049538 0)scale(0.996264)" xlink:href="#CenturySchL-Roma-65"/>
     </g>
    </g>
    <g id="line2d_21">
     <path d="M 274.165405 55.572081 
L 310.165405 55.572081 
" style="fill:none;stroke:#377eb8;stroke-dasharray:12,12;stroke-dashoffset:0;stroke-linecap:round;stroke-linejoin:miter;stroke-width:2;"/>
    </g>
    <g id="line2d_22"/>
    <g id="text_12">
     <!-- Continuous -->
     <g transform="translate(324.565405 61.872081)scale(0.18 -0.18)">
      <defs>
       <path d="M 4090 4608 
L 3846 4608 
L 3590 4225 
C 3136 4557 2886 4653 2458 4653 
C 1837 4653 1325 4404 890 3890 
C 480 3407 288 2873 288 2218 
C 288 851 1190 -128 2451 -128 
C 3475 -128 4128 470 4275 1537 
L 3974 1588 
C 3910 1251 3834 1023 3718 833 
C 3456 395 3046 172 2528 172 
C 1581 172 1133 826 1133 2193 
C 1133 2910 1229 3393 1446 3774 
C 1645 4130 2042 4352 2451 4352 
C 2899 4352 3296 4117 3539 3710 
C 3661 3500 3757 3252 3904 2763 
L 4186 2763 
L 4090 4608 
z
" id="CenturySchL-Roma-43" transform="scale(0.015625)"/>
       <path d="M 1613 3090 
C 832 3090 218 2397 218 1507 
C 218 636 832 -64 1600 -64 
C 2368 -64 2982 636 2982 1513 
C 2982 2384 2368 3090 1613 3090 
z
M 1613 2816 
C 2061 2816 2310 2352 2310 1513 
C 2310 669 2061 211 1600 211 
C 1139 211 890 669 890 1507 
C 890 2371 1133 2816 1613 2816 
z
" id="CenturySchL-Roma-6f" transform="scale(0.015625)"/>
      </defs>
      <use transform="scale(0.996264)" xlink:href="#CenturySchL-Roma-43"/>
      <use transform="translate(71.929985 0)scale(0.996264)" xlink:href="#CenturySchL-Roma-6f"/>
      <use transform="translate(121.743185 0)scale(0.996264)" xlink:href="#CenturySchL-Roma-6e"/>
      <use transform="translate(182.614816 0)scale(0.996264)" xlink:href="#CenturySchL-Roma-74"/>
      <use transform="translate(221.368522 0)scale(0.996264)" xlink:href="#CenturySchL-Roma-69"/>
      <use transform="translate(252.749835 0)scale(0.996264)" xlink:href="#CenturySchL-Roma-6e"/>
      <use transform="translate(313.621466 0)scale(0.996264)" xlink:href="#CenturySchL-Roma-75"/>
      <use transform="translate(374.493097 0)scale(0.996264)" xlink:href="#CenturySchL-Roma-6f"/>
      <use transform="translate(424.306297 0)scale(0.996264)" xlink:href="#CenturySchL-Roma-75"/>
      <use transform="translate(485.177928 0)scale(0.996264)" xlink:href="#CenturySchL-Roma-73"/>
     </g>
    </g>
   </g>
  </g>
 </g>
 <defs>
  <clipPath id="pa2c8e073bf">
   <rect height="222.206736" width="350.234849" x="78.965151" y="13.852984"/>
  </clipPath>
 </defs>
</svg>
