<?xml version="1.0" encoding="utf-8" standalone="no"?>
<!DOCTYPE svg PUBLIC "-//W3C//DTD SVG 1.1//EN"
  "http://www.w3.org/Graphics/SVG/1.1/DTD/svg11.dtd">
<svg height="292.4pt" version="1.1" viewBox="0 0 436.4 292.4" width="436.4pt" xmlns="http://www.w3.org/2000/svg" xmlns:xlink="http://www.w3.org/1999/xlink">
 <metadata>
  <rdf:RDF xmlns:cc="http://creativecommons.org/ns#" xmlns:dc="http://purl.org/dc/elements/1.1/" xmlns:rdf="http://www.w3.org/1999/02/22-rdf-syntax-ns#">
   <cc:Work>
    <dc:type rdf:resource="http://purl.org/dc/dcmitype/StillImage"/>
    <dc:date>2022-03-17T12:01:40.581396</dc:date>
    <dc:format>image/svg+xml</dc:format>
    <dc:creator>
     <cc:Agent>
      <dc:title>Matplotlib v3.4.2, https://matplotlib.org/</dc:title>
     </cc:Agent>
    </dc:creator>
   </cc:Work>
  </rdf:RDF>
 </metadata>
 <defs>
  <style type="text/css">*{stroke-linecap:butt;stroke-linejoin:round;}</style>
 </defs>
 <g id="figure_1">
  <g id="patch_1">
   <path d="M 0 292.4 
L 436.4 292.4 
L 436.4 0 
L 0 0 
z
" style="fill:none;"/>
  </g>
  <g id="axes_1">
   <g id="patch_2">
    <path d="M 74.177501 236.05972 
L 429.2 236.05972 
L 429.2 13.852984 
L 74.177501 13.852984 
z
" style="fill:none;"/>
   </g>
   <g id="PolyCollection_1">
    <path clip-path="url(#p0626042847)" d="M 90.314888 208.271872 
L 90.314888 208.271872 
L 96.07824 208.408014 
L 101.841592 209.13157 
L 107.604944 210.083288 
L 113.368297 210.946452 
L 119.131649 213.205914 
L 124.895001 215.162435 
L 130.658353 215.644901 
L 136.421706 213.216369 
L 142.185058 208.633527 
L 147.94841 204.266243 
L 153.711762 200.143403 
L 159.475115 196.164718 
L 165.238467 194.22935 
L 171.001819 195.151844 
L 176.765171 197.601973 
L 182.528524 201.78346 
L 188.291876 205.619127 
L 194.055228 202.905138 
L 199.81858 198.712407 
L 205.581933 196.685245 
L 211.345285 200.778921 
L 217.108637 210.647897 
L 222.871989 222.031366 
L 228.635342 229.640534 
L 234.398694 228.872572 
L 240.162046 221.413213 
L 245.925398 212.151681 
L 251.688751 202.320031 
L 257.452103 192.466623 
L 263.215455 182.614931 
L 268.978807 172.809392 
L 274.74216 163.140039 
L 280.505512 154.22078 
L 286.268864 146.890627 
L 292.032216 141.570255 
L 297.795569 138.551624 
L 303.558921 137.655976 
L 309.322273 138.456339 
L 315.085625 140.624489 
L 320.848978 143.976502 
L 326.61233 148.41528 
L 332.375682 153.888007 
L 338.139034 160.364402 
L 343.902387 167.826153 
L 349.665739 176.261643 
L 355.429091 149.854471 
L 361.192443 156.295598 
L 366.955796 163.69473 
L 372.719148 172.049898 
L 378.4825 181.359475 
L 384.245852 191.622104 
L 390.009205 171.715991 
L 395.772557 183.070239 
L 401.535909 195.496497 
L 407.299261 200.687678 
L 407.299261 184.53288 
L 407.299261 184.53288 
L 401.535909 174.939641 
L 395.772557 164.064286 
L 390.009205 154.175906 
L 384.245852 140.091026 
L 378.4825 132.116027 
L 372.719148 125.076282 
L 366.955796 118.970436 
L 361.192443 113.79686 
L 355.429091 109.553587 
L 349.665739 103.39693 
L 343.902387 101.869592 
L 338.139034 101.25682 
L 332.375682 101.547 
L 326.61233 102.721819 
L 320.848978 104.750995 
L 315.085625 107.581713 
L 309.322273 111.116875 
L 303.558921 115.172557 
L 297.795569 119.420535 
L 292.032216 123.433837 
L 286.268864 127.033705 
L 280.505512 130.512098 
L 274.74216 134.289693 
L 268.978807 138.549931 
L 263.215455 143.251149 
L 257.452103 148.48338 
L 251.688751 154.291062 
L 245.925398 160.697668 
L 240.162046 167.747823 
L 234.398694 175.428044 
L 228.635342 181.934113 
L 222.871989 184.109766 
L 217.108637 185.479914 
L 211.345285 186.857082 
L 205.581933 185.324095 
L 199.81858 180.47434 
L 194.055228 176.265859 
L 188.291876 174.260433 
L 182.528524 176.223579 
L 176.765171 180.085402 
L 171.001819 184.943106 
L 165.238467 189.519628 
L 159.475115 192.151751 
L 153.711762 193.655242 
L 147.94841 195.946966 
L 142.185058 198.899197 
L 136.421706 201.976225 
L 130.658353 204.521257 
L 124.895001 206.233796 
L 119.131649 207.214247 
L 113.368297 207.379137 
L 107.604944 206.402117 
L 101.841592 206.527057 
L 96.07824 207.090578 
L 90.314888 208.271872 
z
" style="fill:#e41a1c;fill-opacity:0.2;"/>
   </g>
   <g id="PolyCollection_2">
    <path clip-path="url(#p0626042847)" d="M 90.314888 208.271872 
L 90.314888 208.271872 
L 96.07824 209.002332 
L 101.841592 210.071803 
L 107.604944 210.913208 
L 113.368297 209.978395 
L 119.131649 207.805611 
L 124.895001 205.456861 
L 130.658353 203.618392 
L 136.421706 202.435772 
L 142.185058 201.919934 
L 147.94841 202.270894 
L 153.711762 203.44409 
L 159.475115 204.980008 
L 165.238467 206.48157 
L 171.001819 208.116091 
L 176.765171 211.340586 
L 182.528524 215.568521 
L 188.291876 217.017974 
L 194.055228 218.349038 
L 199.81858 213.442156 
L 205.581933 207.318607 
L 211.345285 200.251003 
L 217.108637 193.337297 
L 222.871989 186.570912 
L 228.635342 179.947005 
L 234.398694 173.461962 
L 240.162046 167.053004 
L 245.925398 161.144302 
L 251.688751 156.189706 
L 257.452103 152.188692 
L 263.215455 149.140759 
L 268.978807 147.045422 
L 274.74216 145.902221 
L 280.505512 145.710715 
L 286.268864 146.470487 
L 292.032216 148.18114 
L 297.795569 150.842298 
L 303.558921 154.453609 
L 309.322273 159.014737 
L 315.085625 164.525368 
L 320.848978 170.985204 
L 326.61233 178.393969 
L 332.375682 186.751398 
L 338.139034 196.434063 
L 343.902387 198.354334 
L 349.665739 186.5969 
L 355.429091 200.546555 
L 355.429091 184.795653 
L 355.429091 184.795653 
L 349.665739 174.060677 
L 343.902387 161.292128 
L 338.139034 156.630754 
L 332.375682 148.01837 
L 326.61233 140.378789 
L 320.848978 133.67885 
L 315.085625 127.91829 
L 309.322273 123.096831 
L 303.558921 119.214176 
L 297.795569 116.270011 
L 292.032216 114.264001 
L 286.268864 113.195792 
L 280.505512 113.065008 
L 274.74216 113.871254 
L 268.978807 115.614112 
L 263.215455 118.293141 
L 257.452103 121.90788 
L 251.688751 126.457846 
L 245.925398 131.942536 
L 240.162046 138.361427 
L 234.398694 145.758638 
L 228.635342 154.148608 
L 222.871989 162.649096 
L 217.108637 171.256487 
L 211.345285 179.965937 
L 205.581933 188.770872 
L 199.81858 198.817315 
L 194.055228 204.903516 
L 188.291876 207.568821 
L 182.528524 203.595538 
L 176.765171 199.177013 
L 171.001819 194.898182 
L 165.238467 191.30479 
L 159.475115 189.18003 
L 153.711762 188.758337 
L 147.94841 190.227993 
L 142.185058 192.894116 
L 136.421706 195.9811 
L 130.658353 199.029026 
L 124.895001 202.001878 
L 119.131649 204.952442 
L 113.368297 208.142465 
L 107.604944 210.091333 
L 101.841592 209.604542 
L 96.07824 208.835066 
L 90.314888 208.271872 
z
" style="fill:#377eb8;fill-opacity:0.2;"/>
   </g>
   <g id="PolyCollection_3">
    <path clip-path="url(#p0626042847)" d="M 90.314888 208.271872 
L 90.314888 208.271872 
L 96.07824 209.551779 
L 101.841592 211.446064 
L 107.604944 212.831562 
L 113.368297 211.637232 
L 119.131649 210.61911 
L 124.895001 209.862907 
L 130.658353 208.247393 
L 136.421706 204.68534 
L 142.185058 200.720763 
L 147.94841 197.550921 
L 153.711762 195.403408 
L 159.475115 194.154522 
L 165.238467 194.957632 
L 171.001819 198.676653 
L 176.765171 204.477093 
L 182.528524 212.389341 
L 188.291876 220.514747 
L 194.055228 220.672088 
L 199.81858 217.170844 
L 205.581933 211.000607 
L 211.345285 206.72858 
L 217.108637 200.076928 
L 222.871989 193.459778 
L 228.635342 186.999137 
L 234.398694 180.690921 
L 240.162046 175.190315 
L 245.925398 170.549081 
L 251.688751 166.932166 
L 257.452103 164.325857 
L 263.215455 162.718639 
L 268.978807 162.101019 
L 274.74216 162.465259 
L 280.505512 163.832793 
L 286.268864 166.249524 
L 292.032216 169.637501 
L 297.795569 173.992448 
L 303.558921 179.605489 
L 309.322273 186.593785 
L 315.085625 195.454161 
L 320.848978 205.987426 
L 326.61233 160.111525 
L 332.375682 168.596204 
L 338.139034 178.025036 
L 343.902387 188.398022 
L 349.665739 199.715161 
L 349.665739 187.562848 
L 349.665739 187.562848 
L 343.902387 177.782901 
L 338.139034 168.947107 
L 332.375682 161.055466 
L 326.61233 154.107979 
L 320.848978 146.29473 
L 315.085625 140.781873 
L 309.322273 136.119391 
L 303.558921 132.292562 
L 297.795569 129.388517 
L 292.032216 127.42642 
L 286.268864 126.38566 
L 280.505512 126.261961 
L 274.74216 127.065479 
L 268.978807 128.786534 
L 263.215455 131.414035 
L 257.452103 134.940245 
L 251.688751 139.355671 
L 245.925398 144.648798 
L 240.162046 150.805914 
L 234.398694 157.582232 
L 228.635342 165.029516 
L 222.871989 172.574509 
L 217.108637 180.212375 
L 211.345285 189.860566 
L 205.581933 194.328469 
L 199.81858 196.479109 
L 194.055228 196.751662 
L 188.291876 194.514942 
L 182.528524 192.244389 
L 176.765171 190.714513 
L 171.001819 189.944491 
L 165.238467 190.385159 
L 159.475115 190.312473 
L 153.711762 190.403883 
L 147.94841 191.484992 
L 142.185058 193.385751 
L 136.421706 195.724591 
L 130.658353 198.370478 
L 124.895001 201.876282 
L 119.131649 205.66251 
L 113.368297 208.117538 
L 107.604944 207.969721 
L 101.841592 207.43191 
L 96.07824 207.866011 
L 90.314888 208.271872 
z
" style="fill:#4daf4a;fill-opacity:0.2;"/>
   </g>
   <g id="line2d_1">
    <path clip-path="url(#p0626042847)" d="M 90.314888 208.271872 
L 96.07824 207.749296 
L 101.841592 207.829313 
L 107.604944 208.242703 
L 113.368297 209.162795 
L 119.131649 210.210081 
L 124.895001 210.698116 
L 130.658353 210.083079 
L 136.421706 207.596297 
L 142.185058 203.766362 
L 147.94841 200.106604 
L 153.711762 196.899323 
L 159.475115 194.158235 
L 165.238467 191.874489 
L 171.001819 190.047475 
L 176.765171 188.843687 
L 182.528524 189.003519 
L 188.291876 189.93978 
L 194.055228 189.585499 
L 199.81858 189.593374 
L 205.581933 191.00467 
L 211.345285 193.818001 
L 217.108637 198.063906 
L 222.871989 203.070566 
L 228.635342 205.787323 
L 234.398694 202.150308 
L 240.162046 194.580518 
L 245.925398 186.424675 
L 251.688751 178.305546 
L 257.452103 170.475002 
L 263.215455 162.93304 
L 268.978807 155.679661 
L 274.74216 148.714866 
L 280.505512 142.366439 
L 286.268864 136.962166 
L 292.032216 132.502046 
L 297.795569 128.98608 
L 303.558921 126.414267 
L 309.322273 124.786607 
L 315.085625 124.103101 
L 320.848978 124.363748 
L 326.61233 125.568549 
L 332.375682 127.717503 
L 338.139034 130.810611 
L 343.902387 134.847872 
L 349.665739 139.829287 
L 355.429091 129.704029 
L 361.192443 135.046229 
L 366.955796 141.332583 
L 372.719148 148.56309 
L 378.4825 156.737751 
L 384.245852 165.856565 
L 390.009205 162.945948 
L 395.772557 173.567263 
L 401.535909 185.218069 
L 407.299261 192.610279 
L 413.062614 199.892966 
" style="fill:none;stroke:#e41a1c;stroke-linecap:square;stroke-width:2;"/>
   </g>
   <g id="line2d_2">
    <path clip-path="url(#p0626042847)" d="M 90.314888 208.271872 
L 96.07824 208.918699 
L 101.841592 209.838173 
L 107.604944 210.502271 
L 113.368297 209.06043 
L 119.131649 206.379026 
L 124.895001 203.729369 
L 130.658353 201.323709 
L 136.421706 199.208436 
L 142.185058 197.407025 
L 147.94841 196.249444 
L 153.711762 196.101213 
L 159.475115 197.080019 
L 165.238467 198.89318 
L 171.001819 201.507137 
L 176.765171 205.258799 
L 182.528524 209.582029 
L 188.291876 212.293398 
L 194.055228 211.626277 
L 199.81858 206.129735 
L 205.581933 198.04474 
L 211.345285 190.10847 
L 217.108637 182.296892 
L 222.871989 174.610004 
L 228.635342 167.047807 
L 234.398694 159.6103 
L 240.162046 152.707216 
L 245.925398 146.543419 
L 251.688751 141.323776 
L 257.452103 137.048286 
L 263.215455 133.71695 
L 268.978807 131.329767 
L 274.74216 129.886738 
L 280.505512 129.387862 
L 286.268864 129.833139 
L 292.032216 131.22257 
L 297.795569 133.556155 
L 303.558921 136.833893 
L 309.322273 141.055784 
L 315.085625 146.221829 
L 320.848978 152.332027 
L 326.61233 159.386379 
L 332.375682 167.384884 
L 338.139034 176.532408 
L 343.902387 179.823231 
L 349.665739 180.328789 
L 355.429091 192.671104 
L 361.192443 199.252227 
" style="fill:none;stroke:#377eb8;stroke-dasharray:12,12;stroke-dashoffset:0;stroke-linecap:round;stroke-linejoin:miter;stroke-width:2;"/>
   </g>
   <g id="line2d_3">
    <path clip-path="url(#p0626042847)" d="M 90.314888 208.271872 
L 96.07824 208.708895 
L 101.841592 209.438987 
L 107.604944 210.400641 
L 113.368297 209.877385 
L 119.131649 208.14081 
L 124.895001 205.869595 
L 130.658353 203.308936 
L 136.421706 200.204965 
L 142.185058 197.053257 
L 147.94841 194.517957 
L 153.711762 192.903645 
L 159.475115 192.233498 
L 165.238467 192.671396 
L 171.001819 194.310572 
L 176.765171 197.595803 
L 182.528524 202.316865 
L 188.291876 207.514845 
L 194.055228 208.711875 
L 199.81858 206.824976 
L 205.581933 202.664538 
L 211.345285 198.294573 
L 217.108637 190.144652 
L 222.871989 183.017144 
L 228.635342 176.014327 
L 234.398694 169.136577 
L 240.162046 162.998114 
L 245.925398 157.59894 
L 251.688751 153.143919 
L 257.452103 149.633051 
L 263.215455 147.066337 
L 268.978807 145.443776 
L 274.74216 144.765369 
L 280.505512 145.047377 
L 286.268864 146.317592 
L 292.032216 148.531961 
L 297.795569 151.690482 
L 303.558921 155.949026 
L 309.322273 161.356588 
L 315.085625 168.118017 
L 320.848978 176.141078 
L 326.61233 157.109752 
L 332.375682 164.825835 
L 338.139034 173.486071 
L 343.902387 183.090461 
L 349.665739 193.639005 
L 355.429091 200.291731 
" style="fill:none;stroke:#4daf4a;stroke-dasharray:6,10,2,10;stroke-dashoffset:0;stroke-linecap:round;stroke-linejoin:miter;stroke-width:2;"/>
   </g>
   <g id="patch_3">
    <path d="M 74.177501 236.05972 
L 74.177501 13.852984 
" style="fill:none;stroke:#000000;stroke-linecap:square;stroke-linejoin:miter;stroke-width:0.8;"/>
   </g>
   <g id="patch_4">
    <path d="M 74.177501 236.05972 
L 429.2 236.05972 
" style="fill:none;stroke:#000000;stroke-linecap:square;stroke-linejoin:miter;stroke-width:0.8;"/>
   </g>
   <g id="matplotlib.axis_1">
    <g id="xtick_1">
     <g id="line2d_4">
      <path clip-path="url(#p0626042847)" d="M 90.314888 236.05972 
L 90.314888 13.852984 
" style="fill:none;stroke:#bfbfbf;stroke-dasharray:0.8,2.4;stroke-dashoffset:0;stroke-linecap:round;stroke-linejoin:miter;stroke-width:0.8;"/>
     </g>
     <g id="line2d_5">
      <defs>
       <path d="M 0 0 
L 0 3.5 
" id="mcd796ad3c8" style="stroke:#000000;stroke-width:0.8;"/>
      </defs>
      <g>
       <use style="stroke:#000000;stroke-width:0.8;" x="90.314888" xlink:href="#mcd796ad3c8" y="236.05972"/>
      </g>
     </g>
     <g id="text_1">
      <!-- $\mathdefault{0.0}$ -->
      <g transform="translate(79.651856 256.365688)scale(0.18 -0.18)">
       <defs>
        <path d="M 2688 2025 
C 2688 2416 2682 3080 2413 3591 
C 2176 4039 1798 4198 1466 4198 
C 1158 4198 768 4058 525 3597 
C 269 3118 243 2524 243 2025 
C 243 1661 250 1106 448 619 
C 723 -39 1216 -128 1466 -128 
C 1760 -128 2208 -7 2470 600 
C 2662 1042 2688 1559 2688 2025 
z
M 1466 -26 
C 1056 -26 813 325 723 812 
C 653 1188 653 1738 653 2096 
C 653 2588 653 2997 736 3387 
C 858 3929 1216 4096 1466 4096 
C 1728 4096 2067 3923 2189 3400 
C 2272 3036 2278 2607 2278 2096 
C 2278 1680 2278 1169 2202 792 
C 2067 95 1690 -26 1466 -26 
z
" id="CMR17-30" transform="scale(0.015625)"/>
        <path d="M 1178 307 
C 1178 492 1024 619 870 619 
C 685 619 557 466 557 313 
C 557 128 710 0 864 0 
C 1050 0 1178 153 1178 307 
z
" id="CMMI12-3a" transform="scale(0.015625)"/>
       </defs>
       <use transform="scale(0.996264)" xlink:href="#CMR17-30"/>
       <use transform="translate(45.690477 0)scale(0.996264)" xlink:href="#CMMI12-3a"/>
       <use transform="translate(72.787654 0)scale(0.996264)" xlink:href="#CMR17-30"/>
      </g>
     </g>
    </g>
    <g id="xtick_2">
     <g id="line2d_6">
      <path clip-path="url(#p0626042847)" d="M 205.581933 236.05972 
L 205.581933 13.852984 
" style="fill:none;stroke:#bfbfbf;stroke-dasharray:0.8,2.4;stroke-dashoffset:0;stroke-linecap:round;stroke-linejoin:miter;stroke-width:0.8;"/>
     </g>
     <g id="line2d_7">
      <g>
       <use style="stroke:#000000;stroke-width:0.8;" x="205.581933" xlink:href="#mcd796ad3c8" y="236.05972"/>
      </g>
     </g>
     <g id="text_2">
      <!-- $\mathdefault{0.2}$ -->
      <g transform="translate(194.918901 256.365688)scale(0.18 -0.18)">
       <defs>
        <path d="M 2669 989 
L 2554 989 
C 2490 536 2438 459 2413 420 
C 2381 369 1920 369 1830 369 
L 602 369 
C 832 619 1280 1072 1824 1597 
C 2214 1967 2669 2402 2669 3035 
C 2669 3790 2067 4224 1395 4224 
C 691 4224 262 3604 262 3030 
C 262 2780 448 2748 525 2748 
C 589 2748 781 2787 781 3010 
C 781 3207 614 3264 525 3264 
C 486 3264 448 3258 422 3245 
C 544 3790 915 4058 1306 4058 
C 1862 4058 2227 3617 2227 3035 
C 2227 2479 1901 2000 1536 1584 
L 262 146 
L 262 0 
L 2515 0 
L 2669 989 
z
" id="CMR17-32" transform="scale(0.015625)"/>
       </defs>
       <use transform="scale(0.996264)" xlink:href="#CMR17-30"/>
       <use transform="translate(45.690477 0)scale(0.996264)" xlink:href="#CMMI12-3a"/>
       <use transform="translate(72.787654 0)scale(0.996264)" xlink:href="#CMR17-32"/>
      </g>
     </g>
    </g>
    <g id="xtick_3">
     <g id="line2d_8">
      <path clip-path="url(#p0626042847)" d="M 320.848978 236.05972 
L 320.848978 13.852984 
" style="fill:none;stroke:#bfbfbf;stroke-dasharray:0.8,2.4;stroke-dashoffset:0;stroke-linecap:round;stroke-linejoin:miter;stroke-width:0.8;"/>
     </g>
     <g id="line2d_9">
      <g>
       <use style="stroke:#000000;stroke-width:0.8;" x="320.848978" xlink:href="#mcd796ad3c8" y="236.05972"/>
      </g>
     </g>
     <g id="text_3">
      <!-- $\mathdefault{0.4}$ -->
      <g transform="translate(310.185946 256.365688)scale(0.18 -0.18)">
       <defs>
        <path d="M 2150 4122 
C 2150 4256 2144 4256 2029 4256 
L 128 1254 
L 128 1088 
L 1779 1088 
L 1779 457 
C 1779 224 1766 160 1318 160 
L 1197 160 
L 1197 0 
C 1402 0 1747 0 1965 0 
C 2182 0 2528 0 2733 0 
L 2733 160 
L 2611 160 
C 2163 160 2150 224 2150 457 
L 2150 1088 
L 2803 1088 
L 2803 1254 
L 2150 1254 
L 2150 4122 
z
M 1798 3703 
L 1798 1254 
L 256 1254 
L 1798 3703 
z
" id="CMR17-34" transform="scale(0.015625)"/>
       </defs>
       <use transform="scale(0.996264)" xlink:href="#CMR17-30"/>
       <use transform="translate(45.690477 0)scale(0.996264)" xlink:href="#CMMI12-3a"/>
       <use transform="translate(72.787654 0)scale(0.996264)" xlink:href="#CMR17-34"/>
      </g>
     </g>
    </g>
    <g id="text_4">
     <!-- Time (s) -->
     <g transform="translate(210.286643 281.0357)scale(0.22 -0.22)">
      <defs>
       <path d="M 4051 4608 
L 218 4608 
L 122 2833 
L 397 2833 
C 442 3152 499 3395 570 3599 
C 736 4065 1043 4308 1478 4308 
C 1690 4308 1779 4237 1779 4078 
L 1779 786 
L 1779 600 
C 1779 332 1722 300 1203 300 
L 1037 300 
L 1037 0 
L 3232 0 
L 3232 300 
L 3066 300 
C 2554 300 2496 332 2496 600 
L 2496 786 
L 2496 4078 
C 2496 4237 2586 4308 2797 4308 
C 3187 4308 3501 4090 3661 3707 
C 3757 3472 3821 3197 3872 2833 
L 4147 2833 
L 4051 4608 
z
" id="CenturySchL-Roma-54" transform="scale(0.015625)"/>
       <path d="M 1318 2944 
L 115 2944 
L 115 2638 
L 442 2638 
C 678 2638 717 2593 717 2317 
L 717 787 
L 717 531 
C 717 275 646 230 237 230 
L 192 230 
L 192 0 
L 1850 0 
L 1850 230 
L 1805 230 
C 1389 230 1318 274 1318 526 
L 1318 779 
L 1318 2944 
z
M 1018 4581 
C 813 4581 646 4415 646 4211 
C 646 4013 813 3840 1011 3840 
C 1222 3840 1389 4006 1389 4211 
C 1389 4415 1222 4581 1018 4581 
z
" id="CenturySchL-Roma-69" transform="scale(0.015625)"/>
       <path d="M 1286 2944 
L 147 2944 
L 147 2638 
L 410 2638 
C 646 2638 685 2593 685 2317 
L 685 787 
L 685 538 
C 685 275 614 230 205 230 
L 179 230 
L 179 0 
L 1792 0 
L 1792 230 
L 1766 230 
C 1357 230 1286 275 1286 537 
L 1286 786 
L 1286 1693 
C 1286 2261 1600 2683 2016 2683 
C 2182 2683 2362 2593 2438 2472 
C 2528 2351 2566 2165 2566 1903 
L 2566 786 
L 2566 530 
C 2566 275 2496 230 2080 230 
L 2054 230 
L 2054 0 
L 3674 0 
L 3674 230 
L 3648 230 
C 3238 230 3168 275 3168 530 
L 3168 786 
L 3168 1635 
C 3168 2274 3456 2683 3904 2683 
C 4115 2683 4288 2561 4371 2363 
C 4429 2223 4448 2082 4448 1833 
L 4448 786 
L 4448 530 
C 4448 275 4378 230 3962 230 
L 3936 230 
L 3936 0 
L 5555 0 
L 5555 230 
L 5530 230 
C 5120 230 5050 275 5050 537 
L 5050 786 
L 5050 1961 
C 5050 2357 5011 2491 4845 2708 
C 4659 2945 4397 3072 4090 3072 
C 3674 3072 3366 2876 3091 2439 
C 2982 2819 2637 3072 2208 3072 
C 1824 3072 1536 2889 1286 2491 
L 1286 2944 
z
" id="CenturySchL-Roma-6d" transform="scale(0.015625)"/>
       <path d="M 2976 1472 
C 2982 2420 2438 3090 1658 3090 
C 838 3090 224 2384 224 1430 
C 224 540 806 -64 1670 -64 
C 2278 -64 2714 236 2976 844 
L 2752 966 
C 2490 473 2221 281 1792 281 
C 1466 281 1229 422 1062 704 
C 947 896 896 1120 902 1472 
L 2976 1472 
z
M 909 1747 
C 909 1942 934 2080 998 2256 
C 1133 2633 1338 2816 1645 2816 
C 2035 2816 2291 2482 2291 1979 
C 2291 1797 2234 1747 2029 1747 
L 909 1747 
z
" id="CenturySchL-Roma-65" transform="scale(0.015625)"/>
       <path d="M 1786 4701 
C 1402 4465 1197 4299 979 4043 
C 493 3468 230 2734 230 1961 
C 230 1233 461 549 890 -19 
C 1133 -326 1350 -517 1786 -786 
L 1786 -549 
C 1146 13 890 735 890 1961 
C 890 3187 1146 3903 1786 4465 
L 1786 4701 
z
" id="CenturySchL-Roma-28" transform="scale(0.015625)"/>
       <path d="M 2496 3072 
L 2272 3072 
L 2086 2842 
C 1856 3021 1626 3097 1306 3097 
C 742 3097 371 2728 371 2173 
C 371 1925 454 1714 595 1588 
C 742 1453 890 1390 1274 1300 
L 1613 1224 
C 2118 1103 2298 975 2298 721 
C 2298 421 2035 211 1658 211 
C 1120 211 736 561 582 1208 
L 326 1208 
L 326 0 
L 550 0 
L 774 250 
C 1037 38 1331 -64 1651 -64 
C 2278 -64 2694 325 2694 918 
C 2694 1198 2605 1414 2426 1561 
C 2272 1695 2144 1746 1754 1828 
L 1434 1899 
C 1082 1975 1082 1975 966 2039 
C 826 2103 742 2236 742 2377 
C 742 2631 986 2816 1338 2816 
C 1581 2816 1779 2733 1958 2561 
C 2099 2420 2170 2293 2272 1999 
L 2496 1999 
L 2496 3072 
z
" id="CenturySchL-Roma-73" transform="scale(0.015625)"/>
       <path d="M 346 -786 
C 730 -549 934 -383 1152 -121 
C 1638 447 1901 1188 1901 1961 
C 1901 2689 1670 3373 1242 3935 
C 998 4248 781 4439 346 4701 
L 346 4465 
C 986 3903 1242 3187 1242 1961 
C 1242 728 986 13 346 -549 
L 346 -786 
z
" id="CenturySchL-Roma-29" transform="scale(0.015625)"/>
      </defs>
      <use transform="scale(0.996264)" xlink:href="#CenturySchL-Roma-54"/>
      <use transform="translate(66.450031 0)scale(0.996264)" xlink:href="#CenturySchL-Roma-69"/>
      <use transform="translate(97.831344 0)scale(0.996264)" xlink:href="#CenturySchL-Roma-6d"/>
      <use transform="translate(186.398251 0)scale(0.996264)" xlink:href="#CenturySchL-Roma-65"/>
      <use transform="translate(263.906621 0)scale(0.996264)" xlink:href="#CenturySchL-Roma-28"/>
      <use transform="translate(297.081851 0)scale(0.996264)" xlink:href="#CenturySchL-Roma-73"/>
      <use transform="translate(343.207661 0)scale(0.996264)" xlink:href="#CenturySchL-Roma-29"/>
     </g>
    </g>
   </g>
   <g id="matplotlib.axis_2">
    <g id="ytick_1">
     <g id="line2d_10">
      <path clip-path="url(#p0626042847)" d="M 74.177501 206.340947 
L 429.2 206.340947 
" style="fill:none;stroke:#bfbfbf;stroke-dasharray:0.8,2.4;stroke-dashoffset:0;stroke-linecap:round;stroke-linejoin:miter;stroke-width:0.8;"/>
     </g>
     <g id="line2d_11">
      <defs>
       <path d="M 0 0 
L -3.5 0 
" id="mb0701a78fa" style="stroke:#000000;stroke-width:0.8;"/>
      </defs>
      <g>
       <use style="stroke:#000000;stroke-width:0.8;" x="74.177501" xlink:href="#mb0701a78fa" y="206.340947"/>
      </g>
     </g>
     <g id="text_5">
      <!-- $\mathdefault{0.00}$ -->
      <g transform="translate(37.627152 212.993931)scale(0.18 -0.18)">
       <use transform="scale(0.996264)" xlink:href="#CMR17-30"/>
       <use transform="translate(45.690477 0)scale(0.996264)" xlink:href="#CMMI12-3a"/>
       <use transform="translate(72.787654 0)scale(0.996264)" xlink:href="#CMR17-30"/>
       <use transform="translate(118.478131 0)scale(0.996264)" xlink:href="#CMR17-30"/>
      </g>
     </g>
    </g>
    <g id="ytick_2">
     <g id="line2d_12">
      <path clip-path="url(#p0626042847)" d="M 74.177501 158.218956 
L 429.2 158.218956 
" style="fill:none;stroke:#bfbfbf;stroke-dasharray:0.8,2.4;stroke-dashoffset:0;stroke-linecap:round;stroke-linejoin:miter;stroke-width:0.8;"/>
     </g>
     <g id="line2d_13">
      <g>
       <use style="stroke:#000000;stroke-width:0.8;" x="74.177501" xlink:href="#mb0701a78fa" y="158.218956"/>
      </g>
     </g>
     <g id="text_6">
      <!-- $\mathdefault{0.05}$ -->
      <g transform="translate(37.627152 164.87194)scale(0.18 -0.18)">
       <defs>
        <path d="M 730 3692 
C 794 3666 1056 3584 1325 3584 
C 1920 3584 2246 3911 2432 4100 
C 2432 4157 2432 4192 2394 4192 
C 2387 4192 2374 4192 2323 4163 
C 2099 4058 1837 3973 1517 3973 
C 1325 3973 1037 3999 723 4139 
C 653 4171 640 4171 634 4171 
C 602 4171 595 4164 595 4037 
L 595 2203 
C 595 2089 595 2057 659 2057 
C 691 2057 704 2070 736 2114 
C 941 2401 1222 2522 1542 2522 
C 1766 2522 2246 2382 2246 1289 
C 2246 1085 2246 715 2054 421 
C 1894 159 1645 25 1370 25 
C 947 25 518 320 403 814 
C 429 807 480 795 506 795 
C 589 795 749 840 749 1038 
C 749 1210 627 1280 506 1280 
C 358 1280 262 1190 262 1011 
C 262 454 704 -128 1382 -128 
C 2042 -128 2669 440 2669 1264 
C 2669 2030 2170 2624 1549 2624 
C 1222 2624 947 2503 730 2274 
L 730 3692 
z
" id="CMR17-35" transform="scale(0.015625)"/>
       </defs>
       <use transform="scale(0.996264)" xlink:href="#CMR17-30"/>
       <use transform="translate(45.690477 0)scale(0.996264)" xlink:href="#CMMI12-3a"/>
       <use transform="translate(72.787654 0)scale(0.996264)" xlink:href="#CMR17-30"/>
       <use transform="translate(118.478131 0)scale(0.996264)" xlink:href="#CMR17-35"/>
      </g>
     </g>
    </g>
    <g id="ytick_3">
     <g id="line2d_14">
      <path clip-path="url(#p0626042847)" d="M 74.177501 110.096965 
L 429.2 110.096965 
" style="fill:none;stroke:#bfbfbf;stroke-dasharray:0.8,2.4;stroke-dashoffset:0;stroke-linecap:round;stroke-linejoin:miter;stroke-width:0.8;"/>
     </g>
     <g id="line2d_15">
      <g>
       <use style="stroke:#000000;stroke-width:0.8;" x="74.177501" xlink:href="#mb0701a78fa" y="110.096965"/>
      </g>
     </g>
     <g id="text_7">
      <!-- $\mathdefault{0.10}$ -->
      <g transform="translate(37.627152 116.749949)scale(0.18 -0.18)">
       <defs>
        <path d="M 1702 4058 
C 1702 4192 1696 4192 1606 4192 
C 1357 3916 979 3827 621 3827 
C 602 3827 570 3827 563 3808 
C 557 3795 557 3782 557 3648 
C 755 3648 1088 3686 1344 3839 
L 1344 461 
C 1344 236 1331 160 781 160 
L 589 160 
L 589 0 
C 896 0 1216 0 1523 0 
C 1830 0 2150 0 2458 0 
L 2458 160 
L 2266 160 
C 1715 160 1702 230 1702 458 
L 1702 4058 
z
" id="CMR17-31" transform="scale(0.015625)"/>
       </defs>
       <use transform="scale(0.996264)" xlink:href="#CMR17-30"/>
       <use transform="translate(45.690477 0)scale(0.996264)" xlink:href="#CMMI12-3a"/>
       <use transform="translate(72.787654 0)scale(0.996264)" xlink:href="#CMR17-31"/>
       <use transform="translate(118.478131 0)scale(0.996264)" xlink:href="#CMR17-30"/>
      </g>
     </g>
    </g>
    <g id="ytick_4">
     <g id="line2d_16">
      <path clip-path="url(#p0626042847)" d="M 74.177501 61.974975 
L 429.2 61.974975 
" style="fill:none;stroke:#bfbfbf;stroke-dasharray:0.8,2.4;stroke-dashoffset:0;stroke-linecap:round;stroke-linejoin:miter;stroke-width:0.8;"/>
     </g>
     <g id="line2d_17">
      <g>
       <use style="stroke:#000000;stroke-width:0.8;" x="74.177501" xlink:href="#mb0701a78fa" y="61.974975"/>
      </g>
     </g>
     <g id="text_8">
      <!-- $\mathdefault{0.15}$ -->
      <g transform="translate(37.627152 68.627959)scale(0.18 -0.18)">
       <use transform="scale(0.996264)" xlink:href="#CMR17-30"/>
       <use transform="translate(45.690477 0)scale(0.996264)" xlink:href="#CMMI12-3a"/>
       <use transform="translate(72.787654 0)scale(0.996264)" xlink:href="#CMR17-31"/>
       <use transform="translate(118.478131 0)scale(0.996264)" xlink:href="#CMR17-35"/>
      </g>
     </g>
    </g>
    <g id="ytick_5">
     <g id="line2d_18">
      <path clip-path="url(#p0626042847)" d="M 74.177501 13.852984 
L 429.2 13.852984 
" style="fill:none;stroke:#bfbfbf;stroke-dasharray:0.8,2.4;stroke-dashoffset:0;stroke-linecap:round;stroke-linejoin:miter;stroke-width:0.8;"/>
     </g>
     <g id="line2d_19">
      <g>
       <use style="stroke:#000000;stroke-width:0.8;" x="74.177501" xlink:href="#mb0701a78fa" y="13.852984"/>
      </g>
     </g>
     <g id="text_9">
      <!-- $\mathdefault{0.20}$ -->
      <g transform="translate(37.627152 20.505968)scale(0.18 -0.18)">
       <use transform="scale(0.996264)" xlink:href="#CMR17-30"/>
       <use transform="translate(45.690477 0)scale(0.996264)" xlink:href="#CMMI12-3a"/>
       <use transform="translate(72.787654 0)scale(0.996264)" xlink:href="#CMR17-32"/>
       <use transform="translate(118.478131 0)scale(0.996264)" xlink:href="#CMR17-30"/>
      </g>
     </g>
    </g>
    <g id="text_10">
     <!-- Height (m) -->
     <g transform="translate(23.462852 179.947546)rotate(-90)scale(0.22 -0.22)">
      <defs>
       <path d="M 3738 2215 
L 3738 786 
L 3738 600 
C 3738 332 3680 300 3162 300 
L 3046 300 
L 3046 0 
L 5146 0 
L 5146 300 
L 5030 300 
C 4512 300 4454 332 4454 600 
L 4454 786 
L 4454 3823 
L 4454 4007 
C 4454 4276 4512 4308 5030 4308 
L 5146 4308 
L 5146 4608 
L 3072 4608 
L 3072 4308 
L 3162 4308 
C 3680 4308 3738 4276 3738 4008 
L 3738 3823 
L 3738 2560 
L 1594 2560 
L 1594 3823 
L 1594 4008 
C 1594 4276 1651 4308 2170 4308 
L 2291 4308 
L 2291 4608 
L 186 4608 
L 186 4308 
L 301 4308 
C 819 4308 877 4276 877 4007 
L 877 3823 
L 877 786 
L 877 600 
C 877 332 819 300 301 300 
L 186 300 
L 186 0 
L 2291 0 
L 2291 300 
L 2170 300 
C 1651 300 1594 332 1594 600 
L 1594 786 
L 1594 2215 
L 3738 2215 
z
" id="CenturySchL-Roma-48" transform="scale(0.015625)"/>
       <path d="M 1254 486 
C 902 486 883 493 806 542 
C 762 570 730 647 730 723 
C 730 933 902 1024 1331 1024 
C 1939 1024 2035 1037 2246 1132 
C 2630 1303 2848 1631 2848 2047 
C 2848 2299 2790 2457 2611 2665 
C 2720 2778 2778 2816 2829 2816 
C 2861 2816 2880 2796 2893 2728 
C 2918 2577 3021 2496 3181 2496 
C 3341 2496 3469 2630 3469 2802 
C 3469 3020 3296 3173 3046 3173 
C 2842 3173 2726 3108 2432 2835 
C 2163 3014 1958 3077 1638 3077 
C 877 3077 378 2664 378 2036 
C 378 1666 582 1346 915 1196 
C 486 1098 307 902 307 542 
C 307 255 435 85 736 -19 
C 339 -159 147 -363 147 -624 
C 147 -1044 640 -1280 1498 -1280 
C 2566 -1280 3104 -942 3104 -272 
C 3104 46 2957 300 2720 396 
C 2554 460 2349 486 1907 486 
L 1254 486 
z
M 1632 2816 
C 2035 2816 2259 2539 2259 2054 
C 2259 1563 2016 1266 1606 1266 
C 1210 1266 960 1563 960 2035 
C 960 2532 1203 2816 1632 2816 
z
M 1574 -64 
C 2106 -64 2144 -64 2240 -76 
C 2496 -102 2656 -242 2656 -445 
C 2656 -808 2240 -1018 1523 -1018 
C 986 -1018 678 -859 678 -573 
C 678 -363 794 -222 1101 -64 
L 1574 -64 
z
" id="CenturySchL-Roma-67" transform="scale(0.015625)"/>
       <path d="M 1280 4672 
L 96 4672 
L 96 4366 
L 403 4366 
C 640 4366 678 4321 678 4046 
L 678 786 
L 678 530 
C 678 275 608 230 198 230 
L 173 230 
L 173 0 
L 1792 0 
L 1792 230 
L 1766 230 
C 1350 230 1280 275 1280 530 
L 1280 786 
L 1280 1444 
C 1280 1763 1325 2050 1395 2197 
C 1530 2485 1818 2683 2093 2683 
C 2259 2683 2451 2587 2547 2459 
C 2643 2319 2688 2127 2688 1814 
L 2688 786 
L 2688 530 
C 2688 275 2618 230 2202 230 
L 2176 230 
L 2176 0 
L 3795 0 
L 3795 230 
L 3770 230 
C 3360 230 3290 275 3290 530 
L 3290 786 
L 3290 1789 
C 3290 2248 3270 2363 3155 2581 
C 2995 2887 2675 3072 2291 3072 
C 1882 3072 1568 2881 1280 2453 
L 1280 4672 
z
" id="CenturySchL-Roma-68" transform="scale(0.015625)"/>
       <path d="M 1242 3008 
L 1242 4288 
L 979 4288 
C 915 3448 634 3020 115 2982 
L 115 2733 
L 640 2733 
L 640 1105 
C 640 658 653 498 717 351 
C 819 83 1075 -64 1446 -64 
C 1696 -64 1914 13 2061 153 
C 2272 358 2394 696 2394 1048 
C 2394 1086 2394 1131 2387 1195 
L 2118 1195 
C 2099 620 1933 326 1619 326 
C 1472 326 1344 402 1299 511 
C 1261 600 1242 760 1242 990 
L 1242 2733 
L 2182 2733 
L 2182 3008 
L 1242 3008 
z
" id="CenturySchL-Roma-74" transform="scale(0.015625)"/>
      </defs>
      <use transform="scale(0.996264)" xlink:href="#CenturySchL-Roma-48"/>
      <use transform="translate(82.98843 0)scale(0.996264)" xlink:href="#CenturySchL-Roma-65"/>
      <use transform="translate(132.801631 0)scale(0.996264)" xlink:href="#CenturySchL-Roma-69"/>
      <use transform="translate(164.182944 0)scale(0.996264)" xlink:href="#CenturySchL-Roma-67"/>
      <use transform="translate(217.682288 0)scale(0.996264)" xlink:href="#CenturySchL-Roma-68"/>
      <use transform="translate(278.553918 0)scale(0.996264)" xlink:href="#CenturySchL-Roma-74"/>
      <use transform="translate(345.002794 0)scale(0.996264)" xlink:href="#CenturySchL-Roma-28"/>
      <use transform="translate(378.178024 0)scale(0.996264)" xlink:href="#CenturySchL-Roma-6d"/>
      <use transform="translate(466.744931 0)scale(0.996264)" xlink:href="#CenturySchL-Roma-29"/>
     </g>
    </g>
   </g>
   <g id="legend_1">
    <g id="patch_5">
     <path d="M 282.24013 98.192369 
L 423.8 98.192369 
Q 427.4 98.192369 427.4 94.592369 
L 427.4 19.252984 
Q 427.4 15.652984 423.8 15.652984 
L 282.24013 15.652984 
Q 278.64013 15.652984 278.64013 19.252984 
L 278.64013 94.592369 
Q 278.64013 98.192369 282.24013 98.192369 
z
" style="fill:#ffffff;stroke:#cccccc;stroke-linejoin:miter;"/>
    </g>
    <g id="line2d_20">
     <path d="M 285.84013 29.858952 
L 321.84013 29.858952 
" style="fill:none;stroke:#e41a1c;stroke-linecap:square;stroke-width:2;"/>
    </g>
    <g id="line2d_21"/>
    <g id="text_11">
     <!-- UR = 1:1k -->
     <g transform="translate(336.24013 36.158952)scale(0.18 -0.18)">
      <defs>
       <path d="M 4371 3235 
C 4371 4110 4499 4295 5114 4295 
L 5114 4608 
L 3290 4608 
L 3290 4295 
C 3898 4295 4026 4110 4026 3234 
L 4026 1822 
C 4026 1311 3994 1106 3872 882 
C 3667 486 3251 256 2733 256 
C 2298 256 1920 421 1709 707 
C 1536 942 1504 1094 1504 1685 
L 1504 3812 
L 1504 3996 
C 1504 4263 1562 4295 2080 4295 
L 2202 4295 
L 2202 4608 
L 109 4608 
L 109 4295 
L 218 4295 
C 730 4295 787 4263 787 3996 
L 787 3812 
L 787 1722 
L 787 1283 
C 806 946 858 743 979 565 
C 1274 147 1837 -89 2560 -89 
C 3283 -89 3782 128 4090 582 
C 4294 876 4371 1215 4371 1784 
L 4371 3235 
z
" id="CenturySchL-Roma-55" transform="scale(0.015625)"/>
       <path d="M 1574 2240 
L 1946 2240 
C 2195 2240 2451 2163 2592 2047 
C 2778 1900 2874 1669 2918 1246 
L 2950 918 
C 3027 193 3264 -102 3770 -102 
C 4294 -102 4544 251 4563 1019 
L 4294 1019 
C 4269 576 4192 384 4019 384 
C 3872 384 3808 493 3699 936 
L 3597 1340 
C 3456 1931 3206 2200 2707 2329 
C 3629 2457 4070 2825 4070 3468 
C 4070 4194 3456 4608 2381 4608 
L 166 4608 
L 166 4308 
L 282 4308 
C 800 4308 858 4276 858 4007 
L 858 3823 
L 858 779 
L 858 600 
C 858 332 800 300 282 300 
L 166 300 
L 166 0 
L 2266 0 
L 2266 300 
L 2150 300 
C 1632 300 1574 332 1574 601 
L 1574 780 
L 1574 2240 
z
M 1574 2540 
L 1574 3944 
C 1574 4200 1581 4219 1645 4270 
C 1696 4308 1741 4308 2016 4308 
L 2362 4308 
C 2995 4308 3283 4040 3283 3462 
C 3283 3137 3200 2889 3034 2756 
C 2874 2623 2586 2540 2278 2540 
L 1574 2540 
z
" id="CenturySchL-Roma-52" transform="scale(0.015625)"/>
       <path d="M 326 704 
L 3552 704 
L 3552 1215 
L 326 1215 
L 326 704 
z
M 326 1985 
L 3552 1985 
L 3552 2496 
L 326 2496 
L 326 1985 
z
" id="CenturySchL-Roma-3d" transform="scale(0.015625)"/>
       <path d="M 2061 4512 
C 1843 4239 1254 4032 666 4032 
L 666 3750 
L 1229 3750 
C 1600 3750 1626 3725 1626 3348 
L 1626 786 
L 1626 600 
C 1626 332 1568 300 1056 300 
L 640 300 
L 640 0 
L 3174 0 
L 3174 300 
L 2822 300 
C 2483 300 2342 326 2291 390 
C 2246 434 2246 434 2246 788 
L 2246 3435 
C 2246 3749 2259 4056 2291 4512 
L 2061 4512 
z
" id="CenturySchL-Roma-31" transform="scale(0.015625)"/>
       <path d="M 954 734 
C 730 734 550 555 550 338 
C 550 114 730 -64 947 -64 
C 1171 -64 1350 114 1350 338 
C 1350 555 1171 734 954 734 
z
M 954 3038 
C 730 3038 550 2859 550 2642 
C 550 2419 730 2240 947 2240 
C 1171 2240 1350 2419 1350 2642 
C 1350 2859 1171 3038 954 3038 
z
" id="CenturySchL-Roma-3a" transform="scale(0.015625)"/>
       <path d="M 1274 1549 
L 1274 4672 
L 90 4672 
L 90 4366 
L 397 4366 
C 634 4366 672 4321 672 4046 
L 672 786 
L 672 530 
C 672 275 602 230 192 230 
L 166 230 
L 166 0 
L 1786 0 
L 1786 230 
L 1760 230 
C 1344 230 1274 275 1274 531 
L 1274 787 
L 1274 1152 
L 1664 1523 
L 2426 455 
C 2451 409 2470 370 2470 339 
C 2470 256 2400 230 2189 230 
L 2067 230 
L 2067 0 
L 3757 0 
L 3757 230 
C 3398 262 3270 339 3008 672 
L 2099 1913 
L 2387 2195 
C 2758 2560 3034 2701 3469 2752 
L 3469 2982 
L 1786 2982 
L 1786 2752 
L 1984 2752 
C 2189 2752 2285 2713 2285 2630 
C 2285 2560 2240 2483 2138 2380 
L 1274 1549 
z
" id="CenturySchL-Roma-6b" transform="scale(0.015625)"/>
      </defs>
      <use transform="scale(0.996264)" xlink:href="#CenturySchL-Roma-55"/>
      <use transform="translate(81.194513 0)scale(0.996264)" xlink:href="#CenturySchL-Roma-52"/>
      <use transform="translate(180.819668 0)scale(0.996264)" xlink:href="#CenturySchL-Roma-3d"/>
      <use transform="translate(268.88785 0)scale(0.996264)" xlink:href="#CenturySchL-Roma-31"/>
      <use transform="translate(324.279527 0)scale(0.996264)" xlink:href="#CenturySchL-Roma-3a"/>
      <use transform="translate(351.974696 0)scale(0.996264)" xlink:href="#CenturySchL-Roma-31"/>
      <use transform="translate(407.366373 0)scale(0.996264)" xlink:href="#CenturySchL-Roma-6b"/>
     </g>
    </g>
    <g id="line2d_22">
     <path d="M 285.84013 55.572081 
L 321.84013 55.572081 
" style="fill:none;stroke:#377eb8;stroke-dasharray:12,12;stroke-dashoffset:0;stroke-linecap:round;stroke-linejoin:miter;stroke-width:2;"/>
    </g>
    <g id="line2d_23"/>
    <g id="text_12">
     <!-- UR = 1:3k -->
     <g transform="translate(336.24013 61.872081)scale(0.18 -0.18)">
      <defs>
       <path d="M 2214 2391 
C 2304 2423 2317 2423 2362 2442 
C 2810 2628 3066 2987 3066 3441 
C 3066 4108 2554 4544 1760 4544 
C 1011 4544 442 4094 442 3502 
C 442 3235 621 3046 864 3046 
C 1088 3046 1242 3203 1242 3438 
C 1242 3576 1190 3667 1043 3772 
C 979 3817 960 3850 960 3890 
C 960 4073 1338 4269 1696 4269 
C 2157 4269 2400 3976 2400 3422 
C 2400 2815 2157 2496 1696 2496 
C 1638 2496 1536 2496 1440 2496 
C 1389 2496 1338 2496 1299 2496 
C 1165 2496 1094 2440 1094 2330 
C 1094 2226 1165 2177 1293 2177 
C 1312 2177 1363 2177 1446 2177 
C 1690 2177 1696 2177 1747 2177 
C 2221 2177 2477 1845 2477 1225 
C 2477 580 2150 211 1581 211 
C 1178 211 742 425 742 620 
C 742 678 755 689 883 760 
C 1062 866 1133 974 1133 1130 
C 1133 1357 960 1528 723 1528 
C 454 1528 269 1301 269 972 
C 269 359 838 -64 1658 -64 
C 2579 -64 3187 449 3187 1237 
C 3187 1839 2874 2204 2214 2391 
z
" id="CenturySchL-Roma-33" transform="scale(0.015625)"/>
      </defs>
      <use transform="scale(0.996264)" xlink:href="#CenturySchL-Roma-55"/>
      <use transform="translate(81.194513 0)scale(0.996264)" xlink:href="#CenturySchL-Roma-52"/>
      <use transform="translate(180.819668 0)scale(0.996264)" xlink:href="#CenturySchL-Roma-3d"/>
      <use transform="translate(268.88785 0)scale(0.996264)" xlink:href="#CenturySchL-Roma-31"/>
      <use transform="translate(324.279527 0)scale(0.996264)" xlink:href="#CenturySchL-Roma-3a"/>
      <use transform="translate(351.974696 0)scale(0.996264)" xlink:href="#CenturySchL-Roma-33"/>
      <use transform="translate(407.366373 0)scale(0.996264)" xlink:href="#CenturySchL-Roma-6b"/>
     </g>
    </g>
    <g id="line2d_24">
     <path d="M 285.84013 81.285209 
L 321.84013 81.285209 
" style="fill:none;stroke:#4daf4a;stroke-dasharray:6,10,2,10;stroke-dashoffset:0;stroke-linecap:round;stroke-linejoin:miter;stroke-width:2;"/>
    </g>
    <g id="line2d_25"/>
    <g id="text_13">
     <!-- UR = 1:5k -->
     <g transform="translate(336.24013 87.585209)scale(0.18 -0.18)">
      <defs>
       <path d="M 1050 3821 
C 1395 3738 1574 3712 1824 3712 
C 2368 3712 2765 3904 2976 4255 
C 3046 4377 3072 4434 3072 4485 
C 3072 4524 3053 4543 3021 4543 
C 3002 4543 2970 4536 2938 4517 
C 2624 4383 2451 4351 2086 4351 
C 1677 4351 1440 4383 768 4543 
C 742 4008 685 3327 595 2538 
C 461 2398 416 2315 416 2213 
C 416 2086 499 1997 621 1997 
C 781 1997 883 2133 909 2391 
C 1133 2553 1344 2624 1600 2624 
C 2170 2624 2515 2178 2515 1440 
C 2515 1007 2406 637 2214 437 
C 2086 301 1824 211 1562 211 
C 1178 211 781 411 781 612 
C 781 658 819 709 896 754 
C 1094 877 1152 962 1152 1136 
C 1152 1363 979 1537 749 1537 
C 493 1537 288 1298 288 995 
C 288 672 474 349 762 149 
C 979 7 1242 -64 1574 -64 
C 2579 -64 3213 530 3213 1479 
C 3213 2357 2630 2944 1766 2944 
C 1498 2944 1293 2899 941 2752 
L 1050 3821 
z
" id="CenturySchL-Roma-35" transform="scale(0.015625)"/>
      </defs>
      <use transform="scale(0.996264)" xlink:href="#CenturySchL-Roma-55"/>
      <use transform="translate(81.194513 0)scale(0.996264)" xlink:href="#CenturySchL-Roma-52"/>
      <use transform="translate(180.819668 0)scale(0.996264)" xlink:href="#CenturySchL-Roma-3d"/>
      <use transform="translate(268.88785 0)scale(0.996264)" xlink:href="#CenturySchL-Roma-31"/>
      <use transform="translate(324.279527 0)scale(0.996264)" xlink:href="#CenturySchL-Roma-3a"/>
      <use transform="translate(351.974696 0)scale(0.996264)" xlink:href="#CenturySchL-Roma-35"/>
      <use transform="translate(407.366373 0)scale(0.996264)" xlink:href="#CenturySchL-Roma-6b"/>
     </g>
    </g>
   </g>
  </g>
 </g>
 <defs>
  <clipPath id="p0626042847">
   <rect height="222.206736" width="355.022499" x="74.177501" y="13.852984"/>
  </clipPath>
 </defs>
</svg>
