<?xml version="1.0" encoding="utf-8" standalone="no"?>
<!DOCTYPE svg PUBLIC "-//W3C//DTD SVG 1.1//EN"
  "http://www.w3.org/Graphics/SVG/1.1/DTD/svg11.dtd">
<svg height="292.4pt" version="1.1" viewBox="0 0 436.4 292.4" width="436.4pt" xmlns="http://www.w3.org/2000/svg" xmlns:xlink="http://www.w3.org/1999/xlink">
 <metadata>
  <rdf:RDF xmlns:cc="http://creativecommons.org/ns#" xmlns:dc="http://purl.org/dc/elements/1.1/" xmlns:rdf="http://www.w3.org/1999/02/22-rdf-syntax-ns#">
   <cc:Work>
    <dc:type rdf:resource="http://purl.org/dc/dcmitype/StillImage"/>
    <dc:date>2022-03-17T11:40:14.910589</dc:date>
    <dc:format>image/svg+xml</dc:format>
    <dc:creator>
     <cc:Agent>
      <dc:title>Matplotlib v3.4.2, https://matplotlib.org/</dc:title>
     </cc:Agent>
    </dc:creator>
   </cc:Work>
  </rdf:RDF>
 </metadata>
 <defs>
  <style type="text/css">*{stroke-linecap:butt;stroke-linejoin:round;}</style>
 </defs>
 <g id="figure_1">
  <g id="patch_1">
   <path d="M 0 292.4 
L 436.4 292.4 
L 436.4 0 
L 0 0 
z
" style="fill:none;"/>
  </g>
  <g id="axes_1">
   <g id="patch_2">
    <path d="M 78.965151 236.05972 
L 429.2 236.05972 
L 429.2 7.2 
L 78.965151 7.2 
z
" style="fill:none;"/>
   </g>
   <g id="PolyCollection_1">
    <path clip-path="url(#p3363f98212)" d="M 94.884917 161.834946 
L 94.884917 161.834946 
L 101.960368 254.271213 
L 109.03582 254.271213 
L 116.111271 254.271213 
L 123.186723 161.834946 
L 130.262174 161.834946 
L 137.337626 161.834946 
L 144.413077 161.834946 
L 151.488529 161.834946 
L 158.56398 161.834946 
L 165.639432 161.834946 
L 172.714883 161.834946 
L 179.790335 161.834946 
L 186.865786 161.834946 
L 193.941238 161.834946 
L 201.016689 161.834946 
L 201.016689 161.834946 
L 201.016689 161.834946 
L 193.941238 161.834946 
L 186.865786 161.834946 
L 179.790335 161.834946 
L 172.714883 161.834946 
L 165.639432 161.834946 
L 158.56398 161.834946 
L 151.488529 161.834946 
L 144.413077 161.834946 
L 137.337626 161.834946 
L 130.262174 161.834946 
L 123.186723 161.834946 
L 116.111271 143.623453 
L 109.03582 143.623453 
L 101.960368 143.623453 
L 94.884917 161.834946 
z
" style="fill:#e41a1c;fill-opacity:0.2;"/>
   </g>
   <g id="PolyCollection_2">
    <path clip-path="url(#p3363f98212)" d="M 94.884917 161.834946 
L 94.884917 161.834946 
L 101.960368 180.028313 
L 109.03582 100.469335 
L 116.111271 116.650406 
L 123.186723 177.126079 
L 130.262174 177.12609 
L 137.337626 177.12609 
L 144.413077 161.834946 
L 151.488529 201.520027 
L 158.56398 201.867681 
L 165.639432 201.867681 
L 172.714883 201.867681 
L 179.790335 201.861302 
L 186.865786 177.126067 
L 193.941238 200.894222 
L 201.016689 177.12609 
L 208.092141 201.825204 
L 215.167592 177.125422 
L 222.243044 162.739151 
L 229.318495 177.069112 
L 236.393947 177.12609 
L 243.469398 177.12609 
L 250.54485 177.29844 
L 257.620301 161.834946 
L 264.695753 161.834946 
L 264.695753 161.834946 
L 264.695753 161.834946 
L 257.620301 161.834946 
L 250.54485 115.444462 
L 243.469398 121.80221 
L 236.393947 121.80221 
L 229.318495 121.95138 
L 222.243044 159.467707 
L 215.167592 121.803959 
L 208.092141 146.560026 
L 201.016689 121.80221 
L 193.941238 146.91563 
L 186.865786 121.802271 
L 179.790335 146.546238 
L 172.714883 146.543801 
L 165.639432 146.543801 
L 158.56398 146.543801 
L 151.488529 146.676594 
L 144.413077 161.834946 
L 137.337626 121.80221 
L 130.262174 121.80221 
L 123.186723 121.802241 
L 116.111271 93.613809 
L 109.03582 99.794428 
L 101.960368 69.405606 
L 94.884917 161.834946 
z
" style="fill:#377eb8;fill-opacity:0.2;"/>
   </g>
   <g id="PolyCollection_3">
    <path clip-path="url(#p3363f98212)" d="M 94.884917 161.834946 
L 94.884917 161.834946 
L 101.960368 99.980967 
L 109.03582 99.980967 
L 116.111271 99.980967 
L 123.186723 161.834946 
L 130.262174 161.834946 
L 137.337626 161.834946 
L 144.413077 161.834946 
L 151.488529 161.834946 
L 158.56398 161.834946 
L 165.639432 161.834946 
L 172.714883 161.834946 
L 179.790335 161.834946 
L 186.865786 161.834946 
L 193.941238 161.834946 
L 201.016689 161.834946 
L 208.092141 161.834946 
L 215.167592 161.834946 
L 222.243044 161.834946 
L 229.318495 161.834946 
L 236.393947 161.834946 
L 243.469398 161.834946 
L 250.54485 161.834946 
L 257.620301 161.834946 
L 264.695753 161.834946 
L 264.695753 161.834946 
L 264.695753 161.834946 
L 257.620301 161.834946 
L 250.54485 161.834946 
L 243.469398 161.834946 
L 236.393947 161.834946 
L 229.318495 161.834946 
L 222.243044 161.834946 
L 215.167592 161.834946 
L 208.092141 161.834946 
L 201.016689 161.834946 
L 193.941238 161.834946 
L 186.865786 161.834946 
L 179.790335 161.834946 
L 172.714883 161.834946 
L 165.639432 161.834946 
L 158.56398 161.834946 
L 151.488529 161.834946 
L 144.413077 161.834946 
L 137.337626 161.834946 
L 130.262174 161.834946 
L 123.186723 161.834946 
L 116.111271 99.980967 
L 109.03582 99.980967 
L 101.960368 99.980967 
L 94.884917 161.834946 
z
" style="fill:#4daf4a;fill-opacity:0.2;"/>
   </g>
   <g id="line2d_1">
    <path clip-path="url(#p3363f98212)" d="M 94.884917 161.834946 
L 101.960368 198.947333 
L 109.03582 198.947333 
L 116.111271 198.947333 
L 123.186723 161.834946 
L 130.262174 161.834946 
L 137.337626 161.834946 
L 144.413077 161.834946 
L 151.488529 161.834946 
L 158.56398 161.834946 
L 165.639432 161.834946 
L 172.714883 161.834946 
L 179.790335 161.834946 
L 186.865786 161.834946 
L 193.941238 161.834946 
L 201.016689 161.834946 
L 208.092141 161.834946 
L 215.167592 161.834946 
L 222.243044 161.834946 
L 229.318495 161.834946 
" style="fill:none;stroke:#e41a1c;stroke-linecap:square;stroke-width:2;"/>
   </g>
   <g id="line2d_2">
    <path clip-path="url(#p3363f98212)" d="M 94.884917 161.834946 
L 101.960368 124.71696 
L 109.03582 100.131881 
L 116.111271 105.132107 
L 123.186723 149.46416 
L 130.262174 149.46415 
L 137.337626 149.46415 
L 144.413077 161.834946 
L 151.488529 174.09831 
L 158.56398 174.205741 
L 165.639432 174.205741 
L 172.714883 174.205741 
L 179.790335 174.20377 
L 186.865786 149.464169 
L 193.941238 173.904926 
L 201.016689 149.46415 
L 208.092141 174.192615 
L 215.167592 149.46469 
L 222.243044 161.103429 
L 229.318495 149.510246 
L 236.393947 149.46415 
L 243.469398 149.46415 
L 250.54485 146.371451 
L 257.620301 161.834946 
L 264.695753 161.834946 
L 271.771204 223.688924 
L 278.846656 223.688924 
L 285.922107 223.688924 
L 292.997559 223.688924 
L 300.07301 223.688924 
L 307.148462 223.687113 
L 314.223913 99.988707 
L 321.299365 102.173395 
L 328.374816 223.68355 
L 335.450268 99.981038 
L 342.525719 222.24771 
L 349.601171 99.980967 
L 356.676622 161.834946 
L 363.752074 161.834946 
L 370.827525 121.258562 
L 377.902977 99.980967 
L 384.978428 99.980967 
L 392.05388 99.980967 
L 399.129331 99.980967 
L 406.204783 161.834946 
L 413.280234 161.834946 
" style="fill:none;stroke:#377eb8;stroke-dasharray:12,12;stroke-dashoffset:0;stroke-linecap:round;stroke-linejoin:miter;stroke-width:2;"/>
   </g>
   <g id="line2d_3">
    <path clip-path="url(#p3363f98212)" d="M 94.884917 161.834946 
L 101.960368 99.980967 
L 116.111271 99.980967 
L 123.186723 161.834946 
L 264.695753 161.834946 
L 264.695753 161.834946 
" style="fill:none;stroke:#4daf4a;stroke-dasharray:6,10,2,10;stroke-dashoffset:0;stroke-linecap:round;stroke-linejoin:miter;stroke-width:2;"/>
   </g>
   <g id="patch_3">
    <path d="M 78.965151 236.05972 
L 78.965151 7.2 
" style="fill:none;stroke:#000000;stroke-linecap:square;stroke-linejoin:miter;stroke-width:0.8;"/>
   </g>
   <g id="patch_4">
    <path d="M 78.965151 236.05972 
L 429.2 236.05972 
" style="fill:none;stroke:#000000;stroke-linecap:square;stroke-linejoin:miter;stroke-width:0.8;"/>
   </g>
   <g id="matplotlib.axis_1">
    <g id="xtick_1">
     <g id="line2d_4">
      <path clip-path="url(#p3363f98212)" d="M 94.884917 236.05972 
L 94.884917 7.2 
" style="fill:none;stroke:#bfbfbf;stroke-dasharray:0.8,2.4;stroke-dashoffset:0;stroke-linecap:round;stroke-linejoin:miter;stroke-width:0.8;"/>
     </g>
     <g id="line2d_5">
      <defs>
       <path d="M 0 0 
L 0 3.5 
" id="m068d81fc0a" style="stroke:#000000;stroke-width:0.8;"/>
      </defs>
      <g>
       <use style="stroke:#000000;stroke-width:0.8;" x="94.884917" xlink:href="#m068d81fc0a" y="236.05972"/>
      </g>
     </g>
     <g id="text_1">
      <!-- $\mathdefault{0.0}$ -->
      <g transform="translate(84.221885 256.365688)scale(0.18 -0.18)">
       <defs>
        <path d="M 2688 2025 
C 2688 2416 2682 3080 2413 3591 
C 2176 4039 1798 4198 1466 4198 
C 1158 4198 768 4058 525 3597 
C 269 3118 243 2524 243 2025 
C 243 1661 250 1106 448 619 
C 723 -39 1216 -128 1466 -128 
C 1760 -128 2208 -7 2470 600 
C 2662 1042 2688 1559 2688 2025 
z
M 1466 -26 
C 1056 -26 813 325 723 812 
C 653 1188 653 1738 653 2096 
C 653 2588 653 2997 736 3387 
C 858 3929 1216 4096 1466 4096 
C 1728 4096 2067 3923 2189 3400 
C 2272 3036 2278 2607 2278 2096 
C 2278 1680 2278 1169 2202 792 
C 2067 95 1690 -26 1466 -26 
z
" id="CMR17-30" transform="scale(0.015625)"/>
        <path d="M 1178 307 
C 1178 492 1024 619 870 619 
C 685 619 557 466 557 313 
C 557 128 710 0 864 0 
C 1050 0 1178 153 1178 307 
z
" id="CMMI12-3a" transform="scale(0.015625)"/>
       </defs>
       <use transform="scale(0.996264)" xlink:href="#CMR17-30"/>
       <use transform="translate(45.690477 0)scale(0.996264)" xlink:href="#CMMI12-3a"/>
       <use transform="translate(72.787654 0)scale(0.996264)" xlink:href="#CMR17-30"/>
      </g>
     </g>
    </g>
    <g id="xtick_2">
     <g id="line2d_6">
      <path clip-path="url(#p3363f98212)" d="M 165.639432 236.05972 
L 165.639432 7.2 
" style="fill:none;stroke:#bfbfbf;stroke-dasharray:0.8,2.4;stroke-dashoffset:0;stroke-linecap:round;stroke-linejoin:miter;stroke-width:0.8;"/>
     </g>
     <g id="line2d_7">
      <g>
       <use style="stroke:#000000;stroke-width:0.8;" x="165.639432" xlink:href="#m068d81fc0a" y="236.05972"/>
      </g>
     </g>
     <g id="text_2">
      <!-- $\mathdefault{0.1}$ -->
      <g transform="translate(154.9764 256.365688)scale(0.18 -0.18)">
       <defs>
        <path d="M 1702 4058 
C 1702 4192 1696 4192 1606 4192 
C 1357 3916 979 3827 621 3827 
C 602 3827 570 3827 563 3808 
C 557 3795 557 3782 557 3648 
C 755 3648 1088 3686 1344 3839 
L 1344 461 
C 1344 236 1331 160 781 160 
L 589 160 
L 589 0 
C 896 0 1216 0 1523 0 
C 1830 0 2150 0 2458 0 
L 2458 160 
L 2266 160 
C 1715 160 1702 230 1702 458 
L 1702 4058 
z
" id="CMR17-31" transform="scale(0.015625)"/>
       </defs>
       <use transform="scale(0.996264)" xlink:href="#CMR17-30"/>
       <use transform="translate(45.690477 0)scale(0.996264)" xlink:href="#CMMI12-3a"/>
       <use transform="translate(72.787654 0)scale(0.996264)" xlink:href="#CMR17-31"/>
      </g>
     </g>
    </g>
    <g id="xtick_3">
     <g id="line2d_8">
      <path clip-path="url(#p3363f98212)" d="M 236.393947 236.05972 
L 236.393947 7.2 
" style="fill:none;stroke:#bfbfbf;stroke-dasharray:0.8,2.4;stroke-dashoffset:0;stroke-linecap:round;stroke-linejoin:miter;stroke-width:0.8;"/>
     </g>
     <g id="line2d_9">
      <g>
       <use style="stroke:#000000;stroke-width:0.8;" x="236.393947" xlink:href="#m068d81fc0a" y="236.05972"/>
      </g>
     </g>
     <g id="text_3">
      <!-- $\mathdefault{0.2}$ -->
      <g transform="translate(225.730915 256.365688)scale(0.18 -0.18)">
       <defs>
        <path d="M 2669 989 
L 2554 989 
C 2490 536 2438 459 2413 420 
C 2381 369 1920 369 1830 369 
L 602 369 
C 832 619 1280 1072 1824 1597 
C 2214 1967 2669 2402 2669 3035 
C 2669 3790 2067 4224 1395 4224 
C 691 4224 262 3604 262 3030 
C 262 2780 448 2748 525 2748 
C 589 2748 781 2787 781 3010 
C 781 3207 614 3264 525 3264 
C 486 3264 448 3258 422 3245 
C 544 3790 915 4058 1306 4058 
C 1862 4058 2227 3617 2227 3035 
C 2227 2479 1901 2000 1536 1584 
L 262 146 
L 262 0 
L 2515 0 
L 2669 989 
z
" id="CMR17-32" transform="scale(0.015625)"/>
       </defs>
       <use transform="scale(0.996264)" xlink:href="#CMR17-30"/>
       <use transform="translate(45.690477 0)scale(0.996264)" xlink:href="#CMMI12-3a"/>
       <use transform="translate(72.787654 0)scale(0.996264)" xlink:href="#CMR17-32"/>
      </g>
     </g>
    </g>
    <g id="xtick_4">
     <g id="line2d_10">
      <path clip-path="url(#p3363f98212)" d="M 307.148462 236.05972 
L 307.148462 7.2 
" style="fill:none;stroke:#bfbfbf;stroke-dasharray:0.8,2.4;stroke-dashoffset:0;stroke-linecap:round;stroke-linejoin:miter;stroke-width:0.8;"/>
     </g>
     <g id="line2d_11">
      <g>
       <use style="stroke:#000000;stroke-width:0.8;" x="307.148462" xlink:href="#m068d81fc0a" y="236.05972"/>
      </g>
     </g>
     <g id="text_4">
      <!-- $\mathdefault{0.3}$ -->
      <g transform="translate(296.48543 256.365688)scale(0.18 -0.18)">
       <defs>
        <path d="M 1414 2157 
C 1984 2157 2234 1662 2234 1090 
C 2234 320 1824 25 1453 25 
C 1114 25 563 194 390 693 
C 422 680 454 680 486 680 
C 640 680 755 782 755 948 
C 755 1133 614 1216 486 1216 
C 378 1216 211 1165 211 926 
C 211 335 787 -128 1466 -128 
C 2176 -128 2720 430 2720 1085 
C 2720 1707 2208 2157 1600 2227 
C 2086 2328 2554 2756 2554 3329 
C 2554 3820 2048 4179 1472 4179 
C 890 4179 378 3829 378 3329 
C 378 3110 544 3072 627 3072 
C 762 3072 877 3155 877 3321 
C 877 3486 762 3569 627 3569 
C 602 3569 570 3569 544 3557 
C 730 3959 1235 4032 1459 4032 
C 1683 4032 2106 3925 2106 3320 
C 2106 3143 2080 2828 1862 2550 
C 1670 2304 1453 2304 1242 2284 
C 1210 2284 1062 2269 1037 2269 
C 992 2263 966 2257 966 2208 
C 966 2163 973 2157 1101 2157 
L 1414 2157 
z
" id="CMR17-33" transform="scale(0.015625)"/>
       </defs>
       <use transform="scale(0.996264)" xlink:href="#CMR17-30"/>
       <use transform="translate(45.690477 0)scale(0.996264)" xlink:href="#CMMI12-3a"/>
       <use transform="translate(72.787654 0)scale(0.996264)" xlink:href="#CMR17-33"/>
      </g>
     </g>
    </g>
    <g id="xtick_5">
     <g id="line2d_12">
      <path clip-path="url(#p3363f98212)" d="M 377.902977 236.05972 
L 377.902977 7.2 
" style="fill:none;stroke:#bfbfbf;stroke-dasharray:0.8,2.4;stroke-dashoffset:0;stroke-linecap:round;stroke-linejoin:miter;stroke-width:0.8;"/>
     </g>
     <g id="line2d_13">
      <g>
       <use style="stroke:#000000;stroke-width:0.8;" x="377.902977" xlink:href="#m068d81fc0a" y="236.05972"/>
      </g>
     </g>
     <g id="text_5">
      <!-- $\mathdefault{0.4}$ -->
      <g transform="translate(367.239945 256.365688)scale(0.18 -0.18)">
       <defs>
        <path d="M 2150 4122 
C 2150 4256 2144 4256 2029 4256 
L 128 1254 
L 128 1088 
L 1779 1088 
L 1779 457 
C 1779 224 1766 160 1318 160 
L 1197 160 
L 1197 0 
C 1402 0 1747 0 1965 0 
C 2182 0 2528 0 2733 0 
L 2733 160 
L 2611 160 
C 2163 160 2150 224 2150 457 
L 2150 1088 
L 2803 1088 
L 2803 1254 
L 2150 1254 
L 2150 4122 
z
M 1798 3703 
L 1798 1254 
L 256 1254 
L 1798 3703 
z
" id="CMR17-34" transform="scale(0.015625)"/>
       </defs>
       <use transform="scale(0.996264)" xlink:href="#CMR17-30"/>
       <use transform="translate(45.690477 0)scale(0.996264)" xlink:href="#CMMI12-3a"/>
       <use transform="translate(72.787654 0)scale(0.996264)" xlink:href="#CMR17-34"/>
      </g>
     </g>
    </g>
    <g id="text_6">
     <!-- Time (s) -->
     <g transform="translate(212.680468 281.0357)scale(0.22 -0.22)">
      <defs>
       <path d="M 4051 4608 
L 218 4608 
L 122 2833 
L 397 2833 
C 442 3152 499 3395 570 3599 
C 736 4065 1043 4308 1478 4308 
C 1690 4308 1779 4237 1779 4078 
L 1779 786 
L 1779 600 
C 1779 332 1722 300 1203 300 
L 1037 300 
L 1037 0 
L 3232 0 
L 3232 300 
L 3066 300 
C 2554 300 2496 332 2496 600 
L 2496 786 
L 2496 4078 
C 2496 4237 2586 4308 2797 4308 
C 3187 4308 3501 4090 3661 3707 
C 3757 3472 3821 3197 3872 2833 
L 4147 2833 
L 4051 4608 
z
" id="CenturySchL-Roma-54" transform="scale(0.015625)"/>
       <path d="M 1318 2944 
L 115 2944 
L 115 2638 
L 442 2638 
C 678 2638 717 2593 717 2317 
L 717 787 
L 717 531 
C 717 275 646 230 237 230 
L 192 230 
L 192 0 
L 1850 0 
L 1850 230 
L 1805 230 
C 1389 230 1318 274 1318 526 
L 1318 779 
L 1318 2944 
z
M 1018 4581 
C 813 4581 646 4415 646 4211 
C 646 4013 813 3840 1011 3840 
C 1222 3840 1389 4006 1389 4211 
C 1389 4415 1222 4581 1018 4581 
z
" id="CenturySchL-Roma-69" transform="scale(0.015625)"/>
       <path d="M 1286 2944 
L 147 2944 
L 147 2638 
L 410 2638 
C 646 2638 685 2593 685 2317 
L 685 787 
L 685 538 
C 685 275 614 230 205 230 
L 179 230 
L 179 0 
L 1792 0 
L 1792 230 
L 1766 230 
C 1357 230 1286 275 1286 537 
L 1286 786 
L 1286 1693 
C 1286 2261 1600 2683 2016 2683 
C 2182 2683 2362 2593 2438 2472 
C 2528 2351 2566 2165 2566 1903 
L 2566 786 
L 2566 530 
C 2566 275 2496 230 2080 230 
L 2054 230 
L 2054 0 
L 3674 0 
L 3674 230 
L 3648 230 
C 3238 230 3168 275 3168 530 
L 3168 786 
L 3168 1635 
C 3168 2274 3456 2683 3904 2683 
C 4115 2683 4288 2561 4371 2363 
C 4429 2223 4448 2082 4448 1833 
L 4448 786 
L 4448 530 
C 4448 275 4378 230 3962 230 
L 3936 230 
L 3936 0 
L 5555 0 
L 5555 230 
L 5530 230 
C 5120 230 5050 275 5050 537 
L 5050 786 
L 5050 1961 
C 5050 2357 5011 2491 4845 2708 
C 4659 2945 4397 3072 4090 3072 
C 3674 3072 3366 2876 3091 2439 
C 2982 2819 2637 3072 2208 3072 
C 1824 3072 1536 2889 1286 2491 
L 1286 2944 
z
" id="CenturySchL-Roma-6d" transform="scale(0.015625)"/>
       <path d="M 2976 1472 
C 2982 2420 2438 3090 1658 3090 
C 838 3090 224 2384 224 1430 
C 224 540 806 -64 1670 -64 
C 2278 -64 2714 236 2976 844 
L 2752 966 
C 2490 473 2221 281 1792 281 
C 1466 281 1229 422 1062 704 
C 947 896 896 1120 902 1472 
L 2976 1472 
z
M 909 1747 
C 909 1942 934 2080 998 2256 
C 1133 2633 1338 2816 1645 2816 
C 2035 2816 2291 2482 2291 1979 
C 2291 1797 2234 1747 2029 1747 
L 909 1747 
z
" id="CenturySchL-Roma-65" transform="scale(0.015625)"/>
       <path d="M 1786 4701 
C 1402 4465 1197 4299 979 4043 
C 493 3468 230 2734 230 1961 
C 230 1233 461 549 890 -19 
C 1133 -326 1350 -517 1786 -786 
L 1786 -549 
C 1146 13 890 735 890 1961 
C 890 3187 1146 3903 1786 4465 
L 1786 4701 
z
" id="CenturySchL-Roma-28" transform="scale(0.015625)"/>
       <path d="M 2496 3072 
L 2272 3072 
L 2086 2842 
C 1856 3021 1626 3097 1306 3097 
C 742 3097 371 2728 371 2173 
C 371 1925 454 1714 595 1588 
C 742 1453 890 1390 1274 1300 
L 1613 1224 
C 2118 1103 2298 975 2298 721 
C 2298 421 2035 211 1658 211 
C 1120 211 736 561 582 1208 
L 326 1208 
L 326 0 
L 550 0 
L 774 250 
C 1037 38 1331 -64 1651 -64 
C 2278 -64 2694 325 2694 918 
C 2694 1198 2605 1414 2426 1561 
C 2272 1695 2144 1746 1754 1828 
L 1434 1899 
C 1082 1975 1082 1975 966 2039 
C 826 2103 742 2236 742 2377 
C 742 2631 986 2816 1338 2816 
C 1581 2816 1779 2733 1958 2561 
C 2099 2420 2170 2293 2272 1999 
L 2496 1999 
L 2496 3072 
z
" id="CenturySchL-Roma-73" transform="scale(0.015625)"/>
       <path d="M 346 -786 
C 730 -549 934 -383 1152 -121 
C 1638 447 1901 1188 1901 1961 
C 1901 2689 1670 3373 1242 3935 
C 998 4248 781 4439 346 4701 
L 346 4465 
C 986 3903 1242 3187 1242 1961 
C 1242 728 986 13 346 -549 
L 346 -786 
z
" id="CenturySchL-Roma-29" transform="scale(0.015625)"/>
      </defs>
      <use transform="scale(0.996264)" xlink:href="#CenturySchL-Roma-54"/>
      <use transform="translate(66.450031 0)scale(0.996264)" xlink:href="#CenturySchL-Roma-69"/>
      <use transform="translate(97.831344 0)scale(0.996264)" xlink:href="#CenturySchL-Roma-6d"/>
      <use transform="translate(186.398251 0)scale(0.996264)" xlink:href="#CenturySchL-Roma-65"/>
      <use transform="translate(263.906621 0)scale(0.996264)" xlink:href="#CenturySchL-Roma-28"/>
      <use transform="translate(297.081851 0)scale(0.996264)" xlink:href="#CenturySchL-Roma-73"/>
      <use transform="translate(343.207661 0)scale(0.996264)" xlink:href="#CenturySchL-Roma-29"/>
     </g>
    </g>
   </g>
   <g id="matplotlib.axis_2">
    <g id="ytick_1">
     <g id="line2d_14">
      <path clip-path="url(#p3363f98212)" d="M 78.965151 223.688924 
L 429.2 223.688924 
" style="fill:none;stroke:#bfbfbf;stroke-dasharray:0.8,2.4;stroke-dashoffset:0;stroke-linecap:round;stroke-linejoin:miter;stroke-width:0.8;"/>
     </g>
     <g id="line2d_15">
      <defs>
       <path d="M 0 0 
L -3.5 0 
" id="mffc7a0e5d0" style="stroke:#000000;stroke-width:0.8;"/>
      </defs>
      <g>
       <use style="stroke:#000000;stroke-width:0.8;" x="78.965151" xlink:href="#mffc7a0e5d0" y="223.688924"/>
      </g>
     </g>
     <g id="text_7">
      <!-- $\mathdefault{−10}$ -->
      <g transform="translate(41.568837 230.341908)scale(0.18 -0.18)">
       <defs>
        <path d="M 4218 1472 
C 4326 1472 4442 1472 4442 1600 
C 4442 1728 4326 1728 4218 1728 
L 755 1728 
C 646 1728 531 1728 531 1600 
C 531 1472 646 1472 755 1472 
L 4218 1472 
z
" id="CMSY10-0" transform="scale(0.015625)"/>
       </defs>
       <use transform="scale(0.996264)" xlink:href="#CMSY10-0"/>
       <use transform="translate(77.487468 0)scale(0.996264)" xlink:href="#CMR17-31"/>
       <use transform="translate(123.177945 0)scale(0.996264)" xlink:href="#CMR17-30"/>
      </g>
     </g>
    </g>
    <g id="ytick_2">
     <g id="line2d_16">
      <path clip-path="url(#p3363f98212)" d="M 78.965151 161.834946 
L 429.2 161.834946 
" style="fill:none;stroke:#bfbfbf;stroke-dasharray:0.8,2.4;stroke-dashoffset:0;stroke-linecap:round;stroke-linejoin:miter;stroke-width:0.8;"/>
     </g>
     <g id="line2d_17">
      <g>
       <use style="stroke:#000000;stroke-width:0.8;" x="78.965151" xlink:href="#mffc7a0e5d0" y="161.834946"/>
      </g>
     </g>
     <g id="text_8">
      <!-- $\mathdefault{0}$ -->
      <g transform="translate(63.740865 168.48793)scale(0.18 -0.18)">
       <use transform="scale(0.996264)" xlink:href="#CMR17-30"/>
      </g>
     </g>
    </g>
    <g id="ytick_3">
     <g id="line2d_18">
      <path clip-path="url(#p3363f98212)" d="M 78.965151 99.980967 
L 429.2 99.980967 
" style="fill:none;stroke:#bfbfbf;stroke-dasharray:0.8,2.4;stroke-dashoffset:0;stroke-linecap:round;stroke-linejoin:miter;stroke-width:0.8;"/>
     </g>
     <g id="line2d_19">
      <g>
       <use style="stroke:#000000;stroke-width:0.8;" x="78.965151" xlink:href="#mffc7a0e5d0" y="99.980967"/>
      </g>
     </g>
     <g id="text_9">
      <!-- $\mathdefault{10}$ -->
      <g transform="translate(55.516579 106.633952)scale(0.18 -0.18)">
       <use transform="scale(0.996264)" xlink:href="#CMR17-31"/>
       <use transform="translate(45.690477 0)scale(0.996264)" xlink:href="#CMR17-30"/>
      </g>
     </g>
    </g>
    <g id="ytick_4">
     <g id="line2d_20">
      <path clip-path="url(#p3363f98212)" d="M 78.965151 38.126989 
L 429.2 38.126989 
" style="fill:none;stroke:#bfbfbf;stroke-dasharray:0.8,2.4;stroke-dashoffset:0;stroke-linecap:round;stroke-linejoin:miter;stroke-width:0.8;"/>
     </g>
     <g id="line2d_21">
      <g>
       <use style="stroke:#000000;stroke-width:0.8;" x="78.965151" xlink:href="#mffc7a0e5d0" y="38.126989"/>
      </g>
     </g>
     <g id="text_10">
      <!-- $\mathdefault{20}$ -->
      <g transform="translate(55.516579 44.779973)scale(0.18 -0.18)">
       <use transform="scale(0.996264)" xlink:href="#CMR17-32"/>
       <use transform="translate(45.690477 0)scale(0.996264)" xlink:href="#CMR17-30"/>
      </g>
     </g>
    </g>
    <g id="text_11">
     <!-- Input ($\textup{m/s}^2$) -->
     <g transform="translate(27.404537 182.247514)rotate(-90)scale(0.22 -0.22)">
      <defs>
       <path d="M 1664 3823 
L 1664 4007 
C 1664 4276 1722 4308 2234 4308 
L 2362 4308 
L 2362 4608 
L 243 4608 
L 243 4308 
L 371 4308 
C 890 4308 947 4276 947 4007 
L 947 3823 
L 947 786 
L 947 600 
C 947 332 890 300 371 300 
L 243 300 
L 243 0 
L 2362 0 
L 2362 300 
L 2234 300 
C 1722 300 1664 332 1664 600 
L 1664 786 
L 1664 3823 
z
" id="CenturySchL-Roma-49" transform="scale(0.015625)"/>
       <path d="M 1280 2944 
L 173 2944 
L 173 2638 
L 403 2638 
C 640 2638 678 2593 678 2317 
L 678 787 
L 678 531 
C 678 275 608 230 198 230 
L 173 230 
L 173 0 
L 1792 0 
L 1792 230 
L 1766 230 
C 1350 230 1280 275 1280 530 
L 1280 786 
L 1280 1450 
C 1280 1763 1325 2050 1395 2197 
C 1530 2485 1818 2683 2093 2683 
C 2259 2683 2451 2587 2547 2459 
C 2643 2325 2688 2127 2688 1820 
L 2688 786 
L 2688 530 
C 2688 275 2618 230 2202 230 
L 2176 230 
L 2176 0 
L 3795 0 
L 3795 230 
L 3770 230 
C 3360 230 3290 275 3290 530 
L 3290 786 
L 3290 1789 
C 3290 2248 3270 2363 3155 2581 
C 2995 2887 2669 3072 2291 3072 
C 1882 3072 1562 2883 1280 2465 
L 1280 2944 
z
" id="CenturySchL-Roma-6e" transform="scale(0.015625)"/>
       <path d="M 1286 2944 
L 179 2944 
L 179 2638 
L 410 2638 
C 646 2638 685 2593 685 2318 
L 685 -496 
L 685 -750 
C 685 -1006 614 -1050 205 -1050 
L 179 -1050 
L 179 -1280 
L 1843 -1280 
L 1843 -1050 
L 1773 -1050 
C 1357 -1050 1286 -1006 1286 -751 
L 1286 -496 
L 1286 428 
C 1498 58 1741 -89 2131 -89 
C 2874 -89 3424 593 3424 1504 
C 3424 2385 2874 3072 2170 3072 
C 1773 3072 1510 2908 1286 2529 
L 1286 2944 
z
M 2054 2727 
C 2496 2727 2752 2288 2752 1542 
C 2752 721 2490 256 2035 256 
C 1581 256 1280 728 1280 1460 
C 1280 2249 1568 2727 2054 2727 
z
" id="CenturySchL-Roma-70" transform="scale(0.015625)"/>
       <path d="M 2637 0 
L 3802 0 
L 3802 301 
L 3642 301 
C 3290 301 3238 358 3238 765 
L 3238 2994 
L 2035 2994 
L 2035 2688 
L 2362 2688 
C 2598 2688 2637 2643 2637 2365 
L 2637 1572 
C 2637 1204 2598 991 2502 778 
C 2368 494 2112 326 1798 326 
C 1600 326 1434 396 1350 523 
C 1267 643 1254 707 1254 1056 
L 1254 2994 
L 134 2994 
L 134 2688 
L 378 2688 
C 614 2688 653 2643 653 2365 
L 653 974 
C 653 645 678 497 774 349 
C 947 84 1254 -64 1638 -64 
C 2061 -64 2355 110 2637 520 
L 2637 0 
z
" id="CenturySchL-Roma-75" transform="scale(0.015625)"/>
       <path d="M 1242 3008 
L 1242 4288 
L 979 4288 
C 915 3448 634 3020 115 2982 
L 115 2733 
L 640 2733 
L 640 1105 
C 640 658 653 498 717 351 
C 819 83 1075 -64 1446 -64 
C 1696 -64 1914 13 2061 153 
C 2272 358 2394 696 2394 1048 
C 2394 1086 2394 1131 2387 1195 
L 2118 1195 
C 2099 620 1933 326 1619 326 
C 1472 326 1344 402 1299 511 
C 1261 600 1242 760 1242 990 
L 1242 2733 
L 2182 2733 
L 2182 3008 
L 1242 3008 
z
" id="CenturySchL-Roma-74" transform="scale(0.015625)"/>
       <path d="M 1562 4736 
L -147 -64 
L 224 -64 
L 1933 4736 
L 1562 4736 
z
" id="CenturySchL-Roma-2f" transform="scale(0.015625)"/>
      </defs>
      <use transform="scale(0.996264)" xlink:href="#CenturySchL-Roma-49"/>
      <use transform="translate(40.547425 0)scale(0.996264)" xlink:href="#CenturySchL-Roma-6e"/>
      <use transform="translate(101.419056 0)scale(0.996264)" xlink:href="#CenturySchL-Roma-70"/>
      <use transform="translate(158.604543 0)scale(0.996264)" xlink:href="#CenturySchL-Roma-75"/>
      <use transform="translate(219.476174 0)scale(0.996264)" xlink:href="#CenturySchL-Roma-74"/>
      <use transform="translate(285.92505 0)scale(0.996264)" xlink:href="#CenturySchL-Roma-28"/>
      <use transform="translate(319.100279 0)scale(0.996264)" xlink:href="#CenturySchL-Roma-6d"/>
      <use transform="translate(407.667186 0)scale(0.996264)" xlink:href="#CenturySchL-Roma-2f"/>
      <use transform="translate(435.362356 0)scale(0.996264)" xlink:href="#CenturySchL-Roma-73"/>
      <use transform="translate(481.488166 46.896404)scale(0.697382)" xlink:href="#CMR17-32"/>
      <use transform="translate(513.96948 0)scale(0.996264)" xlink:href="#CenturySchL-Roma-29"/>
     </g>
    </g>
   </g>
   <g id="legend_1">
    <g id="patch_5">
     <path d="M 282.24013 91.539385 
L 423.8 91.539385 
Q 427.4 91.539385 427.4 87.939385 
L 427.4 12.6 
Q 427.4 9 423.8 9 
L 282.24013 9 
Q 278.64013 9 278.64013 12.6 
L 278.64013 87.939385 
Q 278.64013 91.539385 282.24013 91.539385 
z
" style="fill:#ffffff;stroke:#cccccc;stroke-linejoin:miter;"/>
    </g>
    <g id="line2d_22">
     <path d="M 285.84013 23.205968 
L 321.84013 23.205968 
" style="fill:none;stroke:#e41a1c;stroke-linecap:square;stroke-width:2;"/>
    </g>
    <g id="line2d_23"/>
    <g id="text_12">
     <!-- UR = 1:1k -->
     <g transform="translate(336.24013 29.505968)scale(0.18 -0.18)">
      <defs>
       <path d="M 4371 3235 
C 4371 4110 4499 4295 5114 4295 
L 5114 4608 
L 3290 4608 
L 3290 4295 
C 3898 4295 4026 4110 4026 3234 
L 4026 1822 
C 4026 1311 3994 1106 3872 882 
C 3667 486 3251 256 2733 256 
C 2298 256 1920 421 1709 707 
C 1536 942 1504 1094 1504 1685 
L 1504 3812 
L 1504 3996 
C 1504 4263 1562 4295 2080 4295 
L 2202 4295 
L 2202 4608 
L 109 4608 
L 109 4295 
L 218 4295 
C 730 4295 787 4263 787 3996 
L 787 3812 
L 787 1722 
L 787 1283 
C 806 946 858 743 979 565 
C 1274 147 1837 -89 2560 -89 
C 3283 -89 3782 128 4090 582 
C 4294 876 4371 1215 4371 1784 
L 4371 3235 
z
" id="CenturySchL-Roma-55" transform="scale(0.015625)"/>
       <path d="M 1574 2240 
L 1946 2240 
C 2195 2240 2451 2163 2592 2047 
C 2778 1900 2874 1669 2918 1246 
L 2950 918 
C 3027 193 3264 -102 3770 -102 
C 4294 -102 4544 251 4563 1019 
L 4294 1019 
C 4269 576 4192 384 4019 384 
C 3872 384 3808 493 3699 936 
L 3597 1340 
C 3456 1931 3206 2200 2707 2329 
C 3629 2457 4070 2825 4070 3468 
C 4070 4194 3456 4608 2381 4608 
L 166 4608 
L 166 4308 
L 282 4308 
C 800 4308 858 4276 858 4007 
L 858 3823 
L 858 779 
L 858 600 
C 858 332 800 300 282 300 
L 166 300 
L 166 0 
L 2266 0 
L 2266 300 
L 2150 300 
C 1632 300 1574 332 1574 601 
L 1574 780 
L 1574 2240 
z
M 1574 2540 
L 1574 3944 
C 1574 4200 1581 4219 1645 4270 
C 1696 4308 1741 4308 2016 4308 
L 2362 4308 
C 2995 4308 3283 4040 3283 3462 
C 3283 3137 3200 2889 3034 2756 
C 2874 2623 2586 2540 2278 2540 
L 1574 2540 
z
" id="CenturySchL-Roma-52" transform="scale(0.015625)"/>
       <path d="M 326 704 
L 3552 704 
L 3552 1215 
L 326 1215 
L 326 704 
z
M 326 1985 
L 3552 1985 
L 3552 2496 
L 326 2496 
L 326 1985 
z
" id="CenturySchL-Roma-3d" transform="scale(0.015625)"/>
       <path d="M 2061 4512 
C 1843 4239 1254 4032 666 4032 
L 666 3750 
L 1229 3750 
C 1600 3750 1626 3725 1626 3348 
L 1626 786 
L 1626 600 
C 1626 332 1568 300 1056 300 
L 640 300 
L 640 0 
L 3174 0 
L 3174 300 
L 2822 300 
C 2483 300 2342 326 2291 390 
C 2246 434 2246 434 2246 788 
L 2246 3435 
C 2246 3749 2259 4056 2291 4512 
L 2061 4512 
z
" id="CenturySchL-Roma-31" transform="scale(0.015625)"/>
       <path d="M 954 734 
C 730 734 550 555 550 338 
C 550 114 730 -64 947 -64 
C 1171 -64 1350 114 1350 338 
C 1350 555 1171 734 954 734 
z
M 954 3038 
C 730 3038 550 2859 550 2642 
C 550 2419 730 2240 947 2240 
C 1171 2240 1350 2419 1350 2642 
C 1350 2859 1171 3038 954 3038 
z
" id="CenturySchL-Roma-3a" transform="scale(0.015625)"/>
       <path d="M 1274 1549 
L 1274 4672 
L 90 4672 
L 90 4366 
L 397 4366 
C 634 4366 672 4321 672 4046 
L 672 786 
L 672 530 
C 672 275 602 230 192 230 
L 166 230 
L 166 0 
L 1786 0 
L 1786 230 
L 1760 230 
C 1344 230 1274 275 1274 531 
L 1274 787 
L 1274 1152 
L 1664 1523 
L 2426 455 
C 2451 409 2470 370 2470 339 
C 2470 256 2400 230 2189 230 
L 2067 230 
L 2067 0 
L 3757 0 
L 3757 230 
C 3398 262 3270 339 3008 672 
L 2099 1913 
L 2387 2195 
C 2758 2560 3034 2701 3469 2752 
L 3469 2982 
L 1786 2982 
L 1786 2752 
L 1984 2752 
C 2189 2752 2285 2713 2285 2630 
C 2285 2560 2240 2483 2138 2380 
L 1274 1549 
z
" id="CenturySchL-Roma-6b" transform="scale(0.015625)"/>
      </defs>
      <use transform="scale(0.996264)" xlink:href="#CenturySchL-Roma-55"/>
      <use transform="translate(81.194513 0)scale(0.996264)" xlink:href="#CenturySchL-Roma-52"/>
      <use transform="translate(180.819668 0)scale(0.996264)" xlink:href="#CenturySchL-Roma-3d"/>
      <use transform="translate(268.88785 0)scale(0.996264)" xlink:href="#CenturySchL-Roma-31"/>
      <use transform="translate(324.279527 0)scale(0.996264)" xlink:href="#CenturySchL-Roma-3a"/>
      <use transform="translate(351.974696 0)scale(0.996264)" xlink:href="#CenturySchL-Roma-31"/>
      <use transform="translate(407.366373 0)scale(0.996264)" xlink:href="#CenturySchL-Roma-6b"/>
     </g>
    </g>
    <g id="line2d_24">
     <path d="M 285.84013 48.919096 
L 321.84013 48.919096 
" style="fill:none;stroke:#377eb8;stroke-dasharray:12,12;stroke-dashoffset:0;stroke-linecap:round;stroke-linejoin:miter;stroke-width:2;"/>
    </g>
    <g id="line2d_25"/>
    <g id="text_13">
     <!-- UR = 1:3k -->
     <g transform="translate(336.24013 55.219096)scale(0.18 -0.18)">
      <defs>
       <path d="M 2214 2391 
C 2304 2423 2317 2423 2362 2442 
C 2810 2628 3066 2987 3066 3441 
C 3066 4108 2554 4544 1760 4544 
C 1011 4544 442 4094 442 3502 
C 442 3235 621 3046 864 3046 
C 1088 3046 1242 3203 1242 3438 
C 1242 3576 1190 3667 1043 3772 
C 979 3817 960 3850 960 3890 
C 960 4073 1338 4269 1696 4269 
C 2157 4269 2400 3976 2400 3422 
C 2400 2815 2157 2496 1696 2496 
C 1638 2496 1536 2496 1440 2496 
C 1389 2496 1338 2496 1299 2496 
C 1165 2496 1094 2440 1094 2330 
C 1094 2226 1165 2177 1293 2177 
C 1312 2177 1363 2177 1446 2177 
C 1690 2177 1696 2177 1747 2177 
C 2221 2177 2477 1845 2477 1225 
C 2477 580 2150 211 1581 211 
C 1178 211 742 425 742 620 
C 742 678 755 689 883 760 
C 1062 866 1133 974 1133 1130 
C 1133 1357 960 1528 723 1528 
C 454 1528 269 1301 269 972 
C 269 359 838 -64 1658 -64 
C 2579 -64 3187 449 3187 1237 
C 3187 1839 2874 2204 2214 2391 
z
" id="CenturySchL-Roma-33" transform="scale(0.015625)"/>
      </defs>
      <use transform="scale(0.996264)" xlink:href="#CenturySchL-Roma-55"/>
      <use transform="translate(81.194513 0)scale(0.996264)" xlink:href="#CenturySchL-Roma-52"/>
      <use transform="translate(180.819668 0)scale(0.996264)" xlink:href="#CenturySchL-Roma-3d"/>
      <use transform="translate(268.88785 0)scale(0.996264)" xlink:href="#CenturySchL-Roma-31"/>
      <use transform="translate(324.279527 0)scale(0.996264)" xlink:href="#CenturySchL-Roma-3a"/>
      <use transform="translate(351.974696 0)scale(0.996264)" xlink:href="#CenturySchL-Roma-33"/>
      <use transform="translate(407.366373 0)scale(0.996264)" xlink:href="#CenturySchL-Roma-6b"/>
     </g>
    </g>
    <g id="line2d_26">
     <path d="M 285.84013 74.632225 
L 321.84013 74.632225 
" style="fill:none;stroke:#4daf4a;stroke-dasharray:6,10,2,10;stroke-dashoffset:0;stroke-linecap:round;stroke-linejoin:miter;stroke-width:2;"/>
    </g>
    <g id="line2d_27"/>
    <g id="text_14">
     <!-- UR = 1:5k -->
     <g transform="translate(336.24013 80.932225)scale(0.18 -0.18)">
      <defs>
       <path d="M 1050 3821 
C 1395 3738 1574 3712 1824 3712 
C 2368 3712 2765 3904 2976 4255 
C 3046 4377 3072 4434 3072 4485 
C 3072 4524 3053 4543 3021 4543 
C 3002 4543 2970 4536 2938 4517 
C 2624 4383 2451 4351 2086 4351 
C 1677 4351 1440 4383 768 4543 
C 742 4008 685 3327 595 2538 
C 461 2398 416 2315 416 2213 
C 416 2086 499 1997 621 1997 
C 781 1997 883 2133 909 2391 
C 1133 2553 1344 2624 1600 2624 
C 2170 2624 2515 2178 2515 1440 
C 2515 1007 2406 637 2214 437 
C 2086 301 1824 211 1562 211 
C 1178 211 781 411 781 612 
C 781 658 819 709 896 754 
C 1094 877 1152 962 1152 1136 
C 1152 1363 979 1537 749 1537 
C 493 1537 288 1298 288 995 
C 288 672 474 349 762 149 
C 979 7 1242 -64 1574 -64 
C 2579 -64 3213 530 3213 1479 
C 3213 2357 2630 2944 1766 2944 
C 1498 2944 1293 2899 941 2752 
L 1050 3821 
z
" id="CenturySchL-Roma-35" transform="scale(0.015625)"/>
      </defs>
      <use transform="scale(0.996264)" xlink:href="#CenturySchL-Roma-55"/>
      <use transform="translate(81.194513 0)scale(0.996264)" xlink:href="#CenturySchL-Roma-52"/>
      <use transform="translate(180.819668 0)scale(0.996264)" xlink:href="#CenturySchL-Roma-3d"/>
      <use transform="translate(268.88785 0)scale(0.996264)" xlink:href="#CenturySchL-Roma-31"/>
      <use transform="translate(324.279527 0)scale(0.996264)" xlink:href="#CenturySchL-Roma-3a"/>
      <use transform="translate(351.974696 0)scale(0.996264)" xlink:href="#CenturySchL-Roma-35"/>
      <use transform="translate(407.366373 0)scale(0.996264)" xlink:href="#CenturySchL-Roma-6b"/>
     </g>
    </g>
   </g>
  </g>
 </g>
 <defs>
  <clipPath id="p3363f98212">
   <rect height="228.85972" width="350.234849" x="78.965151" y="7.2"/>
  </clipPath>
 </defs>
</svg>
