<?xml version="1.0" encoding="utf-8" standalone="no"?>
<!DOCTYPE svg PUBLIC "-//W3C//DTD SVG 1.1//EN"
  "http://www.w3.org/Graphics/SVG/1.1/DTD/svg11.dtd">
<svg height="292.4pt" version="1.1" viewBox="0 0 436.4 292.4" width="436.4pt" xmlns="http://www.w3.org/2000/svg" xmlns:xlink="http://www.w3.org/1999/xlink">
 <metadata>
  <rdf:RDF xmlns:cc="http://creativecommons.org/ns#" xmlns:dc="http://purl.org/dc/elements/1.1/" xmlns:rdf="http://www.w3.org/1999/02/22-rdf-syntax-ns#">
   <cc:Work>
    <dc:type rdf:resource="http://purl.org/dc/dcmitype/StillImage"/>
    <dc:date>2022-03-17T11:39:46.303989</dc:date>
    <dc:format>image/svg+xml</dc:format>
    <dc:creator>
     <cc:Agent>
      <dc:title>Matplotlib v3.4.2, https://matplotlib.org/</dc:title>
     </cc:Agent>
    </dc:creator>
   </cc:Work>
  </rdf:RDF>
 </metadata>
 <defs>
  <style type="text/css">*{stroke-linecap:butt;stroke-linejoin:round;}</style>
 </defs>
 <g id="figure_1">
  <g id="patch_1">
   <path d="M 0 292.4 
L 436.4 292.4 
L 436.4 0 
L 0 0 
z
" style="fill:none;"/>
  </g>
  <g id="axes_1">
   <g id="patch_2">
    <path d="M 82.401787 236.05972 
L 429.2 236.05972 
L 429.2 13.852984 
L 82.401787 13.852984 
z
" style="fill:none;"/>
   </g>
   <g id="PolyCollection_1">
    <path clip-path="url(#p04a75947a8)" d="M 98.165342 211.160982 
L 98.165342 211.160982 
L 105.171367 211.637706 
L 112.177391 212.327911 
L 119.183416 212.843856 
L 126.18944 212.327241 
L 133.195465 211.071727 
L 140.201489 211.372513 
L 147.207514 215.763362 
L 154.213538 218.801417 
L 161.219563 219.086131 
L 168.225587 216.585279 
L 175.231612 213.378859 
L 182.237636 213.179722 
L 189.243661 213.088806 
L 196.249685 212.108723 
L 203.25571 210.944319 
L 203.25571 206.819829 
L 203.25571 206.819829 
L 196.249685 204.644195 
L 189.243661 204.610061 
L 182.237636 206.824916 
L 175.231612 210.115911 
L 168.225587 210.355772 
L 161.219563 209.810683 
L 154.213538 209.367611 
L 147.207514 209.163483 
L 140.201489 209.34614 
L 133.195465 206.526333 
L 126.18944 204.180112 
L 119.183416 204.184582 
L 112.177391 206.678998 
L 105.171367 209.396019 
L 98.165342 211.160982 
z
" style="fill:#e41a1c;fill-opacity:0.2;"/>
   </g>
   <g id="PolyCollection_2">
    <path clip-path="url(#p04a75947a8)" d="M 98.165342 211.160982 
L 98.165342 211.160982 
L 105.171367 213.572794 
L 112.177391 216.923766 
L 119.183416 220.241251 
L 126.18944 220.956789 
L 133.195465 219.961728 
L 140.201489 219.367958 
L 147.207514 215.742853 
L 154.213538 210.311131 
L 161.219563 205.150504 
L 168.225587 206.648434 
L 175.231612 210.239209 
L 182.237636 215.673837 
L 189.243661 221.485663 
L 196.249685 226.869473 
L 203.25571 229.802199 
L 210.261734 230.184797 
L 217.267759 226.610597 
L 224.273783 221.196512 
L 231.279808 215.149309 
L 238.285832 209.662838 
L 245.291857 205.979904 
L 252.297881 216.237686 
L 259.303906 229.778608 
L 266.30993 224.02201 
L 266.30993 202.782849 
L 266.30993 202.782849 
L 259.303906 198.324154 
L 252.297881 201.224205 
L 245.291857 204.56119 
L 238.285832 197.575093 
L 231.279808 192.362581 
L 224.273783 189.435667 
L 217.267759 188.572602 
L 210.261734 188.427792 
L 203.25571 189.189443 
L 196.249685 189.166162 
L 189.243661 190.394104 
L 182.237636 191.752945 
L 175.231612 195.36532 
L 168.225587 199.64525 
L 161.219563 204.351262 
L 154.213538 204.917646 
L 147.207514 207.169366 
L 140.201489 211.540791 
L 133.195465 216.303482 
L 126.18944 217.389806 
L 119.183416 215.514488 
L 112.177391 213.025219 
L 105.171367 211.233476 
L 98.165342 211.160982 
z
" style="fill:#377eb8;fill-opacity:0.2;"/>
   </g>
   <g id="PolyCollection_3">
    <path clip-path="url(#p04a75947a8)" d="M 98.165342 211.160982 
L 98.165342 211.160982 
L 105.171367 213.052739 
L 112.177391 216.242412 
L 119.183416 219.739022 
L 126.18944 221.137402 
L 133.195465 219.223006 
L 140.201489 215.526172 
L 147.207514 211.069702 
L 154.213538 207.25048 
L 161.219563 205.188695 
L 168.225587 205.117476 
L 175.231612 206.774102 
L 182.237636 210.00329 
L 189.243661 213.994608 
L 196.249685 217.303318 
L 203.25571 219.465699 
L 210.261734 221.427073 
L 217.267759 219.975439 
L 224.273783 216.463354 
L 231.279808 211.893228 
L 238.285832 207.806295 
L 245.291857 205.830119 
L 252.297881 206.602646 
L 259.303906 205.661547 
L 266.30993 207.800581 
L 266.30993 206.901533 
L 266.30993 206.901533 
L 259.303906 204.285788 
L 252.297881 203.354193 
L 245.291857 204.084944 
L 238.285832 205.115017 
L 231.279808 207.082357 
L 224.273783 210.508131 
L 217.267759 214.524329 
L 210.261734 217.569671 
L 203.25571 218.456336 
L 196.249685 215.197647 
L 189.243661 210.496032 
L 182.237636 206.562335 
L 175.231612 204.343465 
L 168.225587 203.600057 
L 161.219563 204.176828 
L 154.213538 205.811059 
L 147.207514 208.735877 
L 140.201489 212.903108 
L 133.195465 216.801595 
L 126.18944 218.869096 
L 119.183416 218.398072 
L 112.177391 215.610561 
L 105.171367 212.857017 
L 98.165342 211.160982 
z
" style="fill:#4daf4a;fill-opacity:0.2;"/>
   </g>
   <g id="line2d_1">
    <path clip-path="url(#p04a75947a8)" d="M 98.165342 211.160982 
L 105.171367 210.516862 
L 112.177391 209.503455 
L 119.183416 208.514219 
L 126.18944 208.253677 
L 133.195465 208.79903 
L 140.201489 210.359326 
L 147.207514 212.463422 
L 154.213538 214.084514 
L 161.219563 214.448407 
L 168.225587 213.470526 
L 175.231612 211.747385 
L 182.237636 210.002319 
L 189.243661 208.849434 
L 196.249685 208.376459 
L 203.25571 208.882074 
L 210.261734 208.585827 
L 217.267759 206.489698 
L 224.273783 205.917581 
L 231.279808 206.869477 
" style="fill:none;stroke:#e41a1c;stroke-linecap:square;stroke-width:2;"/>
   </g>
   <g id="line2d_2">
    <path clip-path="url(#p04a75947a8)" d="M 98.165342 211.160982 
L 105.171367 212.403135 
L 112.177391 214.974492 
L 119.183416 217.87787 
L 126.18944 219.173298 
L 133.195465 218.132605 
L 140.201489 215.454374 
L 147.207514 211.45611 
L 154.213538 207.614388 
L 161.219563 204.750883 
L 168.225587 203.146842 
L 175.231612 202.802264 
L 182.237636 203.713391 
L 189.243661 205.939883 
L 196.249685 208.017818 
L 203.25571 209.495821 
L 210.261734 209.306295 
L 217.267759 207.591599 
L 224.273783 205.31609 
L 231.279808 203.755945 
L 238.285832 203.618965 
L 245.291857 205.270547 
L 252.297881 208.730946 
L 259.303906 214.051381 
L 266.30993 213.40243 
L 273.315955 213.454117 
L 280.321979 199.695312 
L 287.328004 186.137777 
L 294.334028 172.781513 
L 301.340053 159.626519 
L 308.346077 146.672835 
L 315.352102 136.565739 
L 322.358126 129.258513 
L 329.364151 122.152672 
L 336.370175 117.893584 
L 343.3762 113.866586 
L 350.382224 112.686343 
L 357.388249 113.030112 
L 364.394273 114.897894 
L 371.400298 119.157411 
L 378.406322 126.263682 
L 385.412347 136.216707 
L 392.418371 149.016486 
L 399.424396 164.66302 
L 406.43042 181.833567 
L 413.436445 200.528126 
" style="fill:none;stroke:#377eb8;stroke-dasharray:12,12;stroke-dashoffset:0;stroke-linecap:round;stroke-linejoin:miter;stroke-width:2;"/>
   </g>
   <g id="line2d_3">
    <path clip-path="url(#p04a75947a8)" d="M 98.165342 211.160982 
L 105.171367 212.954878 
L 112.177391 215.926487 
L 119.183416 219.068547 
L 126.18944 220.003249 
L 133.195465 218.0123 
L 140.201489 214.21464 
L 147.207514 209.902789 
L 154.213538 206.530769 
L 161.219563 204.682762 
L 168.225587 204.358766 
L 175.231612 205.558783 
L 182.237636 208.282813 
L 196.249685 216.250482 
L 203.25571 218.961017 
L 210.261734 219.498372 
L 217.267759 217.249884 
L 224.273783 213.485743 
L 231.279808 209.487793 
L 238.285832 206.460656 
L 245.291857 204.957532 
L 259.303906 204.973668 
L 266.30993 207.351057 
L 266.30993 207.351057 
" style="fill:none;stroke:#4daf4a;stroke-dasharray:6,10,2,10;stroke-dashoffset:0;stroke-linecap:round;stroke-linejoin:miter;stroke-width:2;"/>
   </g>
   <g id="patch_3">
    <path d="M 82.401787 236.05972 
L 82.401787 13.852984 
" style="fill:none;stroke:#000000;stroke-linecap:square;stroke-linejoin:miter;stroke-width:0.8;"/>
   </g>
   <g id="patch_4">
    <path d="M 82.401787 236.05972 
L 429.2 236.05972 
" style="fill:none;stroke:#000000;stroke-linecap:square;stroke-linejoin:miter;stroke-width:0.8;"/>
   </g>
   <g id="matplotlib.axis_1">
    <g id="xtick_1">
     <g id="line2d_4">
      <path clip-path="url(#p04a75947a8)" d="M 98.165342 236.05972 
L 98.165342 13.852984 
" style="fill:none;stroke:#bfbfbf;stroke-dasharray:0.8,2.4;stroke-dashoffset:0;stroke-linecap:round;stroke-linejoin:miter;stroke-width:0.8;"/>
     </g>
     <g id="line2d_5">
      <defs>
       <path d="M 0 0 
L 0 3.5 
" id="m353e6528dd" style="stroke:#000000;stroke-width:0.8;"/>
      </defs>
      <g>
       <use style="stroke:#000000;stroke-width:0.8;" x="98.165342" xlink:href="#m353e6528dd" y="236.05972"/>
      </g>
     </g>
     <g id="text_1">
      <!-- $\mathdefault{0.0}$ -->
      <g transform="translate(87.502311 256.365688)scale(0.18 -0.18)">
       <defs>
        <path d="M 2688 2025 
C 2688 2416 2682 3080 2413 3591 
C 2176 4039 1798 4198 1466 4198 
C 1158 4198 768 4058 525 3597 
C 269 3118 243 2524 243 2025 
C 243 1661 250 1106 448 619 
C 723 -39 1216 -128 1466 -128 
C 1760 -128 2208 -7 2470 600 
C 2662 1042 2688 1559 2688 2025 
z
M 1466 -26 
C 1056 -26 813 325 723 812 
C 653 1188 653 1738 653 2096 
C 653 2588 653 2997 736 3387 
C 858 3929 1216 4096 1466 4096 
C 1728 4096 2067 3923 2189 3400 
C 2272 3036 2278 2607 2278 2096 
C 2278 1680 2278 1169 2202 792 
C 2067 95 1690 -26 1466 -26 
z
" id="CMR17-30" transform="scale(0.015625)"/>
        <path d="M 1178 307 
C 1178 492 1024 619 870 619 
C 685 619 557 466 557 313 
C 557 128 710 0 864 0 
C 1050 0 1178 153 1178 307 
z
" id="CMMI12-3a" transform="scale(0.015625)"/>
       </defs>
       <use transform="scale(0.996264)" xlink:href="#CMR17-30"/>
       <use transform="translate(45.690477 0)scale(0.996264)" xlink:href="#CMMI12-3a"/>
       <use transform="translate(72.787654 0)scale(0.996264)" xlink:href="#CMR17-30"/>
      </g>
     </g>
    </g>
    <g id="xtick_2">
     <g id="line2d_6">
      <path clip-path="url(#p04a75947a8)" d="M 168.225587 236.05972 
L 168.225587 13.852984 
" style="fill:none;stroke:#bfbfbf;stroke-dasharray:0.8,2.4;stroke-dashoffset:0;stroke-linecap:round;stroke-linejoin:miter;stroke-width:0.8;"/>
     </g>
     <g id="line2d_7">
      <g>
       <use style="stroke:#000000;stroke-width:0.8;" x="168.225587" xlink:href="#m353e6528dd" y="236.05972"/>
      </g>
     </g>
     <g id="text_2">
      <!-- $\mathdefault{0.1}$ -->
      <g transform="translate(157.562556 256.365688)scale(0.18 -0.18)">
       <defs>
        <path d="M 1702 4058 
C 1702 4192 1696 4192 1606 4192 
C 1357 3916 979 3827 621 3827 
C 602 3827 570 3827 563 3808 
C 557 3795 557 3782 557 3648 
C 755 3648 1088 3686 1344 3839 
L 1344 461 
C 1344 236 1331 160 781 160 
L 589 160 
L 589 0 
C 896 0 1216 0 1523 0 
C 1830 0 2150 0 2458 0 
L 2458 160 
L 2266 160 
C 1715 160 1702 230 1702 458 
L 1702 4058 
z
" id="CMR17-31" transform="scale(0.015625)"/>
       </defs>
       <use transform="scale(0.996264)" xlink:href="#CMR17-30"/>
       <use transform="translate(45.690477 0)scale(0.996264)" xlink:href="#CMMI12-3a"/>
       <use transform="translate(72.787654 0)scale(0.996264)" xlink:href="#CMR17-31"/>
      </g>
     </g>
    </g>
    <g id="xtick_3">
     <g id="line2d_8">
      <path clip-path="url(#p04a75947a8)" d="M 238.285832 236.05972 
L 238.285832 13.852984 
" style="fill:none;stroke:#bfbfbf;stroke-dasharray:0.8,2.4;stroke-dashoffset:0;stroke-linecap:round;stroke-linejoin:miter;stroke-width:0.8;"/>
     </g>
     <g id="line2d_9">
      <g>
       <use style="stroke:#000000;stroke-width:0.8;" x="238.285832" xlink:href="#m353e6528dd" y="236.05972"/>
      </g>
     </g>
     <g id="text_3">
      <!-- $\mathdefault{0.2}$ -->
      <g transform="translate(227.622801 256.365688)scale(0.18 -0.18)">
       <defs>
        <path d="M 2669 989 
L 2554 989 
C 2490 536 2438 459 2413 420 
C 2381 369 1920 369 1830 369 
L 602 369 
C 832 619 1280 1072 1824 1597 
C 2214 1967 2669 2402 2669 3035 
C 2669 3790 2067 4224 1395 4224 
C 691 4224 262 3604 262 3030 
C 262 2780 448 2748 525 2748 
C 589 2748 781 2787 781 3010 
C 781 3207 614 3264 525 3264 
C 486 3264 448 3258 422 3245 
C 544 3790 915 4058 1306 4058 
C 1862 4058 2227 3617 2227 3035 
C 2227 2479 1901 2000 1536 1584 
L 262 146 
L 262 0 
L 2515 0 
L 2669 989 
z
" id="CMR17-32" transform="scale(0.015625)"/>
       </defs>
       <use transform="scale(0.996264)" xlink:href="#CMR17-30"/>
       <use transform="translate(45.690477 0)scale(0.996264)" xlink:href="#CMMI12-3a"/>
       <use transform="translate(72.787654 0)scale(0.996264)" xlink:href="#CMR17-32"/>
      </g>
     </g>
    </g>
    <g id="xtick_4">
     <g id="line2d_10">
      <path clip-path="url(#p04a75947a8)" d="M 308.346077 236.05972 
L 308.346077 13.852984 
" style="fill:none;stroke:#bfbfbf;stroke-dasharray:0.8,2.4;stroke-dashoffset:0;stroke-linecap:round;stroke-linejoin:miter;stroke-width:0.8;"/>
     </g>
     <g id="line2d_11">
      <g>
       <use style="stroke:#000000;stroke-width:0.8;" x="308.346077" xlink:href="#m353e6528dd" y="236.05972"/>
      </g>
     </g>
     <g id="text_4">
      <!-- $\mathdefault{0.3}$ -->
      <g transform="translate(297.683046 256.365688)scale(0.18 -0.18)">
       <defs>
        <path d="M 1414 2157 
C 1984 2157 2234 1662 2234 1090 
C 2234 320 1824 25 1453 25 
C 1114 25 563 194 390 693 
C 422 680 454 680 486 680 
C 640 680 755 782 755 948 
C 755 1133 614 1216 486 1216 
C 378 1216 211 1165 211 926 
C 211 335 787 -128 1466 -128 
C 2176 -128 2720 430 2720 1085 
C 2720 1707 2208 2157 1600 2227 
C 2086 2328 2554 2756 2554 3329 
C 2554 3820 2048 4179 1472 4179 
C 890 4179 378 3829 378 3329 
C 378 3110 544 3072 627 3072 
C 762 3072 877 3155 877 3321 
C 877 3486 762 3569 627 3569 
C 602 3569 570 3569 544 3557 
C 730 3959 1235 4032 1459 4032 
C 1683 4032 2106 3925 2106 3320 
C 2106 3143 2080 2828 1862 2550 
C 1670 2304 1453 2304 1242 2284 
C 1210 2284 1062 2269 1037 2269 
C 992 2263 966 2257 966 2208 
C 966 2163 973 2157 1101 2157 
L 1414 2157 
z
" id="CMR17-33" transform="scale(0.015625)"/>
       </defs>
       <use transform="scale(0.996264)" xlink:href="#CMR17-30"/>
       <use transform="translate(45.690477 0)scale(0.996264)" xlink:href="#CMMI12-3a"/>
       <use transform="translate(72.787654 0)scale(0.996264)" xlink:href="#CMR17-33"/>
      </g>
     </g>
    </g>
    <g id="xtick_5">
     <g id="line2d_12">
      <path clip-path="url(#p04a75947a8)" d="M 378.406322 236.05972 
L 378.406322 13.852984 
" style="fill:none;stroke:#bfbfbf;stroke-dasharray:0.8,2.4;stroke-dashoffset:0;stroke-linecap:round;stroke-linejoin:miter;stroke-width:0.8;"/>
     </g>
     <g id="line2d_13">
      <g>
       <use style="stroke:#000000;stroke-width:0.8;" x="378.406322" xlink:href="#m353e6528dd" y="236.05972"/>
      </g>
     </g>
     <g id="text_5">
      <!-- $\mathdefault{0.4}$ -->
      <g transform="translate(367.743291 256.365688)scale(0.18 -0.18)">
       <defs>
        <path d="M 2150 4122 
C 2150 4256 2144 4256 2029 4256 
L 128 1254 
L 128 1088 
L 1779 1088 
L 1779 457 
C 1779 224 1766 160 1318 160 
L 1197 160 
L 1197 0 
C 1402 0 1747 0 1965 0 
C 2182 0 2528 0 2733 0 
L 2733 160 
L 2611 160 
C 2163 160 2150 224 2150 457 
L 2150 1088 
L 2803 1088 
L 2803 1254 
L 2150 1254 
L 2150 4122 
z
M 1798 3703 
L 1798 1254 
L 256 1254 
L 1798 3703 
z
" id="CMR17-34" transform="scale(0.015625)"/>
       </defs>
       <use transform="scale(0.996264)" xlink:href="#CMR17-30"/>
       <use transform="translate(45.690477 0)scale(0.996264)" xlink:href="#CMMI12-3a"/>
       <use transform="translate(72.787654 0)scale(0.996264)" xlink:href="#CMR17-34"/>
      </g>
     </g>
    </g>
    <g id="text_6">
     <!-- Time (s) -->
     <g transform="translate(214.398786 281.0357)scale(0.22 -0.22)">
      <defs>
       <path d="M 4051 4608 
L 218 4608 
L 122 2833 
L 397 2833 
C 442 3152 499 3395 570 3599 
C 736 4065 1043 4308 1478 4308 
C 1690 4308 1779 4237 1779 4078 
L 1779 786 
L 1779 600 
C 1779 332 1722 300 1203 300 
L 1037 300 
L 1037 0 
L 3232 0 
L 3232 300 
L 3066 300 
C 2554 300 2496 332 2496 600 
L 2496 786 
L 2496 4078 
C 2496 4237 2586 4308 2797 4308 
C 3187 4308 3501 4090 3661 3707 
C 3757 3472 3821 3197 3872 2833 
L 4147 2833 
L 4051 4608 
z
" id="CenturySchL-Roma-54" transform="scale(0.015625)"/>
       <path d="M 1318 2944 
L 115 2944 
L 115 2638 
L 442 2638 
C 678 2638 717 2593 717 2317 
L 717 787 
L 717 531 
C 717 275 646 230 237 230 
L 192 230 
L 192 0 
L 1850 0 
L 1850 230 
L 1805 230 
C 1389 230 1318 274 1318 526 
L 1318 779 
L 1318 2944 
z
M 1018 4581 
C 813 4581 646 4415 646 4211 
C 646 4013 813 3840 1011 3840 
C 1222 3840 1389 4006 1389 4211 
C 1389 4415 1222 4581 1018 4581 
z
" id="CenturySchL-Roma-69" transform="scale(0.015625)"/>
       <path d="M 1286 2944 
L 147 2944 
L 147 2638 
L 410 2638 
C 646 2638 685 2593 685 2317 
L 685 787 
L 685 538 
C 685 275 614 230 205 230 
L 179 230 
L 179 0 
L 1792 0 
L 1792 230 
L 1766 230 
C 1357 230 1286 275 1286 537 
L 1286 786 
L 1286 1693 
C 1286 2261 1600 2683 2016 2683 
C 2182 2683 2362 2593 2438 2472 
C 2528 2351 2566 2165 2566 1903 
L 2566 786 
L 2566 530 
C 2566 275 2496 230 2080 230 
L 2054 230 
L 2054 0 
L 3674 0 
L 3674 230 
L 3648 230 
C 3238 230 3168 275 3168 530 
L 3168 786 
L 3168 1635 
C 3168 2274 3456 2683 3904 2683 
C 4115 2683 4288 2561 4371 2363 
C 4429 2223 4448 2082 4448 1833 
L 4448 786 
L 4448 530 
C 4448 275 4378 230 3962 230 
L 3936 230 
L 3936 0 
L 5555 0 
L 5555 230 
L 5530 230 
C 5120 230 5050 275 5050 537 
L 5050 786 
L 5050 1961 
C 5050 2357 5011 2491 4845 2708 
C 4659 2945 4397 3072 4090 3072 
C 3674 3072 3366 2876 3091 2439 
C 2982 2819 2637 3072 2208 3072 
C 1824 3072 1536 2889 1286 2491 
L 1286 2944 
z
" id="CenturySchL-Roma-6d" transform="scale(0.015625)"/>
       <path d="M 2976 1472 
C 2982 2420 2438 3090 1658 3090 
C 838 3090 224 2384 224 1430 
C 224 540 806 -64 1670 -64 
C 2278 -64 2714 236 2976 844 
L 2752 966 
C 2490 473 2221 281 1792 281 
C 1466 281 1229 422 1062 704 
C 947 896 896 1120 902 1472 
L 2976 1472 
z
M 909 1747 
C 909 1942 934 2080 998 2256 
C 1133 2633 1338 2816 1645 2816 
C 2035 2816 2291 2482 2291 1979 
C 2291 1797 2234 1747 2029 1747 
L 909 1747 
z
" id="CenturySchL-Roma-65" transform="scale(0.015625)"/>
       <path d="M 1786 4701 
C 1402 4465 1197 4299 979 4043 
C 493 3468 230 2734 230 1961 
C 230 1233 461 549 890 -19 
C 1133 -326 1350 -517 1786 -786 
L 1786 -549 
C 1146 13 890 735 890 1961 
C 890 3187 1146 3903 1786 4465 
L 1786 4701 
z
" id="CenturySchL-Roma-28" transform="scale(0.015625)"/>
       <path d="M 2496 3072 
L 2272 3072 
L 2086 2842 
C 1856 3021 1626 3097 1306 3097 
C 742 3097 371 2728 371 2173 
C 371 1925 454 1714 595 1588 
C 742 1453 890 1390 1274 1300 
L 1613 1224 
C 2118 1103 2298 975 2298 721 
C 2298 421 2035 211 1658 211 
C 1120 211 736 561 582 1208 
L 326 1208 
L 326 0 
L 550 0 
L 774 250 
C 1037 38 1331 -64 1651 -64 
C 2278 -64 2694 325 2694 918 
C 2694 1198 2605 1414 2426 1561 
C 2272 1695 2144 1746 1754 1828 
L 1434 1899 
C 1082 1975 1082 1975 966 2039 
C 826 2103 742 2236 742 2377 
C 742 2631 986 2816 1338 2816 
C 1581 2816 1779 2733 1958 2561 
C 2099 2420 2170 2293 2272 1999 
L 2496 1999 
L 2496 3072 
z
" id="CenturySchL-Roma-73" transform="scale(0.015625)"/>
       <path d="M 346 -786 
C 730 -549 934 -383 1152 -121 
C 1638 447 1901 1188 1901 1961 
C 1901 2689 1670 3373 1242 3935 
C 998 4248 781 4439 346 4701 
L 346 4465 
C 986 3903 1242 3187 1242 1961 
C 1242 728 986 13 346 -549 
L 346 -786 
z
" id="CenturySchL-Roma-29" transform="scale(0.015625)"/>
      </defs>
      <use transform="scale(0.996264)" xlink:href="#CenturySchL-Roma-54"/>
      <use transform="translate(66.450031 0)scale(0.996264)" xlink:href="#CenturySchL-Roma-69"/>
      <use transform="translate(97.831344 0)scale(0.996264)" xlink:href="#CenturySchL-Roma-6d"/>
      <use transform="translate(186.398251 0)scale(0.996264)" xlink:href="#CenturySchL-Roma-65"/>
      <use transform="translate(263.906621 0)scale(0.996264)" xlink:href="#CenturySchL-Roma-28"/>
      <use transform="translate(297.081851 0)scale(0.996264)" xlink:href="#CenturySchL-Roma-73"/>
      <use transform="translate(343.207661 0)scale(0.996264)" xlink:href="#CenturySchL-Roma-29"/>
     </g>
    </g>
   </g>
   <g id="matplotlib.axis_2">
    <g id="ytick_1">
     <g id="line2d_14">
      <path clip-path="url(#p04a75947a8)" d="M 82.401787 208.044165 
L 429.2 208.044165 
" style="fill:none;stroke:#bfbfbf;stroke-dasharray:0.8,2.4;stroke-dashoffset:0;stroke-linecap:round;stroke-linejoin:miter;stroke-width:0.8;"/>
     </g>
     <g id="line2d_15">
      <defs>
       <path d="M 0 0 
L -3.5 0 
" id="m198d0b5b9f" style="stroke:#000000;stroke-width:0.8;"/>
      </defs>
      <g>
       <use style="stroke:#000000;stroke-width:0.8;" x="82.401787" xlink:href="#m198d0b5b9f" y="208.044165"/>
      </g>
     </g>
     <g id="text_7">
      <!-- $\mathdefault{0.000}$ -->
      <g transform="translate(37.627152 214.697149)scale(0.18 -0.18)">
       <use transform="scale(0.996264)" xlink:href="#CMR17-30"/>
       <use transform="translate(45.690477 0)scale(0.996264)" xlink:href="#CMMI12-3a"/>
       <use transform="translate(72.787654 0)scale(0.996264)" xlink:href="#CMR17-30"/>
       <use transform="translate(118.478131 0)scale(0.996264)" xlink:href="#CMR17-30"/>
       <use transform="translate(164.168608 0)scale(0.996264)" xlink:href="#CMR17-30"/>
      </g>
     </g>
    </g>
    <g id="ytick_2">
     <g id="line2d_16">
      <path clip-path="url(#p04a75947a8)" d="M 82.401787 169.205929 
L 429.2 169.205929 
" style="fill:none;stroke:#bfbfbf;stroke-dasharray:0.8,2.4;stroke-dashoffset:0;stroke-linecap:round;stroke-linejoin:miter;stroke-width:0.8;"/>
     </g>
     <g id="line2d_17">
      <g>
       <use style="stroke:#000000;stroke-width:0.8;" x="82.401787" xlink:href="#m198d0b5b9f" y="169.205929"/>
      </g>
     </g>
     <g id="text_8">
      <!-- $\mathdefault{0.025}$ -->
      <g transform="translate(37.627152 175.858913)scale(0.18 -0.18)">
       <defs>
        <path d="M 730 3692 
C 794 3666 1056 3584 1325 3584 
C 1920 3584 2246 3911 2432 4100 
C 2432 4157 2432 4192 2394 4192 
C 2387 4192 2374 4192 2323 4163 
C 2099 4058 1837 3973 1517 3973 
C 1325 3973 1037 3999 723 4139 
C 653 4171 640 4171 634 4171 
C 602 4171 595 4164 595 4037 
L 595 2203 
C 595 2089 595 2057 659 2057 
C 691 2057 704 2070 736 2114 
C 941 2401 1222 2522 1542 2522 
C 1766 2522 2246 2382 2246 1289 
C 2246 1085 2246 715 2054 421 
C 1894 159 1645 25 1370 25 
C 947 25 518 320 403 814 
C 429 807 480 795 506 795 
C 589 795 749 840 749 1038 
C 749 1210 627 1280 506 1280 
C 358 1280 262 1190 262 1011 
C 262 454 704 -128 1382 -128 
C 2042 -128 2669 440 2669 1264 
C 2669 2030 2170 2624 1549 2624 
C 1222 2624 947 2503 730 2274 
L 730 3692 
z
" id="CMR17-35" transform="scale(0.015625)"/>
       </defs>
       <use transform="scale(0.996264)" xlink:href="#CMR17-30"/>
       <use transform="translate(45.690477 0)scale(0.996264)" xlink:href="#CMMI12-3a"/>
       <use transform="translate(72.787654 0)scale(0.996264)" xlink:href="#CMR17-30"/>
       <use transform="translate(118.478131 0)scale(0.996264)" xlink:href="#CMR17-32"/>
       <use transform="translate(164.168608 0)scale(0.996264)" xlink:href="#CMR17-35"/>
      </g>
     </g>
    </g>
    <g id="ytick_3">
     <g id="line2d_18">
      <path clip-path="url(#p04a75947a8)" d="M 82.401787 130.367693 
L 429.2 130.367693 
" style="fill:none;stroke:#bfbfbf;stroke-dasharray:0.8,2.4;stroke-dashoffset:0;stroke-linecap:round;stroke-linejoin:miter;stroke-width:0.8;"/>
     </g>
     <g id="line2d_19">
      <g>
       <use style="stroke:#000000;stroke-width:0.8;" x="82.401787" xlink:href="#m198d0b5b9f" y="130.367693"/>
      </g>
     </g>
     <g id="text_9">
      <!-- $\mathdefault{0.050}$ -->
      <g transform="translate(37.627152 137.020677)scale(0.18 -0.18)">
       <use transform="scale(0.996264)" xlink:href="#CMR17-30"/>
       <use transform="translate(45.690477 0)scale(0.996264)" xlink:href="#CMMI12-3a"/>
       <use transform="translate(72.787654 0)scale(0.996264)" xlink:href="#CMR17-30"/>
       <use transform="translate(118.478131 0)scale(0.996264)" xlink:href="#CMR17-35"/>
       <use transform="translate(164.168608 0)scale(0.996264)" xlink:href="#CMR17-30"/>
      </g>
     </g>
    </g>
    <g id="ytick_4">
     <g id="line2d_20">
      <path clip-path="url(#p04a75947a8)" d="M 82.401787 91.529456 
L 429.2 91.529456 
" style="fill:none;stroke:#bfbfbf;stroke-dasharray:0.8,2.4;stroke-dashoffset:0;stroke-linecap:round;stroke-linejoin:miter;stroke-width:0.8;"/>
     </g>
     <g id="line2d_21">
      <g>
       <use style="stroke:#000000;stroke-width:0.8;" x="82.401787" xlink:href="#m198d0b5b9f" y="91.529456"/>
      </g>
     </g>
     <g id="text_10">
      <!-- $\mathdefault{0.075}$ -->
      <g transform="translate(37.627152 98.182441)scale(0.18 -0.18)">
       <defs>
        <path d="M 2886 3941 
L 2886 4081 
L 1382 4081 
C 634 4081 621 4165 595 4288 
L 480 4288 
L 294 3094 
L 410 3094 
C 429 3215 474 3540 550 3661 
C 589 3712 1062 3712 1171 3712 
L 2579 3712 
L 1869 2661 
C 1395 1954 1069 999 1069 165 
C 1069 89 1069 -128 1299 -128 
C 1530 -128 1530 89 1530 171 
L 1530 465 
C 1530 1508 1709 2196 2003 2636 
L 2886 3941 
z
" id="CMR17-37" transform="scale(0.015625)"/>
       </defs>
       <use transform="scale(0.996264)" xlink:href="#CMR17-30"/>
       <use transform="translate(45.690477 0)scale(0.996264)" xlink:href="#CMMI12-3a"/>
       <use transform="translate(72.787654 0)scale(0.996264)" xlink:href="#CMR17-30"/>
       <use transform="translate(118.478131 0)scale(0.996264)" xlink:href="#CMR17-37"/>
       <use transform="translate(164.168608 0)scale(0.996264)" xlink:href="#CMR17-35"/>
      </g>
     </g>
    </g>
    <g id="ytick_5">
     <g id="line2d_22">
      <path clip-path="url(#p04a75947a8)" d="M 82.401787 52.69122 
L 429.2 52.69122 
" style="fill:none;stroke:#bfbfbf;stroke-dasharray:0.8,2.4;stroke-dashoffset:0;stroke-linecap:round;stroke-linejoin:miter;stroke-width:0.8;"/>
     </g>
     <g id="line2d_23">
      <g>
       <use style="stroke:#000000;stroke-width:0.8;" x="82.401787" xlink:href="#m198d0b5b9f" y="52.69122"/>
      </g>
     </g>
     <g id="text_11">
      <!-- $\mathdefault{0.100}$ -->
      <g transform="translate(37.627152 59.344204)scale(0.18 -0.18)">
       <use transform="scale(0.996264)" xlink:href="#CMR17-30"/>
       <use transform="translate(45.690477 0)scale(0.996264)" xlink:href="#CMMI12-3a"/>
       <use transform="translate(72.787654 0)scale(0.996264)" xlink:href="#CMR17-31"/>
       <use transform="translate(118.478131 0)scale(0.996264)" xlink:href="#CMR17-30"/>
       <use transform="translate(164.168608 0)scale(0.996264)" xlink:href="#CMR17-30"/>
      </g>
     </g>
    </g>
    <g id="ytick_6">
     <g id="line2d_24">
      <path clip-path="url(#p04a75947a8)" d="M 82.401787 13.852984 
L 429.2 13.852984 
" style="fill:none;stroke:#bfbfbf;stroke-dasharray:0.8,2.4;stroke-dashoffset:0;stroke-linecap:round;stroke-linejoin:miter;stroke-width:0.8;"/>
     </g>
     <g id="line2d_25">
      <g>
       <use style="stroke:#000000;stroke-width:0.8;" x="82.401787" xlink:href="#m198d0b5b9f" y="13.852984"/>
      </g>
     </g>
     <g id="text_12">
      <!-- $\mathdefault{0.125}$ -->
      <g transform="translate(37.627152 20.505968)scale(0.18 -0.18)">
       <use transform="scale(0.996264)" xlink:href="#CMR17-30"/>
       <use transform="translate(45.690477 0)scale(0.996264)" xlink:href="#CMMI12-3a"/>
       <use transform="translate(72.787654 0)scale(0.996264)" xlink:href="#CMR17-31"/>
       <use transform="translate(118.478131 0)scale(0.996264)" xlink:href="#CMR17-32"/>
       <use transform="translate(164.168608 0)scale(0.996264)" xlink:href="#CMR17-35"/>
      </g>
     </g>
    </g>
    <g id="text_13">
     <!-- Height (m) -->
     <g transform="translate(23.462852 179.947546)rotate(-90)scale(0.22 -0.22)">
      <defs>
       <path d="M 3738 2215 
L 3738 786 
L 3738 600 
C 3738 332 3680 300 3162 300 
L 3046 300 
L 3046 0 
L 5146 0 
L 5146 300 
L 5030 300 
C 4512 300 4454 332 4454 600 
L 4454 786 
L 4454 3823 
L 4454 4007 
C 4454 4276 4512 4308 5030 4308 
L 5146 4308 
L 5146 4608 
L 3072 4608 
L 3072 4308 
L 3162 4308 
C 3680 4308 3738 4276 3738 4008 
L 3738 3823 
L 3738 2560 
L 1594 2560 
L 1594 3823 
L 1594 4008 
C 1594 4276 1651 4308 2170 4308 
L 2291 4308 
L 2291 4608 
L 186 4608 
L 186 4308 
L 301 4308 
C 819 4308 877 4276 877 4007 
L 877 3823 
L 877 786 
L 877 600 
C 877 332 819 300 301 300 
L 186 300 
L 186 0 
L 2291 0 
L 2291 300 
L 2170 300 
C 1651 300 1594 332 1594 600 
L 1594 786 
L 1594 2215 
L 3738 2215 
z
" id="CenturySchL-Roma-48" transform="scale(0.015625)"/>
       <path d="M 1254 486 
C 902 486 883 493 806 542 
C 762 570 730 647 730 723 
C 730 933 902 1024 1331 1024 
C 1939 1024 2035 1037 2246 1132 
C 2630 1303 2848 1631 2848 2047 
C 2848 2299 2790 2457 2611 2665 
C 2720 2778 2778 2816 2829 2816 
C 2861 2816 2880 2796 2893 2728 
C 2918 2577 3021 2496 3181 2496 
C 3341 2496 3469 2630 3469 2802 
C 3469 3020 3296 3173 3046 3173 
C 2842 3173 2726 3108 2432 2835 
C 2163 3014 1958 3077 1638 3077 
C 877 3077 378 2664 378 2036 
C 378 1666 582 1346 915 1196 
C 486 1098 307 902 307 542 
C 307 255 435 85 736 -19 
C 339 -159 147 -363 147 -624 
C 147 -1044 640 -1280 1498 -1280 
C 2566 -1280 3104 -942 3104 -272 
C 3104 46 2957 300 2720 396 
C 2554 460 2349 486 1907 486 
L 1254 486 
z
M 1632 2816 
C 2035 2816 2259 2539 2259 2054 
C 2259 1563 2016 1266 1606 1266 
C 1210 1266 960 1563 960 2035 
C 960 2532 1203 2816 1632 2816 
z
M 1574 -64 
C 2106 -64 2144 -64 2240 -76 
C 2496 -102 2656 -242 2656 -445 
C 2656 -808 2240 -1018 1523 -1018 
C 986 -1018 678 -859 678 -573 
C 678 -363 794 -222 1101 -64 
L 1574 -64 
z
" id="CenturySchL-Roma-67" transform="scale(0.015625)"/>
       <path d="M 1280 4672 
L 96 4672 
L 96 4366 
L 403 4366 
C 640 4366 678 4321 678 4046 
L 678 786 
L 678 530 
C 678 275 608 230 198 230 
L 173 230 
L 173 0 
L 1792 0 
L 1792 230 
L 1766 230 
C 1350 230 1280 275 1280 530 
L 1280 786 
L 1280 1444 
C 1280 1763 1325 2050 1395 2197 
C 1530 2485 1818 2683 2093 2683 
C 2259 2683 2451 2587 2547 2459 
C 2643 2319 2688 2127 2688 1814 
L 2688 786 
L 2688 530 
C 2688 275 2618 230 2202 230 
L 2176 230 
L 2176 0 
L 3795 0 
L 3795 230 
L 3770 230 
C 3360 230 3290 275 3290 530 
L 3290 786 
L 3290 1789 
C 3290 2248 3270 2363 3155 2581 
C 2995 2887 2675 3072 2291 3072 
C 1882 3072 1568 2881 1280 2453 
L 1280 4672 
z
" id="CenturySchL-Roma-68" transform="scale(0.015625)"/>
       <path d="M 1242 3008 
L 1242 4288 
L 979 4288 
C 915 3448 634 3020 115 2982 
L 115 2733 
L 640 2733 
L 640 1105 
C 640 658 653 498 717 351 
C 819 83 1075 -64 1446 -64 
C 1696 -64 1914 13 2061 153 
C 2272 358 2394 696 2394 1048 
C 2394 1086 2394 1131 2387 1195 
L 2118 1195 
C 2099 620 1933 326 1619 326 
C 1472 326 1344 402 1299 511 
C 1261 600 1242 760 1242 990 
L 1242 2733 
L 2182 2733 
L 2182 3008 
L 1242 3008 
z
" id="CenturySchL-Roma-74" transform="scale(0.015625)"/>
      </defs>
      <use transform="scale(0.996264)" xlink:href="#CenturySchL-Roma-48"/>
      <use transform="translate(82.98843 0)scale(0.996264)" xlink:href="#CenturySchL-Roma-65"/>
      <use transform="translate(132.801631 0)scale(0.996264)" xlink:href="#CenturySchL-Roma-69"/>
      <use transform="translate(164.182944 0)scale(0.996264)" xlink:href="#CenturySchL-Roma-67"/>
      <use transform="translate(217.682288 0)scale(0.996264)" xlink:href="#CenturySchL-Roma-68"/>
      <use transform="translate(278.553918 0)scale(0.996264)" xlink:href="#CenturySchL-Roma-74"/>
      <use transform="translate(345.002794 0)scale(0.996264)" xlink:href="#CenturySchL-Roma-28"/>
      <use transform="translate(378.178024 0)scale(0.996264)" xlink:href="#CenturySchL-Roma-6d"/>
      <use transform="translate(466.744931 0)scale(0.996264)" xlink:href="#CenturySchL-Roma-29"/>
     </g>
    </g>
   </g>
   <g id="legend_1">
    <g id="patch_5">
     <path d="M 282.24013 98.192369 
L 423.8 98.192369 
Q 427.4 98.192369 427.4 94.592369 
L 427.4 19.252984 
Q 427.4 15.652984 423.8 15.652984 
L 282.24013 15.652984 
Q 278.64013 15.652984 278.64013 19.252984 
L 278.64013 94.592369 
Q 278.64013 98.192369 282.24013 98.192369 
z
" style="fill:#ffffff;stroke:#cccccc;stroke-linejoin:miter;"/>
    </g>
    <g id="line2d_26">
     <path d="M 285.84013 29.858952 
L 321.84013 29.858952 
" style="fill:none;stroke:#e41a1c;stroke-linecap:square;stroke-width:2;"/>
    </g>
    <g id="line2d_27"/>
    <g id="text_14">
     <!-- UR = 1:1k -->
     <g transform="translate(336.24013 36.158952)scale(0.18 -0.18)">
      <defs>
       <path d="M 4371 3235 
C 4371 4110 4499 4295 5114 4295 
L 5114 4608 
L 3290 4608 
L 3290 4295 
C 3898 4295 4026 4110 4026 3234 
L 4026 1822 
C 4026 1311 3994 1106 3872 882 
C 3667 486 3251 256 2733 256 
C 2298 256 1920 421 1709 707 
C 1536 942 1504 1094 1504 1685 
L 1504 3812 
L 1504 3996 
C 1504 4263 1562 4295 2080 4295 
L 2202 4295 
L 2202 4608 
L 109 4608 
L 109 4295 
L 218 4295 
C 730 4295 787 4263 787 3996 
L 787 3812 
L 787 1722 
L 787 1283 
C 806 946 858 743 979 565 
C 1274 147 1837 -89 2560 -89 
C 3283 -89 3782 128 4090 582 
C 4294 876 4371 1215 4371 1784 
L 4371 3235 
z
" id="CenturySchL-Roma-55" transform="scale(0.015625)"/>
       <path d="M 1574 2240 
L 1946 2240 
C 2195 2240 2451 2163 2592 2047 
C 2778 1900 2874 1669 2918 1246 
L 2950 918 
C 3027 193 3264 -102 3770 -102 
C 4294 -102 4544 251 4563 1019 
L 4294 1019 
C 4269 576 4192 384 4019 384 
C 3872 384 3808 493 3699 936 
L 3597 1340 
C 3456 1931 3206 2200 2707 2329 
C 3629 2457 4070 2825 4070 3468 
C 4070 4194 3456 4608 2381 4608 
L 166 4608 
L 166 4308 
L 282 4308 
C 800 4308 858 4276 858 4007 
L 858 3823 
L 858 779 
L 858 600 
C 858 332 800 300 282 300 
L 166 300 
L 166 0 
L 2266 0 
L 2266 300 
L 2150 300 
C 1632 300 1574 332 1574 601 
L 1574 780 
L 1574 2240 
z
M 1574 2540 
L 1574 3944 
C 1574 4200 1581 4219 1645 4270 
C 1696 4308 1741 4308 2016 4308 
L 2362 4308 
C 2995 4308 3283 4040 3283 3462 
C 3283 3137 3200 2889 3034 2756 
C 2874 2623 2586 2540 2278 2540 
L 1574 2540 
z
" id="CenturySchL-Roma-52" transform="scale(0.015625)"/>
       <path d="M 326 704 
L 3552 704 
L 3552 1215 
L 326 1215 
L 326 704 
z
M 326 1985 
L 3552 1985 
L 3552 2496 
L 326 2496 
L 326 1985 
z
" id="CenturySchL-Roma-3d" transform="scale(0.015625)"/>
       <path d="M 2061 4512 
C 1843 4239 1254 4032 666 4032 
L 666 3750 
L 1229 3750 
C 1600 3750 1626 3725 1626 3348 
L 1626 786 
L 1626 600 
C 1626 332 1568 300 1056 300 
L 640 300 
L 640 0 
L 3174 0 
L 3174 300 
L 2822 300 
C 2483 300 2342 326 2291 390 
C 2246 434 2246 434 2246 788 
L 2246 3435 
C 2246 3749 2259 4056 2291 4512 
L 2061 4512 
z
" id="CenturySchL-Roma-31" transform="scale(0.015625)"/>
       <path d="M 954 734 
C 730 734 550 555 550 338 
C 550 114 730 -64 947 -64 
C 1171 -64 1350 114 1350 338 
C 1350 555 1171 734 954 734 
z
M 954 3038 
C 730 3038 550 2859 550 2642 
C 550 2419 730 2240 947 2240 
C 1171 2240 1350 2419 1350 2642 
C 1350 2859 1171 3038 954 3038 
z
" id="CenturySchL-Roma-3a" transform="scale(0.015625)"/>
       <path d="M 1274 1549 
L 1274 4672 
L 90 4672 
L 90 4366 
L 397 4366 
C 634 4366 672 4321 672 4046 
L 672 786 
L 672 530 
C 672 275 602 230 192 230 
L 166 230 
L 166 0 
L 1786 0 
L 1786 230 
L 1760 230 
C 1344 230 1274 275 1274 531 
L 1274 787 
L 1274 1152 
L 1664 1523 
L 2426 455 
C 2451 409 2470 370 2470 339 
C 2470 256 2400 230 2189 230 
L 2067 230 
L 2067 0 
L 3757 0 
L 3757 230 
C 3398 262 3270 339 3008 672 
L 2099 1913 
L 2387 2195 
C 2758 2560 3034 2701 3469 2752 
L 3469 2982 
L 1786 2982 
L 1786 2752 
L 1984 2752 
C 2189 2752 2285 2713 2285 2630 
C 2285 2560 2240 2483 2138 2380 
L 1274 1549 
z
" id="CenturySchL-Roma-6b" transform="scale(0.015625)"/>
      </defs>
      <use transform="scale(0.996264)" xlink:href="#CenturySchL-Roma-55"/>
      <use transform="translate(81.194513 0)scale(0.996264)" xlink:href="#CenturySchL-Roma-52"/>
      <use transform="translate(180.819668 0)scale(0.996264)" xlink:href="#CenturySchL-Roma-3d"/>
      <use transform="translate(268.88785 0)scale(0.996264)" xlink:href="#CenturySchL-Roma-31"/>
      <use transform="translate(324.279527 0)scale(0.996264)" xlink:href="#CenturySchL-Roma-3a"/>
      <use transform="translate(351.974696 0)scale(0.996264)" xlink:href="#CenturySchL-Roma-31"/>
      <use transform="translate(407.366373 0)scale(0.996264)" xlink:href="#CenturySchL-Roma-6b"/>
     </g>
    </g>
    <g id="line2d_28">
     <path d="M 285.84013 55.572081 
L 321.84013 55.572081 
" style="fill:none;stroke:#377eb8;stroke-dasharray:12,12;stroke-dashoffset:0;stroke-linecap:round;stroke-linejoin:miter;stroke-width:2;"/>
    </g>
    <g id="line2d_29"/>
    <g id="text_15">
     <!-- UR = 1:3k -->
     <g transform="translate(336.24013 61.872081)scale(0.18 -0.18)">
      <defs>
       <path d="M 2214 2391 
C 2304 2423 2317 2423 2362 2442 
C 2810 2628 3066 2987 3066 3441 
C 3066 4108 2554 4544 1760 4544 
C 1011 4544 442 4094 442 3502 
C 442 3235 621 3046 864 3046 
C 1088 3046 1242 3203 1242 3438 
C 1242 3576 1190 3667 1043 3772 
C 979 3817 960 3850 960 3890 
C 960 4073 1338 4269 1696 4269 
C 2157 4269 2400 3976 2400 3422 
C 2400 2815 2157 2496 1696 2496 
C 1638 2496 1536 2496 1440 2496 
C 1389 2496 1338 2496 1299 2496 
C 1165 2496 1094 2440 1094 2330 
C 1094 2226 1165 2177 1293 2177 
C 1312 2177 1363 2177 1446 2177 
C 1690 2177 1696 2177 1747 2177 
C 2221 2177 2477 1845 2477 1225 
C 2477 580 2150 211 1581 211 
C 1178 211 742 425 742 620 
C 742 678 755 689 883 760 
C 1062 866 1133 974 1133 1130 
C 1133 1357 960 1528 723 1528 
C 454 1528 269 1301 269 972 
C 269 359 838 -64 1658 -64 
C 2579 -64 3187 449 3187 1237 
C 3187 1839 2874 2204 2214 2391 
z
" id="CenturySchL-Roma-33" transform="scale(0.015625)"/>
      </defs>
      <use transform="scale(0.996264)" xlink:href="#CenturySchL-Roma-55"/>
      <use transform="translate(81.194513 0)scale(0.996264)" xlink:href="#CenturySchL-Roma-52"/>
      <use transform="translate(180.819668 0)scale(0.996264)" xlink:href="#CenturySchL-Roma-3d"/>
      <use transform="translate(268.88785 0)scale(0.996264)" xlink:href="#CenturySchL-Roma-31"/>
      <use transform="translate(324.279527 0)scale(0.996264)" xlink:href="#CenturySchL-Roma-3a"/>
      <use transform="translate(351.974696 0)scale(0.996264)" xlink:href="#CenturySchL-Roma-33"/>
      <use transform="translate(407.366373 0)scale(0.996264)" xlink:href="#CenturySchL-Roma-6b"/>
     </g>
    </g>
    <g id="line2d_30">
     <path d="M 285.84013 81.285209 
L 321.84013 81.285209 
" style="fill:none;stroke:#4daf4a;stroke-dasharray:6,10,2,10;stroke-dashoffset:0;stroke-linecap:round;stroke-linejoin:miter;stroke-width:2;"/>
    </g>
    <g id="line2d_31"/>
    <g id="text_16">
     <!-- UR = 1:5k -->
     <g transform="translate(336.24013 87.585209)scale(0.18 -0.18)">
      <defs>
       <path d="M 1050 3821 
C 1395 3738 1574 3712 1824 3712 
C 2368 3712 2765 3904 2976 4255 
C 3046 4377 3072 4434 3072 4485 
C 3072 4524 3053 4543 3021 4543 
C 3002 4543 2970 4536 2938 4517 
C 2624 4383 2451 4351 2086 4351 
C 1677 4351 1440 4383 768 4543 
C 742 4008 685 3327 595 2538 
C 461 2398 416 2315 416 2213 
C 416 2086 499 1997 621 1997 
C 781 1997 883 2133 909 2391 
C 1133 2553 1344 2624 1600 2624 
C 2170 2624 2515 2178 2515 1440 
C 2515 1007 2406 637 2214 437 
C 2086 301 1824 211 1562 211 
C 1178 211 781 411 781 612 
C 781 658 819 709 896 754 
C 1094 877 1152 962 1152 1136 
C 1152 1363 979 1537 749 1537 
C 493 1537 288 1298 288 995 
C 288 672 474 349 762 149 
C 979 7 1242 -64 1574 -64 
C 2579 -64 3213 530 3213 1479 
C 3213 2357 2630 2944 1766 2944 
C 1498 2944 1293 2899 941 2752 
L 1050 3821 
z
" id="CenturySchL-Roma-35" transform="scale(0.015625)"/>
      </defs>
      <use transform="scale(0.996264)" xlink:href="#CenturySchL-Roma-55"/>
      <use transform="translate(81.194513 0)scale(0.996264)" xlink:href="#CenturySchL-Roma-52"/>
      <use transform="translate(180.819668 0)scale(0.996264)" xlink:href="#CenturySchL-Roma-3d"/>
      <use transform="translate(268.88785 0)scale(0.996264)" xlink:href="#CenturySchL-Roma-31"/>
      <use transform="translate(324.279527 0)scale(0.996264)" xlink:href="#CenturySchL-Roma-3a"/>
      <use transform="translate(351.974696 0)scale(0.996264)" xlink:href="#CenturySchL-Roma-35"/>
      <use transform="translate(407.366373 0)scale(0.996264)" xlink:href="#CenturySchL-Roma-6b"/>
     </g>
    </g>
   </g>
  </g>
 </g>
 <defs>
  <clipPath id="p04a75947a8">
   <rect height="222.206736" width="346.798213" x="82.401787" y="13.852984"/>
  </clipPath>
 </defs>
</svg>
