<?xml version="1.0" encoding="utf-8" standalone="no"?>
<!DOCTYPE svg PUBLIC "-//W3C//DTD SVG 1.1//EN"
  "http://www.w3.org/Graphics/SVG/1.1/DTD/svg11.dtd">
<svg height="292.4pt" version="1.1" viewBox="0 0 436.4 292.4" width="436.4pt" xmlns="http://www.w3.org/2000/svg" xmlns:xlink="http://www.w3.org/1999/xlink">
 <metadata>
  <rdf:RDF xmlns:cc="http://creativecommons.org/ns#" xmlns:dc="http://purl.org/dc/elements/1.1/" xmlns:rdf="http://www.w3.org/1999/02/22-rdf-syntax-ns#">
   <cc:Work>
    <dc:type rdf:resource="http://purl.org/dc/dcmitype/StillImage"/>
    <dc:date>2022-03-29T22:22:23.344239</dc:date>
    <dc:format>image/svg+xml</dc:format>
    <dc:creator>
     <cc:Agent>
      <dc:title>Matplotlib v3.4.2, https://matplotlib.org/</dc:title>
     </cc:Agent>
    </dc:creator>
   </cc:Work>
  </rdf:RDF>
 </metadata>
 <defs>
  <style type="text/css">*{stroke-linecap:butt;stroke-linejoin:round;}</style>
 </defs>
 <g id="figure_1">
  <g id="patch_1">
   <path d="M 0 292.4 
L 436.4 292.4 
L 436.4 0 
L 0 0 
z
" style="fill:none;"/>
  </g>
  <g id="axes_1">
   <g id="patch_2">
    <path d="M 74.177501 236.05972 
L 429.2 236.05972 
L 429.2 7.2 
L 74.177501 7.2 
z
" style="fill:none;"/>
   </g>
   <g id="line2d_1">
    <path clip-path="url(#p66e6654eeb)" d="M 90.314888 215.200986 
L 96.183028 216.178746 
L 102.051169 217.664955 
L 107.919309 218.925918 
L 113.78745 217.347043 
L 119.65559 213.740192 
L 125.523731 209.897647 
L 131.391871 206.207345 
L 137.260011 202.670926 
L 143.128152 199.390743 
L 148.996292 198.083104 
L 154.864433 198.603828 
L 160.732573 201.222923 
L 166.600714 205.995334 
L 172.468854 212.921063 
L 178.336995 221.865451 
L 184.205135 228.426044 
L 190.073276 220.95784 
L 195.941416 209.778183 
L 201.809557 198.750769 
L 207.677697 187.875598 
L 213.545838 177.152671 
L 219.413978 166.581987 
L 225.282119 156.163546 
L 231.150259 145.897348 
L 237.018399 136.783931 
L 242.88654 128.823294 
L 248.75468 122.015437 
L 254.622821 116.360361 
L 260.490961 111.858065 
L 266.359102 108.508549 
L 272.227242 106.311814 
L 278.095383 105.267859 
L 283.963523 105.376684 
L 289.831664 106.638289 
L 295.699804 109.052675 
L 301.567945 112.619841 
L 307.436085 117.339787 
L 313.304226 123.212514 
L 319.172366 130.238021 
L 325.040507 138.416308 
L 330.908647 147.747376 
L 336.776788 158.231224 
L 342.644928 169.867852 
L 348.513068 182.65726 
L 354.381209 196.599449 
L 360.249349 211.694418 
" style="fill:none;stroke:#e41a1c;stroke-linecap:square;stroke-width:2;"/>
   </g>
   <g id="line2d_2">
    <path clip-path="url(#p66e6654eeb)" d="M 90.314888 215.201381 
L 96.183028 213.967463 
L 102.051169 214.178901 
L 107.919309 213.765121 
L 113.78745 214.956209 
L 119.65559 217.036042 
L 125.523731 218.7605 
L 131.391871 219.101664 
L 137.260011 215.859455 
L 143.128152 210.980931 
L 148.996292 206.257604 
L 154.864433 202.007802 
L 160.732573 198.246208 
L 166.600714 195.046662 
L 172.468854 192.825128 
L 178.336995 191.8832 
L 184.205135 192.563924 
L 190.073276 194.913071 
L 195.941416 198.811351 
L 201.809557 204.429808 
L 207.677697 212.201583 
L 213.545838 222.126675 
L 219.413978 228.632453 
L 225.282119 221.363641 
L 231.150259 209.186831 
L 237.018399 197.162264 
L 242.88654 185.28994 
L 248.75468 173.569859 
L 254.622821 162.002022 
L 260.490961 150.586428 
L 266.359102 139.323077 
L 272.227242 128.21197 
L 278.095383 118.253642 
L 283.963523 109.448095 
L 289.831664 101.795329 
L 295.699804 95.295342 
L 301.567945 89.948136 
L 307.436085 85.75371 
L 313.304226 82.712065 
L 319.172366 80.8232 
L 325.040507 80.087115 
L 330.908647 80.50381 
L 336.776788 82.073286 
L 342.644928 84.795542 
L 348.513068 88.670578 
L 354.381209 93.698395 
L 360.249349 99.878992 
L 366.11749 107.212369 
L 371.98563 115.698527 
L 377.853771 125.337465 
L 383.721911 136.129183 
L 389.590052 148.073682 
L 395.458192 161.17096 
L 401.326333 175.42102 
L 407.194473 190.823859 
L 413.062614 207.379479 
" style="fill:none;stroke:#377eb8;stroke-dasharray:12,12;stroke-dashoffset:0;stroke-linecap:round;stroke-linejoin:miter;stroke-width:2;"/>
   </g>
   <g id="patch_3">
    <path d="M 74.177501 236.05972 
L 74.177501 7.2 
" style="fill:none;stroke:#000000;stroke-linecap:square;stroke-linejoin:miter;stroke-width:0.8;"/>
   </g>
   <g id="patch_4">
    <path d="M 74.177501 236.05972 
L 429.2 236.05972 
" style="fill:none;stroke:#000000;stroke-linecap:square;stroke-linejoin:miter;stroke-width:0.8;"/>
   </g>
   <g id="matplotlib.axis_1">
    <g id="xtick_1">
     <g id="line2d_3">
      <path clip-path="url(#p66e6654eeb)" d="M 90.314888 236.05972 
L 90.314888 7.2 
" style="fill:none;stroke:#bfbfbf;stroke-dasharray:0.8,2.4;stroke-dashoffset:0;stroke-linecap:round;stroke-linejoin:miter;stroke-width:0.8;"/>
     </g>
     <g id="line2d_4">
      <defs>
       <path d="M 0 0 
L 0 3.5 
" id="m5f4d10cf8e" style="stroke:#000000;stroke-width:0.8;"/>
      </defs>
      <g>
       <use style="stroke:#000000;stroke-width:0.8;" x="90.314888" xlink:href="#m5f4d10cf8e" y="236.05972"/>
      </g>
     </g>
     <g id="text_1">
      <!-- $\mathdefault{0.0}$ -->
      <g transform="translate(79.651856 256.365688)scale(0.18 -0.18)">
       <defs>
        <path d="M 2688 2025 
C 2688 2416 2682 3080 2413 3591 
C 2176 4039 1798 4198 1466 4198 
C 1158 4198 768 4058 525 3597 
C 269 3118 243 2524 243 2025 
C 243 1661 250 1106 448 619 
C 723 -39 1216 -128 1466 -128 
C 1760 -128 2208 -7 2470 600 
C 2662 1042 2688 1559 2688 2025 
z
M 1466 -26 
C 1056 -26 813 325 723 812 
C 653 1188 653 1738 653 2096 
C 653 2588 653 2997 736 3387 
C 858 3929 1216 4096 1466 4096 
C 1728 4096 2067 3923 2189 3400 
C 2272 3036 2278 2607 2278 2096 
C 2278 1680 2278 1169 2202 792 
C 2067 95 1690 -26 1466 -26 
z
" id="CMR17-30" transform="scale(0.015625)"/>
        <path d="M 1178 307 
C 1178 492 1024 619 870 619 
C 685 619 557 466 557 313 
C 557 128 710 0 864 0 
C 1050 0 1178 153 1178 307 
z
" id="CMMI12-3a" transform="scale(0.015625)"/>
       </defs>
       <use transform="scale(0.996264)" xlink:href="#CMR17-30"/>
       <use transform="translate(45.690477 0)scale(0.996264)" xlink:href="#CMMI12-3a"/>
       <use transform="translate(72.787654 0)scale(0.996264)" xlink:href="#CMR17-30"/>
      </g>
     </g>
    </g>
    <g id="xtick_2">
     <g id="line2d_5">
      <path clip-path="url(#p66e6654eeb)" d="M 207.677697 236.05972 
L 207.677697 7.2 
" style="fill:none;stroke:#bfbfbf;stroke-dasharray:0.8,2.4;stroke-dashoffset:0;stroke-linecap:round;stroke-linejoin:miter;stroke-width:0.8;"/>
     </g>
     <g id="line2d_6">
      <g>
       <use style="stroke:#000000;stroke-width:0.8;" x="207.677697" xlink:href="#m5f4d10cf8e" y="236.05972"/>
      </g>
     </g>
     <g id="text_2">
      <!-- $\mathdefault{0.2}$ -->
      <g transform="translate(197.014665 256.365688)scale(0.18 -0.18)">
       <defs>
        <path d="M 2669 989 
L 2554 989 
C 2490 536 2438 459 2413 420 
C 2381 369 1920 369 1830 369 
L 602 369 
C 832 619 1280 1072 1824 1597 
C 2214 1967 2669 2402 2669 3035 
C 2669 3790 2067 4224 1395 4224 
C 691 4224 262 3604 262 3030 
C 262 2780 448 2748 525 2748 
C 589 2748 781 2787 781 3010 
C 781 3207 614 3264 525 3264 
C 486 3264 448 3258 422 3245 
C 544 3790 915 4058 1306 4058 
C 1862 4058 2227 3617 2227 3035 
C 2227 2479 1901 2000 1536 1584 
L 262 146 
L 262 0 
L 2515 0 
L 2669 989 
z
" id="CMR17-32" transform="scale(0.015625)"/>
       </defs>
       <use transform="scale(0.996264)" xlink:href="#CMR17-30"/>
       <use transform="translate(45.690477 0)scale(0.996264)" xlink:href="#CMMI12-3a"/>
       <use transform="translate(72.787654 0)scale(0.996264)" xlink:href="#CMR17-32"/>
      </g>
     </g>
    </g>
    <g id="xtick_3">
     <g id="line2d_7">
      <path clip-path="url(#p66e6654eeb)" d="M 325.040507 236.05972 
L 325.040507 7.2 
" style="fill:none;stroke:#bfbfbf;stroke-dasharray:0.8,2.4;stroke-dashoffset:0;stroke-linecap:round;stroke-linejoin:miter;stroke-width:0.8;"/>
     </g>
     <g id="line2d_8">
      <g>
       <use style="stroke:#000000;stroke-width:0.8;" x="325.040507" xlink:href="#m5f4d10cf8e" y="236.05972"/>
      </g>
     </g>
     <g id="text_3">
      <!-- $\mathdefault{0.4}$ -->
      <g transform="translate(314.377475 256.365688)scale(0.18 -0.18)">
       <defs>
        <path d="M 2150 4122 
C 2150 4256 2144 4256 2029 4256 
L 128 1254 
L 128 1088 
L 1779 1088 
L 1779 457 
C 1779 224 1766 160 1318 160 
L 1197 160 
L 1197 0 
C 1402 0 1747 0 1965 0 
C 2182 0 2528 0 2733 0 
L 2733 160 
L 2611 160 
C 2163 160 2150 224 2150 457 
L 2150 1088 
L 2803 1088 
L 2803 1254 
L 2150 1254 
L 2150 4122 
z
M 1798 3703 
L 1798 1254 
L 256 1254 
L 1798 3703 
z
" id="CMR17-34" transform="scale(0.015625)"/>
       </defs>
       <use transform="scale(0.996264)" xlink:href="#CMR17-30"/>
       <use transform="translate(45.690477 0)scale(0.996264)" xlink:href="#CMMI12-3a"/>
       <use transform="translate(72.787654 0)scale(0.996264)" xlink:href="#CMR17-34"/>
      </g>
     </g>
    </g>
    <g id="text_4">
     <!-- Time (s) -->
     <g transform="translate(210.286643 281.0357)scale(0.22 -0.22)">
      <defs>
       <path d="M 4051 4608 
L 218 4608 
L 122 2833 
L 397 2833 
C 442 3152 499 3395 570 3599 
C 736 4065 1043 4308 1478 4308 
C 1690 4308 1779 4237 1779 4078 
L 1779 786 
L 1779 600 
C 1779 332 1722 300 1203 300 
L 1037 300 
L 1037 0 
L 3232 0 
L 3232 300 
L 3066 300 
C 2554 300 2496 332 2496 600 
L 2496 786 
L 2496 4078 
C 2496 4237 2586 4308 2797 4308 
C 3187 4308 3501 4090 3661 3707 
C 3757 3472 3821 3197 3872 2833 
L 4147 2833 
L 4051 4608 
z
" id="CenturySchL-Roma-54" transform="scale(0.015625)"/>
       <path d="M 1318 2944 
L 115 2944 
L 115 2638 
L 442 2638 
C 678 2638 717 2593 717 2317 
L 717 787 
L 717 531 
C 717 275 646 230 237 230 
L 192 230 
L 192 0 
L 1850 0 
L 1850 230 
L 1805 230 
C 1389 230 1318 274 1318 526 
L 1318 779 
L 1318 2944 
z
M 1018 4581 
C 813 4581 646 4415 646 4211 
C 646 4013 813 3840 1011 3840 
C 1222 3840 1389 4006 1389 4211 
C 1389 4415 1222 4581 1018 4581 
z
" id="CenturySchL-Roma-69" transform="scale(0.015625)"/>
       <path d="M 1286 2944 
L 147 2944 
L 147 2638 
L 410 2638 
C 646 2638 685 2593 685 2317 
L 685 787 
L 685 538 
C 685 275 614 230 205 230 
L 179 230 
L 179 0 
L 1792 0 
L 1792 230 
L 1766 230 
C 1357 230 1286 275 1286 537 
L 1286 786 
L 1286 1693 
C 1286 2261 1600 2683 2016 2683 
C 2182 2683 2362 2593 2438 2472 
C 2528 2351 2566 2165 2566 1903 
L 2566 786 
L 2566 530 
C 2566 275 2496 230 2080 230 
L 2054 230 
L 2054 0 
L 3674 0 
L 3674 230 
L 3648 230 
C 3238 230 3168 275 3168 530 
L 3168 786 
L 3168 1635 
C 3168 2274 3456 2683 3904 2683 
C 4115 2683 4288 2561 4371 2363 
C 4429 2223 4448 2082 4448 1833 
L 4448 786 
L 4448 530 
C 4448 275 4378 230 3962 230 
L 3936 230 
L 3936 0 
L 5555 0 
L 5555 230 
L 5530 230 
C 5120 230 5050 275 5050 537 
L 5050 786 
L 5050 1961 
C 5050 2357 5011 2491 4845 2708 
C 4659 2945 4397 3072 4090 3072 
C 3674 3072 3366 2876 3091 2439 
C 2982 2819 2637 3072 2208 3072 
C 1824 3072 1536 2889 1286 2491 
L 1286 2944 
z
" id="CenturySchL-Roma-6d" transform="scale(0.015625)"/>
       <path d="M 2976 1472 
C 2982 2420 2438 3090 1658 3090 
C 838 3090 224 2384 224 1430 
C 224 540 806 -64 1670 -64 
C 2278 -64 2714 236 2976 844 
L 2752 966 
C 2490 473 2221 281 1792 281 
C 1466 281 1229 422 1062 704 
C 947 896 896 1120 902 1472 
L 2976 1472 
z
M 909 1747 
C 909 1942 934 2080 998 2256 
C 1133 2633 1338 2816 1645 2816 
C 2035 2816 2291 2482 2291 1979 
C 2291 1797 2234 1747 2029 1747 
L 909 1747 
z
" id="CenturySchL-Roma-65" transform="scale(0.015625)"/>
       <path d="M 1786 4701 
C 1402 4465 1197 4299 979 4043 
C 493 3468 230 2734 230 1961 
C 230 1233 461 549 890 -19 
C 1133 -326 1350 -517 1786 -786 
L 1786 -549 
C 1146 13 890 735 890 1961 
C 890 3187 1146 3903 1786 4465 
L 1786 4701 
z
" id="CenturySchL-Roma-28" transform="scale(0.015625)"/>
       <path d="M 2496 3072 
L 2272 3072 
L 2086 2842 
C 1856 3021 1626 3097 1306 3097 
C 742 3097 371 2728 371 2173 
C 371 1925 454 1714 595 1588 
C 742 1453 890 1390 1274 1300 
L 1613 1224 
C 2118 1103 2298 975 2298 721 
C 2298 421 2035 211 1658 211 
C 1120 211 736 561 582 1208 
L 326 1208 
L 326 0 
L 550 0 
L 774 250 
C 1037 38 1331 -64 1651 -64 
C 2278 -64 2694 325 2694 918 
C 2694 1198 2605 1414 2426 1561 
C 2272 1695 2144 1746 1754 1828 
L 1434 1899 
C 1082 1975 1082 1975 966 2039 
C 826 2103 742 2236 742 2377 
C 742 2631 986 2816 1338 2816 
C 1581 2816 1779 2733 1958 2561 
C 2099 2420 2170 2293 2272 1999 
L 2496 1999 
L 2496 3072 
z
" id="CenturySchL-Roma-73" transform="scale(0.015625)"/>
       <path d="M 346 -786 
C 730 -549 934 -383 1152 -121 
C 1638 447 1901 1188 1901 1961 
C 1901 2689 1670 3373 1242 3935 
C 998 4248 781 4439 346 4701 
L 346 4465 
C 986 3903 1242 3187 1242 1961 
C 1242 728 986 13 346 -549 
L 346 -786 
z
" id="CenturySchL-Roma-29" transform="scale(0.015625)"/>
      </defs>
      <use transform="scale(0.996264)" xlink:href="#CenturySchL-Roma-54"/>
      <use transform="translate(66.450031 0)scale(0.996264)" xlink:href="#CenturySchL-Roma-69"/>
      <use transform="translate(97.831344 0)scale(0.996264)" xlink:href="#CenturySchL-Roma-6d"/>
      <use transform="translate(186.398251 0)scale(0.996264)" xlink:href="#CenturySchL-Roma-65"/>
      <use transform="translate(263.906621 0)scale(0.996264)" xlink:href="#CenturySchL-Roma-28"/>
      <use transform="translate(297.081851 0)scale(0.996264)" xlink:href="#CenturySchL-Roma-73"/>
      <use transform="translate(343.207661 0)scale(0.996264)" xlink:href="#CenturySchL-Roma-29"/>
     </g>
    </g>
   </g>
   <g id="matplotlib.axis_2">
    <g id="ytick_1">
     <g id="line2d_9">
      <path clip-path="url(#p66e6654eeb)" d="M 74.177501 212.843785 
L 429.2 212.843785 
" style="fill:none;stroke:#bfbfbf;stroke-dasharray:0.8,2.4;stroke-dashoffset:0;stroke-linecap:round;stroke-linejoin:miter;stroke-width:0.8;"/>
     </g>
     <g id="line2d_10">
      <defs>
       <path d="M 0 0 
L -3.5 0 
" id="m979cc95781" style="stroke:#000000;stroke-width:0.8;"/>
      </defs>
      <g>
       <use style="stroke:#000000;stroke-width:0.8;" x="74.177501" xlink:href="#m979cc95781" y="212.843785"/>
      </g>
     </g>
     <g id="text_5">
      <!-- $\mathdefault{0.00}$ -->
      <g transform="translate(37.627152 219.496769)scale(0.18 -0.18)">
       <use transform="scale(0.996264)" xlink:href="#CMR17-30"/>
       <use transform="translate(45.690477 0)scale(0.996264)" xlink:href="#CMMI12-3a"/>
       <use transform="translate(72.787654 0)scale(0.996264)" xlink:href="#CMR17-30"/>
       <use transform="translate(118.478131 0)scale(0.996264)" xlink:href="#CMR17-30"/>
      </g>
     </g>
    </g>
    <g id="ytick_2">
     <g id="line2d_11">
      <path clip-path="url(#p66e6654eeb)" d="M 74.177501 154.088418 
L 429.2 154.088418 
" style="fill:none;stroke:#bfbfbf;stroke-dasharray:0.8,2.4;stroke-dashoffset:0;stroke-linecap:round;stroke-linejoin:miter;stroke-width:0.8;"/>
     </g>
     <g id="line2d_12">
      <g>
       <use style="stroke:#000000;stroke-width:0.8;" x="74.177501" xlink:href="#m979cc95781" y="154.088418"/>
      </g>
     </g>
     <g id="text_6">
      <!-- $\mathdefault{0.05}$ -->
      <g transform="translate(37.627152 160.741402)scale(0.18 -0.18)">
       <defs>
        <path d="M 730 3692 
C 794 3666 1056 3584 1325 3584 
C 1920 3584 2246 3911 2432 4100 
C 2432 4157 2432 4192 2394 4192 
C 2387 4192 2374 4192 2323 4163 
C 2099 4058 1837 3973 1517 3973 
C 1325 3973 1037 3999 723 4139 
C 653 4171 640 4171 634 4171 
C 602 4171 595 4164 595 4037 
L 595 2203 
C 595 2089 595 2057 659 2057 
C 691 2057 704 2070 736 2114 
C 941 2401 1222 2522 1542 2522 
C 1766 2522 2246 2382 2246 1289 
C 2246 1085 2246 715 2054 421 
C 1894 159 1645 25 1370 25 
C 947 25 518 320 403 814 
C 429 807 480 795 506 795 
C 589 795 749 840 749 1038 
C 749 1210 627 1280 506 1280 
C 358 1280 262 1190 262 1011 
C 262 454 704 -128 1382 -128 
C 2042 -128 2669 440 2669 1264 
C 2669 2030 2170 2624 1549 2624 
C 1222 2624 947 2503 730 2274 
L 730 3692 
z
" id="CMR17-35" transform="scale(0.015625)"/>
       </defs>
       <use transform="scale(0.996264)" xlink:href="#CMR17-30"/>
       <use transform="translate(45.690477 0)scale(0.996264)" xlink:href="#CMMI12-3a"/>
       <use transform="translate(72.787654 0)scale(0.996264)" xlink:href="#CMR17-30"/>
       <use transform="translate(118.478131 0)scale(0.996264)" xlink:href="#CMR17-35"/>
      </g>
     </g>
    </g>
    <g id="ytick_3">
     <g id="line2d_13">
      <path clip-path="url(#p66e6654eeb)" d="M 74.177501 95.333051 
L 429.2 95.333051 
" style="fill:none;stroke:#bfbfbf;stroke-dasharray:0.8,2.4;stroke-dashoffset:0;stroke-linecap:round;stroke-linejoin:miter;stroke-width:0.8;"/>
     </g>
     <g id="line2d_14">
      <g>
       <use style="stroke:#000000;stroke-width:0.8;" x="74.177501" xlink:href="#m979cc95781" y="95.333051"/>
      </g>
     </g>
     <g id="text_7">
      <!-- $\mathdefault{0.10}$ -->
      <g transform="translate(37.627152 101.986035)scale(0.18 -0.18)">
       <defs>
        <path d="M 1702 4058 
C 1702 4192 1696 4192 1606 4192 
C 1357 3916 979 3827 621 3827 
C 602 3827 570 3827 563 3808 
C 557 3795 557 3782 557 3648 
C 755 3648 1088 3686 1344 3839 
L 1344 461 
C 1344 236 1331 160 781 160 
L 589 160 
L 589 0 
C 896 0 1216 0 1523 0 
C 1830 0 2150 0 2458 0 
L 2458 160 
L 2266 160 
C 1715 160 1702 230 1702 458 
L 1702 4058 
z
" id="CMR17-31" transform="scale(0.015625)"/>
       </defs>
       <use transform="scale(0.996264)" xlink:href="#CMR17-30"/>
       <use transform="translate(45.690477 0)scale(0.996264)" xlink:href="#CMMI12-3a"/>
       <use transform="translate(72.787654 0)scale(0.996264)" xlink:href="#CMR17-31"/>
       <use transform="translate(118.478131 0)scale(0.996264)" xlink:href="#CMR17-30"/>
      </g>
     </g>
    </g>
    <g id="ytick_4">
     <g id="line2d_15">
      <path clip-path="url(#p66e6654eeb)" d="M 74.177501 36.577684 
L 429.2 36.577684 
" style="fill:none;stroke:#bfbfbf;stroke-dasharray:0.8,2.4;stroke-dashoffset:0;stroke-linecap:round;stroke-linejoin:miter;stroke-width:0.8;"/>
     </g>
     <g id="line2d_16">
      <g>
       <use style="stroke:#000000;stroke-width:0.8;" x="74.177501" xlink:href="#m979cc95781" y="36.577684"/>
      </g>
     </g>
     <g id="text_8">
      <!-- $\mathdefault{0.15}$ -->
      <g transform="translate(37.627152 43.230668)scale(0.18 -0.18)">
       <use transform="scale(0.996264)" xlink:href="#CMR17-30"/>
       <use transform="translate(45.690477 0)scale(0.996264)" xlink:href="#CMMI12-3a"/>
       <use transform="translate(72.787654 0)scale(0.996264)" xlink:href="#CMR17-31"/>
       <use transform="translate(118.478131 0)scale(0.996264)" xlink:href="#CMR17-35"/>
      </g>
     </g>
    </g>
    <g id="text_9">
     <!-- Height (m) -->
     <g transform="translate(23.462852 176.621053)rotate(-90)scale(0.22 -0.22)">
      <defs>
       <path d="M 3738 2215 
L 3738 786 
L 3738 600 
C 3738 332 3680 300 3162 300 
L 3046 300 
L 3046 0 
L 5146 0 
L 5146 300 
L 5030 300 
C 4512 300 4454 332 4454 600 
L 4454 786 
L 4454 3823 
L 4454 4007 
C 4454 4276 4512 4308 5030 4308 
L 5146 4308 
L 5146 4608 
L 3072 4608 
L 3072 4308 
L 3162 4308 
C 3680 4308 3738 4276 3738 4008 
L 3738 3823 
L 3738 2560 
L 1594 2560 
L 1594 3823 
L 1594 4008 
C 1594 4276 1651 4308 2170 4308 
L 2291 4308 
L 2291 4608 
L 186 4608 
L 186 4308 
L 301 4308 
C 819 4308 877 4276 877 4007 
L 877 3823 
L 877 786 
L 877 600 
C 877 332 819 300 301 300 
L 186 300 
L 186 0 
L 2291 0 
L 2291 300 
L 2170 300 
C 1651 300 1594 332 1594 600 
L 1594 786 
L 1594 2215 
L 3738 2215 
z
" id="CenturySchL-Roma-48" transform="scale(0.015625)"/>
       <path d="M 1254 486 
C 902 486 883 493 806 542 
C 762 570 730 647 730 723 
C 730 933 902 1024 1331 1024 
C 1939 1024 2035 1037 2246 1132 
C 2630 1303 2848 1631 2848 2047 
C 2848 2299 2790 2457 2611 2665 
C 2720 2778 2778 2816 2829 2816 
C 2861 2816 2880 2796 2893 2728 
C 2918 2577 3021 2496 3181 2496 
C 3341 2496 3469 2630 3469 2802 
C 3469 3020 3296 3173 3046 3173 
C 2842 3173 2726 3108 2432 2835 
C 2163 3014 1958 3077 1638 3077 
C 877 3077 378 2664 378 2036 
C 378 1666 582 1346 915 1196 
C 486 1098 307 902 307 542 
C 307 255 435 85 736 -19 
C 339 -159 147 -363 147 -624 
C 147 -1044 640 -1280 1498 -1280 
C 2566 -1280 3104 -942 3104 -272 
C 3104 46 2957 300 2720 396 
C 2554 460 2349 486 1907 486 
L 1254 486 
z
M 1632 2816 
C 2035 2816 2259 2539 2259 2054 
C 2259 1563 2016 1266 1606 1266 
C 1210 1266 960 1563 960 2035 
C 960 2532 1203 2816 1632 2816 
z
M 1574 -64 
C 2106 -64 2144 -64 2240 -76 
C 2496 -102 2656 -242 2656 -445 
C 2656 -808 2240 -1018 1523 -1018 
C 986 -1018 678 -859 678 -573 
C 678 -363 794 -222 1101 -64 
L 1574 -64 
z
" id="CenturySchL-Roma-67" transform="scale(0.015625)"/>
       <path d="M 1280 4672 
L 96 4672 
L 96 4366 
L 403 4366 
C 640 4366 678 4321 678 4046 
L 678 786 
L 678 530 
C 678 275 608 230 198 230 
L 173 230 
L 173 0 
L 1792 0 
L 1792 230 
L 1766 230 
C 1350 230 1280 275 1280 530 
L 1280 786 
L 1280 1444 
C 1280 1763 1325 2050 1395 2197 
C 1530 2485 1818 2683 2093 2683 
C 2259 2683 2451 2587 2547 2459 
C 2643 2319 2688 2127 2688 1814 
L 2688 786 
L 2688 530 
C 2688 275 2618 230 2202 230 
L 2176 230 
L 2176 0 
L 3795 0 
L 3795 230 
L 3770 230 
C 3360 230 3290 275 3290 530 
L 3290 786 
L 3290 1789 
C 3290 2248 3270 2363 3155 2581 
C 2995 2887 2675 3072 2291 3072 
C 1882 3072 1568 2881 1280 2453 
L 1280 4672 
z
" id="CenturySchL-Roma-68" transform="scale(0.015625)"/>
       <path d="M 1242 3008 
L 1242 4288 
L 979 4288 
C 915 3448 634 3020 115 2982 
L 115 2733 
L 640 2733 
L 640 1105 
C 640 658 653 498 717 351 
C 819 83 1075 -64 1446 -64 
C 1696 -64 1914 13 2061 153 
C 2272 358 2394 696 2394 1048 
C 2394 1086 2394 1131 2387 1195 
L 2118 1195 
C 2099 620 1933 326 1619 326 
C 1472 326 1344 402 1299 511 
C 1261 600 1242 760 1242 990 
L 1242 2733 
L 2182 2733 
L 2182 3008 
L 1242 3008 
z
" id="CenturySchL-Roma-74" transform="scale(0.015625)"/>
      </defs>
      <use transform="scale(0.996264)" xlink:href="#CenturySchL-Roma-48"/>
      <use transform="translate(82.98843 0)scale(0.996264)" xlink:href="#CenturySchL-Roma-65"/>
      <use transform="translate(132.801631 0)scale(0.996264)" xlink:href="#CenturySchL-Roma-69"/>
      <use transform="translate(164.182944 0)scale(0.996264)" xlink:href="#CenturySchL-Roma-67"/>
      <use transform="translate(217.682288 0)scale(0.996264)" xlink:href="#CenturySchL-Roma-68"/>
      <use transform="translate(278.553918 0)scale(0.996264)" xlink:href="#CenturySchL-Roma-74"/>
      <use transform="translate(345.002794 0)scale(0.996264)" xlink:href="#CenturySchL-Roma-28"/>
      <use transform="translate(378.178024 0)scale(0.996264)" xlink:href="#CenturySchL-Roma-6d"/>
      <use transform="translate(466.744931 0)scale(0.996264)" xlink:href="#CenturySchL-Roma-29"/>
     </g>
    </g>
   </g>
   <g id="legend_1">
    <g id="patch_5">
     <path d="M 209.146419 65.826257 
L 423.8 65.826257 
Q 427.4 65.826257 427.4 62.226257 
L 427.4 12.6 
Q 427.4 9 423.8 9 
L 209.146419 9 
Q 205.546419 9 205.546419 12.6 
L 205.546419 62.226257 
Q 205.546419 65.826257 209.146419 65.826257 
z
" style="fill:#ffffff;stroke:#cccccc;stroke-linejoin:miter;"/>
    </g>
    <g id="line2d_17">
     <path d="M 212.746419 23.205968 
L 248.746419 23.205968 
" style="fill:none;stroke:#e41a1c;stroke-linecap:square;stroke-width:2;"/>
    </g>
    <g id="line2d_18"/>
    <g id="text_10">
     <!-- Static Design -->
     <g transform="translate(263.146419 29.505968)scale(0.18 -0.18)">
      <defs>
       <path d="M 3494 4608 
L 3258 4608 
L 3002 4230 
C 2701 4518 2291 4672 1837 4672 
C 998 4672 435 4135 435 3338 
C 435 2642 781 2297 1722 2055 
L 2330 1901 
C 2803 1781 2848 1768 2982 1666 
C 3174 1519 3277 1308 3277 1059 
C 3277 804 3181 594 2989 422 
C 2778 236 2566 166 2214 166 
C 1741 166 1402 312 1101 642 
C 832 941 698 1240 602 1728 
L 326 1728 
L 352 -92 
L 602 -92 
L 890 350 
C 1318 0 1677 -128 2234 -128 
C 3174 -128 3776 422 3776 1276 
C 3776 1671 3642 2010 3392 2253 
C 3219 2419 2970 2527 2458 2655 
L 1773 2827 
C 1203 2974 934 3223 934 3612 
C 934 4058 1299 4365 1843 4365 
C 2291 4365 2656 4172 2912 3807 
C 3098 3544 3213 3274 3296 2947 
L 3571 2947 
L 3494 4608 
z
" id="CenturySchL-Roma-53" transform="scale(0.015625)"/>
       <path d="M 2893 2085 
C 2893 2483 2822 2686 2637 2838 
C 2426 3002 2112 3090 1702 3090 
C 986 3090 454 2755 454 2299 
C 454 2058 602 1906 826 1906 
C 1024 1906 1171 2039 1171 2228 
C 1171 2311 1139 2399 1075 2488 
C 1037 2531 1030 2550 1030 2570 
C 1030 2702 1293 2816 1600 2816 
C 1798 2816 2022 2753 2125 2658 
C 2246 2557 2291 2405 2291 2120 
L 2291 1874 
C 1619 1759 1414 1708 1101 1588 
C 550 1383 282 1084 282 682 
C 282 229 646 -64 1210 -64 
C 1651 -64 2048 119 2323 452 
C 2426 127 2586 0 2886 0 
C 3174 0 3475 185 3475 370 
C 3475 414 3443 446 3411 446 
C 3386 446 3360 440 3315 421 
C 3213 384 3187 377 3136 377 
C 2957 377 2893 498 2893 814 
L 2893 2085 
z
M 2291 1310 
C 2291 926 2272 837 2163 671 
C 2003 434 1709 275 1434 275 
C 1146 275 928 486 928 773 
C 928 1041 1062 1233 1344 1367 
C 1542 1456 1792 1520 2291 1603 
L 2291 1310 
z
" id="CenturySchL-Roma-61" transform="scale(0.015625)"/>
       <path d="M 2477 968 
C 2272 510 2054 326 1722 326 
C 1210 326 890 789 890 1532 
C 890 2301 1203 2816 1677 2816 
C 1869 2816 2035 2726 2035 2625 
C 2035 2606 2022 2587 1997 2548 
C 1894 2428 1869 2364 1869 2257 
C 1869 2047 2029 1901 2253 1901 
C 2477 1901 2643 2079 2643 2333 
C 2643 2759 2214 3090 1645 3090 
C 813 3090 218 2410 218 1462 
C 218 559 762 -64 1555 -64 
C 2125 -64 2451 197 2726 872 
L 2477 968 
z
" id="CenturySchL-Roma-63" transform="scale(0.015625)"/>
       <path d="M 877 786 
L 877 600 
C 877 332 819 300 307 300 
L 186 300 
L 186 0 
L 2336 0 
C 2906 0 3341 89 3680 281 
C 4326 644 4685 1372 4685 2329 
C 4685 3204 4365 3900 3776 4282 
C 3424 4506 2950 4608 2221 4608 
L 186 4608 
L 186 4308 
L 307 4308 
C 819 4308 877 4276 877 4007 
L 877 3823 
L 877 786 
z
M 1958 300 
C 1638 300 1594 339 1594 652 
L 1594 3950 
C 1594 4263 1638 4308 1958 4308 
L 2291 4308 
C 3386 4308 3840 3715 3840 2304 
C 3840 874 3424 300 2394 300 
L 1958 300 
z
" id="CenturySchL-Roma-44" transform="scale(0.015625)"/>
       <path d="M 1280 2944 
L 173 2944 
L 173 2638 
L 403 2638 
C 640 2638 678 2593 678 2317 
L 678 787 
L 678 531 
C 678 275 608 230 198 230 
L 173 230 
L 173 0 
L 1792 0 
L 1792 230 
L 1766 230 
C 1350 230 1280 275 1280 530 
L 1280 786 
L 1280 1450 
C 1280 1763 1325 2050 1395 2197 
C 1530 2485 1818 2683 2093 2683 
C 2259 2683 2451 2587 2547 2459 
C 2643 2325 2688 2127 2688 1820 
L 2688 786 
L 2688 530 
C 2688 275 2618 230 2202 230 
L 2176 230 
L 2176 0 
L 3795 0 
L 3795 230 
L 3770 230 
C 3360 230 3290 275 3290 530 
L 3290 786 
L 3290 1789 
C 3290 2248 3270 2363 3155 2581 
C 2995 2887 2669 3072 2291 3072 
C 1882 3072 1562 2883 1280 2465 
L 1280 2944 
z
" id="CenturySchL-Roma-6e" transform="scale(0.015625)"/>
      </defs>
      <use transform="scale(0.996264)" xlink:href="#CenturySchL-Roma-53"/>
      <use transform="translate(62.763979 0)scale(0.996264)" xlink:href="#CenturySchL-Roma-74"/>
      <use transform="translate(101.517685 0)scale(0.996264)" xlink:href="#CenturySchL-Roma-61"/>
      <use transform="translate(156.909362 0)scale(0.996264)" xlink:href="#CenturySchL-Roma-74"/>
      <use transform="translate(195.663068 0)scale(0.996264)" xlink:href="#CenturySchL-Roma-69"/>
      <use transform="translate(227.044381 0)scale(0.996264)" xlink:href="#CenturySchL-Roma-63"/>
      <use transform="translate(298.97312 0)scale(0.996264)" xlink:href="#CenturySchL-Roma-44"/>
      <use transform="translate(376.48149 0)scale(0.996264)" xlink:href="#CenturySchL-Roma-65"/>
      <use transform="translate(426.29469 0)scale(0.996264)" xlink:href="#CenturySchL-Roma-73"/>
      <use transform="translate(472.420501 0)scale(0.996264)" xlink:href="#CenturySchL-Roma-69"/>
      <use transform="translate(503.801814 0)scale(0.996264)" xlink:href="#CenturySchL-Roma-67"/>
      <use transform="translate(557.301158 0)scale(0.996264)" xlink:href="#CenturySchL-Roma-6e"/>
     </g>
    </g>
    <g id="line2d_19">
     <path d="M 212.746419 48.919096 
L 248.746419 48.919096 
" style="fill:none;stroke:#377eb8;stroke-dasharray:12,12;stroke-dashoffset:0;stroke-linecap:round;stroke-linejoin:miter;stroke-width:2;"/>
    </g>
    <g id="line2d_20"/>
    <g id="text_11">
     <!-- Concurrent Design -->
     <g transform="translate(263.146419 55.219096)scale(0.18 -0.18)">
      <defs>
       <path d="M 4090 4608 
L 3846 4608 
L 3590 4225 
C 3136 4557 2886 4653 2458 4653 
C 1837 4653 1325 4404 890 3890 
C 480 3407 288 2873 288 2218 
C 288 851 1190 -128 2451 -128 
C 3475 -128 4128 470 4275 1537 
L 3974 1588 
C 3910 1251 3834 1023 3718 833 
C 3456 395 3046 172 2528 172 
C 1581 172 1133 826 1133 2193 
C 1133 2910 1229 3393 1446 3774 
C 1645 4130 2042 4352 2451 4352 
C 2899 4352 3296 4117 3539 3710 
C 3661 3500 3757 3252 3904 2763 
L 4186 2763 
L 4090 4608 
z
" id="CenturySchL-Roma-43" transform="scale(0.015625)"/>
       <path d="M 1613 3090 
C 832 3090 218 2397 218 1507 
C 218 636 832 -64 1600 -64 
C 2368 -64 2982 636 2982 1513 
C 2982 2384 2368 3090 1613 3090 
z
M 1613 2816 
C 2061 2816 2310 2352 2310 1513 
C 2310 669 2061 211 1600 211 
C 1139 211 890 669 890 1507 
C 890 2371 1133 2816 1613 2816 
z
" id="CenturySchL-Roma-6f" transform="scale(0.015625)"/>
       <path d="M 2637 0 
L 3802 0 
L 3802 301 
L 3642 301 
C 3290 301 3238 358 3238 765 
L 3238 2994 
L 2035 2994 
L 2035 2688 
L 2362 2688 
C 2598 2688 2637 2643 2637 2365 
L 2637 1572 
C 2637 1204 2598 991 2502 778 
C 2368 494 2112 326 1798 326 
C 1600 326 1434 396 1350 523 
C 1267 643 1254 707 1254 1056 
L 1254 2994 
L 134 2994 
L 134 2688 
L 378 2688 
C 614 2688 653 2643 653 2365 
L 653 974 
C 653 645 678 497 774 349 
C 947 84 1254 -64 1638 -64 
C 2061 -64 2355 110 2637 520 
L 2637 0 
z
" id="CenturySchL-Roma-75" transform="scale(0.015625)"/>
       <path d="M 1267 2944 
L 134 2944 
L 134 2638 
L 397 2638 
C 634 2638 672 2593 672 2317 
L 672 787 
L 672 531 
C 672 275 602 230 186 230 
L 160 230 
L 160 0 
L 1869 0 
L 1869 230 
L 1747 230 
C 1338 230 1267 275 1267 531 
L 1267 787 
L 1267 851 
C 1267 1332 1357 1818 1517 2183 
C 1670 2541 1888 2740 2157 2772 
C 2067 2669 2042 2604 2042 2481 
C 2042 2275 2189 2127 2394 2127 
C 2624 2127 2784 2300 2784 2561 
C 2784 2868 2566 3072 2227 3072 
C 1824 3072 1472 2747 1267 2185 
L 1267 2944 
z
" id="CenturySchL-Roma-72" transform="scale(0.015625)"/>
      </defs>
      <use transform="scale(0.996264)" xlink:href="#CenturySchL-Roma-43"/>
      <use transform="translate(71.929985 0)scale(0.996264)" xlink:href="#CenturySchL-Roma-6f"/>
      <use transform="translate(121.743185 0)scale(0.996264)" xlink:href="#CenturySchL-Roma-6e"/>
      <use transform="translate(182.614816 0)scale(0.996264)" xlink:href="#CenturySchL-Roma-63"/>
      <use transform="translate(226.848385 0)scale(0.996264)" xlink:href="#CenturySchL-Roma-75"/>
      <use transform="translate(287.720015 0)scale(0.996264)" xlink:href="#CenturySchL-Roma-72"/>
      <use transform="translate(331.953584 0)scale(0.996264)" xlink:href="#CenturySchL-Roma-72"/>
      <use transform="translate(376.187153 0)scale(0.996264)" xlink:href="#CenturySchL-Roma-65"/>
      <use transform="translate(426.000353 0)scale(0.996264)" xlink:href="#CenturySchL-Roma-6e"/>
      <use transform="translate(486.871984 0)scale(0.996264)" xlink:href="#CenturySchL-Roma-74"/>
      <use transform="translate(553.32086 0)scale(0.996264)" xlink:href="#CenturySchL-Roma-44"/>
      <use transform="translate(630.82923 0)scale(0.996264)" xlink:href="#CenturySchL-Roma-65"/>
      <use transform="translate(680.64243 0)scale(0.996264)" xlink:href="#CenturySchL-Roma-73"/>
      <use transform="translate(726.768241 0)scale(0.996264)" xlink:href="#CenturySchL-Roma-69"/>
      <use transform="translate(758.149554 0)scale(0.996264)" xlink:href="#CenturySchL-Roma-67"/>
      <use transform="translate(811.648898 0)scale(0.996264)" xlink:href="#CenturySchL-Roma-6e"/>
     </g>
    </g>
   </g>
  </g>
 </g>
 <defs>
  <clipPath id="p66e6654eeb">
   <rect height="228.85972" width="355.022499" x="74.177501" y="7.2"/>
  </clipPath>
 </defs>
</svg>
