<?xml version="1.0" encoding="utf-8" standalone="no"?>
<!DOCTYPE svg PUBLIC "-//W3C//DTD SVG 1.1//EN"
  "http://www.w3.org/Graphics/SVG/1.1/DTD/svg11.dtd">
<svg height="436.4pt" version="1.1" viewBox="0 0 652.4 436.4" width="652.4pt" xmlns="http://www.w3.org/2000/svg" xmlns:xlink="http://www.w3.org/1999/xlink">
 <metadata>
  <rdf:RDF xmlns:cc="http://creativecommons.org/ns#" xmlns:dc="http://purl.org/dc/elements/1.1/" xmlns:rdf="http://www.w3.org/1999/02/22-rdf-syntax-ns#">
   <cc:Work>
    <dc:type rdf:resource="http://purl.org/dc/dcmitype/StillImage"/>
    <dc:date>2022-02-19T15:42:07.332213</dc:date>
    <dc:format>image/svg+xml</dc:format>
    <dc:creator>
     <cc:Agent>
      <dc:title>Matplotlib v3.4.2, https://matplotlib.org/</dc:title>
     </cc:Agent>
    </dc:creator>
   </cc:Work>
  </rdf:RDF>
 </metadata>
 <defs>
  <style type="text/css">*{stroke-linecap:butt;stroke-linejoin:round;}</style>
 </defs>
 <g id="figure_1">
  <g id="patch_1">
   <path d="M 0 436.4 
L 652.4 436.4 
L 652.4 0 
L 0 0 
z
" style="fill:none;"/>
  </g>
  <g id="axes_1">
   <g id="patch_2">
    <path d="M 85.748581 380.05972 
L 569.998213 380.05972 
L 569.998213 13.852984 
L 85.748581 13.852984 
z
" style="fill:none;"/>
   </g>
   <g id="matplotlib.axis_1">
    <g id="xtick_1">
     <g id="line2d_1">
      <path clip-path="url(#p4a904c72d6)" d="M 107.759928 380.05972 
L 107.759928 13.852984 
" style="fill:none;stroke:#bfbfbf;stroke-dasharray:0.8,2.4;stroke-dashoffset:0;stroke-linecap:round;stroke-linejoin:miter;stroke-width:0.8;"/>
     </g>
     <g id="line2d_2">
      <defs>
       <path d="M 0 0 
L 0 3.5 
" id="ma23a1a33c5" style="stroke:#000000;stroke-width:0.8;"/>
      </defs>
      <g>
       <use style="stroke:#000000;stroke-width:0.8;" x="107.759928" xlink:href="#ma23a1a33c5" y="380.05972"/>
      </g>
     </g>
     <g id="text_1">
      <!-- 108 -->
      <g transform="translate(92.804179 400.365688)scale(0.18 -0.18)">
       <defs>
        <path d="M 2061 4512 
C 1843 4239 1254 4032 666 4032 
L 666 3750 
L 1229 3750 
C 1600 3750 1626 3725 1626 3348 
L 1626 786 
L 1626 600 
C 1626 332 1568 300 1056 300 
L 640 300 
L 640 0 
L 3174 0 
L 3174 300 
L 2822 300 
C 2483 300 2342 326 2291 390 
C 2246 434 2246 434 2246 788 
L 2246 3435 
C 2246 3749 2259 4056 2291 4512 
L 2061 4512 
z
" id="CenturySchL-Roma-31" transform="scale(0.015625)"/>
        <path d="M 1818 4544 
C 922 4544 269 3564 269 2224 
C 269 904 902 -64 1766 -64 
C 2662 -64 3290 872 3290 2204 
C 3290 2884 3149 3448 2880 3890 
C 2630 4294 2221 4544 1818 4544 
z
M 1773 4269 
C 1984 4269 2189 4128 2342 3872 
C 2515 3576 2573 3198 2573 2320 
C 2573 1422 2528 1000 2400 717 
C 2253 403 2022 211 1779 211 
C 1568 211 1363 352 1210 608 
C 1030 910 979 1314 979 2359 
C 979 3103 1024 3480 1152 3756 
C 1299 4083 1530 4269 1773 4269 
z
" id="CenturySchL-Roma-30" transform="scale(0.015625)"/>
        <path d="M 2394 2531 
C 2874 2794 3098 3108 3098 3525 
C 3098 4115 2560 4544 1824 4544 
C 1043 4544 474 4024 474 3320 
C 474 3044 576 2757 755 2558 
C 864 2430 966 2359 1197 2237 
C 915 2129 794 2064 653 1949 
C 403 1743 262 1436 262 1109 
C 262 763 435 417 704 212 
C 954 32 1299 -64 1709 -64 
C 2182 -64 2579 64 2842 301 
C 3117 539 3283 929 3283 1321 
C 3283 1686 3142 2013 2880 2244 
C 2752 2352 2637 2423 2394 2531 
z
M 1709 2782 
C 1190 2974 966 3218 966 3590 
C 966 3993 1299 4269 1805 4269 
C 2298 4269 2624 3955 2624 3487 
C 2624 3154 2496 2936 2131 2628 
L 1709 2782 
z
M 2080 1897 
C 2566 1724 2771 1474 2771 1051 
C 2771 538 2368 211 1741 211 
C 1146 211 794 544 794 1108 
C 794 1589 992 1878 1491 2109 
L 2080 1897 
z
" id="CenturySchL-Roma-38" transform="scale(0.015625)"/>
       </defs>
       <use transform="scale(0.996264)" xlink:href="#CenturySchL-Roma-31"/>
       <use transform="translate(55.391677 0)scale(0.996264)" xlink:href="#CenturySchL-Roma-30"/>
       <use transform="translate(110.783354 0)scale(0.996264)" xlink:href="#CenturySchL-Roma-38"/>
      </g>
     </g>
    </g>
    <g id="xtick_2">
     <g id="line2d_3">
      <path clip-path="url(#p4a904c72d6)" d="M 185.401363 380.05972 
L 185.401363 13.852984 
" style="fill:none;stroke:#bfbfbf;stroke-dasharray:0.8,2.4;stroke-dashoffset:0;stroke-linecap:round;stroke-linejoin:miter;stroke-width:0.8;"/>
     </g>
     <g id="line2d_4">
      <g>
       <use style="stroke:#000000;stroke-width:0.8;" x="185.401363" xlink:href="#ma23a1a33c5" y="380.05972"/>
      </g>
     </g>
     <g id="text_2">
      <!-- 158019 -->
      <g transform="translate(155.489865 400.365688)scale(0.18 -0.18)">
       <defs>
        <path d="M 1050 3821 
C 1395 3738 1574 3712 1824 3712 
C 2368 3712 2765 3904 2976 4255 
C 3046 4377 3072 4434 3072 4485 
C 3072 4524 3053 4543 3021 4543 
C 3002 4543 2970 4536 2938 4517 
C 2624 4383 2451 4351 2086 4351 
C 1677 4351 1440 4383 768 4543 
C 742 4008 685 3327 595 2538 
C 461 2398 416 2315 416 2213 
C 416 2086 499 1997 621 1997 
C 781 1997 883 2133 909 2391 
C 1133 2553 1344 2624 1600 2624 
C 2170 2624 2515 2178 2515 1440 
C 2515 1007 2406 637 2214 437 
C 2086 301 1824 211 1562 211 
C 1178 211 781 411 781 612 
C 781 658 819 709 896 754 
C 1094 877 1152 962 1152 1136 
C 1152 1363 979 1537 749 1537 
C 493 1537 288 1298 288 995 
C 288 672 474 349 762 149 
C 979 7 1242 -64 1574 -64 
C 2579 -64 3213 530 3213 1479 
C 3213 2357 2630 2944 1766 2944 
C 1498 2944 1293 2899 941 2752 
L 1050 3821 
z
" id="CenturySchL-Roma-35" transform="scale(0.015625)"/>
        <path d="M 2586 2246 
C 2502 1474 2470 1283 2355 957 
C 2189 486 1837 211 1408 211 
C 1197 211 1050 275 1050 370 
C 1050 395 1062 427 1088 478 
C 1165 632 1178 671 1178 760 
C 1178 970 1011 1136 800 1136 
C 557 1136 365 932 365 676 
C 365 256 813 -64 1402 -64 
C 1984 -64 2483 199 2797 673 
C 3110 1147 3283 1769 3283 2429 
C 3283 3717 2669 4544 1715 4544 
C 896 4544 250 3863 250 2995 
C 250 2230 787 1665 1517 1665 
C 1971 1665 2240 1812 2586 2246 
z
M 1741 4269 
C 2214 4269 2528 3792 2528 3072 
C 2528 2808 2477 2570 2381 2422 
C 2234 2190 1984 2048 1709 2048 
C 1222 2048 947 2428 947 3110 
C 947 3419 1018 3722 1139 3915 
C 1286 4166 1459 4269 1741 4269 
z
" id="CenturySchL-Roma-39" transform="scale(0.015625)"/>
       </defs>
       <use transform="scale(0.996264)" xlink:href="#CenturySchL-Roma-31"/>
       <use transform="translate(55.391677 0)scale(0.996264)" xlink:href="#CenturySchL-Roma-35"/>
       <use transform="translate(110.783354 0)scale(0.996264)" xlink:href="#CenturySchL-Roma-38"/>
       <use transform="translate(166.175031 0)scale(0.996264)" xlink:href="#CenturySchL-Roma-30"/>
       <use transform="translate(221.566708 0)scale(0.996264)" xlink:href="#CenturySchL-Roma-31"/>
       <use transform="translate(276.958385 0)scale(0.996264)" xlink:href="#CenturySchL-Roma-39"/>
      </g>
     </g>
    </g>
    <g id="xtick_3">
     <g id="line2d_5">
      <path clip-path="url(#p4a904c72d6)" d="M 263.042799 380.05972 
L 263.042799 13.852984 
" style="fill:none;stroke:#bfbfbf;stroke-dasharray:0.8,2.4;stroke-dashoffset:0;stroke-linecap:round;stroke-linejoin:miter;stroke-width:0.8;"/>
     </g>
     <g id="line2d_6">
      <g>
       <use style="stroke:#000000;stroke-width:0.8;" x="263.042799" xlink:href="#ma23a1a33c5" y="380.05972"/>
      </g>
     </g>
     <g id="text_3">
      <!-- 333582 -->
      <g transform="translate(233.1313 400.365688)scale(0.18 -0.18)">
       <defs>
        <path d="M 2214 2391 
C 2304 2423 2317 2423 2362 2442 
C 2810 2628 3066 2987 3066 3441 
C 3066 4108 2554 4544 1760 4544 
C 1011 4544 442 4094 442 3502 
C 442 3235 621 3046 864 3046 
C 1088 3046 1242 3203 1242 3438 
C 1242 3576 1190 3667 1043 3772 
C 979 3817 960 3850 960 3890 
C 960 4073 1338 4269 1696 4269 
C 2157 4269 2400 3976 2400 3422 
C 2400 2815 2157 2496 1696 2496 
C 1638 2496 1536 2496 1440 2496 
C 1389 2496 1338 2496 1299 2496 
C 1165 2496 1094 2440 1094 2330 
C 1094 2226 1165 2177 1293 2177 
C 1312 2177 1363 2177 1446 2177 
C 1690 2177 1696 2177 1747 2177 
C 2221 2177 2477 1845 2477 1225 
C 2477 580 2150 211 1581 211 
C 1178 211 742 425 742 620 
C 742 678 755 689 883 760 
C 1062 866 1133 974 1133 1130 
C 1133 1357 960 1528 723 1528 
C 454 1528 269 1301 269 972 
C 269 359 838 -64 1658 -64 
C 2579 -64 3187 449 3187 1237 
C 3187 1839 2874 2204 2214 2391 
z
" id="CenturySchL-Roma-33" transform="scale(0.015625)"/>
        <path d="M 3232 1380 
L 2950 1380 
L 2886 1054 
C 2803 645 2752 600 2355 600 
L 922 600 
C 1363 1060 1510 1194 1920 1514 
C 2502 1962 2752 2186 2899 2377 
C 3104 2658 3206 2946 3206 3252 
C 3206 3975 2598 4499 1766 4499 
C 954 4499 326 3975 326 3297 
C 326 2895 531 2620 838 2620 
C 1075 2620 1235 2780 1235 3010 
C 1235 3170 1146 3317 1005 3375 
C 768 3477 755 3483 755 3566 
C 755 3662 819 3809 909 3918 
C 1069 4109 1338 4224 1638 4224 
C 2163 4224 2483 3898 2483 3362 
C 2483 2888 2259 2460 1728 1898 
L 1350 1502 
C 1126 1266 960 1086 851 965 
C 621 696 506 549 224 179 
L 224 0 
L 3110 0 
L 3232 1380 
z
" id="CenturySchL-Roma-32" transform="scale(0.015625)"/>
       </defs>
       <use transform="scale(0.996264)" xlink:href="#CenturySchL-Roma-33"/>
       <use transform="translate(55.391677 0)scale(0.996264)" xlink:href="#CenturySchL-Roma-33"/>
       <use transform="translate(110.783354 0)scale(0.996264)" xlink:href="#CenturySchL-Roma-33"/>
       <use transform="translate(166.175031 0)scale(0.996264)" xlink:href="#CenturySchL-Roma-35"/>
       <use transform="translate(221.566708 0)scale(0.996264)" xlink:href="#CenturySchL-Roma-38"/>
       <use transform="translate(276.958385 0)scale(0.996264)" xlink:href="#CenturySchL-Roma-32"/>
      </g>
     </g>
    </g>
    <g id="xtick_4">
     <g id="line2d_7">
      <path clip-path="url(#p4a904c72d6)" d="M 340.684234 380.05972 
L 340.684234 13.852984 
" style="fill:none;stroke:#bfbfbf;stroke-dasharray:0.8,2.4;stroke-dashoffset:0;stroke-linecap:round;stroke-linejoin:miter;stroke-width:0.8;"/>
     </g>
     <g id="line2d_8">
      <g>
       <use style="stroke:#000000;stroke-width:0.8;" x="340.684234" xlink:href="#ma23a1a33c5" y="380.05972"/>
      </g>
     </g>
     <g id="text_4">
      <!-- 510989 -->
      <g transform="translate(310.772736 400.365688)scale(0.18 -0.18)">
       <use transform="scale(0.996264)" xlink:href="#CenturySchL-Roma-35"/>
       <use transform="translate(55.391677 0)scale(0.996264)" xlink:href="#CenturySchL-Roma-31"/>
       <use transform="translate(110.783354 0)scale(0.996264)" xlink:href="#CenturySchL-Roma-30"/>
       <use transform="translate(166.175031 0)scale(0.996264)" xlink:href="#CenturySchL-Roma-39"/>
       <use transform="translate(221.566708 0)scale(0.996264)" xlink:href="#CenturySchL-Roma-38"/>
       <use transform="translate(276.958385 0)scale(0.996264)" xlink:href="#CenturySchL-Roma-39"/>
      </g>
     </g>
    </g>
    <g id="xtick_5">
     <g id="line2d_9">
      <path clip-path="url(#p4a904c72d6)" d="M 418.325669 380.05972 
L 418.325669 13.852984 
" style="fill:none;stroke:#bfbfbf;stroke-dasharray:0.8,2.4;stroke-dashoffset:0;stroke-linecap:round;stroke-linejoin:miter;stroke-width:0.8;"/>
     </g>
     <g id="line2d_10">
      <g>
       <use style="stroke:#000000;stroke-width:0.8;" x="418.325669" xlink:href="#ma23a1a33c5" y="380.05972"/>
      </g>
     </g>
     <g id="text_5">
      <!-- 693136 -->
      <g transform="translate(388.414171 400.365688)scale(0.18 -0.18)">
       <defs>
        <path d="M 979 2183 
C 1043 2986 1075 3203 1216 3537 
C 1402 4001 1741 4269 2144 4269 
C 2368 4269 2502 4197 2502 4079 
C 2502 4052 2496 4033 2470 3987 
C 2406 3863 2374 3772 2374 3680 
C 2374 3458 2541 3294 2765 3294 
C 3008 3294 3187 3490 3187 3763 
C 3187 4212 2739 4544 2138 4544 
C 1613 4544 1120 4294 813 3865 
C 467 3371 269 2705 269 2006 
C 269 757 883 -64 1830 -64 
C 2246 -64 2592 76 2861 355 
C 3136 634 3302 1052 3302 1452 
C 3302 2200 2758 2758 2035 2758 
C 1600 2758 1280 2585 979 2183 
z
M 1862 2368 
C 2323 2368 2605 2008 2605 1406 
C 2605 679 2310 211 1843 211 
C 1555 211 1331 369 1178 673 
C 1075 869 1024 1084 1024 1318 
C 1024 1970 1344 2368 1862 2368 
z
" id="CenturySchL-Roma-36" transform="scale(0.015625)"/>
       </defs>
       <use transform="scale(0.996264)" xlink:href="#CenturySchL-Roma-36"/>
       <use transform="translate(55.391677 0)scale(0.996264)" xlink:href="#CenturySchL-Roma-39"/>
       <use transform="translate(110.783354 0)scale(0.996264)" xlink:href="#CenturySchL-Roma-33"/>
       <use transform="translate(166.175031 0)scale(0.996264)" xlink:href="#CenturySchL-Roma-31"/>
       <use transform="translate(221.566708 0)scale(0.996264)" xlink:href="#CenturySchL-Roma-33"/>
       <use transform="translate(276.958385 0)scale(0.996264)" xlink:href="#CenturySchL-Roma-36"/>
      </g>
     </g>
    </g>
    <g id="xtick_6">
     <g id="line2d_11">
      <path clip-path="url(#p4a904c72d6)" d="M 495.967104 380.05972 
L 495.967104 13.852984 
" style="fill:none;stroke:#bfbfbf;stroke-dasharray:0.8,2.4;stroke-dashoffset:0;stroke-linecap:round;stroke-linejoin:miter;stroke-width:0.8;"/>
     </g>
     <g id="line2d_12">
      <g>
       <use style="stroke:#000000;stroke-width:0.8;" x="495.967104" xlink:href="#ma23a1a33c5" y="380.05972"/>
      </g>
     </g>
     <g id="text_6">
      <!-- 880755 -->
      <g transform="translate(466.055606 400.365688)scale(0.18 -0.18)">
       <defs>
        <path d="M 378 2955 
L 659 2911 
L 774 3418 
C 870 3841 915 3904 1101 3904 
C 1133 3904 1190 3904 1242 3879 
C 1613 3879 2074 3879 2336 3879 
C 2426 3879 2560 3879 2733 3879 
L 2298 2998 
C 1818 2039 1766 1930 1606 1538 
C 1414 1055 1306 650 1306 379 
C 1306 90 1459 -96 1709 -96 
C 2016 -96 2138 115 2131 667 
C 2099 1583 2221 2038 2899 3537 
C 2995 3743 3091 3942 3187 4140 
C 3194 4153 3213 4211 3251 4294 
L 3251 4479 
C 2854 4473 2643 4473 2253 4473 
C 1709 4473 1274 4473 576 4473 
L 378 2955 
z
" id="CenturySchL-Roma-37" transform="scale(0.015625)"/>
       </defs>
       <use transform="scale(0.996264)" xlink:href="#CenturySchL-Roma-38"/>
       <use transform="translate(55.391677 0)scale(0.996264)" xlink:href="#CenturySchL-Roma-38"/>
       <use transform="translate(110.783354 0)scale(0.996264)" xlink:href="#CenturySchL-Roma-30"/>
       <use transform="translate(166.175031 0)scale(0.996264)" xlink:href="#CenturySchL-Roma-37"/>
       <use transform="translate(221.566708 0)scale(0.996264)" xlink:href="#CenturySchL-Roma-35"/>
       <use transform="translate(276.958385 0)scale(0.996264)" xlink:href="#CenturySchL-Roma-35"/>
      </g>
     </g>
    </g>
    <g id="text_7">
     <!-- Time Steps -->
     <g transform="translate(270.833041 425.0357)scale(0.22 -0.22)">
      <defs>
       <path d="M 4051 4608 
L 218 4608 
L 122 2833 
L 397 2833 
C 442 3152 499 3395 570 3599 
C 736 4065 1043 4308 1478 4308 
C 1690 4308 1779 4237 1779 4078 
L 1779 786 
L 1779 600 
C 1779 332 1722 300 1203 300 
L 1037 300 
L 1037 0 
L 3232 0 
L 3232 300 
L 3066 300 
C 2554 300 2496 332 2496 600 
L 2496 786 
L 2496 4078 
C 2496 4237 2586 4308 2797 4308 
C 3187 4308 3501 4090 3661 3707 
C 3757 3472 3821 3197 3872 2833 
L 4147 2833 
L 4051 4608 
z
" id="CenturySchL-Roma-54" transform="scale(0.015625)"/>
       <path d="M 1318 2944 
L 115 2944 
L 115 2638 
L 442 2638 
C 678 2638 717 2593 717 2317 
L 717 787 
L 717 531 
C 717 275 646 230 237 230 
L 192 230 
L 192 0 
L 1850 0 
L 1850 230 
L 1805 230 
C 1389 230 1318 274 1318 526 
L 1318 779 
L 1318 2944 
z
M 1018 4581 
C 813 4581 646 4415 646 4211 
C 646 4013 813 3840 1011 3840 
C 1222 3840 1389 4006 1389 4211 
C 1389 4415 1222 4581 1018 4581 
z
" id="CenturySchL-Roma-69" transform="scale(0.015625)"/>
       <path d="M 1286 2944 
L 147 2944 
L 147 2638 
L 410 2638 
C 646 2638 685 2593 685 2317 
L 685 787 
L 685 538 
C 685 275 614 230 205 230 
L 179 230 
L 179 0 
L 1792 0 
L 1792 230 
L 1766 230 
C 1357 230 1286 275 1286 537 
L 1286 786 
L 1286 1693 
C 1286 2261 1600 2683 2016 2683 
C 2182 2683 2362 2593 2438 2472 
C 2528 2351 2566 2165 2566 1903 
L 2566 786 
L 2566 530 
C 2566 275 2496 230 2080 230 
L 2054 230 
L 2054 0 
L 3674 0 
L 3674 230 
L 3648 230 
C 3238 230 3168 275 3168 530 
L 3168 786 
L 3168 1635 
C 3168 2274 3456 2683 3904 2683 
C 4115 2683 4288 2561 4371 2363 
C 4429 2223 4448 2082 4448 1833 
L 4448 786 
L 4448 530 
C 4448 275 4378 230 3962 230 
L 3936 230 
L 3936 0 
L 5555 0 
L 5555 230 
L 5530 230 
C 5120 230 5050 275 5050 537 
L 5050 786 
L 5050 1961 
C 5050 2357 5011 2491 4845 2708 
C 4659 2945 4397 3072 4090 3072 
C 3674 3072 3366 2876 3091 2439 
C 2982 2819 2637 3072 2208 3072 
C 1824 3072 1536 2889 1286 2491 
L 1286 2944 
z
" id="CenturySchL-Roma-6d" transform="scale(0.015625)"/>
       <path d="M 2976 1472 
C 2982 2420 2438 3090 1658 3090 
C 838 3090 224 2384 224 1430 
C 224 540 806 -64 1670 -64 
C 2278 -64 2714 236 2976 844 
L 2752 966 
C 2490 473 2221 281 1792 281 
C 1466 281 1229 422 1062 704 
C 947 896 896 1120 902 1472 
L 2976 1472 
z
M 909 1747 
C 909 1942 934 2080 998 2256 
C 1133 2633 1338 2816 1645 2816 
C 2035 2816 2291 2482 2291 1979 
C 2291 1797 2234 1747 2029 1747 
L 909 1747 
z
" id="CenturySchL-Roma-65" transform="scale(0.015625)"/>
       <path d="M 3494 4608 
L 3258 4608 
L 3002 4230 
C 2701 4518 2291 4672 1837 4672 
C 998 4672 435 4135 435 3338 
C 435 2642 781 2297 1722 2055 
L 2330 1901 
C 2803 1781 2848 1768 2982 1666 
C 3174 1519 3277 1308 3277 1059 
C 3277 804 3181 594 2989 422 
C 2778 236 2566 166 2214 166 
C 1741 166 1402 312 1101 642 
C 832 941 698 1240 602 1728 
L 326 1728 
L 352 -92 
L 602 -92 
L 890 350 
C 1318 0 1677 -128 2234 -128 
C 3174 -128 3776 422 3776 1276 
C 3776 1671 3642 2010 3392 2253 
C 3219 2419 2970 2527 2458 2655 
L 1773 2827 
C 1203 2974 934 3223 934 3612 
C 934 4058 1299 4365 1843 4365 
C 2291 4365 2656 4172 2912 3807 
C 3098 3544 3213 3274 3296 2947 
L 3571 2947 
L 3494 4608 
z
" id="CenturySchL-Roma-53" transform="scale(0.015625)"/>
       <path d="M 1242 3008 
L 1242 4288 
L 979 4288 
C 915 3448 634 3020 115 2982 
L 115 2733 
L 640 2733 
L 640 1105 
C 640 658 653 498 717 351 
C 819 83 1075 -64 1446 -64 
C 1696 -64 1914 13 2061 153 
C 2272 358 2394 696 2394 1048 
C 2394 1086 2394 1131 2387 1195 
L 2118 1195 
C 2099 620 1933 326 1619 326 
C 1472 326 1344 402 1299 511 
C 1261 600 1242 760 1242 990 
L 1242 2733 
L 2182 2733 
L 2182 3008 
L 1242 3008 
z
" id="CenturySchL-Roma-74" transform="scale(0.015625)"/>
       <path d="M 1286 2944 
L 179 2944 
L 179 2638 
L 410 2638 
C 646 2638 685 2593 685 2318 
L 685 -496 
L 685 -750 
C 685 -1006 614 -1050 205 -1050 
L 179 -1050 
L 179 -1280 
L 1843 -1280 
L 1843 -1050 
L 1773 -1050 
C 1357 -1050 1286 -1006 1286 -751 
L 1286 -496 
L 1286 428 
C 1498 58 1741 -89 2131 -89 
C 2874 -89 3424 593 3424 1504 
C 3424 2385 2874 3072 2170 3072 
C 1773 3072 1510 2908 1286 2529 
L 1286 2944 
z
M 2054 2727 
C 2496 2727 2752 2288 2752 1542 
C 2752 721 2490 256 2035 256 
C 1581 256 1280 728 1280 1460 
C 1280 2249 1568 2727 2054 2727 
z
" id="CenturySchL-Roma-70" transform="scale(0.015625)"/>
       <path d="M 2496 3072 
L 2272 3072 
L 2086 2842 
C 1856 3021 1626 3097 1306 3097 
C 742 3097 371 2728 371 2173 
C 371 1925 454 1714 595 1588 
C 742 1453 890 1390 1274 1300 
L 1613 1224 
C 2118 1103 2298 975 2298 721 
C 2298 421 2035 211 1658 211 
C 1120 211 736 561 582 1208 
L 326 1208 
L 326 0 
L 550 0 
L 774 250 
C 1037 38 1331 -64 1651 -64 
C 2278 -64 2694 325 2694 918 
C 2694 1198 2605 1414 2426 1561 
C 2272 1695 2144 1746 1754 1828 
L 1434 1899 
C 1082 1975 1082 1975 966 2039 
C 826 2103 742 2236 742 2377 
C 742 2631 986 2816 1338 2816 
C 1581 2816 1779 2733 1958 2561 
C 2099 2420 2170 2293 2272 1999 
L 2496 1999 
L 2496 3072 
z
" id="CenturySchL-Roma-73" transform="scale(0.015625)"/>
      </defs>
      <use transform="scale(0.996264)" xlink:href="#CenturySchL-Roma-54"/>
      <use transform="translate(66.450031 0)scale(0.996264)" xlink:href="#CenturySchL-Roma-69"/>
      <use transform="translate(97.831344 0)scale(0.996264)" xlink:href="#CenturySchL-Roma-6d"/>
      <use transform="translate(186.398251 0)scale(0.996264)" xlink:href="#CenturySchL-Roma-65"/>
      <use transform="translate(263.906621 0)scale(0.996264)" xlink:href="#CenturySchL-Roma-53"/>
      <use transform="translate(326.6706 0)scale(0.996264)" xlink:href="#CenturySchL-Roma-74"/>
      <use transform="translate(365.424306 0)scale(0.996264)" xlink:href="#CenturySchL-Roma-65"/>
      <use transform="translate(415.237507 0)scale(0.996264)" xlink:href="#CenturySchL-Roma-70"/>
      <use transform="translate(472.422994 0)scale(0.996264)" xlink:href="#CenturySchL-Roma-73"/>
     </g>
    </g>
   </g>
   <g id="matplotlib.axis_2">
    <g id="ytick_1">
     <g id="line2d_13">
      <path clip-path="url(#p4a904c72d6)" d="M 85.748581 354.687086 
L 569.998213 354.687086 
" style="fill:none;stroke:#bfbfbf;stroke-dasharray:0.8,2.4;stroke-dashoffset:0;stroke-linecap:round;stroke-linejoin:miter;stroke-width:0.8;"/>
     </g>
     <g id="line2d_14">
      <defs>
       <path d="M 0 0 
L -3.5 0 
" id="m554f639583" style="stroke:#000000;stroke-width:0.8;"/>
      </defs>
      <g>
       <use style="stroke:#000000;stroke-width:0.8;" x="85.748581" xlink:href="#m554f639583" y="354.687086"/>
      </g>
     </g>
     <g id="text_8">
      <!-- $\mathdefault{3000}$ -->
      <g transform="translate(45.851438 361.34007)scale(0.18 -0.18)">
       <defs>
        <path d="M 1414 2157 
C 1984 2157 2234 1662 2234 1090 
C 2234 320 1824 25 1453 25 
C 1114 25 563 194 390 693 
C 422 680 454 680 486 680 
C 640 680 755 782 755 948 
C 755 1133 614 1216 486 1216 
C 378 1216 211 1165 211 926 
C 211 335 787 -128 1466 -128 
C 2176 -128 2720 430 2720 1085 
C 2720 1707 2208 2157 1600 2227 
C 2086 2328 2554 2756 2554 3329 
C 2554 3820 2048 4179 1472 4179 
C 890 4179 378 3829 378 3329 
C 378 3110 544 3072 627 3072 
C 762 3072 877 3155 877 3321 
C 877 3486 762 3569 627 3569 
C 602 3569 570 3569 544 3557 
C 730 3959 1235 4032 1459 4032 
C 1683 4032 2106 3925 2106 3320 
C 2106 3143 2080 2828 1862 2550 
C 1670 2304 1453 2304 1242 2284 
C 1210 2284 1062 2269 1037 2269 
C 992 2263 966 2257 966 2208 
C 966 2163 973 2157 1101 2157 
L 1414 2157 
z
" id="CMR17-33" transform="scale(0.015625)"/>
        <path d="M 2688 2025 
C 2688 2416 2682 3080 2413 3591 
C 2176 4039 1798 4198 1466 4198 
C 1158 4198 768 4058 525 3597 
C 269 3118 243 2524 243 2025 
C 243 1661 250 1106 448 619 
C 723 -39 1216 -128 1466 -128 
C 1760 -128 2208 -7 2470 600 
C 2662 1042 2688 1559 2688 2025 
z
M 1466 -26 
C 1056 -26 813 325 723 812 
C 653 1188 653 1738 653 2096 
C 653 2588 653 2997 736 3387 
C 858 3929 1216 4096 1466 4096 
C 1728 4096 2067 3923 2189 3400 
C 2272 3036 2278 2607 2278 2096 
C 2278 1680 2278 1169 2202 792 
C 2067 95 1690 -26 1466 -26 
z
" id="CMR17-30" transform="scale(0.015625)"/>
       </defs>
       <use transform="scale(0.996264)" xlink:href="#CMR17-33"/>
       <use transform="translate(45.690477 0)scale(0.996264)" xlink:href="#CMR17-30"/>
       <use transform="translate(91.380954 0)scale(0.996264)" xlink:href="#CMR17-30"/>
       <use transform="translate(137.071431 0)scale(0.996264)" xlink:href="#CMR17-30"/>
      </g>
     </g>
    </g>
    <g id="ytick_2">
     <g id="line2d_15">
      <path clip-path="url(#p4a904c72d6)" d="M 85.748581 305.9965 
L 569.998213 305.9965 
" style="fill:none;stroke:#bfbfbf;stroke-dasharray:0.8,2.4;stroke-dashoffset:0;stroke-linecap:round;stroke-linejoin:miter;stroke-width:0.8;"/>
     </g>
     <g id="line2d_16">
      <g>
       <use style="stroke:#000000;stroke-width:0.8;" x="85.748581" xlink:href="#m554f639583" y="305.9965"/>
      </g>
     </g>
     <g id="text_9">
      <!-- $\mathdefault{4000}$ -->
      <g transform="translate(45.851438 312.649484)scale(0.18 -0.18)">
       <defs>
        <path d="M 2150 4122 
C 2150 4256 2144 4256 2029 4256 
L 128 1254 
L 128 1088 
L 1779 1088 
L 1779 457 
C 1779 224 1766 160 1318 160 
L 1197 160 
L 1197 0 
C 1402 0 1747 0 1965 0 
C 2182 0 2528 0 2733 0 
L 2733 160 
L 2611 160 
C 2163 160 2150 224 2150 457 
L 2150 1088 
L 2803 1088 
L 2803 1254 
L 2150 1254 
L 2150 4122 
z
M 1798 3703 
L 1798 1254 
L 256 1254 
L 1798 3703 
z
" id="CMR17-34" transform="scale(0.015625)"/>
       </defs>
       <use transform="scale(0.996264)" xlink:href="#CMR17-34"/>
       <use transform="translate(45.690477 0)scale(0.996264)" xlink:href="#CMR17-30"/>
       <use transform="translate(91.380954 0)scale(0.996264)" xlink:href="#CMR17-30"/>
       <use transform="translate(137.071431 0)scale(0.996264)" xlink:href="#CMR17-30"/>
      </g>
     </g>
    </g>
    <g id="ytick_3">
     <g id="line2d_17">
      <path clip-path="url(#p4a904c72d6)" d="M 85.748581 257.305914 
L 569.998213 257.305914 
" style="fill:none;stroke:#bfbfbf;stroke-dasharray:0.8,2.4;stroke-dashoffset:0;stroke-linecap:round;stroke-linejoin:miter;stroke-width:0.8;"/>
     </g>
     <g id="line2d_18">
      <g>
       <use style="stroke:#000000;stroke-width:0.8;" x="85.748581" xlink:href="#m554f639583" y="257.305914"/>
      </g>
     </g>
     <g id="text_10">
      <!-- $\mathdefault{5000}$ -->
      <g transform="translate(45.851438 263.958898)scale(0.18 -0.18)">
       <defs>
        <path d="M 730 3692 
C 794 3666 1056 3584 1325 3584 
C 1920 3584 2246 3911 2432 4100 
C 2432 4157 2432 4192 2394 4192 
C 2387 4192 2374 4192 2323 4163 
C 2099 4058 1837 3973 1517 3973 
C 1325 3973 1037 3999 723 4139 
C 653 4171 640 4171 634 4171 
C 602 4171 595 4164 595 4037 
L 595 2203 
C 595 2089 595 2057 659 2057 
C 691 2057 704 2070 736 2114 
C 941 2401 1222 2522 1542 2522 
C 1766 2522 2246 2382 2246 1289 
C 2246 1085 2246 715 2054 421 
C 1894 159 1645 25 1370 25 
C 947 25 518 320 403 814 
C 429 807 480 795 506 795 
C 589 795 749 840 749 1038 
C 749 1210 627 1280 506 1280 
C 358 1280 262 1190 262 1011 
C 262 454 704 -128 1382 -128 
C 2042 -128 2669 440 2669 1264 
C 2669 2030 2170 2624 1549 2624 
C 1222 2624 947 2503 730 2274 
L 730 3692 
z
" id="CMR17-35" transform="scale(0.015625)"/>
       </defs>
       <use transform="scale(0.996264)" xlink:href="#CMR17-35"/>
       <use transform="translate(45.690477 0)scale(0.996264)" xlink:href="#CMR17-30"/>
       <use transform="translate(91.380954 0)scale(0.996264)" xlink:href="#CMR17-30"/>
       <use transform="translate(137.071431 0)scale(0.996264)" xlink:href="#CMR17-30"/>
      </g>
     </g>
    </g>
    <g id="ytick_4">
     <g id="line2d_19">
      <path clip-path="url(#p4a904c72d6)" d="M 85.748581 208.615328 
L 569.998213 208.615328 
" style="fill:none;stroke:#bfbfbf;stroke-dasharray:0.8,2.4;stroke-dashoffset:0;stroke-linecap:round;stroke-linejoin:miter;stroke-width:0.8;"/>
     </g>
     <g id="line2d_20">
      <g>
       <use style="stroke:#000000;stroke-width:0.8;" x="85.748581" xlink:href="#m554f639583" y="208.615328"/>
      </g>
     </g>
     <g id="text_11">
      <!-- $\mathdefault{6000}$ -->
      <g transform="translate(45.851438 215.268312)scale(0.18 -0.18)">
       <defs>
        <path d="M 678 2176 
C 678 3690 1395 4032 1811 4032 
C 1946 4032 2272 4009 2400 3776 
C 2298 3776 2106 3776 2106 3553 
C 2106 3381 2246 3323 2336 3323 
C 2394 3323 2566 3348 2566 3560 
C 2566 3954 2246 4179 1805 4179 
C 1043 4179 243 3390 243 1984 
C 243 253 966 -128 1478 -128 
C 2099 -128 2688 427 2688 1283 
C 2688 2081 2170 2662 1517 2662 
C 1126 2662 838 2407 678 1960 
L 678 2176 
z
M 1478 25 
C 691 25 691 1200 691 1436 
C 691 1896 909 2560 1504 2560 
C 1613 2560 1926 2560 2138 2120 
C 2253 1870 2253 1609 2253 1289 
C 2253 944 2253 690 2118 434 
C 1978 171 1773 25 1478 25 
z
" id="CMR17-36" transform="scale(0.015625)"/>
       </defs>
       <use transform="scale(0.996264)" xlink:href="#CMR17-36"/>
       <use transform="translate(45.690477 0)scale(0.996264)" xlink:href="#CMR17-30"/>
       <use transform="translate(91.380954 0)scale(0.996264)" xlink:href="#CMR17-30"/>
       <use transform="translate(137.071431 0)scale(0.996264)" xlink:href="#CMR17-30"/>
      </g>
     </g>
    </g>
    <g id="ytick_5">
     <g id="line2d_21">
      <path clip-path="url(#p4a904c72d6)" d="M 85.748581 159.924742 
L 569.998213 159.924742 
" style="fill:none;stroke:#bfbfbf;stroke-dasharray:0.8,2.4;stroke-dashoffset:0;stroke-linecap:round;stroke-linejoin:miter;stroke-width:0.8;"/>
     </g>
     <g id="line2d_22">
      <g>
       <use style="stroke:#000000;stroke-width:0.8;" x="85.748581" xlink:href="#m554f639583" y="159.924742"/>
      </g>
     </g>
     <g id="text_12">
      <!-- $\mathdefault{7000}$ -->
      <g transform="translate(45.851438 166.577726)scale(0.18 -0.18)">
       <defs>
        <path d="M 2886 3941 
L 2886 4081 
L 1382 4081 
C 634 4081 621 4165 595 4288 
L 480 4288 
L 294 3094 
L 410 3094 
C 429 3215 474 3540 550 3661 
C 589 3712 1062 3712 1171 3712 
L 2579 3712 
L 1869 2661 
C 1395 1954 1069 999 1069 165 
C 1069 89 1069 -128 1299 -128 
C 1530 -128 1530 89 1530 171 
L 1530 465 
C 1530 1508 1709 2196 2003 2636 
L 2886 3941 
z
" id="CMR17-37" transform="scale(0.015625)"/>
       </defs>
       <use transform="scale(0.996264)" xlink:href="#CMR17-37"/>
       <use transform="translate(45.690477 0)scale(0.996264)" xlink:href="#CMR17-30"/>
       <use transform="translate(91.380954 0)scale(0.996264)" xlink:href="#CMR17-30"/>
       <use transform="translate(137.071431 0)scale(0.996264)" xlink:href="#CMR17-30"/>
      </g>
     </g>
    </g>
    <g id="ytick_6">
     <g id="line2d_23">
      <path clip-path="url(#p4a904c72d6)" d="M 85.748581 111.234156 
L 569.998213 111.234156 
" style="fill:none;stroke:#bfbfbf;stroke-dasharray:0.8,2.4;stroke-dashoffset:0;stroke-linecap:round;stroke-linejoin:miter;stroke-width:0.8;"/>
     </g>
     <g id="line2d_24">
      <g>
       <use style="stroke:#000000;stroke-width:0.8;" x="85.748581" xlink:href="#m554f639583" y="111.234156"/>
      </g>
     </g>
     <g id="text_13">
      <!-- $\mathdefault{8000}$ -->
      <g transform="translate(45.851438 117.88714)scale(0.18 -0.18)">
       <defs>
        <path d="M 1741 2264 
C 2144 2467 2554 2773 2554 3263 
C 2554 3841 1990 4179 1472 4179 
C 890 4179 378 3759 378 3180 
C 378 3021 416 2747 666 2505 
C 730 2442 998 2251 1171 2130 
C 883 1983 211 1634 211 934 
C 211 279 838 -128 1459 -128 
C 2144 -128 2720 362 2720 1010 
C 2720 1590 2330 1857 2074 2029 
L 1741 2264 
z
M 902 2822 
C 851 2854 595 3051 595 3351 
C 595 3739 998 4032 1459 4032 
C 1965 4032 2336 3676 2336 3262 
C 2336 2669 1670 2331 1638 2331 
C 1632 2331 1626 2331 1574 2370 
L 902 2822 
z
M 2080 1519 
C 2176 1449 2483 1240 2483 851 
C 2483 381 2010 25 1472 25 
C 890 25 448 438 448 940 
C 448 1443 838 1862 1280 2060 
L 2080 1519 
z
" id="CMR17-38" transform="scale(0.015625)"/>
       </defs>
       <use transform="scale(0.996264)" xlink:href="#CMR17-38"/>
       <use transform="translate(45.690477 0)scale(0.996264)" xlink:href="#CMR17-30"/>
       <use transform="translate(91.380954 0)scale(0.996264)" xlink:href="#CMR17-30"/>
       <use transform="translate(137.071431 0)scale(0.996264)" xlink:href="#CMR17-30"/>
      </g>
     </g>
    </g>
    <g id="ytick_7">
     <g id="line2d_25">
      <path clip-path="url(#p4a904c72d6)" d="M 85.748581 62.54357 
L 569.998213 62.54357 
" style="fill:none;stroke:#bfbfbf;stroke-dasharray:0.8,2.4;stroke-dashoffset:0;stroke-linecap:round;stroke-linejoin:miter;stroke-width:0.8;"/>
     </g>
     <g id="line2d_26">
      <g>
       <use style="stroke:#000000;stroke-width:0.8;" x="85.748581" xlink:href="#m554f639583" y="62.54357"/>
      </g>
     </g>
     <g id="text_14">
      <!-- $\mathdefault{9000}$ -->
      <g transform="translate(45.851438 69.196554)scale(0.18 -0.18)">
       <defs>
        <path d="M 2253 1864 
C 2253 464 1670 31 1190 31 
C 1043 31 685 31 538 294 
C 704 268 826 357 826 518 
C 826 692 685 749 595 749 
C 538 749 365 723 365 506 
C 365 71 742 -128 1203 -128 
C 1939 -128 2688 674 2688 2073 
C 2688 3817 1971 4179 1485 4179 
C 851 4179 243 3628 243 2778 
C 243 1991 762 1408 1414 1408 
C 1952 1408 2189 1903 2253 2112 
L 2253 1864 
z
M 1427 1510 
C 1254 1510 1011 1542 813 1922 
C 678 2169 678 2461 678 2771 
C 678 3146 678 3405 858 3684 
C 947 3817 1114 4032 1485 4032 
C 2240 4032 2240 2885 2240 2632 
C 2240 2182 2035 1510 1427 1510 
z
" id="CMR17-39" transform="scale(0.015625)"/>
       </defs>
       <use transform="scale(0.996264)" xlink:href="#CMR17-39"/>
       <use transform="translate(45.690477 0)scale(0.996264)" xlink:href="#CMR17-30"/>
       <use transform="translate(91.380954 0)scale(0.996264)" xlink:href="#CMR17-30"/>
       <use transform="translate(137.071431 0)scale(0.996264)" xlink:href="#CMR17-30"/>
      </g>
     </g>
    </g>
    <g id="ytick_8">
     <g id="line2d_27">
      <path clip-path="url(#p4a904c72d6)" d="M 85.748581 13.852984 
L 569.998213 13.852984 
" style="fill:none;stroke:#bfbfbf;stroke-dasharray:0.8,2.4;stroke-dashoffset:0;stroke-linecap:round;stroke-linejoin:miter;stroke-width:0.8;"/>
     </g>
     <g id="line2d_28">
      <g>
       <use style="stroke:#000000;stroke-width:0.8;" x="85.748581" xlink:href="#m554f639583" y="13.852984"/>
      </g>
     </g>
     <g id="text_15">
      <!-- $\mathdefault{10000}$ -->
      <g transform="translate(37.627152 20.505968)scale(0.18 -0.18)">
       <defs>
        <path d="M 1702 4058 
C 1702 4192 1696 4192 1606 4192 
C 1357 3916 979 3827 621 3827 
C 602 3827 570 3827 563 3808 
C 557 3795 557 3782 557 3648 
C 755 3648 1088 3686 1344 3839 
L 1344 461 
C 1344 236 1331 160 781 160 
L 589 160 
L 589 0 
C 896 0 1216 0 1523 0 
C 1830 0 2150 0 2458 0 
L 2458 160 
L 2266 160 
C 1715 160 1702 230 1702 458 
L 1702 4058 
z
" id="CMR17-31" transform="scale(0.015625)"/>
       </defs>
       <use transform="scale(0.996264)" xlink:href="#CMR17-31"/>
       <use transform="translate(45.690477 0)scale(0.996264)" xlink:href="#CMR17-30"/>
       <use transform="translate(91.380954 0)scale(0.996264)" xlink:href="#CMR17-30"/>
       <use transform="translate(137.071431 0)scale(0.996264)" xlink:href="#CMR17-30"/>
       <use transform="translate(182.761908 0)scale(0.996264)" xlink:href="#CMR17-30"/>
      </g>
     </g>
    </g>
    <g id="text_16">
     <!-- Spring Constant (N/m) -->
     <g transform="translate(23.462852 312.637142)rotate(-90)scale(0.22 -0.22)">
      <defs>
       <path d="M 1267 2944 
L 134 2944 
L 134 2638 
L 397 2638 
C 634 2638 672 2593 672 2317 
L 672 787 
L 672 531 
C 672 275 602 230 186 230 
L 160 230 
L 160 0 
L 1869 0 
L 1869 230 
L 1747 230 
C 1338 230 1267 275 1267 531 
L 1267 787 
L 1267 851 
C 1267 1332 1357 1818 1517 2183 
C 1670 2541 1888 2740 2157 2772 
C 2067 2669 2042 2604 2042 2481 
C 2042 2275 2189 2127 2394 2127 
C 2624 2127 2784 2300 2784 2561 
C 2784 2868 2566 3072 2227 3072 
C 1824 3072 1472 2747 1267 2185 
L 1267 2944 
z
" id="CenturySchL-Roma-72" transform="scale(0.015625)"/>
       <path d="M 1280 2944 
L 173 2944 
L 173 2638 
L 403 2638 
C 640 2638 678 2593 678 2317 
L 678 787 
L 678 531 
C 678 275 608 230 198 230 
L 173 230 
L 173 0 
L 1792 0 
L 1792 230 
L 1766 230 
C 1350 230 1280 275 1280 530 
L 1280 786 
L 1280 1450 
C 1280 1763 1325 2050 1395 2197 
C 1530 2485 1818 2683 2093 2683 
C 2259 2683 2451 2587 2547 2459 
C 2643 2325 2688 2127 2688 1820 
L 2688 786 
L 2688 530 
C 2688 275 2618 230 2202 230 
L 2176 230 
L 2176 0 
L 3795 0 
L 3795 230 
L 3770 230 
C 3360 230 3290 275 3290 530 
L 3290 786 
L 3290 1789 
C 3290 2248 3270 2363 3155 2581 
C 2995 2887 2669 3072 2291 3072 
C 1882 3072 1562 2883 1280 2465 
L 1280 2944 
z
" id="CenturySchL-Roma-6e" transform="scale(0.015625)"/>
       <path d="M 1254 486 
C 902 486 883 493 806 542 
C 762 570 730 647 730 723 
C 730 933 902 1024 1331 1024 
C 1939 1024 2035 1037 2246 1132 
C 2630 1303 2848 1631 2848 2047 
C 2848 2299 2790 2457 2611 2665 
C 2720 2778 2778 2816 2829 2816 
C 2861 2816 2880 2796 2893 2728 
C 2918 2577 3021 2496 3181 2496 
C 3341 2496 3469 2630 3469 2802 
C 3469 3020 3296 3173 3046 3173 
C 2842 3173 2726 3108 2432 2835 
C 2163 3014 1958 3077 1638 3077 
C 877 3077 378 2664 378 2036 
C 378 1666 582 1346 915 1196 
C 486 1098 307 902 307 542 
C 307 255 435 85 736 -19 
C 339 -159 147 -363 147 -624 
C 147 -1044 640 -1280 1498 -1280 
C 2566 -1280 3104 -942 3104 -272 
C 3104 46 2957 300 2720 396 
C 2554 460 2349 486 1907 486 
L 1254 486 
z
M 1632 2816 
C 2035 2816 2259 2539 2259 2054 
C 2259 1563 2016 1266 1606 1266 
C 1210 1266 960 1563 960 2035 
C 960 2532 1203 2816 1632 2816 
z
M 1574 -64 
C 2106 -64 2144 -64 2240 -76 
C 2496 -102 2656 -242 2656 -445 
C 2656 -808 2240 -1018 1523 -1018 
C 986 -1018 678 -859 678 -573 
C 678 -363 794 -222 1101 -64 
L 1574 -64 
z
" id="CenturySchL-Roma-67" transform="scale(0.015625)"/>
       <path d="M 4090 4608 
L 3846 4608 
L 3590 4225 
C 3136 4557 2886 4653 2458 4653 
C 1837 4653 1325 4404 890 3890 
C 480 3407 288 2873 288 2218 
C 288 851 1190 -128 2451 -128 
C 3475 -128 4128 470 4275 1537 
L 3974 1588 
C 3910 1251 3834 1023 3718 833 
C 3456 395 3046 172 2528 172 
C 1581 172 1133 826 1133 2193 
C 1133 2910 1229 3393 1446 3774 
C 1645 4130 2042 4352 2451 4352 
C 2899 4352 3296 4117 3539 3710 
C 3661 3500 3757 3252 3904 2763 
L 4186 2763 
L 4090 4608 
z
" id="CenturySchL-Roma-43" transform="scale(0.015625)"/>
       <path d="M 1613 3090 
C 832 3090 218 2397 218 1507 
C 218 636 832 -64 1600 -64 
C 2368 -64 2982 636 2982 1513 
C 2982 2384 2368 3090 1613 3090 
z
M 1613 2816 
C 2061 2816 2310 2352 2310 1513 
C 2310 669 2061 211 1600 211 
C 1139 211 890 669 890 1507 
C 890 2371 1133 2816 1613 2816 
z
" id="CenturySchL-Roma-6f" transform="scale(0.015625)"/>
       <path d="M 2893 2085 
C 2893 2483 2822 2686 2637 2838 
C 2426 3002 2112 3090 1702 3090 
C 986 3090 454 2755 454 2299 
C 454 2058 602 1906 826 1906 
C 1024 1906 1171 2039 1171 2228 
C 1171 2311 1139 2399 1075 2488 
C 1037 2531 1030 2550 1030 2570 
C 1030 2702 1293 2816 1600 2816 
C 1798 2816 2022 2753 2125 2658 
C 2246 2557 2291 2405 2291 2120 
L 2291 1874 
C 1619 1759 1414 1708 1101 1588 
C 550 1383 282 1084 282 682 
C 282 229 646 -64 1210 -64 
C 1651 -64 2048 119 2323 452 
C 2426 127 2586 0 2886 0 
C 3174 0 3475 185 3475 370 
C 3475 414 3443 446 3411 446 
C 3386 446 3360 440 3315 421 
C 3213 384 3187 377 3136 377 
C 2957 377 2893 498 2893 814 
L 2893 2085 
z
M 2291 1310 
C 2291 926 2272 837 2163 671 
C 2003 434 1709 275 1434 275 
C 1146 275 928 486 928 773 
C 928 1041 1062 1233 1344 1367 
C 1542 1456 1792 1520 2291 1603 
L 2291 1310 
z
" id="CenturySchL-Roma-61" transform="scale(0.015625)"/>
       <path d="M 1786 4701 
C 1402 4465 1197 4299 979 4043 
C 493 3468 230 2734 230 1961 
C 230 1233 461 549 890 -19 
C 1133 -326 1350 -517 1786 -786 
L 1786 -549 
C 1146 13 890 735 890 1961 
C 890 3187 1146 3903 1786 4465 
L 1786 4701 
z
" id="CenturySchL-Roma-28" transform="scale(0.015625)"/>
       <path d="M 1440 4608 
L 122 4608 
L 122 4308 
L 282 4308 
C 608 4308 755 4256 870 4097 
L 870 1376 
C 870 498 742 313 128 313 
L 128 0 
L 1952 0 
L 1952 313 
C 1344 313 1216 499 1216 1376 
L 1216 3753 
L 4070 -108 
L 4339 -108 
L 4339 3238 
C 4339 4121 4467 4308 5082 4308 
L 5082 4608 
L 3258 4608 
L 3258 4308 
C 3866 4308 3994 4122 3994 3240 
L 3994 1219 
L 1440 4608 
z
" id="CenturySchL-Roma-4e" transform="scale(0.015625)"/>
       <path d="M 1562 4736 
L -147 -64 
L 224 -64 
L 1933 4736 
L 1562 4736 
z
" id="CenturySchL-Roma-2f" transform="scale(0.015625)"/>
       <path d="M 346 -786 
C 730 -549 934 -383 1152 -121 
C 1638 447 1901 1188 1901 1961 
C 1901 2689 1670 3373 1242 3935 
C 998 4248 781 4439 346 4701 
L 346 4465 
C 986 3903 1242 3187 1242 1961 
C 1242 728 986 13 346 -549 
L 346 -786 
z
" id="CenturySchL-Roma-29" transform="scale(0.015625)"/>
      </defs>
      <use transform="scale(0.996264)" xlink:href="#CenturySchL-Roma-53"/>
      <use transform="translate(62.763979 0)scale(0.996264)" xlink:href="#CenturySchL-Roma-70"/>
      <use transform="translate(119.949466 0)scale(0.996264)" xlink:href="#CenturySchL-Roma-72"/>
      <use transform="translate(164.183035 0)scale(0.996264)" xlink:href="#CenturySchL-Roma-69"/>
      <use transform="translate(195.564348 0)scale(0.996264)" xlink:href="#CenturySchL-Roma-6e"/>
      <use transform="translate(256.435979 0)scale(0.996264)" xlink:href="#CenturySchL-Roma-67"/>
      <use transform="translate(337.630492 0)scale(0.996264)" xlink:href="#CenturySchL-Roma-43"/>
      <use transform="translate(409.560477 0)scale(0.996264)" xlink:href="#CenturySchL-Roma-6f"/>
      <use transform="translate(459.373677 0)scale(0.996264)" xlink:href="#CenturySchL-Roma-6e"/>
      <use transform="translate(520.245308 0)scale(0.996264)" xlink:href="#CenturySchL-Roma-73"/>
      <use transform="translate(566.371119 0)scale(0.996264)" xlink:href="#CenturySchL-Roma-74"/>
      <use transform="translate(605.124825 0)scale(0.996264)" xlink:href="#CenturySchL-Roma-61"/>
      <use transform="translate(660.516502 0)scale(0.996264)" xlink:href="#CenturySchL-Roma-6e"/>
      <use transform="translate(721.388133 0)scale(0.996264)" xlink:href="#CenturySchL-Roma-74"/>
      <use transform="translate(787.837008 0)scale(0.996264)" xlink:href="#CenturySchL-Roma-28"/>
      <use transform="translate(821.012238 0)scale(0.996264)" xlink:href="#CenturySchL-Roma-4e"/>
      <use transform="translate(902.206752 0)scale(0.996264)" xlink:href="#CenturySchL-Roma-2f"/>
      <use transform="translate(929.901921 0)scale(0.996264)" xlink:href="#CenturySchL-Roma-6d"/>
      <use transform="translate(1018.468828 0)scale(0.996264)" xlink:href="#CenturySchL-Roma-29"/>
     </g>
    </g>
   </g>
   <g id="line2d_29">
    <path clip-path="url(#p4a904c72d6)" d="M 107.759928 39.807396 
L 107.83757 253.759228 
L 107.915211 186.223721 
L 107.992852 208.732799 
L 108.070494 56.70536 
L 108.148135 196.603018 
L 108.303418 56.83051 
L 108.38106 75.037698 
L 108.536342 353.319054 
L 108.613984 310.819852 
L 108.691625 49.777317 
L 108.769267 100.985501 
L 108.846908 363.298437 
L 109.002191 83.117102 
L 109.157474 224.405295 
L 109.235115 62.943651 
L 109.312757 123.670963 
L 109.390398 234.940792 
L 109.46804 222.150812 
L 109.545681 224.554148 
L 109.623323 300.441969 
L 109.700964 133.748226 
L 109.778605 295.6226 
L 109.856247 44.746876 
L 110.01153 316.898234 
L 110.089171 312.15303 
L 110.244454 139.148768 
L 110.399737 234.853634 
L 110.55502 40.75206 
L 110.632661 221.551023 
L 110.710303 49.157225 
L 110.787944 194.964085 
L 110.865586 32.110813 
L 111.020868 217.25484 
L 111.09851 201.123159 
L 111.176151 35.810346 
L 111.253793 326.425921 
L 111.409076 152.28479 
L 111.564358 262.983907 
L 111.642 261.699502 
L 111.797283 46.308826 
L 111.874924 52.173759 
L 111.952566 41.834855 
L 112.030207 208.334739 
L 112.18549 47.469126 
L 112.263131 125.465858 
L 112.340773 115.734469 
L 112.418414 41.469676 
L 112.573697 278.494949 
L 112.72898 248.941689 
L 112.806621 37.010113 
L 112.884263 197.174039 
L 112.961904 152.344155 
L 113.039546 276.750789 
L 113.117187 81.061066 
L 113.194829 353.633605 
L 113.27247 83.549516 
L 113.350111 155.71517 
L 113.427753 29.42061 
L 113.505394 349.420609 
L 113.583036 298.532076 
L 113.738319 40.830231 
L 113.971243 346.380265 
L 114.048884 76.219681 
L 114.126526 361.904419 
L 114.35945 62.621313 
L 114.437092 134.619308 
L 114.514733 59.931872 
L 114.592374 117.066114 
L 114.670016 289.252264 
L 114.825299 130.723252 
L 114.90294 255.02699 
L 115.058223 95.968754 
L 115.135864 328.804437 
L 115.213506 81.582493 
L 115.291147 333.309957 
L 115.368789 273.385053 
L 115.44643 260.858211 
L 115.524072 57.941026 
L 115.601713 355.454474 
L 115.679355 346.388241 
L 115.756996 351.250275 
L 115.834637 345.812977 
L 115.912279 207.215046 
L 116.067562 362.452259 
L 116.222845 91.631535 
L 116.455769 355.629146 
L 116.53341 49.592255 
L 116.611052 52.423869 
L 116.688693 99.308053 
L 116.766335 306.652848 
L 116.843976 154.646045 
L 117.0769 307.17626 
L 117.154542 156.026832 
L 117.232183 281.687416 
L 117.309825 251.627945 
L 117.387466 238.069923 
L 117.465108 338.130337 
L 117.542749 114.95958 
L 117.62039 346.462846 
L 117.698032 328.058471 
L 117.853315 65.2216 
L 117.930956 300.63376 
L 118.008598 291.587914 
L 118.241522 115.489185 
L 118.319163 304.310422 
L 118.396805 252.231204 
L 118.552088 123.38676 
L 118.629729 211.383131 
L 118.707371 119.893282 
L 118.785012 224.601508 
L 118.862653 178.916495 
L 118.940295 63.21725 
L 119.017936 348.207672 
L 119.095578 31.81748 
L 119.173219 114.65165 
L 119.250861 311.813848 
L 119.328502 293.612948 
L 119.483785 138.622349 
L 119.639068 88.097521 
L 119.716709 236.602905 
L 119.794351 181.969001 
L 119.871992 73.400857 
L 119.949633 297.669791 
L 120.027275 136.97928 
L 120.104916 140.038774 
L 120.182558 141.065841 
L 120.415482 309.058931 
L 120.493124 143.666651 
L 120.570765 362.083276 
L 120.648406 36.845639 
L 120.726048 66.907844 
L 120.803689 104.399881 
L 120.958972 42.227328 
L 121.036614 176.241224 
L 121.114255 95.867521 
L 121.191896 160.851147 
L 121.269538 125.84 
L 121.347179 217.527892 
L 121.424821 56.026734 
L 121.502462 337.289806 
L 121.580104 55.747524 
L 121.657745 232.90853 
L 121.735386 32.169156 
L 121.813028 206.910611 
L 121.890669 149.651147 
L 121.968311 200.15957 
L 122.045952 38.598691 
L 122.201235 343.577418 
L 122.356518 28.072775 
L 122.511801 219.735492 
L 122.589442 211.983965 
L 122.667084 81.152408 
L 122.744725 338.691527 
L 122.822367 186.233564 
L 122.900008 235.407299 
L 122.977649 250.352242 
L 123.055291 229.559103 
L 123.132932 136.325356 
L 123.210574 284.927788 
L 123.365857 53.12779 
L 123.521139 335.161317 
L 123.598781 210.706479 
L 123.676422 358.110892 
L 123.831705 32.150849 
L 123.986988 339.754565 
L 124.06463 286.943408 
L 124.142271 67.545814 
L 124.297554 359.729165 
L 124.452837 29.255566 
L 124.530478 235.021388 
L 124.60812 99.786305 
L 124.685761 117.981178 
L 124.763402 54.745659 
L 124.841044 313.432382 
L 124.918685 100.894824 
L 124.996327 335.198988 
L 125.073968 192.420406 
L 125.229251 321.036542 
L 125.306892 342.998837 
L 125.462175 99.485222 
L 125.539817 230.626159 
L 125.617458 140.565907 
L 125.6951 278.434419 
L 125.850383 117.163566 
L 125.928024 254.476059 
L 126.005665 166.112559 
L 126.083307 333.659707 
L 126.160948 306.586172 
L 126.23859 120.458859 
L 126.393873 361.595455 
L 126.471514 195.866311 
L 126.549155 353.762369 
L 126.626797 202.723482 
L 126.704438 283.783346 
L 126.937363 52.667512 
L 127.092646 297.38207 
L 127.247928 158.473154 
L 146.503004 158.473154 
L 146.658287 228.527234 
L 165.913363 228.527234 
L 166.068646 158.465284 
L 282.375516 158.464262 
L 282.530799 206.93322 
L 301.785875 206.93322 
L 301.941158 158.464143 
L 321.196234 158.464143 
L 321.351516 324.438749 
L 340.606592 324.438749 
L 340.761875 158.465047 
L 437.658386 158.464381 
L 437.813669 207.701167 
L 457.068745 207.701167 
L 457.224028 171.620539 
L 476.479104 171.620539 
L 476.634387 158.47672 
L 547.986866 158.464286 
L 547.986866 158.464286 
" style="fill:none;stroke:#e41a1c;stroke-linecap:square;stroke-width:2;"/>
   </g>
   <g id="patch_3">
    <path d="M 85.748581 380.05972 
L 85.748581 13.852984 
" style="fill:none;stroke:#000000;stroke-linecap:square;stroke-linejoin:miter;stroke-width:0.8;"/>
   </g>
   <g id="patch_4">
    <path d="M 569.998213 380.05972 
L 569.998213 13.852984 
" style="fill:none;stroke:#000000;stroke-linecap:square;stroke-linejoin:miter;stroke-width:0.8;"/>
   </g>
   <g id="patch_5">
    <path d="M 85.748581 380.05972 
L 569.998213 380.05972 
" style="fill:none;stroke:#000000;stroke-linecap:square;stroke-linejoin:miter;stroke-width:0.8;"/>
   </g>
  </g>
  <g id="axes_2">
   <g id="matplotlib.axis_3">
    <g id="ytick_9">
     <g id="line2d_30">
      <path clip-path="url(#p4a904c72d6)" d="M 85.748581 367.43196 
L 569.998213 367.43196 
" style="fill:none;stroke:#bfbfbf;stroke-dasharray:0.8,2.4;stroke-dashoffset:0;stroke-linecap:round;stroke-linejoin:miter;stroke-width:0.8;"/>
     </g>
     <g id="line2d_31">
      <defs>
       <path d="M 0 0 
L 3.5 0 
" id="m929f957437" style="stroke:#000000;stroke-width:0.8;"/>
      </defs>
      <g>
       <use style="stroke:#000000;stroke-width:0.8;" x="569.998213" xlink:href="#m929f957437" y="367.43196"/>
      </g>
     </g>
     <g id="text_17">
      <!-- $\mathdefault{0.000}$ -->
      <g transform="translate(576.998213 374.084944)scale(0.18 -0.18)">
       <defs>
        <path d="M 1178 307 
C 1178 492 1024 619 870 619 
C 685 619 557 466 557 313 
C 557 128 710 0 864 0 
C 1050 0 1178 153 1178 307 
z
" id="CMMI12-3a" transform="scale(0.015625)"/>
       </defs>
       <use transform="scale(0.996264)" xlink:href="#CMR17-30"/>
       <use transform="translate(45.690477 0)scale(0.996264)" xlink:href="#CMMI12-3a"/>
       <use transform="translate(72.787654 0)scale(0.996264)" xlink:href="#CMR17-30"/>
       <use transform="translate(118.478131 0)scale(0.996264)" xlink:href="#CMR17-30"/>
       <use transform="translate(164.168608 0)scale(0.996264)" xlink:href="#CMR17-30"/>
      </g>
     </g>
    </g>
    <g id="ytick_10">
     <g id="line2d_32">
      <path clip-path="url(#p4a904c72d6)" d="M 85.748581 316.920678 
L 569.998213 316.920678 
" style="fill:none;stroke:#bfbfbf;stroke-dasharray:0.8,2.4;stroke-dashoffset:0;stroke-linecap:round;stroke-linejoin:miter;stroke-width:0.8;"/>
     </g>
     <g id="line2d_33">
      <g>
       <use style="stroke:#000000;stroke-width:0.8;" x="569.998213" xlink:href="#m929f957437" y="316.920678"/>
      </g>
     </g>
     <g id="text_18">
      <!-- $\mathdefault{0.002}$ -->
      <g transform="translate(576.998213 323.573662)scale(0.18 -0.18)">
       <defs>
        <path d="M 2669 989 
L 2554 989 
C 2490 536 2438 459 2413 420 
C 2381 369 1920 369 1830 369 
L 602 369 
C 832 619 1280 1072 1824 1597 
C 2214 1967 2669 2402 2669 3035 
C 2669 3790 2067 4224 1395 4224 
C 691 4224 262 3604 262 3030 
C 262 2780 448 2748 525 2748 
C 589 2748 781 2787 781 3010 
C 781 3207 614 3264 525 3264 
C 486 3264 448 3258 422 3245 
C 544 3790 915 4058 1306 4058 
C 1862 4058 2227 3617 2227 3035 
C 2227 2479 1901 2000 1536 1584 
L 262 146 
L 262 0 
L 2515 0 
L 2669 989 
z
" id="CMR17-32" transform="scale(0.015625)"/>
       </defs>
       <use transform="scale(0.996264)" xlink:href="#CMR17-30"/>
       <use transform="translate(45.690477 0)scale(0.996264)" xlink:href="#CMMI12-3a"/>
       <use transform="translate(72.787654 0)scale(0.996264)" xlink:href="#CMR17-30"/>
       <use transform="translate(118.478131 0)scale(0.996264)" xlink:href="#CMR17-30"/>
       <use transform="translate(164.168608 0)scale(0.996264)" xlink:href="#CMR17-32"/>
      </g>
     </g>
    </g>
    <g id="ytick_11">
     <g id="line2d_34">
      <path clip-path="url(#p4a904c72d6)" d="M 85.748581 266.409396 
L 569.998213 266.409396 
" style="fill:none;stroke:#bfbfbf;stroke-dasharray:0.8,2.4;stroke-dashoffset:0;stroke-linecap:round;stroke-linejoin:miter;stroke-width:0.8;"/>
     </g>
     <g id="line2d_35">
      <g>
       <use style="stroke:#000000;stroke-width:0.8;" x="569.998213" xlink:href="#m929f957437" y="266.409396"/>
      </g>
     </g>
     <g id="text_19">
      <!-- $\mathdefault{0.004}$ -->
      <g transform="translate(576.998213 273.06238)scale(0.18 -0.18)">
       <use transform="scale(0.996264)" xlink:href="#CMR17-30"/>
       <use transform="translate(45.690477 0)scale(0.996264)" xlink:href="#CMMI12-3a"/>
       <use transform="translate(72.787654 0)scale(0.996264)" xlink:href="#CMR17-30"/>
       <use transform="translate(118.478131 0)scale(0.996264)" xlink:href="#CMR17-30"/>
       <use transform="translate(164.168608 0)scale(0.996264)" xlink:href="#CMR17-34"/>
      </g>
     </g>
    </g>
    <g id="ytick_12">
     <g id="line2d_36">
      <path clip-path="url(#p4a904c72d6)" d="M 85.748581 215.898113 
L 569.998213 215.898113 
" style="fill:none;stroke:#bfbfbf;stroke-dasharray:0.8,2.4;stroke-dashoffset:0;stroke-linecap:round;stroke-linejoin:miter;stroke-width:0.8;"/>
     </g>
     <g id="line2d_37">
      <g>
       <use style="stroke:#000000;stroke-width:0.8;" x="569.998213" xlink:href="#m929f957437" y="215.898113"/>
      </g>
     </g>
     <g id="text_20">
      <!-- $\mathdefault{0.006}$ -->
      <g transform="translate(576.998213 222.551097)scale(0.18 -0.18)">
       <use transform="scale(0.996264)" xlink:href="#CMR17-30"/>
       <use transform="translate(45.690477 0)scale(0.996264)" xlink:href="#CMMI12-3a"/>
       <use transform="translate(72.787654 0)scale(0.996264)" xlink:href="#CMR17-30"/>
       <use transform="translate(118.478131 0)scale(0.996264)" xlink:href="#CMR17-30"/>
       <use transform="translate(164.168608 0)scale(0.996264)" xlink:href="#CMR17-36"/>
      </g>
     </g>
    </g>
    <g id="ytick_13">
     <g id="line2d_38">
      <path clip-path="url(#p4a904c72d6)" d="M 85.748581 165.386831 
L 569.998213 165.386831 
" style="fill:none;stroke:#bfbfbf;stroke-dasharray:0.8,2.4;stroke-dashoffset:0;stroke-linecap:round;stroke-linejoin:miter;stroke-width:0.8;"/>
     </g>
     <g id="line2d_39">
      <g>
       <use style="stroke:#000000;stroke-width:0.8;" x="569.998213" xlink:href="#m929f957437" y="165.386831"/>
      </g>
     </g>
     <g id="text_21">
      <!-- $\mathdefault{0.008}$ -->
      <g transform="translate(576.998213 172.039815)scale(0.18 -0.18)">
       <use transform="scale(0.996264)" xlink:href="#CMR17-30"/>
       <use transform="translate(45.690477 0)scale(0.996264)" xlink:href="#CMMI12-3a"/>
       <use transform="translate(72.787654 0)scale(0.996264)" xlink:href="#CMR17-30"/>
       <use transform="translate(118.478131 0)scale(0.996264)" xlink:href="#CMR17-30"/>
       <use transform="translate(164.168608 0)scale(0.996264)" xlink:href="#CMR17-38"/>
      </g>
     </g>
    </g>
    <g id="ytick_14">
     <g id="line2d_40">
      <path clip-path="url(#p4a904c72d6)" d="M 85.748581 114.875549 
L 569.998213 114.875549 
" style="fill:none;stroke:#bfbfbf;stroke-dasharray:0.8,2.4;stroke-dashoffset:0;stroke-linecap:round;stroke-linejoin:miter;stroke-width:0.8;"/>
     </g>
     <g id="line2d_41">
      <g>
       <use style="stroke:#000000;stroke-width:0.8;" x="569.998213" xlink:href="#m929f957437" y="114.875549"/>
      </g>
     </g>
     <g id="text_22">
      <!-- $\mathdefault{0.010}$ -->
      <g transform="translate(576.998213 121.528533)scale(0.18 -0.18)">
       <use transform="scale(0.996264)" xlink:href="#CMR17-30"/>
       <use transform="translate(45.690477 0)scale(0.996264)" xlink:href="#CMMI12-3a"/>
       <use transform="translate(72.787654 0)scale(0.996264)" xlink:href="#CMR17-30"/>
       <use transform="translate(118.478131 0)scale(0.996264)" xlink:href="#CMR17-31"/>
       <use transform="translate(164.168608 0)scale(0.996264)" xlink:href="#CMR17-30"/>
      </g>
     </g>
    </g>
    <g id="ytick_15">
     <g id="line2d_42">
      <path clip-path="url(#p4a904c72d6)" d="M 85.748581 64.364266 
L 569.998213 64.364266 
" style="fill:none;stroke:#bfbfbf;stroke-dasharray:0.8,2.4;stroke-dashoffset:0;stroke-linecap:round;stroke-linejoin:miter;stroke-width:0.8;"/>
     </g>
     <g id="line2d_43">
      <g>
       <use style="stroke:#000000;stroke-width:0.8;" x="569.998213" xlink:href="#m929f957437" y="64.364266"/>
      </g>
     </g>
     <g id="text_23">
      <!-- $\mathdefault{0.012}$ -->
      <g transform="translate(576.998213 71.01725)scale(0.18 -0.18)">
       <use transform="scale(0.996264)" xlink:href="#CMR17-30"/>
       <use transform="translate(45.690477 0)scale(0.996264)" xlink:href="#CMMI12-3a"/>
       <use transform="translate(72.787654 0)scale(0.996264)" xlink:href="#CMR17-30"/>
       <use transform="translate(118.478131 0)scale(0.996264)" xlink:href="#CMR17-31"/>
       <use transform="translate(164.168608 0)scale(0.996264)" xlink:href="#CMR17-32"/>
      </g>
     </g>
    </g>
    <g id="ytick_16">
     <g id="line2d_44">
      <path clip-path="url(#p4a904c72d6)" d="M 85.748581 13.852984 
L 569.998213 13.852984 
" style="fill:none;stroke:#bfbfbf;stroke-dasharray:0.8,2.4;stroke-dashoffset:0;stroke-linecap:round;stroke-linejoin:miter;stroke-width:0.8;"/>
     </g>
     <g id="line2d_45">
      <g>
       <use style="stroke:#000000;stroke-width:0.8;" x="569.998213" xlink:href="#m929f957437" y="13.852984"/>
      </g>
     </g>
     <g id="text_24">
      <!-- $\mathdefault{0.014}$ -->
      <g transform="translate(576.998213 20.505968)scale(0.18 -0.18)">
       <use transform="scale(0.996264)" xlink:href="#CMR17-30"/>
       <use transform="translate(45.690477 0)scale(0.996264)" xlink:href="#CMMI12-3a"/>
       <use transform="translate(72.787654 0)scale(0.996264)" xlink:href="#CMR17-30"/>
       <use transform="translate(118.478131 0)scale(0.996264)" xlink:href="#CMR17-31"/>
       <use transform="translate(164.168608 0)scale(0.996264)" xlink:href="#CMR17-34"/>
      </g>
     </g>
    </g>
    <g id="text_25">
     <!-- Damping Ratio $\zeta$ -->
     <g transform="translate(640.938226 281.620125)rotate(-90)scale(0.22 -0.22)">
      <defs>
       <path d="M 877 786 
L 877 600 
C 877 332 819 300 307 300 
L 186 300 
L 186 0 
L 2336 0 
C 2906 0 3341 89 3680 281 
C 4326 644 4685 1372 4685 2329 
C 4685 3204 4365 3900 3776 4282 
C 3424 4506 2950 4608 2221 4608 
L 186 4608 
L 186 4308 
L 307 4308 
C 819 4308 877 4276 877 4007 
L 877 3823 
L 877 786 
z
M 1958 300 
C 1638 300 1594 339 1594 652 
L 1594 3950 
C 1594 4263 1638 4308 1958 4308 
L 2291 4308 
C 3386 4308 3840 3715 3840 2304 
C 3840 874 3424 300 2394 300 
L 1958 300 
z
" id="CenturySchL-Roma-44" transform="scale(0.015625)"/>
       <path d="M 1574 2240 
L 1946 2240 
C 2195 2240 2451 2163 2592 2047 
C 2778 1900 2874 1669 2918 1246 
L 2950 918 
C 3027 193 3264 -102 3770 -102 
C 4294 -102 4544 251 4563 1019 
L 4294 1019 
C 4269 576 4192 384 4019 384 
C 3872 384 3808 493 3699 936 
L 3597 1340 
C 3456 1931 3206 2200 2707 2329 
C 3629 2457 4070 2825 4070 3468 
C 4070 4194 3456 4608 2381 4608 
L 166 4608 
L 166 4308 
L 282 4308 
C 800 4308 858 4276 858 4007 
L 858 3823 
L 858 779 
L 858 600 
C 858 332 800 300 282 300 
L 166 300 
L 166 0 
L 2266 0 
L 2266 300 
L 2150 300 
C 1632 300 1574 332 1574 601 
L 1574 780 
L 1574 2240 
z
M 1574 2540 
L 1574 3944 
C 1574 4200 1581 4219 1645 4270 
C 1696 4308 1741 4308 2016 4308 
L 2362 4308 
C 2995 4308 3283 4040 3283 3462 
C 3283 3137 3200 2889 3034 2756 
C 2874 2623 2586 2540 2278 2540 
L 1574 2540 
z
" id="CenturySchL-Roma-52" transform="scale(0.015625)"/>
       <path d="M 1210 339 
C 832 487 614 774 614 1254 
C 614 2131 1261 3302 2048 3756 
C 2163 3648 2310 3648 2432 3648 
C 2592 3648 2982 3648 2982 3820 
C 2982 3961 2694 3961 2490 3961 
C 2362 3961 2253 3961 2086 3897 
C 2048 3980 2029 4068 2029 4163 
C 2029 4277 2054 4365 2054 4384 
C 2054 4422 2022 4448 1990 4448 
C 1888 4448 1888 4212 1888 4161 
C 1888 4104 1888 3971 1965 3837 
C 1222 3455 288 2265 288 1076 
C 288 204 870 0 1203 -115 
C 1286 -140 1491 -210 1574 -242 
C 1837 -331 2086 -414 2086 -719 
C 2086 -904 1952 -1152 1715 -1152 
C 1587 -1152 1414 -1108 1254 -947 
C 1229 -922 1216 -909 1184 -909 
C 1133 -909 1120 -960 1120 -973 
C 1120 -1037 1395 -1280 1715 -1280 
C 2125 -1280 2406 -851 2406 -519 
C 2406 -71 2035 58 1798 134 
L 1210 339 
z
M 2189 3808 
C 2285 3840 2374 3840 2483 3840 
C 2688 3840 2707 3836 2835 3812 
C 2758 3789 2707 3775 2438 3775 
C 2304 3775 2259 3775 2189 3808 
z
" id="CMMI12-10" transform="scale(0.015625)"/>
      </defs>
      <use transform="scale(0.996264)" xlink:href="#CenturySchL-Roma-44"/>
      <use transform="translate(77.50837 0)scale(0.996264)" xlink:href="#CenturySchL-Roma-61"/>
      <use transform="translate(132.900047 0)scale(0.996264)" xlink:href="#CenturySchL-Roma-6d"/>
      <use transform="translate(221.466954 0)scale(0.996264)" xlink:href="#CenturySchL-Roma-70"/>
      <use transform="translate(278.652441 0)scale(0.996264)" xlink:href="#CenturySchL-Roma-69"/>
      <use transform="translate(310.033754 0)scale(0.996264)" xlink:href="#CenturySchL-Roma-6e"/>
      <use transform="translate(370.905385 0)scale(0.996264)" xlink:href="#CenturySchL-Roma-67"/>
      <use transform="translate(452.099898 0)scale(0.996264)" xlink:href="#CenturySchL-Roma-52"/>
      <use transform="translate(524.029883 0)scale(0.996264)" xlink:href="#CenturySchL-Roma-61"/>
      <use transform="translate(579.42156 0)scale(0.996264)" xlink:href="#CenturySchL-Roma-74"/>
      <use transform="translate(618.175266 0)scale(0.996264)" xlink:href="#CenturySchL-Roma-69"/>
      <use transform="translate(649.556579 0)scale(0.996264)" xlink:href="#CenturySchL-Roma-6f"/>
      <use transform="translate(727.064949 0)scale(0.996264)" xlink:href="#CMMI12-10"/>
     </g>
    </g>
   </g>
   <g id="line2d_46">
    <path clip-path="url(#p4a904c72d6)" d="M 107.759928 178.591794 
L 107.83757 249.336835 
L 107.915211 243.238025 
L 107.992852 249.208845 
L 108.148135 143.055349 
L 108.303418 340.32687 
L 108.38106 193.334392 
L 108.458701 195.098478 
L 108.691625 317.268295 
L 108.846908 126.047018 
L 109.002191 258.210118 
L 109.079833 250.689807 
L 109.157474 199.439729 
L 109.235115 209.606781 
L 109.312757 341.139711 
L 109.390398 165.998959 
L 109.545681 284.229919 
L 109.623323 242.904801 
L 109.700964 276.690614 
L 109.778605 213.338258 
L 109.933888 357.085279 
L 110.089171 129.815976 
L 110.166813 124.875641 
L 110.244454 243.899757 
L 110.322095 226.375666 
L 110.399737 191.424239 
L 110.477378 199.240387 
L 110.55502 211.855285 
L 110.710303 278.095115 
L 110.787944 238.492116 
L 110.865586 244.625643 
L 110.943227 238.827351 
L 111.020868 117.744241 
L 111.176151 342.385 
L 111.253793 264.940813 
L 111.331434 297.2104 
L 111.409076 360.119311 
L 111.486717 142.754278 
L 111.564358 164.493347 
L 111.642 223.195854 
L 111.719641 210.045756 
L 111.797283 219.315523 
L 111.874924 184.618042 
L 112.107849 228.818314 
L 112.263131 141.574081 
L 112.340773 119.006785 
L 112.496056 348.578201 
L 112.573697 324.592763 
L 112.651339 205.85444 
L 112.72898 295.490827 
L 112.806621 133.743796 
L 112.884263 162.482853 
L 112.961904 310.934649 
L 113.117187 125.272702 
L 113.194829 290.473008 
L 113.27247 177.811362 
L 113.427753 318.723895 
L 113.583036 161.850134 
L 113.660677 297.922614 
L 113.738319 261.56461 
L 113.893602 192.905472 
L 113.971243 321.536816 
L 114.126526 120.318607 
L 114.204167 298.220757 
L 114.281809 228.075916 
L 114.437092 324.527115 
L 114.592374 120.831556 
L 114.670016 320.634106 
L 114.747657 266.745755 
L 114.825299 139.43822 
L 114.90294 283.604879 
L 114.980582 214.566427 
L 115.135864 341.897084 
L 115.213506 307.917903 
L 115.291147 139.396093 
L 115.368789 326.823 
L 115.44643 160.603725 
L 115.524072 342.041218 
L 115.601713 184.614102 
L 115.679355 220.409715 
L 115.834637 156.632791 
L 115.912279 364.48972 
L 116.145203 116.433877 
L 116.222845 302.359297 
L 116.300486 212.547618 
L 116.378127 220.82571 
L 116.53341 288.021528 
L 116.766335 154.867505 
L 116.843976 355.177478 
L 116.921617 316.898648 
L 116.999259 261.415522 
L 117.154542 331.323328 
L 117.309825 237.523374 
L 117.465108 265.741061 
L 117.542749 156.390005 
L 117.62039 246.564821 
L 117.698032 183.910279 
L 117.930956 342.882545 
L 118.008598 139.062328 
L 118.086239 217.665362 
L 118.16388 192.183231 
L 118.241522 129.400569 
L 118.396805 247.849417 
L 118.474446 282.153066 
L 118.629729 141.15444 
L 118.785012 216.456281 
L 118.940295 135.626923 
L 119.095578 295.687388 
L 119.173219 131.033619 
L 119.250861 189.185355 
L 119.328502 321.612001 
L 119.406143 266.507145 
L 119.483785 242.374552 
L 119.561426 348.637745 
L 119.639068 187.926327 
L 119.716709 288.851107 
L 119.794351 177.65517 
L 119.871992 349.495216 
L 119.949633 259.002487 
L 120.027275 350.022905 
L 120.182558 124.951544 
L 120.337841 262.395954 
L 120.415482 192.433002 
L 120.493124 201.5327 
L 120.570765 153.240359 
L 120.648406 162.193237 
L 120.726048 280.468728 
L 120.803689 160.920414 
L 120.881331 337.674693 
L 121.036614 176.339433 
L 121.114255 163.739282 
L 121.269538 350.067781 
L 121.347179 161.13455 
L 121.424821 321.271556 
L 121.502462 314.822524 
L 121.580104 119.782207 
L 121.657745 351.244066 
L 121.735386 158.220398 
L 121.813028 225.77623 
L 121.890669 234.968754 
L 121.968311 115.900677 
L 122.045952 163.35951 
L 122.123594 238.236135 
L 122.201235 225.142476 
L 122.278877 220.040821 
L 122.356518 193.043317 
L 122.434159 351.812456 
L 122.511801 225.243899 
L 122.589442 318.984353 
L 122.667084 181.741205 
L 122.744725 240.213899 
L 122.822367 200.734192 
L 122.900008 299.856253 
L 123.055291 184.693698 
L 123.210574 307.550767 
L 123.288215 335.868307 
L 123.365857 305.000128 
L 123.443498 310.163385 
L 123.521139 343.341548 
L 123.598781 292.345321 
L 123.676422 322.864931 
L 123.831705 158.574438 
L 123.986988 276.045788 
L 124.142271 131.769996 
L 124.219912 275.832433 
L 124.297554 165.103791 
L 124.452837 283.912977 
L 124.60812 147.874315 
L 124.685761 158.734452 
L 124.763402 310.237312 
L 124.841044 236.821867 
L 124.918685 365.523532 
L 124.996327 180.347142 
L 125.073968 308.211 
L 125.229251 212.865107 
L 125.384534 298.697889 
L 125.462175 279.960383 
L 125.539817 361.365449 
L 125.617458 334.613701 
L 125.772741 142.089994 
L 125.928024 324.880923 
L 126.083307 154.296153 
L 126.160948 333.112143 
L 126.23859 154.792002 
L 126.316231 312.981994 
L 126.393873 253.401525 
L 126.471514 204.057142 
L 126.549155 324.866981 
L 126.626797 238.67972 
L 126.78208 355.247094 
L 126.859721 229.966393 
L 126.937363 294.291343 
L 127.015004 184.378303 
L 127.092646 251.18007 
L 127.247928 114.876848 
L 146.503004 114.876848 
L 146.658287 198.467 
L 165.913363 198.467 
L 166.068646 367.405684 
L 185.323722 367.405684 
L 185.479005 114.875978 
L 243.554798 114.879859 
L 243.710081 367.431328 
L 262.965157 367.431328 
L 263.12044 114.876824 
L 282.375516 114.876824 
L 282.530799 196.886826 
L 301.785875 196.886826 
L 301.941158 367.420836 
L 321.196234 367.420836 
L 321.351516 160.864575 
L 340.606592 160.864575 
L 340.761875 367.431923 
L 379.42731 367.427549 
L 379.582593 114.877365 
L 437.658386 114.877483 
L 437.813669 367.351266 
L 457.068745 367.351266 
L 457.224028 243.628194 
L 476.479104 243.628194 
L 476.634387 114.878518 
L 515.299822 114.893524 
L 515.455105 367.427128 
L 547.986866 367.431283 
L 547.986866 367.431283 
" style="fill:none;stroke:#377eb8;stroke-dasharray:12,12;stroke-dashoffset:0;stroke-linecap:round;stroke-linejoin:miter;stroke-width:2;"/>
   </g>
   <g id="patch_6">
    <path d="M 85.748581 380.05972 
L 85.748581 13.852984 
" style="fill:none;stroke:#000000;stroke-linecap:square;stroke-linejoin:miter;stroke-width:0.8;"/>
   </g>
   <g id="patch_7">
    <path d="M 85.748581 380.05972 
L 569.998213 380.05972 
" style="fill:none;stroke:#000000;stroke-linecap:square;stroke-linejoin:miter;stroke-width:0.8;"/>
   </g>
   <g id="legend_1">
    <g id="patch_8">
     <path d="M 370.172792 72.479241 
L 564.598213 72.479241 
Q 568.198213 72.479241 568.198213 68.879241 
L 568.198213 19.252984 
Q 568.198213 15.652984 564.598213 15.652984 
L 370.172792 15.652984 
Q 366.572792 15.652984 366.572792 19.252984 
L 366.572792 68.879241 
Q 366.572792 72.479241 370.172792 72.479241 
z
" style="fill:#ffffff;stroke:#cccccc;stroke-linejoin:miter;"/>
    </g>
    <g id="line2d_47">
     <path d="M 373.772792 29.858952 
L 409.772792 29.858952 
" style="fill:none;stroke:#e41a1c;stroke-linecap:square;stroke-width:2;"/>
    </g>
    <g id="line2d_48"/>
    <g id="text_26">
     <!-- Spring Constant -->
     <g transform="translate(424.172792 36.158952)scale(0.18 -0.18)">
      <use transform="scale(0.996264)" xlink:href="#CenturySchL-Roma-53"/>
      <use transform="translate(62.763979 0)scale(0.996264)" xlink:href="#CenturySchL-Roma-70"/>
      <use transform="translate(119.949466 0)scale(0.996264)" xlink:href="#CenturySchL-Roma-72"/>
      <use transform="translate(164.183035 0)scale(0.996264)" xlink:href="#CenturySchL-Roma-69"/>
      <use transform="translate(195.564348 0)scale(0.996264)" xlink:href="#CenturySchL-Roma-6e"/>
      <use transform="translate(256.435979 0)scale(0.996264)" xlink:href="#CenturySchL-Roma-67"/>
      <use transform="translate(337.630492 0)scale(0.996264)" xlink:href="#CenturySchL-Roma-43"/>
      <use transform="translate(409.560477 0)scale(0.996264)" xlink:href="#CenturySchL-Roma-6f"/>
      <use transform="translate(459.373677 0)scale(0.996264)" xlink:href="#CenturySchL-Roma-6e"/>
      <use transform="translate(520.245308 0)scale(0.996264)" xlink:href="#CenturySchL-Roma-73"/>
      <use transform="translate(566.371119 0)scale(0.996264)" xlink:href="#CenturySchL-Roma-74"/>
      <use transform="translate(605.124825 0)scale(0.996264)" xlink:href="#CenturySchL-Roma-61"/>
      <use transform="translate(660.516502 0)scale(0.996264)" xlink:href="#CenturySchL-Roma-6e"/>
      <use transform="translate(721.388133 0)scale(0.996264)" xlink:href="#CenturySchL-Roma-74"/>
     </g>
    </g>
    <g id="line2d_49">
     <path d="M 373.772792 55.572081 
L 409.772792 55.572081 
" style="fill:none;stroke:#377eb8;stroke-dasharray:12,12;stroke-dashoffset:0;stroke-linecap:round;stroke-linejoin:miter;stroke-width:2;"/>
    </g>
    <g id="line2d_50"/>
    <g id="text_27">
     <!-- Damping Ratio -->
     <g transform="translate(424.172792 61.872081)scale(0.18 -0.18)">
      <use transform="scale(0.996264)" xlink:href="#CenturySchL-Roma-44"/>
      <use transform="translate(77.50837 0)scale(0.996264)" xlink:href="#CenturySchL-Roma-61"/>
      <use transform="translate(132.900047 0)scale(0.996264)" xlink:href="#CenturySchL-Roma-6d"/>
      <use transform="translate(221.466954 0)scale(0.996264)" xlink:href="#CenturySchL-Roma-70"/>
      <use transform="translate(278.652441 0)scale(0.996264)" xlink:href="#CenturySchL-Roma-69"/>
      <use transform="translate(310.033754 0)scale(0.996264)" xlink:href="#CenturySchL-Roma-6e"/>
      <use transform="translate(370.905385 0)scale(0.996264)" xlink:href="#CenturySchL-Roma-67"/>
      <use transform="translate(452.099898 0)scale(0.996264)" xlink:href="#CenturySchL-Roma-52"/>
      <use transform="translate(524.029883 0)scale(0.996264)" xlink:href="#CenturySchL-Roma-61"/>
      <use transform="translate(579.42156 0)scale(0.996264)" xlink:href="#CenturySchL-Roma-74"/>
      <use transform="translate(618.175266 0)scale(0.996264)" xlink:href="#CenturySchL-Roma-69"/>
      <use transform="translate(649.556579 0)scale(0.996264)" xlink:href="#CenturySchL-Roma-6f"/>
     </g>
    </g>
   </g>
  </g>
 </g>
 <defs>
  <clipPath id="p4a904c72d6">
   <rect height="366.206736" width="484.249632" x="85.748581" y="13.852984"/>
  </clipPath>
 </defs>
</svg>
